<?xml version="1.0" encoding="utf-8"?>
<!-- Generator: Adobe Illustrator 19.2.1, SVG Export Plug-In . SVG Version: 6.00 Build 0)  -->
<svg version="1.1" id="Layer_1" xmlns="http://www.w3.org/2000/svg" xmlns:xlink="http://www.w3.org/1999/xlink" x="0px" y="0px"
	 viewBox="0 0 512 512" style="enable-background:new 0 0 512 512;" xml:space="preserve">
<style type="text/css">
	.st0{fill:#999999;}
</style>
<g>
	<path class="st0" d="M201.3,211.4c20.8,0,37.9,17,37.9,37.9v218.8c0,21.2-16.3,37.9-37.9,37.9H89.9c-21.5,0-37.9-16.7-37.9-37.9
		V249.3c0-20.8,17-37.9,37.9-37.9H201.3z M201.3,468.1V249.3H89.9v218.8H201.3z"/>
	<path class="st0" d="M422.1,262.7v-76.5c0-11,5-19,19-19c14,0,19,8,19,19v95.4c0,13.7-9,19-19,19H291.8c-9.8,0-19-5.3-19-19
		c0-13.7,9-19,19-19h55.7V43.9h-55.7c-9.8,0-19-5.3-19-19c0-13.6,9.1-18.9,19-18.9h93.5v256.7H422.1z"/>
</g>
</svg>
