<?xml version="1.0" encoding="utf-8"?>
<!-- Generator: Adobe Illustrator 19.2.1, SVG Export Plug-In . SVG Version: 6.00 Build 0)  -->
<svg version="1.1" id="Layer_1" xmlns="http://www.w3.org/2000/svg" xmlns:xlink="http://www.w3.org/1999/xlink" x="0px" y="0px"
	 viewBox="0 0 512 512" style="enable-background:new 0 0 512 512;" xml:space="preserve">
<style type="text/css">
	.st0{fill:#999999;}
</style>
<g>
	<path class="st0" d="M191,6.1c9.6-0.8,22.4,5.6,35.4,11.4c78.4,35.2,157,70.3,235.4,105.8c7.3,3.3,14.6,7.2,20.7,12.2
		c23.7,19.6,29.9,50.5,16.7,79.9c-26,58.2-52.2,116.3-78.3,174.5c-11,24.5-21.9,49-33,73.3c-18.1,39.3-53.2,52.8-92.9,35.1
		c-71.6-32-143.1-64.2-214.6-96.4c-11.1-5-22.2-9.9-33.2-15c-36.7-17.2-50.6-52.6-34.3-89.7c30.3-68.4,61.2-136.6,91.8-205
		c7.3-16.2,14.1-32.5,21.9-48.4C138.4,19.2,158.5,6.9,191,6.1z M467.7,197.9c-1.3-25.1-12.4-41.7-37.7-53.1
		c-68.7-31-137.8-61.1-206.1-92.8c-33-15.4-66-0.3-79.2,29.8C114,151.6,82.2,221,51.1,290.8c-13.6,30.5-2.3,60.9,28.2,74.8
		c70.4,32.1,141,63.8,211.8,95c31.2,13.8,60.5,2.6,74.6-28.2c32-69.9,63.3-140.2,94.6-210.4C463.7,214.5,465.3,206,467.7,197.9z"/>
	<path class="st0" d="M314.1,461.5c-7.2-2.1-14.7-3.2-21.6-6.2c-68.9-30.7-137.6-61.6-206.3-92.5c-0.9-0.4-1.9-0.8-2.8-1.2
		c-29.4-13.9-39.4-39.3-26.8-69c10.2-23.8,21-47.1,31.5-70.6c20.3-45.2,41.6-90,60.7-135.7c14.3-34.1,46.1-41.1,74.9-27.9
		C292.3,89.4,361.2,120,430,151c27,12.1,37.9,40,25.8,67.2c-31.4,70.7-63.3,141.2-95.1,211.8C352,449.9,336.9,460.8,314.1,461.5z
		 M341,425.4c1.2,0,2.4-0.1,3.6-0.1c23.2-51.1,46.4-102.2,69.6-153.3c-1-0.6-2.2-1.2-3.2-1.9c-29.6,36.2-59.1,72.5-89.3,109.4
		C328.2,395.3,334.7,410.3,341,425.4z M425,171c-0.1-1.2-0.2-2.6-0.3-3.8c-50.7-23-101.5-46.3-152.6-68.6c-0.5,0.9-1,2-1.6,2.9
		c36.7,29.7,73.4,59.3,109.9,88.7C396.5,183.3,410.7,177.1,425,171z M90,339.6c-0.1,1.5-0.2,2.8-0.3,4.3
		c50.1,23.2,100.3,46.6,150.4,69.8c0.5-0.8,1.1-1.8,1.7-2.6c-36-29.8-71.9-59.6-108.5-89.9C118.5,327.4,104.3,333.5,90,339.6z
		 M170.2,84.6c-24.3,52.3-46.8,101-69.3,149.7c1,0.6,2.1,1.3,3.2,2c28.7-34.6,57.5-69.4,86.5-104.3
		C183.8,116.5,177.8,102.2,170.2,84.6z M170.4,192.8c-0.8-0.4-1.8-0.9-2.6-1.3c-29.8,36-59.4,72-89.2,108c0.7,1,1.6,2,2.3,3
		c19.5-5.9,39-11.8,58.4-17.6C150,253.3,160.3,223.1,170.4,192.8z M242,191.4c-22.6,27.2-44.5,53.6-68.7,82.6
		c8.9-1.8,13.8-2.7,18.3-3.6c27.1,22,53.6,43.6,80.9,65.8c-0.4-6.2-0.8-11.6-1.1-16.4c21.4-26.6,42.2-52.4,64.2-79.8
		c-7.1,0.4-11.8,0.6-15.9,0.8c-26.9-21.8-52.9-43.1-81-65.9C240.2,182,241,186.3,242,191.4z M285.3,373.2
		c-30.8-10.6-60.3-20.6-89.7-30.7c33.7,31,67.7,61,103.7,88.6c0.8-0.7,1.8-1.5,2.6-2.2C296.4,410.7,291,392.3,285.3,373.2z
		 M314,167.7c0.6-1,1.1-2.1,1.8-3.1c-34.2-27.8-68.4-55.5-102.6-83.3c-0.9,0.6-1.9,1.3-2.9,2c5.6,18.6,11.3,37.1,16.9,55.7
		C256.9,148.7,285.5,158.2,314,167.7z M430.5,213.4c-0.8-1.1-1.6-2.2-2.4-3.3c-18.5,5.7-36.9,11.4-54.4,16.8
		c-10.1,30.4-19.4,58.5-28.7,86.7c0.9,0.4,1.9,0.8,2.8,1.2C375.3,281.1,402.9,247.3,430.5,213.4z M335.4,277.9c-1-0.5-2.1-1-3-1.6
		c-12,14.5-24.2,29-36.3,43.7c4.4,10.1,8.3,19.1,12.2,28.1c1,0,2.2,0,3.2,0C319.5,324.7,327.4,301.3,335.4,277.9z M347.8,203.8
		c0-1,0-2.1,0-3.2c-22.4-7.5-44.9-15-67.3-22.5c-0.5,1.1-1,2.3-1.7,3.3c13.9,11.2,27.7,22.5,41.8,33.9
		C330.7,211.2,339.3,207.4,347.8,203.8z M166.9,307.6c0.1,1.1,0.2,2.2,0.3,3.3c22.4,7.7,44.8,15.5,67.2,23.1
		c0.4-0.7,0.7-1.3,1.1-2.1c-14-11.9-28.1-23.8-42.5-36c-6.1,2.4-11.7,4.5-17.2,6.8C172.6,304.1,169.8,306,166.9,307.6z M204.5,165.4
		c-9.8,16-22.3,53.6-21.6,65.1c11.3-13.4,21.9-26,32.9-39.2C211.9,182.6,208.4,174.6,204.5,165.4z"/>
	<path class="st0" d="M251.7,194.2c20.7,16.2,40.5,31.5,59.6,46.5c4.1,9,2.7,16.1-3.1,23.1c-10.9,13.2-20.6,27.4-31.8,40.3
		c-11.1,12.9-15.9,13.1-29.3,3c-13.7-10.4-27.4-20.6-40.3-31.8c-11.2-9.9-11.6-15.2-2.8-27.4c11.3-15.5,23.3-30.4,35.4-45.2
		C241.8,199.8,245.8,198.2,251.7,194.2z M254.4,225.7c-31.1,23-32.3,34.1-7.6,53.1c8.9,6.8,15.7,6.4,22.5-1.2
		c15.7-17.5,18.1-24.9,9.1-33.4C271.2,237.2,262.6,231.9,254.4,225.7z"/>
</g>
</svg>
