<?xml version="1.0" encoding="utf-8"?>
<!-- Generator: Adobe Illustrator 19.2.1, SVG Export Plug-In . SVG Version: 6.00 Build 0)  -->
<svg version="1.1" id="Layer_1" xmlns="http://www.w3.org/2000/svg" xmlns:xlink="http://www.w3.org/1999/xlink" x="0px" y="0px"
	 viewBox="0 0 512 512" style="enable-background:new 0 0 512 512;" xml:space="preserve">
<style type="text/css">
	.st0{fill:#999999;}
</style>
<g>
	<path class="st0" d="M11.7,17.3c-8.1,2-8.8,3-8.8,12.3c0,112,0,224.2,0,336c0,42.5,0,85,0.1,127.4c0,4.2,2.7,12.4,9.2,12.4
		c31.2,0,83.5,0.5,109.4,0.5c10.3,0,9.5-9.6,9.5-13.8c0.1-154.1,0.1-308,0.1-462c0-0.3,0-0.7,0-0.9c-0.4-10-1.9-11.6-11.8-11.8
		c-35.7-0.1-71.6,0-107.4,0 M104.5,116.9H28.6V70.8h75.9V116.9z M104.5,376.8H28.6v-46.1h75.9V376.8z M103.7,450.4H29.3v-46.1h74.4
		V450.4z"/>
	<path class="st0" d="M179.7,17.3c-8.1,2-8.8,3-8.8,12.3c0,112,0,224.2,0,336c0,42.5,0,85,0.1,127.4c0,4.2,2.7,12.4,9.2,12.4
		c31.2,0,83.5,0.5,109.4,0.5c10.3,0,9.5-9.6,9.5-13.8c0.1-154.1,0.1-308,0.1-462c0-0.3,0-0.7,0-0.9c-0.4-10-1.9-11.6-11.8-11.8
		c-35.7-0.1-71.6,0-107.4,0 M272.5,116.9h-75.9V70.8h75.9V116.9z M272.5,376.8h-75.9v-46.1h75.9V376.8z M271.7,450.4h-74.4v-46.1
		h74.4V450.4z"/>
	<path class="st0" d="M306.7,25.5c-7.6,3.4-8.1,4.6-6.5,13.7c19.8,110.2,39.6,220.6,59.4,330.7c7.6,41.9,15,83.6,22.7,125.4
		c0.7,4.1,4.9,11.8,11.2,10.6c30.8-5.5,82.2-14.2,107.8-18.8c10-1.8,7.7-11.2,6.9-15.3c-27.1-151.6-54.4-303.2-81.6-454.7
		c0-0.3-0.1-0.7-0.1-0.9c-2.2-9.7-3.9-11.2-13.7-9.6c-35.2,6.2-70.3,12.6-105.8,18.9 M415.8,107.2l-74.7,13.4L333,75.1l74.7-13.4
		L415.8,107.2z M461.8,363l-74.7,13.4L379,331l74.7-13.4L461.8,363z M473.9,435.5l-73.3,13.1l-8.1-45.5l73.3-13.1L473.9,435.5z"/>
</g>
</svg>
