<?xml version="1.0" encoding="utf-8"?>
<!-- Generator: Adobe Illustrator 19.2.1, SVG Export Plug-In . SVG Version: 6.00 Build 0)  -->
<svg version="1.1" id="Layer_1" xmlns="http://www.w3.org/2000/svg" xmlns:xlink="http://www.w3.org/1999/xlink" x="0px" y="0px"
	 viewBox="0 0 512 512" style="enable-background:new 0 0 512 512;" xml:space="preserve">
<style type="text/css">
	.st0{fill:#999999;}
</style>
<g>
	<g>
		<path class="st0" d="M278.2,176.7h25.5c7,0,12.1,1.3,15.3,3.9c3.2,2.6,4.7,6.9,4.7,12.9c0,5.9-1.5,10.1-4.6,12.8
			c-3,2.6-8.2,3.9-15.4,3.9h-93c-7.2,0-12.4-1.3-15.4-3.9c-3-2.6-4.6-6.9-4.6-12.8c0-6,1.5-10.3,4.6-12.9c3.1-2.6,8.2-3.9,15.4-3.9
			H240v-133l-17.6,4.6c-2.7,0.6-5,1.1-6.8,1.4c-1.8,0.3-3.1,0.5-3.9,0.5c-4.3,0-7.6-1.4-10-4.1c-2.4-2.7-3.5-6.6-3.5-11.7
			c0-3.7,1.3-6.8,3.9-9.3c2.6-2.5,6.7-4.5,12.1-5.8l39.1-10.7c3.3-0.8,5.9-1.5,8-1.9c2.1-0.4,3.8-0.6,5.2-0.6c4.2,0,7.2,1.2,9,3.5
			c1.8,2.3,2.7,6.2,2.7,11.7V176.7z"/>
	</g>
	<g>
		<path class="st0" d="M62.6,467.8h55.2v-0.9c0-5.4,1.4-9.3,4.3-12c2.9-2.6,7.2-3.9,12.8-3.9c4.6,0,8.2,1.3,10.7,3.9
			c2.5,2.6,3.8,6.2,3.8,11v2l-1.3,24.4c-0.2,4.8-1,7.9-2.3,9.1c-1.3,1.3-3.7,1.9-7,1.9H25.4c-6.1,0-10.8-1.3-14.1-3.9
			c-3.3-2.6-5-6.4-5-11.2c0-4,1-7.9,3.1-11.7c2-3.8,5.3-7.9,9.8-12.2l64.1-61.9c6.9-6.7,12.1-13.4,15.5-20.2
			c3.4-6.7,5.1-13.4,5.1-20.2c0-9.5-2.3-16.5-6.9-21.1c-4.6-4.6-11.5-6.9-20.9-6.9c-5.5,0-10.3,0.8-14.6,2.4
			c-4.3,1.6-7.5,3.9-9.8,6.9c-1.3,1.5-2.8,3.7-4.6,6.8c-5,8.2-10.6,12.3-16.7,12.3c-5.3,0-9.2-1.7-11.9-5.2c-2.7-3.5-4-8.6-4-15.4
			c0-7,0.8-12.3,2.5-15.8c1.7-3.5,5-6.9,10.1-10.4c8.2-5.5,16.8-9.5,25.9-12.1c9.1-2.6,18.9-3.9,29.5-3.9c19.9,0,35.6,5.4,47.3,16.1
			c11.7,10.7,17.5,25.1,17.5,43.2c0,12.1-3,23.7-9.1,34.7c-6,11.1-15.4,22.1-28.1,33.2L62.6,467.8z"/>
	</g>
	<g>
		<path class="st0" d="M469.9,392.4c12.1,3.8,21.1,9.7,26.9,17.9c5.9,8.1,8.8,18.7,8.8,31.8c0,19.6-6.6,35.2-19.9,46.7
			c-13.3,11.5-31.4,17.3-54.3,17.3c-18.5,0-33.8-3-45.9-9.1c-12.1-6.1-18.1-13.5-18.1-22.2c0-5.1,1.7-9.3,5-12.5
			c3.3-3.2,7.7-4.8,13.2-4.8c2.6,0,9.3,2.4,20,7.1c10.7,4.7,20.2,7.1,28.4,7.1c9.9,0,17.5-2.7,22.8-8c5.3-5.3,8-12.9,8-22.8
			c0-10.6-2.2-18.2-6.7-22.7c-4.5-4.5-13-7-25.6-7.6c-6.6-0.2-11.1-1.5-13.3-3.9c-2.3-2.4-3.4-6.6-3.4-12.7
			c0-8.4,4.5-13.2,13.6-14.5c1.3-0.1,2.2-0.2,2.8-0.3c11.3-1.6,18.7-4.3,22.1-8.1c3.4-3.8,5-10.1,5-18.7c0-7.5-2-13.3-6.1-17.4
			c-4-4.1-9.7-6.2-17.1-6.2c-7.8,0-16.5,2.4-26.2,7.3c-9.7,4.9-16.3,7.3-20,7.3c-4.1,0-7.4-1.3-9.8-4c-2.5-2.7-3.7-6.1-3.7-10.2
			c0-8.9,6.2-16.6,18.6-23c12.4-6.4,27.7-9.6,45.9-9.6c18.3,0,32.9,4.7,43.7,14.2c10.9,9.5,16.3,22,16.3,37.7
			c0,10.3-2.5,19-7.5,26.1C488.3,381.6,480.5,387.6,469.9,392.4z"/>
	</g>
</g>
</svg>
