<?xml version="1.0" encoding="utf-8"?>
<!-- Generator: Adobe Illustrator 19.2.1, SVG Export Plug-In . SVG Version: 6.00 Build 0)  -->
<svg version="1.1" id="Layer_1" xmlns="http://www.w3.org/2000/svg" xmlns:xlink="http://www.w3.org/1999/xlink" x="0px" y="0px"
	 viewBox="0 0 512 512" style="enable-background:new 0 0 512 512;" xml:space="preserve">
<style type="text/css">
	.st0{fill:#999999;}
</style>
<g>
	<path vector-effect="non-scaling-stroke" class="st0" d="M214.7,505.7c-11.9-0.7-24-2.1-35.9-4.4c-9.9-1.5-15.7-8.2-15.7-17.2
		c-0.7-27.7,2.3-44.2,27.7-53.9c4.4-1.5,8.2-2.9,12.7-5.2l13.7-6.1c9-4.4,11.2-18.7,5.2-26.1c-0.7-1.5-3-1.5-5.2-2.3
		c-11.2-3.7-22.4-6.8-33.6-10.5c-5.9-2.3-11.2-7.5-13.4-15c17.2-2.3,21.7-15,24.7-28.4c2.3-11.2,3.7-23.2,6.8-34.3
		c5.9-23.2,18.7-41.1,44.2-46.4c31.5-6.8,62.8,15,66.6,47.1c1.5,10.5,2.3,20.9,3.7,31.5c2.9,15.2,9.7,27.2,26.8,33.1
		c-4.4,4.4-7.5,9.7-11.9,11.9c-10.5,4.4-20.9,9-31.5,11.2c-7.5,1.5-10.5,4.4-11.9,11.2c-1.5,6.8,1.5,14.2,7.5,17.2
		c4.4,2.3,9,4.4,13.4,5.9c4.4,2.3,8.2,3.7,12.7,5.2c25.4,9.7,28.4,26.1,27.7,53.9c0,9-5.9,15.7-15.7,17.2c-11.9,2.3-24,3.7-35.9,4.4
		c-15,0.7-30.6,0-47.1,0H214.7z"/>
	<g>
		<path class="st0" d="M409.3,428.5h-19.4c-9.3,0-16.8-7.5-16.8-16.8c0-9.3,7.5-16.8,16.8-16.8h19.3V211.8H102.8v183.1h19.3
			c9.3,0,16.8,7.5,16.8,16.8c0,9.3-7.5,16.8-16.8,16.8h-19.3c-18.5,0-33.5-15-33.5-33.5V211.8c0-18.5,15-33.5,33.5-33.5h306.3
			c18.5,0,33.5,15,33.5,33.5v183.1C442.8,413.4,427.7,428.5,409.3,428.5z"/>
		<path class="st0" d="M358.4,211.8c-9.3,0-16.8-7.5-16.8-16.8v-69.8c0-47.2-38.4-85.6-85.6-85.6c-47.2,0-85.6,38.4-85.6,85.6v69.9
			c0,9.3-7.5,16.8-16.8,16.8s-16.8-7.5-16.8-16.8v-69.9C136.9,59.4,190.3,6,256,6s119.1,53.4,119.1,119.1v69.9
			C375.2,204.3,367.7,211.8,358.4,211.8z"/>
	</g>
</g>
</svg>
