<?xml version="1.0" encoding="utf-8"?>
<!-- Generator: Adobe Illustrator 19.2.1, SVG Export Plug-In . SVG Version: 6.00 Build 0)  -->
<svg version="1.1" id="Layer_1" xmlns="http://www.w3.org/2000/svg" xmlns:xlink="http://www.w3.org/1999/xlink" x="0px" y="0px"
	 viewBox="0 0 512 512" style="enable-background:new 0 0 512 512;" xml:space="preserve">
<style type="text/css">
	.st0{fill:#999999;}
</style>
<g>
	<path class="st0" d="M506,170.2c-7.9,17.1-20.9,23.6-40,23.1c-37.5-1.1-75-0.3-112.4-0.3c-23.4,0-34.4-11-34.5-34.5
		c-0.1-37.5,0.8-75-0.3-112.4c-0.6-19.1,6-32.1,23.1-40c46.6,0,93.1,0,139.7,0c11.8,4.5,20,12.7,24.5,24.5
		C506,77.1,506,123.6,506,170.2z M381.4,130.2c21.2,0,41.4,0,62.6,0c0-19,0.2-37.2-0.3-55.5c-0.1-2.3-3.9-6.4-6.2-6.5
		C419,67.8,400.4,68,381.4,68C381.4,89.5,381.4,109.4,381.4,130.2z"/>
	<path class="st0" d="M6,341.8c7.9-17.1,20.9-23.6,40-23.1c37.5,1.1,75,0.3,112.4,0.3c23.4,0,34.4,11,34.5,34.5
		c0.1,37.5-0.8,75,0.3,112.4c0.6,19.1-6,32.1-23.1,40c-46.6,0-93.1,0-139.7,0c-11.8-4.5-20-12.7-24.5-24.5C6,434.9,6,388.4,6,341.8z
		 M130.1,443.4c0-21.6,0-41.8,0-61.5c-21.1,0-41.2,0-61,0c0,21.1,0,41.2,0,61.5C90,443.4,109.8,443.4,130.1,443.4z"/>
	<path class="st0" d="M6,155.5c11.3-30.3,37.7-24,60.2-24.5c4.5-14.5,7.1-29.1,13.4-41.9c16.1-33,44-49.5,80.3-51.2
		c21.6-1,43.3-0.4,64.9-0.1c18,0.3,31.4,13.9,31.3,30.9c-0.1,17.1-13.5,30.4-31.6,30.6c-20,0.3-40-0.2-60,0.2
		c-19.6,0.4-31.3,11.7-32.8,31.6c9.4,0,18.7-0.1,27.9,0c13.8,0.1,24.8,5.5,30.6,18.4c5.9,13.3,3,25.6-7.2,36
		c-20.1,20.3-40.1,40.7-60.6,60.6c-13.7,13.3-30.2,14-43.7,1.1c-21.6-20.5-42.4-41.9-63.2-63.1c-3.8-3.9-6.3-9.1-9.5-13.8
		C6,165.3,6,160.4,6,155.5z"/>
	<path class="st0" d="M506,356.5c-11.2,21.6-11.2,21.6-60.3,25c-4.4,14-7,28.6-13.2,41.5c-16.1,33-44,49.5-80.3,51.2
		c-21.6,1-43.3,0.4-64.9,0.1c-17.9-0.3-31.4-13.9-31.3-30.9c0.1-17.1,13.5-30.4,31.6-30.6c20-0.3,40,0.2,60-0.2
		c19.6-0.4,31.3-11.7,32.8-31.6c-9.4,0-18.7,0.1-28,0c-13.8-0.1-24.8-5.5-30.6-18.4c-5.9-13.3-3-25.6,7.2-36
		c20.1-20.3,40.1-40.7,60.6-60.6c13.7-13.3,30.2-14,43.7-1.1c21.6,20.5,42.4,41.9,63.2,63.1c3.8,3.9,6.3,9.1,9.5,13.8
		C506,346.7,506,351.6,506,356.5z"/>
</g>
</svg>
