<?xml version="1.0" encoding="utf-8"?>
<!-- Generator: Adobe Illustrator 20.1.0, SVG Export Plug-In . SVG Version: 6.00 Build 0)  -->
<svg version="1.1" id="Layer_1" xmlns="http://www.w3.org/2000/svg" xmlns:xlink="http://www.w3.org/1999/xlink" x="0px" y="0px"
	 viewBox="0 0 799 303.6" style="enable-background:new 0 0 799 303.6;" xml:space="preserve">
<style type="text/css">
	.st0{fill:#999999;}
</style>
<g>
	<path class="st0" d="M0,111.9V7.5h28.5c5.5,0,10.5,0.7,15,2.2c4.6,1.4,8.5,3.6,11.8,6.4c3.3,2.8,5.9,6.3,7.7,10.4
		c1.8,4.1,2.7,8.8,2.7,14c0,4.1-0.6,8.2-1.9,12.3c-1.2,4.1-3.3,7.7-6,10.9c-2.8,3.2-6.4,5.8-10.9,7.8c-4.5,2-10,3-16.4,3H15.8v37.3
		H0z M15.8,59.8h14.3c3.8,0,7.1-0.7,9.6-2c2.6-1.3,4.6-3,6.1-4.9c1.5-1.9,2.5-4,3.2-6.2c0.6-2.2,0.9-4.2,0.9-5.9
		c0-1.8-0.3-3.8-0.9-6c-0.6-2.2-1.7-4.2-3.2-6c-1.5-1.9-3.6-3.4-6.1-4.7c-2.5-1.2-5.7-1.9-9.4-1.9H15.8V59.8z"/>
	<path class="st0" d="M76.5,28.7c0-2.3,0.8-4.2,2.5-5.8c1.7-1.5,3.5-2.3,5.4-2.3c1.9,0,3.7,0.8,5.3,2.3c1.6,1.5,2.4,3.5,2.4,5.8
		c0,2.3-0.8,4.2-2.4,5.7c-1.6,1.5-3.4,2.2-5.3,2.2c-1.9,0-3.7-0.7-5.4-2.2C77.3,32.9,76.5,31,76.5,28.7z M90.3,111.9H78V51.7h12.2
		V111.9z"/>
	<path class="st0" d="M147.9,97.1c1.3,1.6,2.6,3.2,3.8,4.7c1.2,1.5,2.4,3,3.7,4.7c-2.7,2.1-5.7,3.8-9.1,5c-3.4,1.2-7,1.9-10.9,1.9
		c-4.4,0-8.6-0.8-12.5-2.5c-3.9-1.7-7.3-4-10.2-6.8c-2.9-2.9-5.2-6.2-6.8-10.1c-1.7-3.8-2.5-7.9-2.5-12.2c0-4.3,0.8-8.4,2.5-12.2
		c1.7-3.8,4-7.2,6.8-10c2.9-2.8,6.3-5.1,10.2-6.8c3.9-1.7,8-2.5,12.5-2.5c4,0,7.8,0.6,11.2,1.9c3.4,1.2,6.5,2.9,9.3,5l-7.9,9.4
		c-1.6-1.3-3.5-2.4-5.6-3.1c-2.1-0.7-4.4-1.1-6.9-1.1c-2.9,0-5.5,0.5-7.9,1.5c-2.4,1-4.5,2.4-6.3,4.1c-1.8,1.7-3.1,3.8-4.1,6.1
		c-1,2.4-1.4,4.9-1.4,7.7c0,2.8,0.5,5.4,1.4,7.7c1,2.4,2.3,4.4,4.1,6.2c1.8,1.8,3.9,3.2,6.3,4.2c2.4,1,5,1.5,7.9,1.5
		c2.5,0,4.8-0.4,6.9-1.1C144.4,99.4,146.3,98.4,147.9,97.1z"/>
	<path class="st0" d="M210.2,50.1l7.3,7.3c-3.6,3.4-7.1,6.6-10.4,9.8c-3.3,3.2-6.8,6.5-10.4,9.9c4.3,5.8,8.5,11.5,12.7,17.4
		c4.1,5.8,8.3,11.6,12.5,17.4h-14.1c-3.3-4.5-6.6-9-9.9-13.3c-3.3-4.4-6.6-8.8-9.9-13.3l-8.4,7.6v19h-12.2V0h12.2v78.5
		c5.4-4.9,10.5-9.6,15.4-14.2C200,59.7,205.1,55,210.2,50.1z"/>
	<path class="st0" d="M260.1,82.4c0-4.4,0.8-8.6,2.5-12.5c1.7-3.9,4-7.3,6.8-10.2c2.9-2.9,6.2-5.3,10-7c3.8-1.7,7.8-2.6,12.2-2.6
		c2.9,0,5.5,0.4,7.9,1.1c2.4,0.7,4.5,1.6,6.2,2.7c1.7,1.1,3.1,2.2,4.2,3.3c1.1,1.2,1.8,2.2,2.2,3l0.6-8.5h11.8v60.2H312v-7.6
		c-0.5,0.8-1.2,1.7-2.3,2.7c-1.1,1.1-2.4,2-4.1,3c-1.7,0.9-3.7,1.7-6,2.4c-2.3,0.7-4.9,1-7.9,1c-4.6,0-8.9-0.8-12.7-2.5
		c-3.9-1.7-7.2-3.9-10-6.8c-2.8-2.8-5-6.1-6.6-9.9S260.1,86.5,260.1,82.4z M272.4,81.6c0,2.8,0.5,5.4,1.5,7.8c1,2.4,2.4,4.5,4.1,6.2
		c1.7,1.7,3.8,3.1,6.2,4.1c2.4,1,5,1.5,7.9,1.5s5.5-0.5,8-1.5c2.4-1,4.6-2.4,6.3-4.2c1.8-1.8,3.1-3.8,4.1-6.2c1-2.4,1.4-4.9,1.4-7.7
		c0-2.8-0.5-5.4-1.4-7.7c-1-2.4-2.3-4.4-4.1-6.1c-1.8-1.7-3.9-3.1-6.3-4.1c-2.4-1-5.1-1.5-8-1.5s-5.5,0.5-7.9,1.5
		c-2.4,1-4.5,2.4-6.2,4.1c-1.7,1.7-3.1,3.8-4.1,6.1C272.9,76.3,272.4,78.9,272.4,81.6z"/>
	<path class="st0" d="M370.8,81.8c0-4.7,0.8-9,2.4-12.9c1.6-3.9,3.8-7.2,6.6-10c2.8-2.8,6.1-4.9,9.9-6.5c3.8-1.5,7.9-2.3,12.3-2.3
		c3,0,5.6,0.4,8,1.1c2.4,0.7,4.4,1.6,6,2.6c1.7,1,3.1,2.1,4.2,3.4c1.2,1.2,2,2.4,2.6,3.3V0h12.4v111.9h-12.4v-4.5
		c0-0.6,0-1.2,0.1-1.9c0.1-0.7,0.1-1.3,0.1-1.8c-1,1.2-2.1,2.3-3.4,3.4c-1.3,1.1-2.8,2.1-4.5,3.1c-1.7,1-3.7,1.7-6,2.3
		c-2.3,0.6-4.8,0.9-7.7,0.9c-4.8,0-9.1-0.8-12.9-2.5c-3.8-1.7-7-3.9-9.6-6.8c-2.6-2.8-4.7-6.2-6-10
		C371.5,90.2,370.8,86.1,370.8,81.8z M383.2,81.6c0,2.8,0.5,5.4,1.5,7.8c1,2.4,2.4,4.5,4.1,6.2c1.7,1.7,3.8,3.1,6.2,4.1
		c2.4,1,5,1.5,7.9,1.5s5.5-0.5,8-1.5s4.6-2.4,6.3-4.2c1.8-1.8,3.1-3.8,4.1-6.2c1-2.4,1.4-4.9,1.4-7.7c0-2.8-0.5-5.4-1.4-7.7
		c-1-2.4-2.3-4.4-4.1-6.1c-1.8-1.7-3.9-3.1-6.3-4.1s-5.1-1.5-8-1.5s-5.5,0.5-7.9,1.5c-2.4,1-4.5,2.4-6.2,4.1
		c-1.7,1.7-3.1,3.8-4.1,6.1C383.7,76.3,383.2,78.9,383.2,81.6z"/>
	<path class="st0" d="M448.3,82.4c0-4.4,0.8-8.6,2.5-12.5c1.7-3.9,4-7.3,6.8-10.2c2.9-2.9,6.2-5.3,10-7c3.8-1.7,7.8-2.6,12.2-2.6
		c2.9,0,5.5,0.4,7.9,1.1c2.4,0.7,4.5,1.6,6.2,2.7c1.7,1.1,3.1,2.2,4.2,3.3c1.1,1.2,1.8,2.2,2.2,3l0.6-8.5h11.8v60.2h-12.4v-7.6
		c-0.5,0.8-1.2,1.7-2.3,2.7c-1.1,1.1-2.4,2-4.1,3c-1.7,0.9-3.7,1.7-6,2.4c-2.3,0.7-4.9,1-7.9,1c-4.6,0-8.9-0.8-12.7-2.5
		c-3.9-1.7-7.2-3.9-10-6.8c-2.8-2.8-5-6.1-6.6-9.9S448.3,86.5,448.3,82.4z M460.6,81.6c0,2.8,0.5,5.4,1.5,7.8c1,2.4,2.4,4.5,4.1,6.2
		c1.7,1.7,3.8,3.1,6.2,4.1c2.4,1,5,1.5,7.9,1.5s5.5-0.5,8-1.5c2.4-1,4.6-2.4,6.3-4.2c1.8-1.8,3.1-3.8,4.1-6.2c1-2.4,1.4-4.9,1.4-7.7
		c0-2.8-0.5-5.4-1.4-7.7c-1-2.4-2.3-4.4-4.1-6.1c-1.8-1.7-3.9-3.1-6.3-4.1c-2.4-1-5.1-1.5-8-1.5s-5.5,0.5-7.9,1.5
		c-2.4,1-4.5,2.4-6.2,4.1c-1.7,1.7-3.1,3.8-4.1,6.1C461.1,76.3,460.6,78.9,460.6,81.6z"/>
	<path class="st0" d="M535.1,25.2h12.2v26.6h16.1v10.9h-16.1v49.1h-12.2V62.8h-10.8V51.8h10.8V25.2z"/>
	<path class="st0" d="M568.2,82.4c0-4.4,0.8-8.6,2.5-12.5c1.7-3.9,4-7.3,6.8-10.2c2.9-2.9,6.2-5.3,10-7c3.8-1.7,7.8-2.6,12.2-2.6
		c2.9,0,5.5,0.4,7.9,1.1c2.4,0.7,4.5,1.6,6.2,2.7c1.7,1.1,3.1,2.2,4.2,3.3c1.1,1.2,1.8,2.2,2.2,3l0.6-8.5h11.8v60.2h-12.4v-7.6
		c-0.5,0.8-1.2,1.7-2.3,2.7c-1.1,1.1-2.4,2-4.1,3c-1.7,0.9-3.7,1.7-6,2.4c-2.3,0.7-4.9,1-7.9,1c-4.6,0-8.9-0.8-12.7-2.5
		c-3.9-1.7-7.2-3.9-10-6.8c-2.8-2.8-5-6.1-6.6-9.9S568.2,86.5,568.2,82.4z M580.6,81.6c0,2.8,0.5,5.4,1.5,7.8c1,2.4,2.4,4.5,4.1,6.2
		c1.7,1.7,3.8,3.1,6.2,4.1c2.4,1,5,1.5,7.9,1.5s5.5-0.5,8-1.5c2.4-1,4.6-2.4,6.3-4.2c1.8-1.8,3.1-3.8,4.1-6.2c1-2.4,1.4-4.9,1.4-7.7
		c0-2.8-0.5-5.4-1.4-7.7c-1-2.4-2.3-4.4-4.1-6.1c-1.8-1.7-3.9-3.1-6.3-4.1c-2.4-1-5.1-1.5-8-1.5s-5.5,0.5-7.9,1.5
		c-2.4,1-4.5,2.4-6.2,4.1c-1.7,1.7-3.1,3.8-4.1,6.1C581.1,76.3,580.6,78.9,580.6,81.6z"/>
	<path class="st0" d="M683.4,57l-6.5,8.6c-0.1-0.1-0.4-0.3-1-0.7c-0.6-0.4-1.3-0.8-2.2-1.2c-0.9-0.4-2-0.7-3.2-1.1
		c-1.2-0.3-2.4-0.5-3.7-0.5c-1.6,0-3.2,0.4-4.8,1.2c-1.6,0.8-2.4,2.2-2.4,4.3c0,1.8,0.6,3.3,1.9,4.5c1.3,1.2,2.9,2.2,4.8,3.1
		c1.9,0.9,4,1.8,6.3,2.8c2.3,1,4.3,2.1,6.3,3.5c1.9,1.4,3.5,3.1,4.8,5.2c1.3,2.1,1.9,4.7,1.9,7.8c0,5.4-1.8,9.8-5.5,13.3
		c-3.7,3.5-8.8,5.3-15.2,5.3c-3.7,0-7.4-0.6-11-1.9c-3.6-1.3-6.5-3.2-8.7-5.7c0.7-0.7,1.4-1.5,2.2-2.6c0.8-1.1,1.6-2.1,2.4-3
		c0.8-1,1.5-1.8,2-2.4c0.5-0.6,0.8-0.9,0.9-0.9c0,0.1,0.4,0.4,1.1,0.9c0.7,0.5,1.7,1,2.8,1.5c1.2,0.5,2.4,1,3.9,1.4
		c1.4,0.4,2.9,0.6,4.3,0.6c2.3,0,4.3-0.6,5.9-1.7c1.6-1.2,2.4-2.7,2.4-4.6c0-1.7-0.6-3.1-1.9-4.1c-1.3-1-2.9-1.9-4.8-2.8
		c-1.9-0.9-4-1.8-6.3-2.7c-2.3-0.9-4.4-2.1-6.3-3.5c-1.9-1.4-3.5-3.2-4.8-5.4c-1.3-2.2-1.9-5-1.9-8.4c0-3.3,0.6-6,1.8-8.2
		c1.2-2.2,2.7-4,4.6-5.4c1.9-1.4,4-2.4,6.3-3c2.3-0.6,4.5-0.9,6.6-0.9c2.8,0,5.8,0.6,8.9,1.7C678.5,53.1,681.2,54.8,683.4,57z"/>
	<path class="st0" d="M749.8,104.8c-2.9,2.6-6.4,4.7-10.5,6.2c-4.1,1.5-8.4,2.3-12.7,2.3c-4.4,0-8.6-0.8-12.5-2.5
		c-3.9-1.7-7.3-3.9-10.2-6.8c-2.9-2.8-5.2-6.2-6.8-10c-1.7-3.8-2.5-7.9-2.5-12.2c0-4.3,0.8-8.4,2.5-12.2c1.7-3.8,4-7.2,6.8-10.1
		s6.2-5.2,10-6.8c3.8-1.7,7.8-2.5,12.2-2.5c6.8,0,12.7,2,17.8,6.1c5,4.1,8.7,9.4,10.9,16.1c-3,1.1-6.4,2.4-10.2,3.9
		c-3.8,1.5-7.8,3.1-12,4.8c-4.1,1.7-8.3,3.3-12.4,5c-4.1,1.6-8,3.1-11.5,4.5c1.6,3.3,4,5.9,7.1,7.8c3.1,2,6.6,3,10.4,3
		c2.6,0,5.2-0.5,7.8-1.4c2.6-1,4.8-2.3,6.4-3.9L749.8,104.8z M739.4,69.4c-1.2-2.4-3-4.2-5.5-5.4c-2.5-1.2-5-1.8-7.6-1.8
		c-2.8,0-5.4,0.5-7.7,1.6c-2.4,1.1-4.4,2.5-6.1,4.2c-1.7,1.8-3.1,3.8-4.1,6.1s-1.5,4.7-1.5,7.1c0,0.5,0,0.8,0.1,1
		c0,0.2,0.1,0.3,0.1,0.4c2.5-1,5.2-2,8.1-3.2c2.9-1.2,5.8-2.4,8.7-3.6c2.9-1.2,5.7-2.4,8.4-3.5C734.9,71.3,737.3,70.3,739.4,69.4z"
		/>
	<path class="st0" d="M770.7,25.2h12.2v26.6H799v10.9h-16.1v49.1h-12.2V62.8h-10.8V51.8h10.8V25.2z"/>
</g>
<g>
	<path class="st0" d="M436.8,227.5c0,0-1.3,0.3-3.8,0.7c-2.5,0.5-6.1,1.1-10.8,1.8c-2.3,0.4-4.9,0.7-7.7,1.2
		c-2.8,0.4-5.8,0.8-9.1,1.3c-3.2,0.4-6.7,0.9-10.3,1.3c-3.6,0.4-7.5,0.9-11.4,1.3c-4,0.5-8.1,0.8-12.4,1.3
		c-4.3,0.5-8.7,0.8-13.3,1.2c-9.1,0.8-18.8,1.6-28.7,2.2c-10,0.7-20.3,1.2-30.7,1.7c-10.5,0.5-21.1,0.9-31.7,1.2
		c-10.6,0.3-21.3,0.5-31.7,0.6c-10.5,0.1-20.8,0.1-30.7,0c-10-0.1-19.6-0.2-28.7-0.4c-9.1-0.2-17.8-0.5-25.7-0.8
		c-8-0.3-15.3-0.7-21.8-1c-6.5-0.3-12.1-0.7-16.8-1c-4.7-0.3-8.3-0.6-10.8-0.7c-2.5-0.2-3.8-0.3-3.8-0.3v-23.4c0,0,1.3-0.1,3.8-0.3
		c2.5-0.2,6.1-0.4,10.8-0.7c4.7-0.3,10.3-0.6,16.8-1c6.5-0.3,13.8-0.7,21.8-1c8-0.3,16.6-0.6,25.7-0.8c9.1-0.2,18.8-0.4,28.7-0.4
		c10-0.1,20.3-0.1,30.7,0c10.5,0.1,21.1,0.3,31.7,0.6c10.6,0.3,21.3,0.7,31.7,1.2c10.5,0.5,20.8,1.1,30.7,1.7
		c10,0.7,19.6,1.4,28.7,2.2c4.6,0.4,9,0.8,13.3,1.2c4.3,0.5,8.5,0.8,12.4,1.3c4,0.5,7.8,0.9,11.4,1.3c3.6,0.5,7.1,0.9,10.3,1.3
		c3.2,0.5,6.3,0.9,9.1,1.3c2.8,0.4,5.4,0.8,7.7,1.2c4.7,0.7,8.3,1.4,10.8,1.8C435.4,227.3,436.8,227.5,436.8,227.5z"/>
	<g>
		<path class="st0" d="M0,227.5c45.4-16.9,101.8-45.6,136.8-76.1l-27.5,76.1l27.5,76.1C101.8,273.1,45.4,244.4,0,227.5z"/>
	</g>
</g>
</svg>
