<?xml version="1.0" encoding="utf-8"?>
<!-- Generator: Adobe Illustrator 20.1.0, SVG Export Plug-In . SVG Version: 6.00 Build 0)  -->
<svg version="1.1" id="Layer_1" xmlns="http://www.w3.org/2000/svg" xmlns:xlink="http://www.w3.org/1999/xlink" x="0px" y="0px"
	 viewBox="0 0 1000 350" style="enable-background:new 0 0 1000 350;" xml:space="preserve">
<style type="text/css">
	.st0{fill:#999999;}
</style>
<path class="st0" d="M838.3,72.5c1.3,0.8,2.7,1.5,3.7,2.5c5.7,5.5,11.4,11.1,16.8,16.8c3.4,3.6,3.2,8-0.3,11.6
	c-5.3,5.4-10.7,10.8-16.1,16.1c-2.8,2.7-6.1,3.5-9.6,1.9c-3.4-1.5-4.9-4.4-4.9-8.1c0-2.4,0-4.9,0-7.4c-5.3,0.4-227-0.3-231.9-0.3
	c-4.8,0-8.4-3.7-8.4-8.1c0-4.5,3.5-8.2,8.3-8.2c6.1,0,228,0.4,231.9-0.8c0.1-6-1.6-13,6.5-16C835.6,72.5,837,72.5,838.3,72.5z"/>
<g>
	<path class="st0" d="M221.6,98.4c0,20.2-12.9,32-35.5,32h-20.6v27h-15.1V67.8h35.7C208.7,67.8,221.6,78.9,221.6,98.4z M207.2,98.8
		c0-11.8-7.8-17.4-21.6-17.4h-20v35.5h20C199.4,116.8,207.2,110.9,207.2,98.8z"/>
	<path class="st0" d="M251.6,69.8c0,5.1-3.7,8.8-8.6,8.8s-8.6-3.7-8.6-8.8c0-5.2,3.7-9,8.6-9S251.6,64.6,251.6,69.8z M250.3,89.3
		v68.1h-14.6V89.3H250.3z"/>
	<path class="st0" d="M300.6,101.7c-11.8,0-20.2,8.8-20.2,21.8c0,12.9,8.4,21.8,20.2,21.8c8.6,0,15.5-2.8,20.1-8.2l8.2,8.2
		c-6.1,8.1-16,12.7-28.9,12.7c-20.2,0-34.3-14-34.3-34.4c0-20.6,14.1-34.7,34.3-34.7c12.3,0,21.9,4,28.2,11.1l-8.1,9.5
		C315.3,104.5,308.8,101.6,300.6,101.7z"/>
	<path class="st0" d="M371.1,126.2l-11.5,12.2v19.1h-14.7v-95h14.7v57.3l30.1-30.5h16.9l-25.2,26.4l27.1,41.7h-17.4L371.1,126.2z"/>
	<path class="st0" d="M494.3,157.4v-8.3c-4.9,6-12.7,9-22.5,9c-14.7,0-23.9-9.1-23.9-21.1c0-12.4,9.3-20.4,25.7-20.5h20.6v-2
		c0-8.6-5.5-13.7-16.3-13.7c-6.5,0-13.3,2.3-20.1,6.9l-6-10.2c9.5-5.6,16.4-8.6,29.3-8.6c17.5,0,27.4,9,27.5,23.9l0.1,44.7H494.3z
		 M494.2,133.5v-6.3h-18.4c-9.6,0-14.1,2.6-14.1,9.1c0,6.1,5,10.1,13.2,10.1C485.3,146.4,493.4,140.9,494.2,133.5z"/>
	<path class="st0" d="M154.2,233.3l18.9,53.6l18.7-53.6h14.7l-26.1,68.1h-15.2l-26.4-68.1H154.2z"/>
	<path class="st0" d="M232.7,213.8c0,5.1-3.7,8.8-8.6,8.8s-8.6-3.7-8.6-8.8c0-5.2,3.7-9,8.6-9S232.7,208.6,232.7,213.8z
		 M231.4,233.3v68.1h-14.6v-68.1H231.4z"/>
	<path class="st0" d="M272.3,244.4c-5.8,0-10,1.9-10,6.8c0,12.5,36.2,5.8,36.1,30.5c0,14-12.4,20.2-26.1,20.2
		c-10,0-20.6-3.3-27.4-9.5l5.2-10.5c5.9,5.2,15.4,8.4,22.8,8.4c6.3,0,11.1-2.2,11.1-7.3c0-14-35.8-6.1-35.7-30.7
		c0-13.8,12-19.7,25.1-19.7c8.6,0,17.7,2.6,23.8,6.9l-5.4,10.9C285.9,246.7,278.3,244.4,272.3,244.4z"/>
	<path class="st0" d="M375.1,233.3v68.1h-14.7v-13.3c-4.6,9.5-13.2,13.7-24.3,13.8c-15.6,0-25-10-25-26.2v-42.4h14.7v38.3
		c0,10.2,6,16.5,15.9,16.5c11.8-0.3,18.7-9.3,18.7-21.2v-33.5H375.1z"/>
	<path class="st0" d="M437.7,301.4v-8.3c-4.9,6-12.7,9-22.5,9c-14.7,0-23.9-9.1-23.9-21.1c0-12.4,9.3-20.4,25.7-20.5h20.6v-2
		c0-8.6-5.5-13.7-16.3-13.7c-6.5,0-13.3,2.3-20.1,6.9l-6-10.2c9.5-5.6,16.4-8.6,29.3-8.6c17.5,0,27.4,9,27.5,23.9l0.1,44.7H437.7z
		 M437.6,277.5v-6.3h-18.4c-9.6,0-14.1,2.6-14.1,9.1c0,6.1,5,10.1,13.2,10.1C428.7,290.4,436.8,284.9,437.6,277.5z"/>
	<path class="st0" d="M487.2,206.4v95h-14.7v-95H487.2z"/>
	<path class="st0" d="M525.5,213.8c0,5.1-3.7,8.8-8.6,8.8s-8.6-3.7-8.6-8.8c0-5.2,3.7-9,8.6-9S525.5,208.6,525.5,213.8z
		 M524.2,233.3v68.1h-14.6v-68.1H524.2z"/>
	<path class="st0" d="M540.9,301.4v-10l38.9-46.1H542v-12l55.9,0.1v9.9L559,289.4l40.1,0.1v12L540.9,301.4z"/>
	<path class="st0" d="M654.3,301.4v-8.3c-4.9,6-12.7,9-22.5,9c-14.7,0-23.9-9.1-23.9-21.1c0-12.4,9.3-20.4,25.7-20.5h20.6v-2
		c0-8.6-5.5-13.7-16.3-13.7c-6.5,0-13.3,2.3-20.1,6.9l-6-10.2c9.5-5.6,16.4-8.6,29.3-8.6c17.5,0,27.4,9,27.5,23.9l0.1,44.7H654.3z
		 M654.2,277.5v-6.3h-18.4c-9.6,0-14.1,2.6-14.1,9.1c0,6.1,5,10.1,13.2,10.1C645.3,290.4,653.4,284.9,654.2,277.5z"/>
	<path class="st0" d="M727,297c-5.4,3.2-11,5-16.8,5c-10.2,0-19.1-5.9-19.1-19.8v-35.3h-9.6v-11h9.6v-18.7h14.6v18.7h20.1v11h-20.1
		v32.6c0,7,2.7,9.2,7.3,9.2c3.1,0,6.3-1,10.2-2.9L727,297z"/>
	<path class="st0" d="M756.4,213.8c0,5.1-3.7,8.8-8.6,8.8s-8.6-3.7-8.6-8.8c0-5.2,3.7-9,8.6-9S756.4,208.6,756.4,213.8z
		 M755.1,233.3v68.1h-14.6v-68.1H755.1z"/>
	<path class="st0" d="M841.5,267.3c0,20.5-14.5,34.6-35.5,34.6c-21.1,0-35.6-14.1-35.6-34.6c0-20.6,14.5-34.6,35.6-34.6
		C827.1,232.8,841.5,246.7,841.5,267.3z M785.2,267.5c0,13.2,8.6,22.1,20.9,22.1c12.2,0,20.7-9,20.7-22.1c0-13.1-8.6-22-20.7-22
		C793.8,245.5,785.2,254.4,785.2,267.5z"/>
	<path class="st0" d="M922.1,259v42.4h-14.7v-38.3c0-10.2-6.1-16.5-16.4-16.5c-11.3,0.1-18.3,7.9-19.3,18.6v36.2h-14.7v-68.1h14.7
		v13.1c4.9-9.5,13.6-13.6,25.1-13.6C912.6,232.8,922.1,242.8,922.1,259z"/>
</g>
</svg>
