<?xml version="1.0" encoding="utf-8"?>
<!-- Generator: Adobe Illustrator 20.1.0, SVG Export Plug-In . SVG Version: 6.00 Build 0)  -->
<svg version="1.1" id="Layer_1" xmlns="http://www.w3.org/2000/svg" xmlns:xlink="http://www.w3.org/1999/xlink" x="0px" y="0px"
	 viewBox="0 0 1000 350" style="enable-background:new 0 0 1000 350;" xml:space="preserve">
<style type="text/css">
	.st0{fill:#999999;}
</style>
<path class="st0" d="M386.1,284.3c-1.3-0.8-2.7-1.5-3.7-2.5c-5.7-5.5-11.4-11.1-16.8-16.8c-3.4-3.6-3.2-8,0.3-11.6
	c5.3-5.4,10.7-10.8,16.1-16.1c2.8-2.7,6.1-3.5,9.6-1.9c3.4,1.5,4.9,4.4,4.9,8.1c0,2.4,0,4.9,0,7.4c5.3-0.4,227,0.3,231.9,0.3
	c4.8,0,8.4,3.7,8.4,8.1c0,4.5-3.5,8.2-8.3,8.2c-6.1,0-228-0.4-231.9,0.8c-0.1,6,1.6,13-6.5,16C388.8,284.3,387.4,284.3,386.1,284.3z
	"/>
<g>
	<path class="st0" d="M138.5,120.4c0,20.2-12.9,32-35.5,32H82.4v27H67.3V89.8h35.7C125.6,89.8,138.5,100.9,138.5,120.4z
		 M124.1,120.8c0-11.8-7.8-17.4-21.6-17.4h-20v35.5h20C116.2,138.8,124.1,132.9,124.1,120.8z"/>
	<path class="st0" d="M168.5,91.8c0,5.1-3.7,8.8-8.6,8.8s-8.6-3.7-8.6-8.8c0-5.2,3.7-9,8.6-9S168.5,86.6,168.5,91.8z M167.2,111.3
		v68.1h-14.6v-68.1H167.2z"/>
	<path class="st0" d="M217.5,123.7c-11.8,0-20.2,8.8-20.2,21.8c0,12.9,8.4,21.8,20.2,21.8c8.6,0,15.5-2.8,20.1-8.2l8.2,8.2
		c-6.1,8.1-16,12.7-28.9,12.7c-20.2,0-34.3-14-34.3-34.4c0-20.6,14.1-34.7,34.3-34.7c12.3,0,21.9,4,28.2,11.1l-8.1,9.5
		C232.2,126.5,225.7,123.6,217.5,123.7z"/>
	<path class="st0" d="M288,148.2l-11.5,12.2v19.1h-14.7v-95h14.7v57.3l30.1-30.5h16.9l-25.2,26.4l27.1,41.7H308L288,148.2z"/>
	<path class="st0" d="M411.1,179.4v-8.3c-4.9,6-12.7,9-22.5,9c-14.7,0-23.9-9.1-23.9-21.1c0-12.4,9.3-20.4,25.7-20.5H411v-2
		c0-8.6-5.5-13.7-16.3-13.7c-6.5,0-13.3,2.3-20.1,6.9l-6-10.2c9.5-5.6,16.4-8.6,29.3-8.6c17.5,0,27.4,9,27.5,23.9l0.1,44.7H411.1z
		 M411,155.5v-6.3h-18.4c-9.6,0-14.1,2.6-14.1,9.1c0,6.1,5,10.1,13.2,10.1C402.2,168.4,410.3,162.9,411,155.5z"/>
	<path class="st0" d="M543.2,84.4v95h-14.7v-11.6c-4.9,7.9-13.1,12.3-23.9,12.3c-19.6,0-32.6-14.2-32.6-34.9
		c0-20.5,13.2-34.4,32.4-34.4c11,0,19.2,4.5,24.2,12.4V84.4H543.2z M528.5,145.6c0-13.2-8.6-22.4-20.9-22.4
		c-12.3,0-20.9,9.3-21,22.4c0.1,12.9,8.6,22.1,21,22.1C519.9,167.8,528.5,158.5,528.5,145.6z"/>
	<path class="st0" d="M606.5,179.4v-8.3c-4.9,6-12.7,9-22.5,9c-14.7,0-23.9-9.1-23.9-21.1c0-12.4,9.3-20.4,25.7-20.5h20.6v-2
		c0-8.6-5.5-13.7-16.3-13.7c-6.5,0-13.3,2.3-20.1,6.9l-6-10.2c9.5-5.6,16.4-8.6,29.3-8.6c17.5,0,27.4,9,27.5,23.9l0.1,44.7H606.5z
		 M606.3,155.5v-6.3h-18.4c-9.6,0-14.1,2.6-14.1,9.1c0,6.1,5,10.1,13.2,10.1C597.5,168.4,605.6,162.9,606.3,155.5z"/>
	<path class="st0" d="M679.2,175c-5.4,3.2-11,5-16.8,5c-10.2,0-19.1-5.9-19.1-19.8v-35.3h-9.6v-11h9.6V95.2h14.6v18.7H678v11h-20.1
		v32.6c0,7,2.7,9.2,7.3,9.2c3.1,0,6.3-1,10.2-2.9L679.2,175z"/>
	<path class="st0" d="M733.6,179.4v-8.3c-4.9,6-12.7,9-22.5,9c-14.7,0-23.9-9.1-23.9-21.1c0-12.4,9.3-20.4,25.7-20.5h20.6v-2
		c0-8.6-5.5-13.7-16.3-13.7c-6.5,0-13.3,2.3-20.1,6.9l-6-10.2c9.5-5.6,16.4-8.6,29.3-8.6c17.5,0,27.4,9,27.5,23.9l0.1,44.7H733.6z
		 M733.5,155.5v-6.3H715c-9.6,0-14.1,2.6-14.1,9.1c0,6.1,5,10.1,13.2,10.1C724.6,168.4,732.7,162.9,733.5,155.5z"/>
	<path class="st0" d="M787,122.4c-5.8,0-10,1.9-10,6.8c0,12.5,36.2,5.8,36.1,30.5c0,14-12.4,20.2-26.1,20.2c-10,0-20.6-3.3-27.4-9.5
		l5.2-10.5c5.9,5.2,15.4,8.4,22.8,8.4c6.3,0,11.1-2.2,11.1-7.3c0-14-35.8-6.1-35.7-30.7c0-13.8,12-19.7,25.1-19.7
		c8.6,0,17.7,2.6,23.8,6.9l-5.4,10.9C800.5,124.7,793,122.4,787,122.4z"/>
	<path class="st0" d="M887.8,151h-51.5c2.3,10.5,10.4,17,21.1,17c7.4,0,14.2-2.8,19.2-7.9l7.8,8.3c-6.7,7.3-16.4,11.5-28.2,11.5
		c-21,0-34.8-14-34.8-34.4c0-20.6,14.2-34.6,34.4-34.7C879.9,110.8,889.6,126.4,887.8,151z M875,140.2c-0.5-11-7.8-17.7-18.9-17.7
		c-10.8,0-18.4,6.8-20,17.7H875z"/>
	<path class="st0" d="M941.7,175c-5.4,3.2-11,5-16.8,5c-10.2,0-19.1-5.9-19.1-19.8v-35.3h-9.6v-11h9.6V95.2h14.6v18.7h20.1v11h-20.1
		v32.6c0,7,2.7,9.2,7.3,9.2c3.1,0,6.3-1,10.2-2.9L941.7,175z"/>
</g>
</svg>
