<?xml version="1.0" encoding="utf-8"?>
<!-- Generator: Adobe Illustrator 20.1.0, SVG Export Plug-In . SVG Version: 6.00 Build 0)  -->
<svg version="1.1" id="Layer_1" xmlns="http://www.w3.org/2000/svg" xmlns:xlink="http://www.w3.org/1999/xlink" x="0px" y="0px"
	 viewBox="0 0 1000 350" style="enable-background:new 0 0 1000 350;" xml:space="preserve">
<style type="text/css">
	.st0{fill:#999999;}
	.st1{enable-background:new    ;}
</style>
<g>
	<g>
		<path class="st0" d="M512.9,84.4c-2.1,4.5-5.6,6.3-10.6,6.1c-10-0.3-19.9-0.1-29.9-0.1c-6.2,0-9.1-2.9-9.2-9.2
			c0-10,0.2-19.9-0.1-29.9c-0.2-5.1,1.6-8.5,6.1-10.6c12.4,0,24.7,0,37.1,0c3.1,1.2,5.3,3.4,6.5,6.5C512.9,59.6,512.9,72,512.9,84.4
			z M479.8,73.7c5.6,0,11,0,16.6,0c0-5,0.1-9.9-0.1-14.8c0-0.6-1-1.7-1.6-1.7c-4.9-0.1-9.9-0.1-14.9-0.1
			C479.8,62.9,479.8,68.2,479.8,73.7z"/>
		<path class="st0" d="M380,130c2.1-4.5,5.6-6.3,10.6-6.1c10,0.3,19.9,0.1,29.9,0.1c6.2,0,9.1,2.9,9.2,9.2c0,10-0.2,19.9,0.1,29.9
			c0.2,5.1-1.6,8.5-6.1,10.6c-12.4,0-24.7,0-37.1,0c-3.1-1.2-5.3-3.4-6.5-6.5C380,154.7,380,142.3,380,130z M413,157
			c0-5.7,0-11.1,0-16.3c-5.6,0-11,0-16.2,0c0,5.6,0,11,0,16.3C402.3,157,407.6,157,413,157z"/>
		<path class="st0" d="M380,80.4c3-8.1,10-6.4,16-6.5c1.2-3.9,1.9-7.7,3.6-11.1c4.3-8.8,11.7-13.2,21.3-13.6
			c5.7-0.3,11.5-0.1,17.2,0c4.8,0.1,8.3,3.7,8.3,8.2s-3.6,8.1-8.4,8.1c-5.3,0.1-10.6-0.1-15.9,0.1c-5.2,0.1-8.3,3.1-8.7,8.4
			c2.5,0,5,0,7.4,0c3.7,0,6.6,1.5,8.1,4.9c1.6,3.5,0.8,6.8-1.9,9.6c-5.3,5.4-10.7,10.8-16.1,16.1c-3.6,3.5-8,3.7-11.6,0.3
			c-5.7-5.4-11.3-11.1-16.8-16.8c-1-1-1.7-2.4-2.5-3.7C380,83.1,380,81.7,380,80.4z"/>
		<path class="st0" d="M512.9,133.9c-3,5.7-3,5.7-16,6.6c-1.2,3.7-1.9,7.6-3.5,11c-4.3,8.8-11.7,13.2-21.3,13.6
			c-5.7,0.3-11.5,0.1-17.2,0c-4.8-0.1-8.3-3.7-8.3-8.2s3.6-8.1,8.4-8.1c5.3-0.1,10.6,0.1,15.9-0.1c5.2-0.1,8.3-3.1,8.7-8.4
			c-2.5,0-5,0-7.4,0c-3.7,0-6.6-1.5-8.1-4.9c-1.6-3.5-0.8-6.8,1.9-9.6c5.3-5.4,10.7-10.8,16.1-16.1c3.6-3.5,8-3.7,11.6-0.3
			c5.7,5.4,11.3,11.1,16.8,16.8c1,1,1.7,2.4,2.5,3.7C512.9,131.3,512.9,132.6,512.9,133.9z"/>
	</g>
</g>
<g class="st1">
	<path class="st0" d="M155.1,155.9c-1.2,0.8-2.8,1.7-4.8,2.7c-2.1,1.1-4.5,2-7.3,3c-2.8,0.9-6,1.7-9.6,2.3
		c-3.6,0.6-7.3,0.9-11.4,0.9c-8.3,0-15.6-1.4-22.2-4.2c-6.5-2.8-12-6.6-16.6-11.4c-4.5-4.8-8-10.4-10.4-16.8
		c-2.4-6.4-3.6-13.2-3.6-20.3c0-7.9,1.4-15.1,4.3-21.8c2.9-6.7,6.8-12.4,11.7-17.3c4.9-4.8,10.7-8.6,17.3-11.3
		c6.6-2.7,13.6-4,21.1-4c2.9,0,5.8,0.2,8.7,0.6c2.9,0.4,5.7,1,8.3,1.7c2.6,0.7,4.9,1.4,6.8,2.3c2,0.9,3.4,1.8,4.2,2.7
		c-0.9,1.3-1.5,2.4-2,3.3c-0.5,0.9-1,1.8-1.5,2.7c-0.5,0.9-1.1,1.9-1.7,3.1c-0.6,1.2-1.5,2.7-2.7,4.8c-1.2-0.8-2.5-1.4-4.2-2
		c-1.6-0.6-3.3-1-5.1-1.4c-1.8-0.3-3.6-0.6-5.4-0.8c-1.8-0.2-3.5-0.3-4.9-0.3c-5.4,0-10.3,1-14.9,3c-4.6,2-8.5,4.7-11.8,8
		c-3.3,3.3-5.9,7.2-7.8,11.6c-1.9,4.4-2.8,9-2.8,13.7c0,4.6,0.9,9.1,2.7,13.5c1.8,4.4,4.3,8.2,7.5,11.6c3.2,3.4,7,6.1,11.4,8.1
		c4.4,2.1,9.3,3.1,14.7,3.1c3.1,0,6-0.3,8.9-0.9c2.9-0.6,5.4-1.3,7.6-2.1c2.2-0.8,4-1.5,5.4-2.3c1.4-0.8,2.1-1.3,2.2-1.6
		L155.1,155.9z"/>
	<path class="st0" d="M178.3,163.7h-13.7V51.3h13.7V163.7z"/>
	<path class="st0" d="M193.7,78.8c0-2.5,0.9-4.6,2.7-6.2c1.8-1.6,3.8-2.4,5.9-2.4c2.1,0,4.1,0.8,5.8,2.4c1.8,1.6,2.7,3.7,2.7,6.2
		c0,2.6-0.9,4.7-2.7,6.3c-1.8,1.6-3.7,2.4-5.8,2.4c-2.1,0-4.1-0.8-5.9-2.4C194.6,83.4,193.7,81.3,193.7,78.8z M209.1,163.7h-13.8
		v-61.2h13.8V163.7z"/>
	<path class="st0" d="M267,147.7c1.4,1.8,2.8,3.6,4.2,5.3c1.3,1.7,2.7,3.4,4.2,5.1c-2.8,2.2-5.9,4-9.4,5.3
		c-3.5,1.3-7.2,1.9-11.1,1.9c-4.5,0-8.8-0.8-12.7-2.5c-4-1.7-7.4-4-10.4-6.9c-2.9-2.9-5.3-6.4-7-10.3c-1.7-3.9-2.6-8.1-2.6-12.5
		c0-4.4,0.9-8.6,2.6-12.5c1.7-3.9,4.1-7.3,7-10.2c2.9-2.9,6.4-5.2,10.4-6.9c4-1.7,8.2-2.5,12.7-2.5c4,0,7.8,0.6,11.3,1.9
		c3.5,1.3,6.7,3,9.6,5.3l-8.8,10.2c-3.4-2.6-7.4-3.9-12.1-3.9c-2.8,0-5.3,0.5-7.6,1.4c-2.3,1-4.3,2.3-6,3.9c-1.7,1.6-3,3.6-3.9,5.8
		c-0.9,2.3-1.4,4.7-1.4,7.4c0,2.6,0.5,5,1.4,7.3c0.9,2.3,2.2,4.2,3.9,6c1.7,1.7,3.7,3.1,6,4c2.3,1,4.8,1.4,7.6,1.4
		C259.7,151.8,263.7,150.4,267,147.7z"/>
	<path class="st0" d="M331.4,101.1l8.2,8.1c-3.6,3.4-7.1,6.6-10.4,9.9s-6.8,6.5-10.4,9.9c4.3,5.8,8.5,11.6,12.7,17.4
		c4.1,5.9,8.4,11.7,12.7,17.4h-15.8c-3.2-4.3-6.4-8.6-9.6-12.9c-3.3-4.3-6.4-8.6-9.5-12.9l-7.9,7.2v18.6h-13.8V51.3h13.8v77.9
		c5.2-4.9,10.2-9.6,15.1-14S326.2,106,331.4,101.1z"/>
	<path class="st0" d="M555.9,75.7h13.7v26.8h16v12.4h-16v48.8h-13.7v-48.8h-10.4v-12.4h10.4V75.7z"/>
	<path class="st0" d="M590.7,133c0-4.4,0.8-8.6,2.5-12.5c1.7-3.9,4-7.3,7-10.2c3-2.9,6.5-5.2,10.4-6.8c4-1.7,8.2-2.5,12.7-2.5
		c4.6,0,8.9,0.8,12.8,2.5c3.9,1.7,7.3,4,10.2,6.8c2.8,2.9,5.1,6.3,6.7,10.2c1.6,3.9,2.4,8,2.4,12.5c0,4.4-0.8,8.6-2.4,12.5
		c-1.6,3.9-3.8,7.4-6.7,10.3c-2.9,2.9-6.3,5.2-10.2,6.9c-3.9,1.7-8.3,2.5-13,2.5c-4.5,0-8.7-0.8-12.7-2.3c-3.9-1.5-7.4-3.7-10.3-6.6
		c-2.9-2.8-5.3-6.2-7-10.2C591.6,142.2,590.7,137.8,590.7,133z M604.4,133.2c0,2.6,0.5,5,1.4,7.3c1,2.3,2.3,4.2,4,5.9
		c1.7,1.7,3.6,3,5.9,4c2.3,1,4.7,1.4,7.3,1.4s5-0.5,7.3-1.4c2.3-1,4.2-2.3,5.9-4c1.7-1.7,3-3.6,4-5.9c1-2.3,1.5-4.7,1.5-7.3
		s-0.5-5-1.5-7.3c-1-2.3-2.4-4.2-4-5.9c-1.7-1.7-3.6-3-5.9-4c-2.3-1-4.7-1.5-7.3-1.5s-5,0.5-7.3,1.5c-2.3,1-4.2,2.4-5.9,4
		c-1.7,1.7-3,3.6-4,5.9C604.9,128.2,604.4,130.6,604.4,133.2z"/>
	<path class="st0" d="M767,133.3c0,4.6-0.8,8.9-2.3,12.7c-1.5,3.9-3.7,7.3-6.6,10.2c-2.8,2.9-6.2,5.1-10.2,6.7
		c-3.9,1.6-8.3,2.4-13,2.4c-4.7,0-8.9-0.9-12.5-2.7s-6.1-3.7-7.4-5.7c0,0.4,0,0.7,0.1,1.1c0,0.3,0.1,0.7,0.1,1.2v33.8h-13.8v-90.6
		h13.2c0,1.3,0.1,2.7,0.3,4c0.2,1.3,0.3,2.6,0.3,3.7c0.8-1,1.8-2,3-3.1c1.2-1.1,2.7-2.1,4.4-3c1.7-0.9,3.7-1.7,5.8-2.3
		c2.2-0.6,4.5-0.9,7.1-0.9c4.7,0,9,0.7,12.8,2.2c3.8,1.5,7.1,3.6,9.9,6.5c2.7,2.8,4.9,6.2,6.4,10.2C766.2,123.9,767,128.3,767,133.3
		z M752,133c0-5.4-1.6-9.8-4.7-13.3c-3.1-3.5-7.5-5.3-13-5.3c-2.8,0-5.3,0.5-7.6,1.4c-2.3,0.9-4.3,2.2-6,3.9c-1.7,1.7-3,3.7-4,5.9
		c-1,2.3-1.4,4.7-1.4,7.3c0,2.7,0.5,5.2,1.4,7.5c1,2.3,2.3,4.3,4,6c1.7,1.7,3.7,3,6,4c2.3,1,4.8,1.4,7.6,1.4c2.8,0,5.3-0.5,7.5-1.4
		c2.2-1,4.1-2.3,5.5-4c1.5-1.7,2.6-3.7,3.5-6C751.6,138.1,752,135.6,752,133z"/>
	<path class="st0" d="M778.6,78.8c0-2.5,0.9-4.6,2.7-6.2c1.8-1.6,3.8-2.4,5.9-2.4c2.1,0,4.1,0.8,5.8,2.4c1.8,1.6,2.7,3.7,2.7,6.2
		c0,2.6-0.9,4.7-2.7,6.3c-1.8,1.6-3.7,2.4-5.8,2.4c-2.1,0-4.1-0.8-5.9-2.4C779.5,83.4,778.6,81.3,778.6,78.8z M794,163.7h-13.8
		v-61.2H794V163.7z"/>
	<path class="st0" d="M851.9,147.7c1.4,1.8,2.8,3.6,4.2,5.3c1.3,1.7,2.7,3.4,4.2,5.1c-2.8,2.2-5.9,4-9.4,5.3
		c-3.5,1.3-7.2,1.9-11.1,1.9c-4.5,0-8.8-0.8-12.7-2.5c-4-1.7-7.4-4-10.4-6.9c-2.9-2.9-5.3-6.4-7-10.3c-1.7-3.9-2.6-8.1-2.6-12.5
		c0-4.4,0.9-8.6,2.6-12.5c1.7-3.9,4.1-7.3,7-10.2c2.9-2.9,6.4-5.2,10.4-6.9c4-1.7,8.2-2.5,12.7-2.5c4,0,7.8,0.6,11.3,1.9
		c3.5,1.3,6.7,3,9.6,5.3l-8.8,10.2c-3.4-2.6-7.4-3.9-12.1-3.9c-2.8,0-5.3,0.5-7.6,1.4c-2.3,1-4.3,2.3-6,3.9c-1.7,1.6-3,3.6-3.9,5.8
		c-0.9,2.3-1.4,4.7-1.4,7.4c0,2.6,0.5,5,1.4,7.3c0.9,2.3,2.2,4.2,3.9,6c1.7,1.7,3.7,3.1,6,4c2.3,1,4.8,1.4,7.6,1.4
		C844.6,151.8,848.7,150.4,851.9,147.7z"/>
	<path class="st0" d="M916.3,101.1l8.2,8.1c-3.6,3.4-7.1,6.6-10.4,9.9c-3.3,3.2-6.8,6.5-10.4,9.9c4.3,5.8,8.5,11.6,12.7,17.4
		c4.1,5.9,8.4,11.7,12.7,17.4h-15.8c-3.2-4.3-6.4-8.6-9.6-12.9c-3.3-4.3-6.4-8.6-9.5-12.9l-7.9,7.2v18.6h-13.8V51.3h13.8v77.9
		c5.2-4.9,10.2-9.6,15.1-14C906.1,110.7,911.1,106,916.3,101.1z"/>
	<path class="st0" d="M380.6,277.8c0-4.4,0.9-8.6,2.6-12.6c1.7-4,4.1-7.5,7-10.4c2.9-3,6.3-5.3,10.2-7.1c3.9-1.8,8-2.7,12.3-2.7
		c2.9,0,5.5,0.4,7.8,1.1c2.3,0.7,4.3,1.6,6,2.5c1.7,1,3,1.9,4,3c1,1,1.6,1.8,1.9,2.4l0.6-7.3h13.4v61.2h-14v-4c0-0.5,0-0.9,0.1-1.4
		c0-0.4,0.1-0.7,0.1-0.9c-0.4,0.5-1.1,1.2-2,2.1c-1,0.9-2.3,1.8-3.9,2.7c-1.6,0.9-3.6,1.6-5.8,2.2c-2.3,0.6-4.9,0.9-7.8,0.9
		c-4.7,0-9-0.9-13-2.6c-3.9-1.7-7.3-4-10.2-6.9c-2.9-2.9-5.1-6.2-6.7-10C381.4,286,380.6,282,380.6,277.8z M394.6,276.9
		c0,2.7,0.5,5.2,1.4,7.5c0.9,2.3,2.2,4.3,3.9,6c1.7,1.7,3.7,3,6,4s4.8,1.4,7.6,1.4c2.8,0,5.3-0.5,7.6-1.4c2.3-1,4.3-2.3,6-4
		c1.7-1.7,3-3.7,3.9-6c0.9-2.3,1.4-4.8,1.4-7.3c0-2.6-0.5-5-1.4-7.3c-0.9-2.3-2.2-4.2-3.9-5.8c-1.7-1.6-3.7-2.9-6-3.9
		c-2.3-1-4.8-1.4-7.6-1.4c-2.8,0-5.3,0.5-7.6,1.4s-4.3,2.2-6,3.9c-1.7,1.7-3,3.7-3.9,5.9C395,271.9,394.6,274.3,394.6,276.9z"/>
	<path class="st0" d="M492.4,277.2c0-4.8,0.8-9.2,2.4-13.1c1.6-3.9,3.8-7.3,6.6-10.2c2.8-2.8,6.1-5,9.9-6.6
		c3.8-1.6,7.9-2.4,12.5-2.4c3.1,0,5.8,0.3,8.1,1c2.3,0.7,4.3,1.5,5.9,2.4c1.6,1,3,2,4,3.1c1,1.1,1.8,2,2.4,2.8v-59h13.8v112.5h-13.8
		v-4c0-0.5,0-1,0.1-1.6c0.1-0.6,0.1-1,0.1-1.3c-0.9,0.9-1.9,1.8-3.2,2.8c-1.2,1-2.7,1.9-4.5,2.8c-1.7,0.9-3.7,1.6-5.8,2.1
		c-2.2,0.5-4.6,0.8-7.4,0.8c-4.9,0-9.3-0.8-13.2-2.5c-3.9-1.7-7.2-4-9.8-6.9c-2.6-2.9-4.7-6.3-6-10.2
		C493.1,285.8,492.4,281.6,492.4,277.2z M506.2,276.9c0,2.7,0.5,5.2,1.4,7.5c0.9,2.3,2.2,4.3,3.9,6c1.7,1.7,3.7,3,6,4
		c2.3,1,4.8,1.4,7.6,1.4c2.8,0,5.4-0.5,7.7-1.4c2.4-1,4.4-2.3,6-4c1.7-1.7,3-3.7,3.9-6c0.9-2.3,1.4-4.8,1.4-7.3c0-2.6-0.5-5-1.4-7.3
		c-0.9-2.3-2.2-4.2-3.9-5.8c-1.7-1.6-3.7-2.9-6-3.9c-2.4-1-4.9-1.4-7.7-1.4c-2.8,0-5.3,0.5-7.6,1.4c-2.3,0.9-4.3,2.2-6,3.9
		c-1.7,1.7-3,3.7-3.9,5.9C506.6,271.9,506.2,274.3,506.2,276.9z"/>
	<path class="st0" d="M571,277.8c0-4.4,0.9-8.6,2.6-12.6c1.7-4,4.1-7.5,7-10.4c2.9-3,6.3-5.3,10.2-7.1c3.9-1.8,8-2.7,12.3-2.7
		c2.9,0,5.5,0.4,7.8,1.1c2.3,0.7,4.3,1.6,6,2.5c1.7,1,3,1.9,4,3c1,1,1.6,1.8,1.9,2.4l0.6-7.3h13.4v61.2h-14v-4c0-0.5,0-0.9,0.1-1.4
		c0-0.4,0.1-0.7,0.1-0.9c-0.4,0.5-1.1,1.2-2,2.1c-1,0.9-2.3,1.8-3.9,2.7c-1.6,0.9-3.6,1.6-5.8,2.2c-2.3,0.6-4.9,0.9-7.8,0.9
		c-4.7,0-9-0.9-13-2.6c-3.9-1.7-7.3-4-10.2-6.9c-2.9-2.9-5.1-6.2-6.7-10C571.8,286,571,282,571,277.8z M585,276.9
		c0,2.7,0.5,5.2,1.4,7.5c0.9,2.3,2.2,4.3,3.9,6c1.7,1.7,3.7,3,6,4c2.3,1,4.8,1.4,7.6,1.4c2.8,0,5.3-0.5,7.6-1.4s4.3-2.3,6-4
		c1.7-1.7,3-3.7,3.9-6c0.9-2.3,1.4-4.8,1.4-7.3c0-2.6-0.5-5-1.4-7.3c-0.9-2.3-2.2-4.2-3.9-5.8c-1.7-1.6-3.7-2.9-6-3.9
		s-4.8-1.4-7.6-1.4c-2.8,0-5.3,0.5-7.6,1.4c-2.3,0.9-4.3,2.2-6,3.9c-1.7,1.7-3,3.7-3.9,5.9C585.4,271.9,585,274.3,585,276.9z"/>
	<path class="st0" d="M659.3,219.7h13.7v26.8h16v12.4h-16v48.8h-13.7v-48.8h-10.4v-12.4h10.4V219.7z"/>
	<path class="st0" d="M694.1,277.8c0-4.4,0.9-8.6,2.6-12.6c1.7-4,4.1-7.5,7-10.4c2.9-3,6.3-5.3,10.2-7.1c3.9-1.8,8-2.7,12.3-2.7
		c2.9,0,5.5,0.4,7.8,1.1c2.3,0.7,4.3,1.6,6,2.5c1.7,1,3,1.9,4,3c1,1,1.6,1.8,1.9,2.4l0.6-7.3h13.4v61.2h-14v-4c0-0.5,0-0.9,0.1-1.4
		c0-0.4,0.1-0.7,0.1-0.9c-0.4,0.5-1.1,1.2-2,2.1c-1,0.9-2.3,1.8-3.9,2.7c-1.6,0.9-3.6,1.6-5.8,2.2c-2.3,0.6-4.9,0.9-7.8,0.9
		c-4.7,0-9-0.9-13-2.6c-3.9-1.7-7.3-4-10.2-6.9c-2.9-2.9-5.1-6.2-6.7-10C694.9,286,694.1,282,694.1,277.8z M708.1,276.9
		c0,2.7,0.5,5.2,1.4,7.5c0.9,2.3,2.2,4.3,3.9,6c1.7,1.7,3.7,3,6,4s4.8,1.4,7.6,1.4c2.8,0,5.3-0.5,7.6-1.4c2.3-1,4.3-2.3,6-4
		c1.7-1.7,3-3.7,3.9-6c0.9-2.3,1.4-4.8,1.4-7.3c0-2.6-0.5-5-1.4-7.3c-0.9-2.3-2.2-4.2-3.9-5.8c-1.7-1.6-3.7-2.9-6-3.9
		c-2.3-1-4.8-1.4-7.6-1.4c-2.8,0-5.3,0.5-7.6,1.4s-4.3,2.2-6,3.9c-1.7,1.7-3,3.7-3.9,5.9C708.5,271.9,708.1,274.3,708.1,276.9z"/>
	<path class="st0" d="M811.6,252c-0.6,0.9-1.3,1.8-2.1,3c-0.8,1.1-1.6,2.1-2.4,3.1c-0.8,1-1.7,2.2-2.7,3.6c-1-0.7-1.9-1.2-2.8-1.6
		c-0.9-0.4-2-0.7-3.2-1.1c-1.2-0.3-2.4-0.5-3.7-0.5c-1.3,0-2.8,0.3-4.2,0.9c-1.5,0.6-2.2,1.9-2.2,3.8c0,1.6,0.6,3,1.9,4.1
		s2.9,2.1,4.8,3c1.9,0.9,3.9,1.8,6.2,2.8c2.3,1,4.3,2.2,6.2,3.6c1.9,1.4,3.5,3.2,4.8,5.4c1.3,2.2,1.9,4.8,1.9,8
		c0,2.8-0.5,5.3-1.5,7.6c-1,2.3-2.4,4.3-4.3,5.9c-1.9,1.6-4.1,2.9-6.7,3.9c-2.6,1-5.5,1.4-8.8,1.4c-3.9,0-7.8-0.7-11.4-2
		c-3.7-1.3-6.6-3.3-8.7-5.8c0.7-0.8,1.5-1.7,2.4-2.9c1-1.2,1.9-2.3,2.7-3.3c0.9-1.1,1.9-2.3,3.2-3.7c0-0.1,0.3,0.1,0.9,0.5
		c0.6,0.4,1.5,0.9,2.5,1.5c1.1,0.6,2.3,1.1,3.7,1.6c1.4,0.5,2.9,0.7,4.5,0.7c2.4,0,4.2-0.5,5.5-1.6c1.3-1.1,1.9-2.4,1.9-3.9
		c0-1.5-0.6-2.8-1.9-3.7s-2.9-1.8-4.8-2.7c-1.9-0.8-3.9-1.7-6.2-2.7c-2.3-1-4.3-2.2-6.2-3.6c-1.9-1.4-3.5-3.3-4.8-5.5
		c-1.3-2.3-1.9-5.1-1.9-8.6s0.6-6.3,1.9-8.6c1.2-2.3,2.9-4.2,4.8-5.6c2-1.4,4.1-2.5,6.4-3.1c2.3-0.6,4.6-0.9,6.8-0.9
		c3,0,6.1,0.6,9.3,1.8C806.7,248.1,809.4,249.8,811.6,252z"/>
	<path class="st0" d="M879.7,300.7c-3,2.7-6.6,4.8-10.8,6.3c-4.2,1.5-8.5,2.3-13,2.3c-4.5,0-8.8-0.8-12.7-2.5c-4-1.7-7.4-4-10.4-6.9
		c-2.9-2.9-5.3-6.3-7-10.2c-1.7-3.9-2.6-8-2.6-12.5c0-4.4,0.9-8.6,2.6-12.5c1.7-3.9,4.1-7.3,7-10.2c2.9-2.9,6.3-5.2,10.2-6.9
		c3.9-1.7,8-2.5,12.3-2.5c6.9,0,13,2.1,18.2,6.3c5.2,4.2,9,9.7,11.2,16.5c-2.9,1.1-6.2,2.3-10,3.8c-3.8,1.5-7.8,3-11.9,4.7
		c-4.1,1.6-8.3,3.3-12.4,5c-4.1,1.7-7.9,3.2-11.4,4.5c1.6,3,3.9,5.4,6.8,7.2c2.9,1.8,6.1,2.7,9.8,2.7c2.5,0,5-0.5,7.6-1.4
		c2.5-0.9,4.6-2.1,6.3-3.7L879.7,300.7z M867.6,264.7c-1.2-2.1-2.9-3.7-5.2-4.7c-2.3-1-4.6-1.5-6.8-1.5c-2.6,0-5,0.5-7.3,1.5
		c-2.3,1-4.3,2.4-5.9,4c-1.6,1.7-2.9,3.6-3.9,5.8c-1,2.2-1.4,4.4-1.4,6.7v0.6c2.4-1,5-2,7.7-3.1c2.7-1.1,5.5-2.2,8.2-3.4
		c2.7-1.2,5.4-2.2,7.8-3.2C863.4,266.3,865.6,265.4,867.6,264.7z"/>
	<path class="st0" d="M901,219.7h13.7v26.8h16v12.4h-16v48.8H901v-48.8h-10.4v-12.4H901V219.7z"/>
</g>
</svg>
