<?xml version="1.0" encoding="utf-8"?>
<!-- Generator: Adobe Illustrator 20.1.0, SVG Export Plug-In . SVG Version: 6.00 Build 0)  -->
<svg version="1.1" id="Layer_1" xmlns="http://www.w3.org/2000/svg" xmlns:xlink="http://www.w3.org/1999/xlink" x="0px" y="0px"
	 viewBox="0 0 1000 350" style="enable-background:new 0 0 1000 350;" xml:space="preserve">
<style type="text/css">
	.st0{fill:#999999;}
</style>
<g>
	<g>
		<path class="st0" d="M473.9,84.4c-2.1,4.5-5.6,6.3-10.6,6.1c-10-0.3-19.9-0.1-29.9-0.1c-6.2,0-9.1-2.9-9.2-9.2
			c0-10,0.2-19.9-0.1-29.9c-0.2-5.1,1.6-8.5,6.1-10.6c12.4,0,24.7,0,37.1,0c3.1,1.2,5.3,3.4,6.5,6.5C473.9,59.6,473.9,72,473.9,84.4
			z M440.8,73.7c5.6,0,11,0,16.6,0c0-5,0.1-9.9-0.1-14.8c0-0.6-1-1.7-1.6-1.7c-4.9-0.1-9.9-0.1-14.9-0.1
			C440.8,62.9,440.8,68.2,440.8,73.7z"/>
		<path class="st0" d="M341,130c2.1-4.5,5.6-6.3,10.6-6.1c10,0.3,19.9,0.1,29.9,0.1c6.2,0,9.1,2.9,9.2,9.2c0,10-0.2,19.9,0.1,29.9
			c0.2,5.1-1.6,8.5-6.1,10.6c-12.4,0-24.7,0-37.1,0c-3.1-1.2-5.3-3.4-6.5-6.5C341,154.7,341,142.3,341,130z M374,157
			c0-5.7,0-11.1,0-16.3c-5.6,0-11,0-16.2,0c0,5.6,0,11,0,16.3C363.3,157,368.6,157,374,157z"/>
		<path class="st0" d="M341,80.4c3-8.1,10-6.4,16-6.5c1.2-3.9,1.9-7.7,3.6-11.1c4.3-8.8,11.7-13.2,21.3-13.6
			c5.7-0.3,11.5-0.1,17.2,0c4.8,0.1,8.3,3.7,8.3,8.2s-3.6,8.1-8.4,8.1c-5.3,0.1-10.6-0.1-15.9,0.1c-5.2,0.1-8.3,3.1-8.7,8.4
			c2.5,0,5,0,7.4,0c3.7,0,6.6,1.5,8.1,4.9c1.6,3.5,0.8,6.8-1.9,9.6c-5.3,5.4-10.7,10.8-16.1,16.1c-3.6,3.5-8,3.7-11.6,0.3
			c-5.7-5.4-11.3-11.1-16.8-16.8c-1-1-1.7-2.4-2.5-3.7C341,83.1,341,81.7,341,80.4z"/>
		<path class="st0" d="M473.9,133.9c-3,5.7-3,5.7-16,6.6c-1.2,3.7-1.9,7.6-3.5,11c-4.3,8.8-11.7,13.2-21.3,13.6
			c-5.7,0.3-11.5,0.1-17.2,0c-4.8-0.1-8.3-3.7-8.3-8.2s3.6-8.1,8.4-8.1c5.3-0.1,10.6,0.1,15.9-0.1c5.2-0.1,8.3-3.1,8.7-8.4
			c-2.5,0-5,0-7.4,0c-3.7,0-6.6-1.5-8.1-4.9c-1.6-3.5-0.8-6.8,1.9-9.6c5.3-5.4,10.7-10.8,16.1-16.1c3.6-3.5,8-3.7,11.6-0.3
			c5.7,5.4,11.3,11.1,16.8,16.8c1,1,1.7,2.4,2.5,3.7C473.9,131.3,473.9,132.6,473.9,133.9z"/>
	</g>
</g>
<g>
	<path class="st0" d="M52.6,86.8c-17.9,0-32,13.8-32,31.5s14.1,31.6,32,31.6c9,0,18.2-4.1,25-10.6l9,10c-9.1,9-22,14.7-34.7,14.7
		c-26.2,0-46.6-19.8-46.6-45.6c0-25.5,20.6-45.1,47.1-45.1c12.7,0,25.3,5.2,34,13.8l-8.8,11C71,91.1,61.7,86.8,52.6,86.8z"/>
	<path class="st0" d="M116.3,68.3v95h-14.7v-95H116.3z"/>
	<path class="st0" d="M154.6,75.7c0,5.1-3.7,8.8-8.6,8.8s-8.6-3.7-8.6-8.8c0-5.2,3.7-9,8.6-9S154.6,70.5,154.6,75.7z M153.3,95.2
		v68.1h-14.6V95.2H153.3z"/>
	<path class="st0" d="M203.6,107.6c-11.8,0-20.2,8.8-20.2,21.8c0,12.9,8.4,21.8,20.2,21.8c8.6,0,15.5-2.8,20.1-8.2l8.2,8.2
		c-6.1,8.1-16,12.7-28.9,12.7c-20.2,0-34.3-14-34.3-34.4c0-20.6,14.1-34.7,34.3-34.7c12.3,0,21.9,4,28.2,11.1l-8.1,9.5
		C218.3,110.4,211.8,107.5,203.6,107.6z"/>
	<path class="st0" d="M274.1,132.1l-11.5,12.2v19.1h-14.7v-95h14.7v57.3l30.1-30.5h16.9l-25.2,26.4l27.1,41.7h-17.4L274.1,132.1z"/>
	<path class="st0" d="M542.4,158.9c-5.4,3.2-11,5-16.8,5c-10.2,0-19.1-5.9-19.1-19.8v-35.3H497v-11h9.6V79.1h14.6v18.7h20.1v11
		h-20.1v32.6c0,7,2.7,9.2,7.3,9.2c3.1,0,6.3-1,10.2-2.9L542.4,158.9z"/>
	<path class="st0" d="M619.9,129.2c0,20.5-14.5,34.6-35.5,34.6c-21.1,0-35.6-14.1-35.6-34.6c0-20.6,14.5-34.6,35.6-34.6
		C605.4,94.7,619.9,108.6,619.9,129.2z M563.5,129.4c0,13.2,8.6,22.1,20.9,22.1c12.2,0,20.7-9,20.7-22.1c0-13.1-8.6-22-20.7-22
		C572.1,107.4,563.5,116.3,563.5,129.4z"/>
	<path class="st0" d="M739.9,129.5c0,20.4-12.8,34.3-32.3,34.3c-10.9,0-19.1-4.4-24.1-12.3v36.6h-14.7V95.2h14.7V107
		c5-7.9,13.2-12.3,23.8-12.3C726.7,94.7,739.9,108.8,739.9,129.5z M725.1,129c0-12.7-8.6-22-20.7-22c-12.2,0-20.7,9.2-20.7,22
		c0,13.2,8.6,22.3,20.7,22.3C716.5,151.3,725.1,142.1,725.1,129z"/>
	<path class="st0" d="M771.2,75.7c0,5.1-3.7,8.8-8.6,8.8s-8.6-3.7-8.6-8.8c0-5.2,3.7-9,8.6-9S771.2,70.5,771.2,75.7z M769.9,95.2
		v68.1h-14.6V95.2H769.9z"/>
	<path class="st0" d="M820.2,107.6c-11.8,0-20.2,8.8-20.2,21.8c0,12.9,8.4,21.8,20.2,21.8c8.6,0,15.5-2.8,20.1-8.2l8.2,8.2
		c-6.1,8.1-16,12.7-28.9,12.7c-20.2,0-34.3-14-34.3-34.4c0-20.6,14.1-34.7,34.3-34.7c12.3,0,21.9,4,28.2,11.1l-8.1,9.5
		C834.9,110.4,828.4,107.5,820.2,107.6z"/>
	<path class="st0" d="M890.7,132.1l-11.5,12.2v19.1h-14.7v-95h14.7v57.3l30.1-30.5h16.9l-25.2,26.4l27.1,41.7h-17.4L890.7,132.1z"/>
	<path class="st0" d="M395.9,307.3V299c-4.9,6-12.7,9-22.5,9c-14.7,0-23.9-9.1-23.9-21.1c0-12.4,9.3-20.4,25.7-20.5h20.6v-2
		c0-8.6-5.5-13.7-16.3-13.7c-6.5,0-13.3,2.3-20.1,6.9l-6-10.2c9.5-5.6,16.4-8.6,29.3-8.6c17.5,0,27.4,9,27.5,23.9l0.1,44.7H395.9z
		 M395.7,283.4v-6.3h-18.4c-9.6,0-14.1,2.6-14.1,9.1c0,6.1,5,10.1,13.2,10.1C386.9,296.3,395,290.8,395.7,283.4z"/>
	<path class="st0" d="M528,212.3v95h-14.7v-11.6c-4.9,7.9-13.1,12.3-23.9,12.3c-19.6,0-32.6-14.2-32.6-34.9
		c0-20.5,13.2-34.4,32.4-34.4c11,0,19.2,4.5,24.2,12.4v-38.7H528z M513.2,273.5c0-13.2-8.6-22.4-20.9-22.4c-12.3,0-20.9,9.3-21,22.4
		c0.1,12.9,8.6,22.1,21,22.1C504.7,295.7,513.2,286.4,513.2,273.5z"/>
	<path class="st0" d="M591.2,307.3V299c-4.9,6-12.7,9-22.5,9c-14.7,0-23.9-9.1-23.9-21.1c0-12.4,9.3-20.4,25.7-20.5h20.6v-2
		c0-8.6-5.5-13.7-16.3-13.7c-6.5,0-13.3,2.3-20.1,6.9l-6-10.2c9.5-5.6,16.4-8.6,29.3-8.6c17.5,0,27.4,9,27.5,23.9l0.1,44.7H591.2z
		 M591.1,283.4v-6.3h-18.4c-9.6,0-14.1,2.6-14.1,9.1c0,6.1,5,10.1,13.2,10.1C582.2,296.3,590.3,290.8,591.1,283.4z"/>
	<path class="st0" d="M663.9,302.9c-5.4,3.2-11,5-16.8,5c-10.2,0-19.1-5.9-19.1-19.8v-35.3h-9.6v-11h9.6v-18.7h14.6v18.7h20.1v11
		h-20.1v32.6c0,7,2.7,9.2,7.3,9.2c3.1,0,6.3-1,10.2-2.9L663.9,302.9z"/>
	<path class="st0" d="M718.3,307.3V299c-4.9,6-12.7,9-22.5,9c-14.7,0-23.9-9.1-23.9-21.1c0-12.4,9.3-20.4,25.7-20.5h20.6v-2
		c0-8.6-5.5-13.7-16.3-13.7c-6.5,0-13.3,2.3-20.1,6.9l-6-10.2c9.5-5.6,16.4-8.6,29.3-8.6c17.5,0,27.4,9,27.5,23.9l0.1,44.7H718.3z
		 M718.2,283.4v-6.3h-18.4c-9.6,0-14.1,2.6-14.1,9.1c0,6.1,5,10.1,13.2,10.1C709.3,296.3,717.4,290.8,718.2,283.4z"/>
	<path class="st0" d="M771.7,250.3c-5.8,0-10,1.9-10,6.8c0,12.5,36.2,5.8,36.1,30.5c0,14-12.4,20.2-26.1,20.2
		c-10,0-20.6-3.3-27.4-9.5l5.2-10.5c5.9,5.2,15.4,8.4,22.8,8.4c6.3,0,11.1-2.2,11.1-7.3c0-14-35.8-6.1-35.7-30.7
		c0-13.8,12-19.7,25.1-19.7c8.6,0,17.7,2.6,23.8,6.9l-5.4,10.9C785.2,252.6,777.7,250.3,771.7,250.3z"/>
	<path class="st0" d="M872.5,278.9h-51.5c2.3,10.5,10.4,17,21.1,17c7.4,0,14.2-2.8,19.2-7.9l7.8,8.3c-6.7,7.3-16.4,11.5-28.2,11.5
		c-21,0-34.8-14-34.8-34.4c0-20.6,14.2-34.6,34.4-34.7C864.6,238.7,874.3,254.3,872.5,278.9z M859.7,268.1
		c-0.5-11-7.8-17.7-18.9-17.7c-10.8,0-18.4,6.8-20,17.7H859.7z"/>
	<path class="st0" d="M926.4,302.9c-5.4,3.2-11,5-16.8,5c-10.2,0-19.1-5.9-19.1-19.8v-35.3H881v-11h9.6v-18.7h14.6v18.7h20.1v11
		h-20.1v32.6c0,7,2.7,9.2,7.3,9.2c3.1,0,6.3-1,10.2-2.9L926.4,302.9z"/>
</g>
</svg>
