<?xml version="1.0" encoding="utf-8"?>
<!-- Generator: Adobe Illustrator 20.1.0, SVG Export Plug-In . SVG Version: 6.00 Build 0)  -->
<svg version="1.1" id="Layer_1" xmlns="http://www.w3.org/2000/svg" xmlns:xlink="http://www.w3.org/1999/xlink" x="0px" y="0px"
	 viewBox="0 0 540.4 416.1" style="enable-background:new 0 0 540.4 416.1;" xml:space="preserve">
<style type="text/css">
	.st0{fill:#999999;}
	.st1{enable-background:new    ;}
</style>
<g>
	<g>
		<path class="st0" d="M452.7,43.7c-2.1,4.5-5.6,6.3-10.6,6.1c-10-0.3-19.9-0.1-29.9-0.1c-6.2,0-9.1-2.9-9.2-9.2
			c0-10,0.2-19.9-0.1-29.9c-0.2-5.1,1.6-8.5,6.1-10.6c12.4,0,24.7,0,37.1,0c3.1,1.2,5.3,3.4,6.5,6.5
			C452.7,18.9,452.7,31.3,452.7,43.7z M419.6,33c5.6,0,11,0,16.6,0c0-5,0.1-9.9-0.1-14.8c0-0.6-1-1.7-1.6-1.7
			c-4.9-0.1-9.9-0.1-14.9-0.1C419.6,22.2,419.6,27.5,419.6,33z"/>
		<path class="st0" d="M319.8,89.3c2.1-4.5,5.6-6.3,10.6-6.1c10,0.3,19.9,0.1,29.9,0.1c6.2,0,9.1,2.9,9.2,9.2
			c0,10-0.2,19.9,0.1,29.9c0.2,5.1-1.6,8.5-6.1,10.6c-12.4,0-24.7,0-37.1,0c-3.1-1.2-5.3-3.4-6.5-6.5
			C319.8,114,319.8,101.6,319.8,89.3z M352.8,116.3c0-5.7,0-11.1,0-16.3c-5.6,0-11,0-16.2,0c0,5.6,0,11,0,16.3
			C342.1,116.3,347.4,116.3,352.8,116.3z"/>
		<path class="st0" d="M319.8,39.7c3-8.1,10-6.4,16-6.5c1.2-3.9,1.9-7.7,3.6-11.1c4.3-8.8,11.7-13.2,21.3-13.6
			c5.7-0.3,11.5-0.1,17.2,0c4.8,0.1,8.3,3.7,8.3,8.2s-3.6,8.1-8.4,8.1c-5.3,0.1-10.6-0.1-15.9,0.1c-5.2,0.1-8.3,3.1-8.7,8.4
			c2.5,0,5,0,7.4,0c3.7,0,6.6,1.5,8.1,4.9c1.6,3.5,0.8,6.8-1.9,9.6c-5.3,5.4-10.7,10.8-16.1,16.1c-3.6,3.5-8,3.7-11.6,0.3
			c-5.7-5.4-11.3-11.1-16.8-16.8c-1-1-1.7-2.4-2.5-3.7C319.8,42.4,319.8,41,319.8,39.7z"/>
		<path class="st0" d="M452.7,93.2c-3,5.7-3,5.7-16,6.6c-1.2,3.7-1.9,7.6-3.5,11c-4.3,8.8-11.7,13.2-21.3,13.6
			c-5.7,0.3-11.5,0.1-17.2,0c-4.8-0.1-8.3-3.7-8.3-8.2s3.6-8.1,8.4-8.1c5.3-0.1,10.6,0.1,15.9-0.1c5.2-0.1,8.3-3.1,8.7-8.4
			c-2.5,0-5,0-7.4,0c-3.7,0-6.6-1.5-8.1-4.9c-1.6-3.5-0.8-6.8,1.9-9.6c5.3-5.4,10.7-10.8,16.1-16.1c3.6-3.5,8-3.7,11.6-0.3
			c5.7,5.4,11.3,11.1,16.8,16.8c1,1,1.7,2.4,2.5,3.7C452.7,90.6,452.7,91.9,452.7,93.2z"/>
	</g>
</g>
<g class="st1">
	<path class="st0" d="M87.3,119.2c-1.2,0.9-2.8,1.8-4.8,2.8c-2.1,1-4.5,1.9-7.3,2.8c-2.8,0.9-5.9,1.6-9.3,2.2
		c-3.4,0.6-7,0.9-10.9,0.9c-8.2,0-15.5-1.4-22-4.2c-6.5-2.8-12-6.6-16.5-11.4c-4.5-4.8-8-10.4-10.4-16.7c-2.4-6.3-3.6-13.1-3.6-20.2
		c0-7.9,1.4-15.1,4.2-21.7c2.8-6.6,6.7-12.3,11.6-17.1c4.9-4.8,10.6-8.5,17.2-11.2c6.6-2.7,13.6-4,21-4c2.8,0,5.6,0.2,8.5,0.6
		c2.9,0.4,5.6,0.9,8.1,1.6c2.5,0.7,4.8,1.5,6.8,2.4c2,0.9,3.5,1.8,4.5,2.8c-0.8,1.2-1.4,2.1-1.8,2.9c-0.4,0.8-0.9,1.6-1.4,2.4
		c-0.5,0.8-1,1.8-1.6,2.8c-0.6,1.1-1.3,2.4-2.3,4.2c-1.2-0.9-2.7-1.6-4.4-2.2c-1.7-0.6-3.4-1.1-5.3-1.4c-1.8-0.4-3.7-0.7-5.5-0.9
		c-1.9-0.2-3.6-0.3-5.1-0.3c-5.6,0-10.7,1-15.5,3.1c-4.8,2.1-8.9,4.8-12.3,8.4c-3.5,3.5-6.2,7.6-8.1,12.2c-2,4.6-3,9.4-3,14.4
		c0,4.9,0.9,9.6,2.8,14.1c1.9,4.5,4.5,8.5,7.8,12.1c3.3,3.6,7.3,6.4,12,8.5c4.7,2.1,9.8,3.2,15.3,3.2c3,0,5.9-0.3,8.6-0.9
		c2.8-0.6,5.3-1.2,7.6-2c2.3-0.8,4.1-1.5,5.6-2.3c1.5-0.8,2.4-1.3,2.7-1.7L87.3,119.2z"/>
	<path class="st0" d="M109.9,126.7H97.6V14.8h12.2V126.7z"/>
	<path class="st0" d="M125.7,43.5c0-2.3,0.8-4.2,2.5-5.8c1.7-1.5,3.5-2.3,5.4-2.3c1.9,0,3.7,0.8,5.3,2.3c1.6,1.5,2.4,3.5,2.4,5.8
		c0,2.3-0.8,4.2-2.4,5.7c-1.6,1.5-3.4,2.2-5.3,2.2c-1.9,0-3.7-0.7-5.4-2.2C126.5,47.7,125.7,45.8,125.7,43.5z M139.5,126.7h-12.2
		V66.5h12.2V126.7z"/>
	<path class="st0" d="M197.1,111.9c1.3,1.6,2.6,3.2,3.8,4.7c1.2,1.5,2.4,3,3.7,4.7c-2.7,2.1-5.7,3.8-9.1,5c-3.4,1.2-7,1.9-10.9,1.9
		c-4.4,0-8.6-0.8-12.5-2.5c-3.9-1.7-7.3-4-10.2-6.8s-5.2-6.2-6.8-10.1c-1.7-3.8-2.5-7.9-2.5-12.2c0-4.3,0.8-8.4,2.5-12.2
		c1.7-3.8,4-7.2,6.8-10c2.9-2.8,6.3-5.1,10.2-6.8c3.9-1.7,8-2.5,12.5-2.5c4,0,7.8,0.6,11.2,1.9c3.4,1.2,6.5,2.9,9.3,5l-7.9,9.4
		c-1.6-1.3-3.5-2.4-5.6-3.1c-2.1-0.7-4.4-1.1-6.9-1.1c-2.9,0-5.5,0.5-7.9,1.5c-2.4,1-4.5,2.4-6.3,4.1c-1.8,1.7-3.1,3.8-4.1,6.1
		c-1,2.4-1.4,4.9-1.4,7.7c0,2.8,0.5,5.4,1.4,7.7c1,2.4,2.3,4.4,4.1,6.2c1.8,1.8,3.9,3.2,6.3,4.2c2.4,1,5,1.5,7.9,1.5
		c2.5,0,4.8-0.4,6.9-1.1C193.6,114.2,195.5,113.2,197.1,111.9z"/>
	<path class="st0" d="M259.5,64.9l7.3,7.3c-3.6,3.4-7.1,6.6-10.4,9.8c-3.3,3.2-6.8,6.5-10.4,9.9c4.3,5.8,8.5,11.5,12.7,17.4
		c4.1,5.8,8.3,11.6,12.5,17.4H257c-3.3-4.5-6.6-9-9.9-13.3c-3.3-4.4-6.6-8.8-9.9-13.3l-8.4,7.6v19h-12.2V14.8H229v78.5
		c5.4-4.9,10.5-9.6,15.4-14.2C249.3,74.5,254.3,69.8,259.5,64.9z"/>
	<path class="st0" d="M10.8,184H23v26.6h16.1v10.9H23v49.1H10.8v-49.1H0v-10.9h10.8V184z"/>
	<path class="st0" d="M43.9,240.5c0-4.3,0.8-8.4,2.5-12.2c1.7-3.8,4-7.2,6.8-10c2.9-2.8,6.3-5.1,10.2-6.8c3.9-1.7,8.1-2.5,12.6-2.5
		c4.5,0,8.7,0.8,12.6,2.5c3.9,1.7,7.2,3.9,10.1,6.8c2.8,2.8,5,6.2,6.6,10c1.6,3.8,2.4,7.9,2.4,12.2c0,4.3-0.8,8.4-2.4,12.2
		c-1.6,3.8-3.8,7.2-6.6,10.1c-2.8,2.9-6.2,5.2-10.1,6.8c-3.9,1.7-8.1,2.5-12.7,2.5c-4.4,0-8.6-0.8-12.5-2.3
		c-3.9-1.5-7.3-3.7-10.2-6.5c-2.9-2.8-5.2-6.1-6.8-10C44.8,249.5,43.9,245.2,43.9,240.5z M56.2,240.6c0,2.7,0.5,5.2,1.5,7.6
		c1,2.4,2.4,4.4,4.2,6.2c1.8,1.8,3.8,3.2,6.2,4.2c2.4,1,4.9,1.5,7.6,1.5c2.7,0,5.2-0.5,7.6-1.5c2.4-1,4.5-2.4,6.3-4.2
		c1.8-1.8,3.2-3.8,4.2-6.2c1.1-2.4,1.6-4.9,1.6-7.6c0-2.7-0.5-5.2-1.6-7.6c-1.1-2.4-2.5-4.5-4.2-6.3c-1.8-1.8-3.9-3.2-6.3-4.2
		c-2.4-1-4.9-1.5-7.6-1.5c-2.7,0-5.2,0.5-7.6,1.5c-2.4,1-4.4,2.4-6.2,4.2c-1.8,1.8-3.2,3.9-4.2,6.3
		C56.7,235.4,56.2,237.9,56.2,240.6z"/>
	<path class="st0" d="M218.3,240.7c0,4.5-0.8,8.7-2.3,12.5c-1.5,3.8-3.7,7.2-6.5,9.9c-2.8,2.8-6.1,5-10,6.6s-8.1,2.4-12.7,2.4
		c-2.4,0-4.7-0.3-6.8-0.8c-2.2-0.5-4.2-1.2-6-2.2c-1.8-0.9-3.4-1.9-4.8-3c-1.3-1.1-2.4-2.2-3-3.4c0,0.5,0,1,0.1,1.5
		c0,0.5,0.1,1,0.1,1.5v33.8h-12.4v-89.1h12c0,1.2,0.1,2.6,0.2,4.2c0.1,1.7,0.2,3.2,0.2,4.5c0.8-1.2,1.8-2.3,3.1-3.5
		c1.3-1.2,2.8-2.3,4.6-3.3c1.8-1,3.8-1.8,6-2.5c2.2-0.7,4.7-1,7.3-1c4.6,0,8.8,0.7,12.6,2.2c3.8,1.5,7.1,3.6,9.8,6.3
		c2.7,2.7,4.8,6.1,6.3,10C217.6,231.4,218.3,235.8,218.3,240.7z M204.9,240.5c0-2.8-0.4-5.4-1.3-7.7c-0.9-2.4-2.1-4.4-3.7-6.1
		c-1.6-1.7-3.6-3.1-5.9-4.1s-4.9-1.5-7.8-1.5c-2.9,0-5.5,0.5-8,1.5c-2.4,1-4.5,2.4-6.3,4.1c-1.7,1.7-3.1,3.8-4.1,6.1
		c-1,2.4-1.5,4.9-1.5,7.7c0,2.8,0.5,5.4,1.5,7.8c1,2.4,2.4,4.5,4.1,6.2c1.7,1.7,3.8,3.1,6.3,4.1c2.4,1,5.1,1.5,8,1.5
		c2.9,0,5.5-0.5,7.8-1.5s4.3-2.4,5.9-4.2c1.6-1.8,2.9-3.8,3.7-6.2C204.5,245.8,204.9,243.2,204.9,240.5z"/>
	<path class="st0" d="M230.1,187.5c0-2.3,0.8-4.2,2.5-5.8c1.7-1.5,3.5-2.3,5.4-2.3c1.9,0,3.7,0.8,5.3,2.3c1.6,1.5,2.4,3.5,2.4,5.8
		c0,2.3-0.8,4.2-2.4,5.7c-1.6,1.5-3.4,2.2-5.3,2.2c-1.9,0-3.7-0.7-5.4-2.2C230.9,191.7,230.1,189.8,230.1,187.5z M243.9,270.7h-12.2
		v-60.2h12.2V270.7z"/>
	<path class="st0" d="M301.5,255.9c1.3,1.6,2.6,3.2,3.8,4.7c1.2,1.5,2.4,3,3.7,4.7c-2.7,2.1-5.7,3.8-9.1,5c-3.4,1.2-7,1.9-10.9,1.9
		c-4.4,0-8.6-0.8-12.5-2.5c-3.9-1.7-7.3-4-10.2-6.8c-2.9-2.9-5.2-6.2-6.8-10.1c-1.7-3.8-2.5-7.9-2.5-12.2c0-4.3,0.8-8.4,2.5-12.2
		c1.7-3.8,4-7.2,6.8-10c2.9-2.8,6.3-5.1,10.2-6.8c3.9-1.7,8-2.5,12.5-2.5c4,0,7.8,0.6,11.2,1.9c3.4,1.2,6.5,2.9,9.3,5l-7.9,9.4
		c-1.6-1.3-3.5-2.4-5.6-3.1c-2.1-0.7-4.4-1.1-6.9-1.1c-2.9,0-5.5,0.5-7.9,1.5c-2.4,1-4.5,2.4-6.3,4.1c-1.8,1.7-3.1,3.8-4.1,6.1
		c-1,2.4-1.4,4.9-1.4,7.7c0,2.8,0.5,5.4,1.4,7.7c1,2.4,2.3,4.4,4.1,6.2c1.8,1.8,3.9,3.2,6.3,4.2c2.4,1,5,1.5,7.9,1.5
		c2.5,0,4.8-0.4,6.9-1.1C298,258.2,299.9,257.2,301.5,255.9z"/>
	<path class="st0" d="M363.9,208.9l7.3,7.3c-3.6,3.4-7.1,6.6-10.4,9.8c-3.3,3.2-6.8,6.5-10.4,9.9c4.3,5.8,8.5,11.5,12.7,17.4
		c4.1,5.8,8.3,11.6,12.5,17.4h-14.1c-3.3-4.5-6.6-8.9-9.9-13.3c-3.3-4.4-6.6-8.8-9.9-13.3l-8.4,7.6v19h-12.2V158.8h12.2v78.5
		c5.4-4.9,10.5-9.6,15.4-14.2C353.7,218.5,358.7,213.8,363.9,208.9z"/>
	<path class="st0" d="M1.4,385.2c0-4.4,0.8-8.6,2.5-12.5c1.7-3.9,4-7.3,6.8-10.2c2.9-2.9,6.2-5.3,10-7c3.8-1.7,7.8-2.6,12.2-2.6
		c2.9,0,5.5,0.4,7.9,1.1c2.4,0.7,4.5,1.6,6.2,2.7c1.7,1.1,3.1,2.2,4.2,3.3c1.1,1.2,1.8,2.2,2.2,3l0.6-8.5h11.8v60.2H53.4v-7.6
		c-0.5,0.8-1.2,1.7-2.3,2.7c-1.1,1.1-2.4,2-4.1,3c-1.7,0.9-3.7,1.7-6,2.4c-2.3,0.7-4.9,1-7.9,1c-4.6,0-8.9-0.8-12.7-2.5
		c-3.9-1.7-7.2-3.9-10-6.8c-2.8-2.8-5-6.1-6.6-9.9S1.4,389.3,1.4,385.2z M13.8,384.5c0,2.8,0.5,5.4,1.5,7.8c1,2.4,2.4,4.5,4.1,6.2
		s3.8,3.1,6.2,4.1c2.4,1,5,1.5,7.9,1.5c2.9,0,5.5-0.5,8-1.5c2.4-1,4.6-2.4,6.3-4.2c1.8-1.8,3.1-3.8,4.1-6.2c1-2.4,1.4-4.9,1.4-7.7
		c0-2.8-0.5-5.3-1.4-7.7c-1-2.4-2.3-4.4-4.1-6.1c-1.8-1.7-3.9-3.1-6.3-4.1c-2.4-1-5.1-1.5-8-1.5c-2.9,0-5.5,0.5-7.9,1.5
		c-2.4,1-4.5,2.4-6.2,4.1c-1.7,1.7-3.1,3.8-4.1,6.1C14.3,379.1,13.8,381.7,13.8,384.5z"/>
	<path class="st0" d="M112.2,384.6c0-4.7,0.8-9,2.4-12.9c1.6-3.9,3.8-7.2,6.6-10c2.8-2.8,6.1-4.9,9.9-6.5c3.8-1.5,7.9-2.3,12.3-2.3
		c3,0,5.6,0.4,8,1.1c2.4,0.7,4.4,1.6,6,2.6c1.7,1,3.1,2.1,4.2,3.4s2,2.4,2.6,3.3v-60.5h12.4v111.9h-12.4v-4.5c0-0.6,0-1.2,0.1-1.9
		c0.1-0.7,0.1-1.3,0.1-1.8c-1,1.2-2.1,2.3-3.4,3.4c-1.3,1.1-2.8,2.1-4.5,3.1c-1.7,1-3.7,1.7-6,2.3c-2.3,0.6-4.8,0.9-7.7,0.9
		c-4.8,0-9.1-0.8-12.9-2.5c-3.8-1.7-7-3.9-9.6-6.8c-2.6-2.8-4.7-6.2-6-10C112.9,393,112.2,388.9,112.2,384.6z M124.6,384.5
		c0,2.8,0.5,5.4,1.5,7.8c1,2.4,2.4,4.5,4.1,6.2c1.7,1.7,3.8,3.1,6.2,4.1c2.4,1,5,1.5,7.9,1.5s5.5-0.5,8-1.5s4.6-2.4,6.3-4.2
		c1.8-1.8,3.1-3.8,4.1-6.2c1-2.4,1.4-4.9,1.4-7.7c0-2.8-0.5-5.3-1.4-7.7c-1-2.4-2.3-4.4-4.1-6.1c-1.8-1.7-3.9-3.1-6.3-4.1
		s-5.1-1.5-8-1.5s-5.5,0.5-7.9,1.5c-2.4,1-4.5,2.4-6.2,4.1c-1.7,1.7-3.1,3.8-4.1,6.1C125.1,379.1,124.6,381.7,124.6,384.5z"/>
	<path class="st0" d="M189.6,385.2c0-4.4,0.8-8.6,2.5-12.5c1.7-3.9,4-7.3,6.8-10.2c2.9-2.9,6.2-5.3,10-7c3.8-1.7,7.8-2.6,12.2-2.6
		c2.9,0,5.5,0.4,7.9,1.1c2.4,0.7,4.5,1.6,6.2,2.7c1.7,1.1,3.1,2.2,4.2,3.3c1.1,1.2,1.8,2.2,2.2,3l0.6-8.5H254v60.2h-12.4v-7.6
		c-0.5,0.8-1.2,1.7-2.3,2.7c-1.1,1.1-2.4,2-4.1,3c-1.7,0.9-3.7,1.7-6,2.4c-2.3,0.7-4.9,1-7.9,1c-4.6,0-8.9-0.8-12.7-2.5
		c-3.9-1.7-7.2-3.9-10-6.8c-2.8-2.8-5-6.1-6.6-9.9S189.6,389.3,189.6,385.2z M202,384.5c0,2.8,0.5,5.4,1.5,7.8
		c1,2.4,2.4,4.5,4.1,6.2c1.7,1.7,3.8,3.1,6.2,4.1c2.4,1,5,1.5,7.9,1.5s5.5-0.5,8-1.5c2.4-1,4.6-2.4,6.3-4.2c1.8-1.8,3.1-3.8,4.1-6.2
		c1-2.4,1.4-4.9,1.4-7.7c0-2.8-0.5-5.3-1.4-7.7c-1-2.4-2.3-4.4-4.1-6.1c-1.8-1.7-3.9-3.1-6.3-4.1c-2.4-1-5.1-1.5-8-1.5
		s-5.5,0.5-7.9,1.5c-2.4,1-4.5,2.4-6.2,4.1c-1.7,1.7-3.1,3.8-4.1,6.1C202.5,379.1,202,381.7,202,384.5z"/>
	<path class="st0" d="M276.5,328h12.2v26.6h16.1v10.9h-16.1v49.1h-12.2v-49.1h-10.8v-10.9h10.8V328z"/>
	<path class="st0" d="M309.6,385.2c0-4.4,0.8-8.6,2.5-12.5c1.7-3.9,4-7.3,6.8-10.2c2.9-2.9,6.2-5.3,10-7c3.8-1.7,7.8-2.6,12.2-2.6
		c2.9,0,5.5,0.4,7.9,1.1c2.4,0.7,4.5,1.6,6.2,2.7c1.7,1.1,3.1,2.2,4.2,3.3c1.1,1.2,1.8,2.2,2.2,3l0.6-8.5H374v60.2h-12.4v-7.6
		c-0.5,0.8-1.2,1.7-2.3,2.7c-1.1,1.1-2.4,2-4.1,3c-1.7,0.9-3.7,1.7-6,2.4c-2.3,0.7-4.9,1-7.9,1c-4.6,0-8.9-0.8-12.7-2.5
		c-3.9-1.7-7.2-3.9-10-6.8c-2.8-2.8-5-6.1-6.6-9.9S309.6,389.3,309.6,385.2z M322,384.5c0,2.8,0.5,5.4,1.5,7.8
		c1,2.4,2.4,4.5,4.1,6.2c1.7,1.7,3.8,3.1,6.2,4.1c2.4,1,5,1.5,7.9,1.5s5.5-0.5,8-1.5c2.4-1,4.6-2.4,6.3-4.2c1.8-1.8,3.1-3.8,4.1-6.2
		c1-2.4,1.4-4.9,1.4-7.7c0-2.8-0.5-5.3-1.4-7.7c-1-2.4-2.3-4.4-4.1-6.1c-1.8-1.7-3.9-3.1-6.3-4.1c-2.4-1-5.1-1.5-8-1.5
		s-5.5,0.5-7.9,1.5c-2.4,1-4.5,2.4-6.2,4.1c-1.7,1.7-3.1,3.8-4.1,6.1C322.5,379.1,322,381.7,322,384.5z"/>
	<path class="st0" d="M424.8,359.8l-6.5,8.6c-0.1-0.1-0.4-0.3-1-0.7c-0.6-0.4-1.3-0.8-2.2-1.2c-0.9-0.4-2-0.7-3.2-1.1
		c-1.2-0.3-2.4-0.5-3.7-0.5c-1.6,0-3.2,0.4-4.8,1.2c-1.6,0.8-2.4,2.2-2.4,4.3c0,1.8,0.6,3.3,1.9,4.5s2.9,2.2,4.8,3.1
		c1.9,0.9,4,1.8,6.3,2.8c2.3,1,4.3,2.1,6.3,3.5c1.9,1.4,3.5,3.1,4.8,5.2s1.9,4.7,1.9,7.8c0,5.4-1.8,9.8-5.5,13.3
		c-3.7,3.5-8.8,5.3-15.2,5.3c-3.7,0-7.4-0.6-11-1.9c-3.6-1.3-6.5-3.2-8.7-5.7c0.7-0.7,1.4-1.5,2.2-2.6c0.8-1.1,1.6-2.1,2.4-3
		c0.8-1,1.5-1.8,2-2.4c0.5-0.6,0.8-0.9,0.9-0.9c0,0.1,0.4,0.4,1.1,0.9c0.7,0.5,1.7,1,2.8,1.5c1.2,0.5,2.4,1,3.9,1.4
		c1.4,0.4,2.9,0.6,4.3,0.6c2.3,0,4.3-0.6,5.9-1.7c1.6-1.2,2.4-2.7,2.4-4.6c0-1.7-0.6-3.1-1.9-4.1s-2.9-1.9-4.8-2.8
		c-1.9-0.9-4-1.8-6.3-2.7s-4.4-2.1-6.3-3.5c-1.9-1.4-3.5-3.2-4.8-5.4c-1.3-2.2-1.9-5-1.9-8.4c0-3.3,0.6-6,1.8-8.2
		c1.2-2.2,2.7-4,4.6-5.4c1.9-1.4,4-2.4,6.3-3c2.3-0.6,4.5-0.9,6.6-0.9c2.8,0,5.8,0.6,8.9,1.7C419.9,355.9,422.6,357.6,424.8,359.8z"
		/>
	<path class="st0" d="M491.2,407.6c-2.9,2.6-6.4,4.7-10.5,6.2c-4.1,1.5-8.4,2.3-12.7,2.3c-4.4,0-8.6-0.8-12.5-2.5
		c-3.9-1.7-7.3-3.9-10.2-6.8c-2.9-2.8-5.2-6.2-6.8-10c-1.7-3.8-2.5-7.9-2.5-12.2s0.8-8.4,2.5-12.2c1.7-3.8,4-7.2,6.8-10.1
		c2.9-2.9,6.2-5.2,10-6.8c3.8-1.7,7.8-2.5,12.2-2.5c6.8,0,12.7,2,17.8,6.1c5,4.1,8.7,9.4,10.9,16.1c-3,1.1-6.4,2.4-10.2,3.9
		c-3.8,1.5-7.8,3.1-12,4.8c-4.1,1.7-8.3,3.3-12.4,5c-4.1,1.6-8,3.1-11.5,4.5c1.6,3.3,4,5.9,7.1,7.8c3.1,2,6.6,3,10.4,3
		c2.6,0,5.2-0.5,7.8-1.4c2.6-1,4.8-2.3,6.4-3.9L491.2,407.6z M480.8,372.2c-1.2-2.4-3-4.2-5.5-5.4c-2.5-1.2-5-1.8-7.6-1.8
		c-2.8,0-5.4,0.5-7.7,1.6c-2.4,1.1-4.4,2.5-6.1,4.2c-1.7,1.8-3.1,3.8-4.1,6.1c-1,2.3-1.5,4.7-1.5,7.1c0,0.5,0,0.8,0.1,1
		c0,0.2,0.1,0.3,0.1,0.4c2.5-1,5.2-2,8.1-3.2c2.9-1.2,5.8-2.4,8.7-3.6c2.9-1.2,5.7-2.3,8.4-3.5C476.3,374.1,478.7,373.1,480.8,372.2
		z"/>
	<path class="st0" d="M512.1,328h12.2v26.6h16.1v10.9h-16.1v49.1h-12.2v-49.1h-10.8v-10.9h10.8V328z"/>
</g>
</svg>
