<?xml version="1.0" encoding="utf-8"?>
<!-- Generator: Adobe Illustrator 20.1.0, SVG Export Plug-In . SVG Version: 6.00 Build 0)  -->
<svg version="1.1" id="Layer_1" xmlns="http://www.w3.org/2000/svg" xmlns:xlink="http://www.w3.org/1999/xlink" x="0px" y="0px"
	 viewBox="0 0 1000 350" style="enable-background:new 0 0 1000 350;" xml:space="preserve">
<style type="text/css">
	.st0{fill:#999999;}
</style>
<g>
	<g>
		<path class="st0" d="M535.9,67.1c-2.1,4.5-5.6,6.3-10.6,6.1c-10-0.3-19.9-0.1-29.9-0.1c-6.2,0-9.1-2.9-9.2-9.2
			c0-10,0.2-19.9-0.1-29.9c-0.2-5.1,1.6-8.5,6.1-10.6c12.4,0,24.7,0,37.1,0c3.1,1.2,5.3,3.4,6.5,6.5
			C535.9,42.3,535.9,54.7,535.9,67.1z M502.8,56.4c5.6,0,11,0,16.6,0c0-5,0.1-9.9-0.1-14.8c0-0.6-1-1.7-1.6-1.7
			c-4.9-0.1-9.9-0.1-14.9-0.1C502.8,45.6,502.8,50.9,502.8,56.4z"/>
		<path class="st0" d="M403,112.7c2.1-4.5,5.6-6.3,10.6-6.1c10,0.3,19.9,0.1,29.9,0.1c6.2,0,9.1,2.9,9.2,9.2c0,10-0.2,19.9,0.1,29.9
			c0.2,5.1-1.6,8.5-6.1,10.6c-12.4,0-24.7,0-37.1,0c-3.1-1.2-5.3-3.4-6.5-6.5C403,137.4,403,125,403,112.7z M436,139.7
			c0-5.7,0-11.1,0-16.3c-5.6,0-11,0-16.2,0c0,5.6,0,11,0,16.3C425.3,139.7,430.6,139.7,436,139.7z"/>
		<path class="st0" d="M403,63.1c3-8.1,10-6.4,16-6.5c1.2-3.9,1.9-7.7,3.6-11.1c4.3-8.8,11.7-13.2,21.3-13.6
			c5.7-0.3,11.5-0.1,17.2,0c4.8,0.1,8.3,3.7,8.3,8.2s-3.6,8.1-8.4,8.1c-5.3,0.1-10.6-0.1-15.9,0.1c-5.2,0.1-8.3,3.1-8.7,8.4
			c2.5,0,5,0,7.4,0c3.7,0,6.6,1.5,8.1,4.9c1.6,3.5,0.8,6.8-1.9,9.6c-5.3,5.4-10.7,10.8-16.1,16.1c-3.6,3.5-8,3.7-11.6,0.3
			c-5.7-5.4-11.3-11.1-16.8-16.8c-1-1-1.7-2.4-2.5-3.7C403,65.8,403,64.4,403,63.1z"/>
		<path class="st0" d="M535.9,116.6c-3,5.7-3,5.7-16,6.6c-1.2,3.7-1.9,7.6-3.5,11c-4.3,8.8-11.7,13.2-21.3,13.6
			c-5.7,0.3-11.5,0.1-17.2,0c-4.8-0.1-8.3-3.7-8.3-8.2s3.6-8.1,8.4-8.1c5.3-0.1,10.6,0.1,15.9-0.1c5.2-0.1,8.3-3.1,8.7-8.4
			c-2.5,0-5,0-7.4,0c-3.7,0-6.6-1.5-8.1-4.9c-1.6-3.5-0.8-6.8,1.9-9.6c5.3-5.4,10.7-10.8,16.1-16.1c3.6-3.5,8-3.7,11.6-0.3
			c5.7,5.4,11.3,11.1,16.8,16.8c1,1,1.7,2.4,2.5,3.7C535.9,114,535.9,115.3,535.9,116.6z"/>
	</g>
</g>
<g>
	<path class="st0" d="M107,68.9c-17.9,0-32,13.8-32,31.5S89.1,132,107,132c9,0,18.2-4.1,25-10.6l9,10c-9.1,9-22,14.7-34.7,14.7
		c-26.2,0-46.6-19.8-46.6-45.6c0-25.5,20.6-45.1,47.1-45.1c12.7,0,25.3,5.2,34,13.8l-8.8,11C125.4,73.2,116.1,68.9,107,68.9z"/>
	<path class="st0" d="M170.8,50.4v95H156v-95H170.8z"/>
	<path class="st0" d="M209,57.8c0,5.1-3.7,8.8-8.6,8.8s-8.6-3.7-8.6-8.8c0-5.2,3.7-9,8.6-9S209,52.6,209,57.8z M207.7,77.3v68.1
		h-14.6V77.3H207.7z"/>
	<path class="st0" d="M258.1,89.7c-11.8,0-20.2,8.8-20.2,21.8c0,12.9,8.4,21.8,20.2,21.8c8.6,0,15.5-2.8,20.1-8.2l8.2,8.2
		c-6.1,8.1-16,12.7-28.9,12.7c-20.2,0-34.3-14-34.3-34.4c0-20.6,14.1-34.7,34.3-34.7c12.3,0,21.9,4,28.2,11.1l-8.1,9.5
		C272.8,92.5,266.2,89.6,258.1,89.7z"/>
	<path class="st0" d="M328.6,114.2l-11.5,12.2v19.1h-14.7v-95h14.7v57.3l30.1-30.5H364l-25.2,26.4l27.1,41.7h-17.4L328.6,114.2z"/>
	<path class="st0" d="M612,141c-5.4,3.2-11,5-16.8,5c-10.2,0-19.1-5.9-19.1-19.8V90.9h-9.6v-11h9.6V61.2h14.6v18.7h20.1v11h-20.1
		v32.6c0,7,2.7,9.2,7.3,9.2c3.1,0,6.3-1,10.2-2.9L612,141z"/>
	<path class="st0" d="M689.4,111.4c0,20.5-14.5,34.6-35.5,34.6c-21.1,0-35.6-14.1-35.6-34.6c0-20.6,14.5-34.6,35.6-34.6
		C674.9,76.8,689.4,90.7,689.4,111.4z M633.1,111.5c0,13.2,8.6,22.1,20.9,22.1c12.2,0,20.7-9,20.7-22.1c0-13.1-8.6-22-20.7-22
		C641.7,89.5,633.1,98.4,633.1,111.5z"/>
	<path class="st0" d="M809.5,111.6c0,20.4-12.8,34.3-32.3,34.3c-10.9,0-19.1-4.4-24.1-12.3v36.6h-14.7V77.3h14.7v11.8
		c5-7.9,13.2-12.3,23.8-12.3C796.3,76.8,809.5,90.9,809.5,111.6z M794.6,111.1c0-12.7-8.6-22-20.7-22c-12.2,0-20.7,9.2-20.7,22
		c0,13.2,8.6,22.3,20.7,22.3C786,133.4,794.6,124.2,794.6,111.1z"/>
	<path class="st0" d="M840.7,57.8c0,5.1-3.7,8.8-8.6,8.8s-8.6-3.7-8.6-8.8c0-5.2,3.7-9,8.6-9S840.7,52.6,840.7,57.8z M839.4,77.3
		v68.1h-14.6V77.3H839.4z"/>
	<path class="st0" d="M889.7,89.7c-11.8,0-20.2,8.8-20.2,21.8c0,12.9,8.4,21.8,20.2,21.8c8.6,0,15.5-2.8,20.1-8.2l8.2,8.2
		c-6.1,8.1-16,12.7-28.9,12.7c-20.2,0-34.3-14-34.3-34.4c0-20.6,14.1-34.7,34.3-34.7c12.3,0,21.9,4,28.2,11.1l-8.1,9.5
		C904.4,92.5,897.9,89.6,889.7,89.7z"/>
	<path class="st0" d="M960.3,114.2l-11.5,12.2v19.1H934v-95h14.7v57.3l30.1-30.5h16.9l-25.2,26.4l27.1,41.7h-17.4L960.3,114.2z"/>
	<path class="st0" d="M107,289.4v-8.3c-4.9,6-12.7,9-22.5,9c-14.7,0-23.9-9.1-23.9-21.1c0-12.4,9.3-20.4,25.7-20.5h20.6v-2
		c0-8.6-5.5-13.7-16.3-13.7c-6.5,0-13.3,2.3-20.1,6.9l-6-10.2c9.5-5.6,16.4-8.6,29.3-8.6c17.5,0,27.4,9,27.5,23.9l0.1,44.7H107z
		 M106.9,265.5v-6.3H88.5c-9.6,0-14.1,2.6-14.1,9.1c0,6.1,5,10.1,13.2,10.1C98.1,278.4,106.1,272.9,106.9,265.5z"/>
	<path class="st0" d="M178.8,221.3l18.9,53.6l18.7-53.6h14.7l-26.1,68.1h-15.2l-26.4-68.1H178.8z"/>
	<path class="st0" d="M257.3,201.8c0,5.1-3.7,8.8-8.6,8.8s-8.6-3.7-8.6-8.8c0-5.2,3.7-9,8.6-9S257.3,196.6,257.3,201.8z M256,221.3
		v68.1h-14.6v-68.1H256z"/>
	<path class="st0" d="M297,232.4c-5.8,0-10,1.9-10,6.8c0,12.5,36.2,5.8,36.1,30.5c0,14-12.4,20.2-26.1,20.2c-10,0-20.6-3.3-27.4-9.5
		l5.2-10.5c5.9,5.2,15.4,8.4,22.8,8.4c6.3,0,11.1-2.2,11.1-7.3c0-14-35.8-6.1-35.7-30.7c0-13.8,12-19.7,25.1-19.7
		c8.6,0,17.7,2.6,23.8,6.9l-5.4,10.9C310.5,234.7,303,232.4,297,232.4z"/>
	<path class="st0" d="M399.7,221.3v68.1H385v-13.3c-4.6,9.5-13.2,13.7-24.3,13.8c-15.6,0-25-10-25-26.2v-42.4h14.7v38.3
		c0,10.2,6,16.5,15.9,16.5c11.8-0.3,18.7-9.3,18.7-21.2v-33.5H399.7z"/>
	<path class="st0" d="M462.3,289.4v-8.3c-4.9,6-12.7,9-22.5,9c-14.7,0-23.9-9.1-23.9-21.1c0-12.4,9.3-20.4,25.7-20.5h20.6v-2
		c0-8.6-5.5-13.7-16.3-13.7c-6.5,0-13.3,2.3-20.1,6.9l-6-10.2c9.5-5.6,16.4-8.6,29.3-8.6c17.5,0,27.4,9,27.5,23.9l0.1,44.7H462.3z
		 M462.2,265.5v-6.3h-18.4c-9.6,0-14.1,2.6-14.1,9.1c0,6.1,5,10.1,13.2,10.1C453.4,278.4,461.4,272.9,462.2,265.5z"/>
	<path class="st0" d="M511.9,194.4v95h-14.7v-95H511.9z"/>
	<path class="st0" d="M550.1,201.8c0,5.1-3.7,8.8-8.6,8.8s-8.6-3.7-8.6-8.8c0-5.2,3.7-9,8.6-9S550.1,196.6,550.1,201.8z
		 M548.9,221.3v68.1h-14.6v-68.1H548.9z"/>
	<path class="st0" d="M565.5,289.4v-10l38.9-46.1h-37.8v-12l55.9,0.1v9.9l-38.9,46.1l40.1,0.1v12L565.5,289.4z"/>
	<path class="st0" d="M678.9,289.4v-8.3c-4.9,6-12.7,9-22.5,9c-14.7,0-23.9-9.1-23.9-21.1c0-12.4,9.3-20.4,25.7-20.5h20.6v-2
		c0-8.6-5.5-13.7-16.3-13.7c-6.5,0-13.3,2.3-20.1,6.9l-6-10.2c9.5-5.6,16.4-8.6,29.3-8.6c17.5,0,27.4,9,27.5,23.9l0.1,44.7H678.9z
		 M678.8,265.5v-6.3h-18.4c-9.6,0-14.1,2.6-14.1,9.1c0,6.1,5,10.1,13.2,10.1C670,278.4,678,272.9,678.8,265.5z"/>
	<path class="st0" d="M751.6,285c-5.4,3.2-11,5-16.8,5c-10.2,0-19.1-5.9-19.1-19.8v-35.3h-9.6v-11h9.6v-18.7h14.6v18.7h20.1v11
		h-20.1v32.6c0,7,2.7,9.2,7.3,9.2c3.1,0,6.3-1,10.2-2.9L751.6,285z"/>
	<path class="st0" d="M781.1,201.8c0,5.1-3.7,8.8-8.6,8.8s-8.6-3.7-8.6-8.8c0-5.2,3.7-9,8.6-9S781.1,196.6,781.1,201.8z
		 M779.8,221.3v68.1h-14.6v-68.1H779.8z"/>
	<path class="st0" d="M866.2,255.4c0,20.5-14.5,34.6-35.5,34.6c-21.1,0-35.6-14.1-35.6-34.6c0-20.6,14.5-34.6,35.6-34.6
		C851.7,220.8,866.2,234.7,866.2,255.4z M809.9,255.5c0,13.2,8.6,22.1,20.9,22.1c12.2,0,20.7-9,20.7-22.1c0-13.1-8.6-22-20.7-22
		C818.4,233.5,809.9,242.4,809.9,255.5z"/>
	<path class="st0" d="M946.7,247v42.4H932v-38.3c0-10.2-6.1-16.5-16.4-16.5c-11.3,0.1-18.3,7.9-19.3,18.6v36.2h-14.7v-68.1h14.7
		v13.1c4.9-9.5,13.6-13.6,25.1-13.6C937.2,220.8,946.7,230.8,946.7,247z"/>
</g>
</svg>
