<?xml version="1.0" encoding="utf-8"?>
<!-- Generator: Adobe Illustrator 20.1.0, SVG Export Plug-In . SVG Version: 6.00 Build 0)  -->
<svg version="1.1" id="Layer_1" xmlns="http://www.w3.org/2000/svg" xmlns:xlink="http://www.w3.org/1999/xlink" x="0px" y="0px"
	 viewBox="0 0 880.7 269.6" style="enable-background:new 0 0 880.7 269.6;" xml:space="preserve">
<style type="text/css">
	.st0{fill:#999999;}
	.st1{enable-background:new    ;}
</style>
<g>
	<g>
		<path class="st0" d="M452.7,43.7c-2.1,4.5-5.6,6.3-10.6,6.1c-10-0.3-19.9-0.1-29.9-0.1c-6.2,0-9.1-2.9-9.2-9.2
			c0-10,0.2-19.9-0.1-29.9c-0.2-5.1,1.6-8.5,6.1-10.6c12.4,0,24.7,0,37.1,0c3.1,1.2,5.3,3.4,6.5,6.5
			C452.7,18.9,452.7,31.3,452.7,43.7z M419.6,33c5.6,0,11,0,16.6,0c0-5,0.1-9.9-0.1-14.8c0-0.6-1-1.7-1.6-1.7
			c-4.9-0.1-9.9-0.1-14.9-0.1C419.6,22.2,419.6,27.5,419.6,33z"/>
		<path class="st0" d="M319.8,89.3c2.1-4.5,5.6-6.3,10.6-6.1c10,0.3,19.9,0.1,29.9,0.1c6.2,0,9.1,2.9,9.2,9.2
			c0,10-0.2,19.9,0.1,29.9c0.2,5.1-1.6,8.5-6.1,10.6c-12.4,0-24.7,0-37.1,0c-3.1-1.2-5.3-3.4-6.5-6.5
			C319.8,114,319.8,101.6,319.8,89.3z M352.8,116.3c0-5.7,0-11.1,0-16.3c-5.6,0-11,0-16.2,0c0,5.6,0,11,0,16.3
			C342.1,116.3,347.4,116.3,352.8,116.3z"/>
		<path class="st0" d="M319.8,39.7c3-8.1,10-6.4,16-6.5c1.2-3.9,1.9-7.7,3.6-11.1c4.3-8.8,11.7-13.2,21.3-13.6
			c5.7-0.3,11.5-0.1,17.2,0c4.8,0.1,8.3,3.7,8.3,8.2s-3.6,8.1-8.4,8.1c-5.3,0.1-10.6-0.1-15.9,0.1c-5.2,0.1-8.3,3.1-8.7,8.4
			c2.5,0,5,0,7.4,0c3.7,0,6.6,1.5,8.1,4.9c1.6,3.5,0.8,6.8-1.9,9.6c-5.3,5.4-10.7,10.8-16.1,16.1c-3.6,3.5-8,3.7-11.6,0.3
			c-5.7-5.4-11.3-11.1-16.8-16.8c-1-1-1.7-2.4-2.5-3.7C319.8,42.4,319.8,41,319.8,39.7z"/>
		<path class="st0" d="M452.7,93.2c-3,5.7-3,5.7-16,6.6c-1.2,3.7-1.9,7.6-3.5,11c-4.3,8.8-11.7,13.2-21.3,13.6
			c-5.7,0.3-11.5,0.1-17.2,0c-4.8-0.1-8.3-3.7-8.3-8.2s3.6-8.1,8.4-8.1c5.3-0.1,10.6,0.1,15.9-0.1c5.2-0.1,8.3-3.1,8.7-8.4
			c-2.5,0-5,0-7.4,0c-3.7,0-6.6-1.5-8.1-4.9c-1.6-3.5-0.8-6.8,1.9-9.6c5.3-5.4,10.7-10.8,16.1-16.1c3.6-3.5,8-3.7,11.6-0.3
			c5.7,5.4,11.3,11.1,16.8,16.8c1,1,1.7,2.4,2.5,3.7C452.7,90.6,452.7,91.9,452.7,93.2z"/>
	</g>
</g>
<g class="st1">
	<path class="st0" d="M85.8,114.5c-1.2,0.9-2.8,1.8-4.8,2.8c-2.1,1-4.5,1.9-7.3,2.8c-2.8,0.9-5.9,1.6-9.3,2.2
		c-3.4,0.6-7,0.9-10.9,0.9c-8.2,0-15.5-1.4-22-4.2c-6.5-2.8-12-6.6-16.5-11.4c-4.5-4.8-8-10.4-10.4-16.7c-2.4-6.3-3.6-13.1-3.6-20.2
		c0-7.9,1.4-15.1,4.2-21.7c2.8-6.6,6.7-12.3,11.6-17.1c4.9-4.8,10.6-8.5,17.2-11.2c6.6-2.7,13.6-4,21-4c2.8,0,5.6,0.2,8.5,0.6
		c2.9,0.4,5.6,0.9,8.1,1.6c2.5,0.7,4.8,1.5,6.8,2.4c2,0.9,3.5,1.8,4.5,2.8c-0.8,1.2-1.4,2.1-1.8,2.9c-0.4,0.8-0.9,1.6-1.4,2.4
		c-0.5,0.8-1,1.8-1.6,2.8C77.8,32.9,77,34.3,76,36c-1.2-0.9-2.7-1.6-4.4-2.2c-1.7-0.6-3.4-1.1-5.3-1.4c-1.8-0.4-3.7-0.7-5.5-0.9
		c-1.9-0.2-3.6-0.3-5.1-0.3c-5.6,0-10.7,1-15.5,3.1c-4.8,2.1-8.9,4.8-12.3,8.4c-3.5,3.5-6.2,7.6-8.1,12.2c-2,4.6-3,9.4-3,14.4
		c0,4.9,0.9,9.6,2.8,14.1c1.9,4.5,4.5,8.5,7.8,12.1c3.3,3.6,7.3,6.4,12,8.5c4.7,2.1,9.8,3.2,15.3,3.2c3,0,5.9-0.3,8.6-0.9
		c2.8-0.6,5.3-1.2,7.6-2c2.3-0.8,4.1-1.5,5.6-2.3c1.5-0.8,2.4-1.3,2.7-1.7L85.8,114.5z"/>
	<path class="st0" d="M108.4,122H96.2V10.1h12.2V122z"/>
	<path class="st0" d="M124.3,38.8c0-2.3,0.8-4.2,2.5-5.8c1.7-1.5,3.5-2.3,5.4-2.3c1.9,0,3.7,0.8,5.3,2.3c1.6,1.5,2.4,3.5,2.4,5.8
		c0,2.3-0.8,4.2-2.4,5.7c-1.6,1.5-3.4,2.2-5.3,2.2c-1.9,0-3.7-0.7-5.4-2.2C125.1,43,124.3,41.1,124.3,38.8z M138.1,122h-12.2V61.8
		h12.2V122z"/>
	<path class="st0" d="M195.7,107.2c1.3,1.6,2.6,3.2,3.8,4.7c1.2,1.5,2.4,3,3.7,4.7c-2.7,2.1-5.7,3.8-9.1,5c-3.4,1.2-7,1.9-10.9,1.9
		c-4.4,0-8.6-0.8-12.5-2.5c-3.9-1.7-7.3-4-10.2-6.8s-5.2-6.2-6.8-10.1c-1.7-3.8-2.5-7.9-2.5-12.2c0-4.3,0.8-8.4,2.5-12.2
		c1.7-3.8,4-7.2,6.8-10c2.9-2.8,6.3-5.1,10.2-6.8c3.9-1.7,8-2.5,12.5-2.5c4,0,7.8,0.6,11.2,1.9c3.4,1.2,6.5,2.9,9.3,5l-7.9,9.4
		c-1.6-1.3-3.5-2.4-5.6-3.1c-2.1-0.7-4.4-1.1-6.9-1.1c-2.9,0-5.5,0.5-7.9,1.5c-2.4,1-4.5,2.4-6.3,4.1c-1.8,1.7-3.1,3.8-4.1,6.1
		c-1,2.4-1.4,4.9-1.4,7.7c0,2.8,0.5,5.4,1.4,7.7c1,2.4,2.3,4.4,4.1,6.2c1.8,1.8,3.9,3.2,6.3,4.2c2.4,1,5,1.5,7.9,1.5
		c2.5,0,4.8-0.4,6.9-1.1C192.2,109.6,194.1,108.5,195.7,107.2z"/>
	<path class="st0" d="M258,60.2l7.3,7.3c-3.6,3.4-7.1,6.6-10.4,9.8c-3.3,3.2-6.8,6.5-10.4,9.9c4.3,5.8,8.5,11.5,12.7,17.4
		c4.1,5.8,8.3,11.6,12.5,17.4h-14.1c-3.3-4.5-6.6-9-9.9-13.3c-3.3-4.4-6.6-8.8-9.9-13.3l-8.4,7.6v19h-12.2V10.1h12.2v78.5
		c5.4-4.9,10.5-9.6,15.4-14.2C247.8,69.9,252.9,65.1,258,60.2z"/>
	<path class="st0" d="M515.9,35.3h12.2V62h16.1v10.9h-16.1V122h-12.2V72.9h-10.8V62h10.8V35.3z"/>
	<path class="st0" d="M549.1,91.8c0-4.3,0.8-8.4,2.5-12.2c1.7-3.8,4-7.2,6.8-10c2.9-2.8,6.3-5.1,10.2-6.8c3.9-1.7,8.1-2.5,12.6-2.5
		c4.5,0,8.7,0.8,12.6,2.5c3.9,1.7,7.2,3.9,10.1,6.8c2.8,2.8,5,6.2,6.6,10c1.6,3.8,2.4,7.9,2.4,12.2c0,4.3-0.8,8.4-2.4,12.2
		c-1.6,3.8-3.8,7.2-6.6,10.1c-2.8,2.9-6.2,5.2-10.1,6.8c-3.9,1.7-8.1,2.5-12.7,2.5c-4.4,0-8.6-0.8-12.5-2.3
		c-3.9-1.5-7.3-3.7-10.2-6.5c-2.9-2.8-5.2-6.1-6.8-10C549.9,100.8,549.1,96.5,549.1,91.8z M561.3,91.9c0,2.7,0.5,5.2,1.5,7.6
		c1,2.4,2.4,4.4,4.2,6.2c1.8,1.8,3.8,3.2,6.2,4.2c2.4,1,4.9,1.5,7.6,1.5c2.7,0,5.2-0.5,7.6-1.5c2.4-1,4.5-2.4,6.3-4.2
		c1.8-1.8,3.2-3.8,4.2-6.2c1.1-2.4,1.6-4.9,1.6-7.6c0-2.7-0.5-5.2-1.6-7.6c-1.1-2.4-2.5-4.5-4.2-6.3c-1.8-1.8-3.9-3.2-6.3-4.2
		c-2.4-1-4.9-1.5-7.6-1.5c-2.7,0-5.2,0.5-7.6,1.5c-2.4,1-4.4,2.4-6.2,4.2c-1.8,1.8-3.2,3.9-4.2,6.3
		C561.8,86.7,561.3,89.2,561.3,91.9z"/>
	<path class="st0" d="M723.4,92.1c0,4.5-0.8,8.7-2.3,12.5c-1.5,3.8-3.7,7.2-6.5,9.9c-2.8,2.8-6.1,5-10,6.6s-8.1,2.4-12.7,2.4
		c-2.4,0-4.7-0.3-6.8-0.8c-2.2-0.5-4.2-1.2-6-2.2c-1.8-0.9-3.4-1.9-4.8-3c-1.3-1.1-2.4-2.2-3-3.4c0,0.5,0,1,0.1,1.5
		c0,0.5,0.1,1,0.1,1.5V151h-12.4V61.8h12c0,1.2,0.1,2.6,0.2,4.2c0.1,1.7,0.2,3.2,0.2,4.5c0.8-1.2,1.8-2.3,3.1-3.5
		c1.3-1.2,2.8-2.3,4.6-3.3c1.8-1,3.8-1.8,6-2.5c2.2-0.7,4.7-1,7.3-1c4.6,0,8.8,0.7,12.6,2.2c3.8,1.5,7.1,3.6,9.8,6.3
		c2.7,2.7,4.8,6.1,6.3,10C722.7,82.8,723.4,87.2,723.4,92.1z M710,91.8c0-2.8-0.4-5.4-1.3-7.7c-0.9-2.4-2.1-4.4-3.7-6.1
		c-1.6-1.7-3.6-3.1-5.9-4.1s-4.9-1.5-7.8-1.5c-2.9,0-5.5,0.5-8,1.5c-2.4,1-4.5,2.4-6.3,4.1c-1.7,1.7-3.1,3.8-4.1,6.1
		c-1,2.4-1.5,4.9-1.5,7.7c0,2.8,0.5,5.4,1.5,7.8c1,2.4,2.4,4.5,4.1,6.2c1.7,1.7,3.8,3.1,6.3,4.1c2.4,1,5.1,1.5,8,1.5
		c2.9,0,5.5-0.5,7.8-1.5s4.3-2.4,5.9-4.2c1.6-1.8,2.9-3.8,3.7-6.2C709.6,97.1,710,94.6,710,91.8z"/>
	<path class="st0" d="M735.2,38.8c0-2.3,0.8-4.2,2.5-5.8c1.7-1.5,3.5-2.3,5.4-2.3c1.9,0,3.7,0.8,5.3,2.3c1.6,1.5,2.4,3.5,2.4,5.8
		c0,2.3-0.8,4.2-2.4,5.7c-1.6,1.5-3.4,2.2-5.3,2.2c-1.9,0-3.7-0.7-5.4-2.2C736.1,43,735.2,41.1,735.2,38.8z M749.1,122h-12.2V61.8
		h12.2V122z"/>
	<path class="st0" d="M806.7,107.2c1.3,1.6,2.6,3.2,3.8,4.7c1.2,1.5,2.4,3,3.7,4.7c-2.7,2.1-5.7,3.8-9.1,5c-3.4,1.2-7,1.9-10.9,1.9
		c-4.4,0-8.6-0.8-12.5-2.5c-3.9-1.7-7.3-4-10.2-6.8s-5.2-6.2-6.8-10.1c-1.7-3.8-2.5-7.9-2.5-12.2c0-4.3,0.8-8.4,2.5-12.2
		c1.7-3.8,4-7.2,6.8-10c2.9-2.8,6.3-5.1,10.2-6.8c3.9-1.7,8-2.5,12.5-2.5c4,0,7.8,0.6,11.2,1.9c3.4,1.2,6.5,2.9,9.3,5l-7.9,9.4
		c-1.6-1.3-3.5-2.4-5.6-3.1c-2.1-0.7-4.4-1.1-6.9-1.1c-2.9,0-5.5,0.5-7.9,1.5c-2.4,1-4.5,2.4-6.3,4.1c-1.8,1.7-3.1,3.8-4.1,6.1
		c-1,2.4-1.4,4.9-1.4,7.7c0,2.8,0.5,5.4,1.4,7.7c1,2.4,2.3,4.4,4.1,6.2c1.8,1.8,3.9,3.2,6.3,4.2c2.4,1,5,1.5,7.9,1.5
		c2.5,0,4.8-0.4,6.9-1.1C803.2,109.6,805,108.5,806.7,107.2z"/>
	<path class="st0" d="M869,60.2l7.3,7.3c-3.6,3.4-7.1,6.6-10.4,9.8c-3.3,3.2-6.8,6.5-10.4,9.9c4.3,5.8,8.5,11.5,12.7,17.4
		c4.1,5.8,8.3,11.6,12.5,17.4h-14.1c-3.3-4.5-6.6-9-9.9-13.3c-3.3-4.4-6.6-8.8-9.9-13.3l-8.4,7.6v19h-12.2V10.1h12.2v78.5
		c5.4-4.9,10.5-9.6,15.4-14.2C858.8,69.9,863.8,65.1,869,60.2z"/>
	<path class="st0" d="M0,236.5c0-4.4,0.8-8.6,2.5-12.5c1.7-3.9,4-7.3,6.8-10.2c2.9-2.9,6.2-5.3,10-7c3.8-1.7,7.8-2.6,12.2-2.6
		c2.9,0,5.5,0.4,7.9,1.1c2.4,0.7,4.5,1.6,6.2,2.7c1.7,1.1,3.1,2.2,4.2,3.3c1.1,1.2,1.8,2.2,2.2,3l0.6-8.5h11.8V266H52v-7.6
		c-0.5,0.8-1.2,1.7-2.3,2.7c-1.1,1.1-2.4,2-4.1,3c-1.7,0.9-3.7,1.7-6,2.4c-2.3,0.7-4.9,1-7.9,1c-4.6,0-8.9-0.8-12.7-2.5
		c-3.9-1.7-7.2-3.9-10-6.8c-2.8-2.8-5-6.1-6.6-9.9S0,240.6,0,236.5z M12.4,235.8c0,2.8,0.5,5.4,1.5,7.8c1,2.4,2.4,4.5,4.1,6.2
		s3.8,3.1,6.2,4.1c2.4,1,5,1.5,7.9,1.5c2.9,0,5.5-0.5,8-1.5c2.4-1,4.6-2.4,6.3-4.2c1.8-1.8,3.1-3.8,4.1-6.2c1-2.4,1.4-4.9,1.4-7.7
		c0-2.8-0.5-5.3-1.4-7.7c-1-2.4-2.3-4.4-4.1-6.1c-1.8-1.7-3.9-3.1-6.3-4.1c-2.4-1-5.1-1.5-8-1.5c-2.9,0-5.5,0.5-7.9,1.5
		c-2.4,1-4.5,2.4-6.2,4.1c-1.7,1.7-3.1,3.8-4.1,6.1C12.9,230.4,12.4,233,12.4,235.8z"/>
	<path class="st0" d="M134.9,269.6c-5.7-10.8-11-21.4-15.9-31.9c-4.9-10.5-10.2-21.1-15.6-31.9h13.4c3.5,6.8,6.2,12.4,8.3,16.7
		c2.1,4.3,3.7,7.9,5,10.8c1.2,2.9,2.2,5.3,2.9,7.3c0.7,2,1.3,4,2,6c0.8-2,1.5-4,2.2-6c0.7-2,1.7-4.4,2.9-7.3
		c1.2-2.9,2.8-6.5,4.9-10.8c2.1-4.3,4.8-9.9,8.3-16.7h13.4c-5.5,10.8-10.8,21.4-15.8,31.9C145.7,248.2,140.4,258.9,134.9,269.6z"/>
	<path class="st0" d="M174,182.8c0-2.3,0.8-4.2,2.5-5.8c1.7-1.5,3.5-2.3,5.4-2.3c1.9,0,3.7,0.8,5.3,2.3c1.6,1.5,2.4,3.5,2.4,5.8
		c0,2.3-0.8,4.2-2.4,5.7c-1.6,1.5-3.4,2.2-5.3,2.2c-1.9,0-3.7-0.7-5.4-2.2C174.8,187,174,185.1,174,182.8z M187.8,266h-12.2v-60.2
		h12.2V266z"/>
	<path class="st0" d="M238.6,211.2l-6.5,8.6c-0.1-0.1-0.4-0.3-1-0.7c-0.6-0.4-1.3-0.8-2.2-1.2c-0.9-0.4-2-0.7-3.2-1.1
		c-1.2-0.3-2.4-0.5-3.7-0.5c-1.6,0-3.2,0.4-4.8,1.2c-1.6,0.8-2.4,2.2-2.4,4.3c0,1.8,0.6,3.3,1.9,4.5s2.9,2.2,4.8,3.1
		c1.9,0.9,4,1.8,6.3,2.8c2.3,1,4.3,2.1,6.3,3.5c1.9,1.4,3.5,3.1,4.8,5.2s1.9,4.7,1.9,7.8c0,5.4-1.8,9.8-5.5,13.3
		c-3.7,3.5-8.8,5.3-15.2,5.3c-3.7,0-7.4-0.6-11-1.9c-3.6-1.3-6.5-3.2-8.7-5.7c0.7-0.7,1.4-1.5,2.2-2.6c0.8-1.1,1.6-2.1,2.4-3
		c0.8-1,1.5-1.8,2-2.4c0.5-0.6,0.8-0.9,0.9-0.9c0,0.1,0.4,0.4,1.1,0.9c0.7,0.5,1.7,1,2.8,1.5c1.2,0.5,2.4,1,3.9,1.4
		c1.4,0.4,2.9,0.6,4.3,0.6c2.3,0,4.3-0.6,5.9-1.7c1.6-1.2,2.4-2.7,2.4-4.6c0-1.7-0.6-3.1-1.9-4.1s-2.9-1.9-4.8-2.8
		c-1.9-0.9-4-1.8-6.3-2.7s-4.4-2.1-6.3-3.5c-1.9-1.4-3.5-3.2-4.8-5.4c-1.3-2.2-1.9-5-1.9-8.4c0-3.3,0.6-6,1.8-8.2
		c1.2-2.2,2.7-4,4.6-5.4c1.9-1.4,4-2.4,6.3-3c2.3-0.6,4.5-0.9,6.6-0.9c2.8,0,5.8,0.6,8.9,1.7C233.7,207.3,236.4,208.9,238.6,211.2z"
		/>
	<path class="st0" d="M310,267.3h-10.4l-1.4-16.7c-2.2,4.9-5.3,8.9-9.3,12.1c-4,3.2-9,4.8-15.2,4.8c-6.1,0-11-1.7-14.6-5
		s-5.5-7.7-5.7-13v-43.6h12.2V244c0.2,3,1.3,5.5,3.2,7.6c2,2.1,5,3.3,9.1,3.6c2.9,0,5.5-0.5,7.9-1.5c2.4-1,4.5-2.4,6.2-4.1
		c1.7-1.7,3.1-3.8,4-6.2c1-2.4,1.4-5,1.4-7.9v-29.7H310V267.3z"/>
	<path class="st0" d="M323.1,236.5c0-4.4,0.8-8.6,2.5-12.5c1.7-3.9,4-7.3,6.8-10.2c2.9-2.9,6.2-5.3,10-7c3.8-1.7,7.8-2.6,12.2-2.6
		c2.9,0,5.5,0.4,7.9,1.1c2.4,0.7,4.5,1.6,6.2,2.7c1.7,1.1,3.1,2.2,4.2,3.3c1.1,1.2,1.8,2.2,2.2,3l0.6-8.5h11.8V266h-12.4v-7.6
		c-0.5,0.8-1.2,1.7-2.3,2.7c-1.1,1.1-2.4,2-4.1,3c-1.7,0.9-3.7,1.7-6,2.4c-2.3,0.7-4.9,1-7.9,1c-4.6,0-8.9-0.8-12.7-2.5
		c-3.9-1.7-7.2-3.9-10-6.8c-2.8-2.8-5-6.1-6.6-9.9S323.1,240.6,323.1,236.5z M335.5,235.8c0,2.8,0.5,5.4,1.5,7.8
		c1,2.4,2.4,4.5,4.1,6.2c1.7,1.7,3.8,3.1,6.2,4.1c2.4,1,5,1.5,7.9,1.5s5.5-0.5,8-1.5c2.4-1,4.6-2.4,6.3-4.2c1.8-1.8,3.1-3.8,4.1-6.2
		c1-2.4,1.4-4.9,1.4-7.7c0-2.8-0.5-5.3-1.4-7.7c-1-2.4-2.3-4.4-4.1-6.1c-1.8-1.7-3.9-3.1-6.3-4.1c-2.4-1-5.1-1.5-8-1.5
		s-5.5,0.5-7.9,1.5c-2.4,1-4.5,2.4-6.2,4.1c-1.7,1.7-3.1,3.8-4.1,6.1C336,230.4,335.5,233,335.5,235.8z"/>
	<path class="st0" d="M417.2,266h-12.2V154.1h12.2V266z"/>
	<path class="st0" d="M433,182.8c0-2.3,0.8-4.2,2.5-5.8c1.7-1.5,3.5-2.3,5.4-2.3c1.9,0,3.7,0.8,5.3,2.3c1.6,1.5,2.4,3.5,2.4,5.8
		c0,2.3-0.8,4.2-2.4,5.7c-1.6,1.5-3.4,2.2-5.3,2.2c-1.9,0-3.7-0.7-5.4-2.2C433.8,187,433,185.1,433,182.8z M446.8,266h-12.2v-60.2
		h12.2V266z"/>
	<path class="st0" d="M514.4,266h-56.7l34.6-49.7H472c-3.4,0-6.1-0.9-8.4-2.7c-2.2-1.8-3.3-4.3-3.3-7.3v-6.2h11.1v1.9
		c0,1.6,0.4,2.7,1.2,3.2c0.8,0.5,2,0.7,3.7,0.7h38.4l-33.6,48.1h33.1V266z"/>
	<path class="st0" d="M522.1,236.5c0-4.4,0.8-8.6,2.5-12.5c1.7-3.9,4-7.3,6.8-10.2c2.9-2.9,6.2-5.3,10-7c3.8-1.7,7.8-2.6,12.2-2.6
		c2.9,0,5.5,0.4,7.9,1.1c2.4,0.7,4.5,1.6,6.2,2.7c1.7,1.1,3.1,2.2,4.2,3.3c1.1,1.2,1.8,2.2,2.2,3l0.6-8.5h11.8V266h-12.4v-7.6
		c-0.5,0.8-1.2,1.7-2.3,2.7c-1.1,1.1-2.4,2-4.1,3c-1.7,0.9-3.7,1.7-6,2.4c-2.3,0.7-4.9,1-7.9,1c-4.6,0-8.9-0.8-12.7-2.5
		c-3.9-1.7-7.2-3.9-10-6.8c-2.8-2.8-5-6.1-6.6-9.9S522.1,240.6,522.1,236.5z M534.5,235.8c0,2.8,0.5,5.4,1.5,7.8
		c1,2.4,2.4,4.5,4.1,6.2c1.7,1.7,3.8,3.1,6.2,4.1c2.4,1,5,1.5,7.9,1.5s5.5-0.5,8-1.5c2.4-1,4.6-2.4,6.3-4.2c1.8-1.8,3.1-3.8,4.1-6.2
		c1-2.4,1.4-4.9,1.4-7.7c0-2.8-0.5-5.3-1.4-7.7c-1-2.4-2.3-4.4-4.1-6.1c-1.8-1.7-3.9-3.1-6.3-4.1c-2.4-1-5.1-1.5-8-1.5
		s-5.5,0.5-7.9,1.5c-2.4,1-4.5,2.4-6.2,4.1c-1.7,1.7-3.1,3.8-4.1,6.1C535,230.4,534.5,233,534.5,235.8z"/>
	<path class="st0" d="M609,179.3h12.2V206h16.1v10.9h-16.1V266H609v-49.1h-10.8V206H609V179.3z"/>
	<path class="st0" d="M646,182.8c0-2.3,0.8-4.2,2.5-5.8c1.7-1.5,3.5-2.3,5.4-2.3c1.9,0,3.7,0.8,5.3,2.3c1.6,1.5,2.4,3.5,2.4,5.8
		c0,2.3-0.8,4.2-2.4,5.7c-1.6,1.5-3.4,2.2-5.3,2.2c-1.9,0-3.7-0.7-5.4-2.2C646.8,187,646,185.1,646,182.8z M659.8,266h-12.2v-60.2
		h12.2V266z"/>
	<path class="st0" d="M672.9,235.8c0-4.3,0.8-8.4,2.5-12.2c1.7-3.8,4-7.2,6.8-10c2.9-2.8,6.3-5.1,10.2-6.8c3.9-1.7,8.1-2.5,12.6-2.5
		c4.5,0,8.7,0.8,12.6,2.5c3.9,1.7,7.2,3.9,10.1,6.8c2.8,2.8,5,6.2,6.6,10c1.6,3.8,2.4,7.9,2.4,12.2c0,4.3-0.8,8.4-2.4,12.2
		c-1.6,3.8-3.8,7.2-6.6,10.1c-2.8,2.9-6.2,5.2-10.1,6.8c-3.9,1.7-8.1,2.5-12.7,2.5c-4.4,0-8.6-0.8-12.5-2.3
		c-3.9-1.5-7.3-3.7-10.2-6.5c-2.9-2.8-5.2-6.1-6.8-10C673.7,244.8,672.9,240.5,672.9,235.8z M685.1,235.9c0,2.7,0.5,5.2,1.5,7.6
		c1,2.4,2.4,4.4,4.2,6.2c1.8,1.8,3.8,3.2,6.2,4.2c2.4,1,4.9,1.5,7.6,1.5c2.7,0,5.2-0.5,7.6-1.5c2.4-1,4.5-2.4,6.3-4.2
		c1.8-1.8,3.2-3.8,4.2-6.2c1.1-2.4,1.6-4.9,1.6-7.6c0-2.7-0.5-5.2-1.6-7.6c-1.1-2.4-2.5-4.5-4.2-6.3c-1.8-1.8-3.9-3.2-6.3-4.2
		c-2.4-1-4.9-1.5-7.6-1.5c-2.7,0-5.2,0.5-7.6,1.5c-2.4,1-4.4,2.4-6.2,4.2c-1.8,1.8-3.2,3.9-4.2,6.3S685.1,233.2,685.1,235.9z"/>
	<path class="st0" d="M749.8,205.8h10.8c0.2,3,0.4,5.7,0.5,8.1c0.1,2.4,0.3,4.9,0.5,7.3c2.2-5.2,5.4-9.3,9.4-12.4
		c4.1-3.1,9.1-4.6,15-4.6c6,0,10.9,1.7,14.5,5c3.6,3.4,5.6,7.7,5.8,13V266H794v-38.2c-0.2-3.1-1.2-5.7-3.2-7.8
		c-1.9-2.2-4.9-3.3-9.1-3.5c-2.9,0-5.5,0.5-7.9,1.5c-2.4,1-4.5,2.4-6.2,4.1c-1.7,1.7-3.1,3.8-4.1,6.2c-1,2.4-1.5,5-1.5,7.9V266
		h-12.2V205.8z"/>
</g>
</svg>
