<?xml version="1.0" encoding="utf-8"?>
<!-- Generator: Adobe Illustrator 20.1.0, SVG Export Plug-In . SVG Version: 6.00 Build 0)  -->
<svg version="1.1" id="Layer_1" xmlns="http://www.w3.org/2000/svg" xmlns:xlink="http://www.w3.org/1999/xlink" x="0px" y="0px"
	 viewBox="0 0 1000 350" style="enable-background:new 0 0 1000 350;" xml:space="preserve">
<style type="text/css">
	.st0{enable-background:new    ;}
	.st1{fill:#999999;}
</style>
<g class="st0">
	<path class="st1" d="M141.9,137.6c-1.2,0.8-2.8,1.7-4.8,2.7c-2.1,1.1-4.5,2-7.3,3c-2.8,0.9-6,1.7-9.6,2.3
		c-3.6,0.6-7.3,0.9-11.4,0.9c-8.3,0-15.6-1.4-22.2-4.2c-6.5-2.8-12-6.6-16.6-11.4c-4.5-4.8-8-10.4-10.4-16.8
		c-2.4-6.4-3.6-13.2-3.6-20.3c0-7.9,1.4-15.1,4.3-21.8c2.9-6.7,6.8-12.4,11.7-17.3c4.9-4.8,10.7-8.6,17.3-11.3
		c6.6-2.7,13.6-4,21.1-4c2.9,0,5.8,0.2,8.7,0.6c2.9,0.4,5.7,1,8.3,1.7c2.6,0.7,4.9,1.4,6.8,2.3c2,0.9,3.4,1.8,4.2,2.7
		c-0.9,1.3-1.5,2.4-2,3.3c-0.5,0.9-1,1.8-1.5,2.7c-0.5,0.9-1.1,1.9-1.7,3.1c-0.6,1.2-1.5,2.7-2.7,4.8c-1.2-0.8-2.5-1.4-4.2-2
		c-1.6-0.6-3.3-1-5.1-1.4c-1.8-0.3-3.6-0.6-5.4-0.8c-1.8-0.2-3.5-0.3-4.9-0.3c-5.4,0-10.3,1-14.9,3c-4.6,2-8.5,4.7-11.8,8
		c-3.3,3.3-5.9,7.2-7.8,11.6c-1.9,4.4-2.8,9-2.8,13.7c0,4.6,0.9,9.1,2.7,13.5c1.8,4.4,4.3,8.2,7.5,11.6c3.2,3.4,7,6.1,11.4,8.1
		c4.4,2.1,9.3,3.1,14.7,3.1c3.1,0,6-0.3,8.9-0.9c2.9-0.6,5.4-1.3,7.6-2.1c2.2-0.8,4-1.5,5.4-2.3c1.4-0.8,2.1-1.3,2.2-1.6
		L141.9,137.6z"/>
	<path class="st1" d="M165.1,145.4h-13.7V32.9h13.7V145.4z"/>
	<path class="st1" d="M180.5,60.4c0-2.5,0.9-4.6,2.7-6.2c1.8-1.6,3.8-2.4,5.9-2.4s4.1,0.8,5.8,2.4c1.8,1.6,2.7,3.7,2.7,6.2
		c0,2.6-0.9,4.7-2.7,6.3c-1.8,1.6-3.7,2.4-5.8,2.4s-4.1-0.8-5.9-2.4C181.4,65.1,180.5,63,180.5,60.4z M195.9,145.4h-13.8V84.2h13.8
		V145.4z"/>
	<path class="st1" d="M253.8,129.4c1.4,1.8,2.8,3.6,4.2,5.3c1.3,1.7,2.7,3.4,4.2,5.1c-2.8,2.2-5.9,4-9.4,5.3s-7.2,1.9-11.1,1.9
		c-4.5,0-8.8-0.8-12.7-2.5c-4-1.7-7.4-4-10.4-6.9c-2.9-2.9-5.3-6.4-7-10.3c-1.7-3.9-2.6-8.1-2.6-12.5c0-4.4,0.9-8.6,2.6-12.5
		c1.7-3.9,4.1-7.3,7-10.2c2.9-2.9,6.4-5.2,10.4-6.9c4-1.7,8.2-2.5,12.7-2.5c4,0,7.8,0.6,11.3,1.9c3.5,1.3,6.7,3,9.6,5.3l-8.8,10.2
		c-3.4-2.6-7.4-3.9-12.1-3.9c-2.8,0-5.3,0.5-7.6,1.4c-2.3,1-4.3,2.3-6,3.9c-1.7,1.6-3,3.6-3.9,5.8c-0.9,2.3-1.4,4.7-1.4,7.4
		c0,2.6,0.5,5,1.4,7.3c0.9,2.3,2.2,4.2,3.9,6c1.7,1.7,3.7,3.1,6,4c2.3,1,4.8,1.4,7.6,1.4C246.5,133.5,250.5,132.1,253.8,129.4z"/>
	<path class="st1" d="M318.1,82.8l8.2,8.1c-3.6,3.4-7.1,6.6-10.4,9.9c-3.3,3.2-6.8,6.5-10.4,9.9c4.3,5.8,8.5,11.6,12.7,17.4
		c4.1,5.9,8.4,11.7,12.7,17.4H315c-3.2-4.3-6.4-8.6-9.6-12.9c-3.3-4.3-6.4-8.6-9.5-12.9l-7.9,7.2v18.6h-13.8V32.9h13.8v77.9
		c5.2-4.9,10.2-9.6,15.1-14C307.9,92.3,312.9,87.7,318.1,82.8z"/>
	<path class="st1" d="M575.5,57.4h13.7v26.8h16v12.4h-16v48.8h-13.7V96.6h-10.4V84.2h10.4V57.4z"/>
	<path class="st1" d="M610.3,114.7c0-4.4,0.8-8.6,2.5-12.5c1.7-3.9,4-7.3,7-10.2c3-2.9,6.5-5.2,10.4-6.8c4-1.7,8.2-2.5,12.7-2.5
		c4.6,0,8.9,0.8,12.8,2.5c3.9,1.7,7.3,4,10.2,6.8c2.8,2.9,5.1,6.3,6.7,10.2c1.6,3.9,2.4,8,2.4,12.5c0,4.4-0.8,8.6-2.4,12.5
		c-1.6,3.9-3.8,7.4-6.7,10.3c-2.9,2.9-6.3,5.2-10.2,6.9c-3.9,1.7-8.3,2.5-13,2.5c-4.5,0-8.7-0.8-12.7-2.3c-3.9-1.5-7.4-3.7-10.3-6.6
		c-2.9-2.8-5.3-6.2-7-10.2C611.2,123.9,610.3,119.5,610.3,114.7z M624,114.9c0,2.6,0.5,5,1.4,7.3c1,2.3,2.3,4.2,4,5.9
		c1.7,1.7,3.6,3,5.9,4c2.3,1,4.7,1.4,7.3,1.4s5-0.5,7.3-1.4c2.3-1,4.2-2.3,5.9-4c1.7-1.7,3-3.6,4-5.9c1-2.3,1.5-4.7,1.5-7.3
		c0-2.6-0.5-5-1.5-7.3c-1-2.3-2.4-4.2-4-5.9c-1.7-1.7-3.6-3-5.9-4c-2.3-1-4.7-1.5-7.3-1.5s-5,0.5-7.3,1.5c-2.3,1-4.2,2.4-5.9,4
		c-1.7,1.7-3,3.6-4,5.9C624.5,109.9,624,112.3,624,114.9z"/>
	<path class="st1" d="M786.6,115c0,4.6-0.8,8.9-2.3,12.7c-1.5,3.9-3.7,7.3-6.6,10.2c-2.8,2.9-6.2,5.1-10.2,6.7
		c-3.9,1.6-8.3,2.4-13,2.4c-4.7,0-8.9-0.9-12.5-2.7c-3.6-1.8-6.1-3.7-7.4-5.7c0,0.4,0,0.7,0.1,1.1c0,0.3,0.1,0.7,0.1,1.2v33.8H721
		V84.2h13.2c0,1.3,0.1,2.7,0.3,4c0.2,1.3,0.3,2.6,0.3,3.7c0.8-1,1.8-2,3-3.1c1.2-1.1,2.7-2.1,4.4-3c1.7-0.9,3.7-1.7,5.8-2.3
		c2.2-0.6,4.5-0.9,7.1-0.9c4.7,0,9,0.7,12.8,2.2c3.8,1.5,7.1,3.6,9.9,6.5c2.7,2.8,4.9,6.2,6.4,10.2C785.8,105.5,786.6,110,786.6,115
		z M771.6,114.7c0-5.4-1.6-9.8-4.7-13.3c-3.1-3.5-7.5-5.3-13-5.3c-2.8,0-5.3,0.5-7.6,1.4c-2.3,0.9-4.3,2.2-6,3.9
		c-1.7,1.7-3,3.6-4,5.9c-1,2.3-1.4,4.7-1.4,7.3c0,2.7,0.5,5.2,1.4,7.5c1,2.3,2.3,4.3,4,6c1.7,1.7,3.7,3,6,4c2.3,1,4.8,1.4,7.6,1.4
		c2.8,0,5.3-0.5,7.5-1.4c2.2-1,4.1-2.3,5.5-4c1.5-1.7,2.6-3.7,3.5-6C771.2,119.8,771.6,117.3,771.6,114.7z"/>
	<path class="st1" d="M798.2,60.4c0-2.5,0.9-4.6,2.7-6.2c1.8-1.6,3.8-2.4,5.9-2.4c2.1,0,4.1,0.8,5.8,2.4c1.8,1.6,2.7,3.7,2.7,6.2
		c0,2.6-0.9,4.7-2.7,6.3c-1.8,1.6-3.7,2.4-5.8,2.4c-2.1,0-4.1-0.8-5.9-2.4C799.1,65.1,798.2,63,798.2,60.4z M813.6,145.4h-13.8V84.2
		h13.8V145.4z"/>
	<path class="st1" d="M871.5,129.4c1.4,1.8,2.8,3.6,4.2,5.3c1.3,1.7,2.7,3.4,4.2,5.1c-2.8,2.2-5.9,4-9.4,5.3s-7.2,1.9-11.1,1.9
		c-4.5,0-8.8-0.8-12.7-2.5c-4-1.7-7.4-4-10.4-6.9c-2.9-2.9-5.3-6.4-7-10.3c-1.7-3.9-2.6-8.1-2.6-12.5c0-4.4,0.9-8.6,2.6-12.5
		c1.7-3.9,4.1-7.3,7-10.2c2.9-2.9,6.4-5.2,10.4-6.9c4-1.7,8.2-2.5,12.7-2.5c4,0,7.8,0.6,11.3,1.9c3.5,1.3,6.7,3,9.6,5.3l-8.8,10.2
		c-3.4-2.6-7.4-3.9-12.1-3.9c-2.8,0-5.3,0.5-7.6,1.4c-2.3,1-4.3,2.3-6,3.9c-1.7,1.6-3,3.6-3.9,5.8c-0.9,2.3-1.4,4.7-1.4,7.4
		c0,2.6,0.5,5,1.4,7.3c0.9,2.3,2.2,4.2,3.9,6c1.7,1.7,3.7,3.1,6,4c2.3,1,4.8,1.4,7.6,1.4C864.2,133.5,868.3,132.1,871.5,129.4z"/>
	<path class="st1" d="M935.9,82.8l8.2,8.1c-3.6,3.4-7.1,6.6-10.4,9.9c-3.3,3.2-6.8,6.5-10.4,9.9c4.3,5.8,8.5,11.6,12.7,17.4
		c4.1,5.9,8.4,11.7,12.7,17.4h-15.8c-3.2-4.3-6.4-8.6-9.6-12.9c-3.3-4.3-6.4-8.6-9.5-12.9l-7.9,7.2v18.6h-13.8V32.9h13.8v77.9
		c5.2-4.9,10.2-9.6,15.1-14C925.7,92.3,930.7,87.7,935.9,82.8z"/>
	<path class="st1" d="M55.3,259.5c0-4.4,0.9-8.6,2.6-12.6c1.7-4,4.1-7.5,7-10.4c2.9-3,6.3-5.4,10.2-7.1c3.9-1.8,8-2.7,12.3-2.7
		c2.9,0,5.5,0.4,7.8,1.1c2.3,0.7,4.3,1.6,6,2.5c1.7,1,3,1.9,4,3c1,1,1.6,1.8,1.9,2.4l0.6-7.3H121v61.2h-14v-4c0-0.5,0-0.9,0.1-1.4
		c0-0.4,0.1-0.7,0.1-0.9c-0.4,0.5-1.1,1.2-2,2.1c-1,0.9-2.3,1.8-3.9,2.7c-1.6,0.9-3.6,1.6-5.8,2.2c-2.3,0.6-4.9,0.9-7.8,0.9
		c-4.7,0-9-0.9-13-2.6c-3.9-1.7-7.3-4-10.2-6.9c-2.9-2.9-5.1-6.2-6.7-10C56.1,267.7,55.3,263.7,55.3,259.5z M69.3,258.6
		c0,2.7,0.5,5.2,1.4,7.5c0.9,2.3,2.2,4.3,3.9,6c1.7,1.7,3.7,3,6,4c2.3,1,4.8,1.4,7.6,1.4c2.8,0,5.3-0.5,7.6-1.4c2.3-1,4.3-2.3,6-4
		c1.7-1.7,3-3.7,3.9-6c0.9-2.3,1.4-4.8,1.4-7.3c0-2.6-0.5-5-1.4-7.3c-0.9-2.3-2.2-4.2-3.9-5.8c-1.7-1.6-3.7-2.9-6-3.9
		c-2.3-1-4.8-1.4-7.6-1.4c-2.8,0-5.3,0.5-7.6,1.4c-2.3,0.9-4.3,2.2-6,3.9c-1.7,1.7-3,3.6-3.9,5.9C69.8,253.6,69.3,256,69.3,258.6z"
		/>
	<path class="st1" d="M191.8,293c-5.8-10.8-11.2-21.6-16.4-32.3c-5.2-10.7-10.5-21.5-16-32.5h15c3.6,7.1,6.5,12.8,8.6,17.1
		c2.1,4.3,3.7,7.8,4.8,10.5c1.2,2.7,2,4.8,2.5,6.4c0.5,1.6,1,3.2,1.5,5c0.6-1.7,1.1-3.4,1.7-5c0.5-1.6,1.4-3.7,2.5-6.4
		c1.2-2.7,2.8-6.2,4.8-10.5c2.1-4.3,4.9-10,8.6-17.1h14.8c-5.5,10.9-10.8,21.8-16.1,32.5C202.8,271.4,197.4,282.2,191.8,293z"/>
	<path class="st1" d="M231.6,204.4c0-2.5,0.9-4.6,2.7-6.2c1.8-1.6,3.8-2.4,5.9-2.4c2.1,0,4.1,0.8,5.8,2.4c1.8,1.6,2.7,3.7,2.7,6.2
		c0,2.6-0.9,4.7-2.7,6.3c-1.8,1.6-3.7,2.4-5.8,2.4c-2.1,0-4.1-0.8-5.9-2.4C232.5,209.1,231.6,207,231.6,204.4z M247,289.4h-13.8
		v-61.2H247V289.4z"/>
	<path class="st1" d="M298.8,233.7c-0.6,0.9-1.3,1.8-2.1,3c-0.8,1.1-1.6,2.1-2.4,3.1c-0.8,1-1.7,2.2-2.7,3.6c-1-0.7-1.9-1.2-2.8-1.6
		c-0.9-0.4-2-0.7-3.2-1.1c-1.2-0.3-2.4-0.5-3.7-0.5c-1.3,0-2.8,0.3-4.2,0.9c-1.5,0.6-2.2,1.9-2.2,3.8c0,1.6,0.6,3,1.9,4.1
		c1.3,1.1,2.9,2.1,4.8,3c1.9,0.9,3.9,1.8,6.2,2.8c2.3,1,4.3,2.2,6.2,3.6s3.5,3.2,4.8,5.4c1.3,2.2,1.9,4.8,1.9,8
		c0,2.8-0.5,5.3-1.5,7.6c-1,2.3-2.4,4.3-4.3,5.9c-1.9,1.6-4.1,2.9-6.7,3.9c-2.6,1-5.5,1.4-8.8,1.4c-3.9,0-7.8-0.7-11.4-2
		c-3.7-1.3-6.6-3.3-8.7-5.8c0.7-0.8,1.5-1.7,2.4-2.9c1-1.2,1.9-2.3,2.7-3.3c0.9-1.1,1.9-2.3,3.2-3.7c0-0.1,0.3,0.1,0.9,0.5
		c0.6,0.4,1.5,0.9,2.5,1.5c1.1,0.6,2.3,1.1,3.7,1.6c1.4,0.5,2.9,0.7,4.5,0.7c2.4,0,4.2-0.5,5.5-1.6c1.3-1.1,1.9-2.4,1.9-3.9
		c0-1.5-0.6-2.8-1.9-3.7c-1.3-1-2.9-1.8-4.8-2.7c-1.9-0.8-3.9-1.7-6.2-2.7c-2.3-1-4.3-2.2-6.2-3.6c-1.9-1.4-3.5-3.3-4.8-5.5
		c-1.3-2.3-1.9-5.1-1.9-8.6c0-3.5,0.6-6.3,1.9-8.6c1.2-2.3,2.9-4.2,4.8-5.6c2-1.4,4.1-2.5,6.4-3.1c2.3-0.6,4.6-0.9,6.8-0.9
		c3,0,6.1,0.6,9.3,1.8C293.9,229.8,296.6,231.5,298.8,233.7z"/>
	<path class="st1" d="M372.6,290.8H361l-1.7-17c-2.2,4.9-5.3,9-9.1,12.2c-3.9,3.2-9,4.8-15.3,4.8s-11.4-1.7-15-5
		c-3.7-3.3-5.6-7.7-5.8-13.2v-44.5h13.8v38c0.2,3,1.2,5.5,3.1,7.6c1.9,2.1,4.9,3.2,9,3.4c2.8,0,5.3-0.5,7.6-1.4c2.3-1,4.3-2.3,6-4
		c1.7-1.7,3-3.8,4-6.2c1-2.4,1.4-5,1.4-7.8v-29.5h13.7V290.8z"/>
	<path class="st1" d="M385.7,259.5c0-4.4,0.9-8.6,2.6-12.6c1.7-4,4.1-7.5,7-10.4c2.9-3,6.3-5.4,10.2-7.1c3.9-1.8,8-2.7,12.3-2.7
		c2.9,0,5.5,0.4,7.8,1.1s4.3,1.6,6,2.5c1.7,1,3,1.9,4,3c1,1,1.6,1.8,1.9,2.4l0.6-7.3h13.4v61.2h-14v-4c0-0.5,0-0.9,0.1-1.4
		c0-0.4,0.1-0.7,0.1-0.9c-0.4,0.5-1.1,1.2-2,2.1c-1,0.9-2.3,1.8-3.9,2.7c-1.6,0.9-3.6,1.6-5.8,2.2c-2.3,0.6-4.9,0.9-7.8,0.9
		c-4.7,0-9-0.9-13-2.6c-3.9-1.7-7.3-4-10.2-6.9s-5.1-6.2-6.7-10C386.5,267.7,385.7,263.7,385.7,259.5z M399.6,258.6
		c0,2.7,0.5,5.2,1.4,7.5c0.9,2.3,2.2,4.3,3.9,6c1.7,1.7,3.7,3,6,4c2.3,1,4.8,1.4,7.6,1.4c2.8,0,5.3-0.5,7.6-1.4c2.3-1,4.3-2.3,6-4
		c1.7-1.7,3-3.7,3.9-6c0.9-2.3,1.4-4.8,1.4-7.3c0-2.6-0.5-5-1.4-7.3c-0.9-2.3-2.2-4.2-3.9-5.8c-1.7-1.6-3.7-2.9-6-3.9
		c-2.3-1-4.8-1.4-7.6-1.4c-2.8,0-5.3,0.5-7.6,1.4c-2.3,0.9-4.3,2.2-6,3.9c-1.7,1.7-3,3.6-3.9,5.9C400.1,253.6,399.6,256,399.6,258.6
		z"/>
	<path class="st1" d="M482,289.4h-13.7V176.9H482V289.4z"/>
	<path class="st1" d="M497.4,204.4c0-2.5,0.9-4.6,2.7-6.2c1.8-1.6,3.8-2.4,5.9-2.4c2.1,0,4.1,0.8,5.8,2.4c1.8,1.6,2.7,3.7,2.7,6.2
		c0,2.6-0.9,4.7-2.7,6.3c-1.8,1.6-3.7,2.4-5.8,2.4c-2.1,0-4.1-0.8-5.9-2.4C498.3,209.1,497.4,207,497.4,204.4z M512.8,289.4H499
		v-61.2h13.8V289.4z"/>
	<path class="st1" d="M582.4,289.4h-59l34.3-49.4h-18.9c-3.4,0-6.2-1-8.6-3c-2.4-2-3.5-4.5-3.5-7.6v-7.1H539v1.9
		c0,1.8,0.4,2.9,1.2,3.3c0.8,0.4,2,0.6,3.7,0.6h39l-33.1,47.7h32.5V289.4z"/>
	<path class="st1" d="M590.4,259.5c0-4.4,0.9-8.6,2.6-12.6c1.7-4,4.1-7.5,7-10.4c2.9-3,6.3-5.4,10.2-7.1c3.9-1.8,8-2.7,12.3-2.7
		c2.9,0,5.5,0.4,7.8,1.1s4.3,1.6,6,2.5c1.7,1,3,1.9,4,3c1,1,1.6,1.8,1.9,2.4l0.6-7.3h13.4v61.2h-14v-4c0-0.5,0-0.9,0.1-1.4
		c0-0.4,0.1-0.7,0.1-0.9c-0.4,0.5-1.1,1.2-2,2.1c-1,0.9-2.3,1.8-3.9,2.7c-1.6,0.9-3.6,1.6-5.8,2.2c-2.3,0.6-4.9,0.9-7.8,0.9
		c-4.7,0-9-0.9-13-2.6c-3.9-1.7-7.3-4-10.2-6.9s-5.1-6.2-6.7-10C591.2,267.7,590.4,263.7,590.4,259.5z M604.4,258.6
		c0,2.7,0.5,5.2,1.4,7.5c0.9,2.3,2.2,4.3,3.9,6c1.7,1.7,3.7,3,6,4c2.3,1,4.8,1.4,7.6,1.4c2.8,0,5.3-0.5,7.6-1.4c2.3-1,4.3-2.3,6-4
		c1.7-1.7,3-3.7,3.9-6c0.9-2.3,1.4-4.8,1.4-7.3c0-2.6-0.5-5-1.4-7.3c-0.9-2.3-2.2-4.2-3.9-5.8c-1.7-1.6-3.7-2.9-6-3.9
		c-2.3-1-4.8-1.4-7.6-1.4c-2.8,0-5.3,0.5-7.6,1.4c-2.3,0.9-4.3,2.2-6,3.9c-1.7,1.7-3,3.6-3.9,5.9C604.9,253.6,604.4,256,604.4,258.6
		z"/>
	<path class="st1" d="M678.7,201.4h13.7v26.8h16v12.4h-16v48.8h-13.7v-48.8h-10.4v-12.4h10.4V201.4z"/>
	<path class="st1" d="M717,204.4c0-2.5,0.9-4.6,2.7-6.2c1.8-1.6,3.8-2.4,5.9-2.4c2.1,0,4.1,0.8,5.8,2.4c1.8,1.6,2.7,3.7,2.7,6.2
		c0,2.6-0.9,4.7-2.7,6.3c-1.8,1.6-3.7,2.4-5.8,2.4c-2.1,0-4.1-0.8-5.9-2.4C717.9,209.1,717,207,717,204.4z M732.4,289.4h-13.8v-61.2
		h13.8V289.4z"/>
	<path class="st1" d="M745.5,258.7c0-4.4,0.8-8.6,2.5-12.5c1.7-3.9,4-7.3,7-10.2c3-2.9,6.5-5.2,10.4-6.8c4-1.7,8.2-2.5,12.7-2.5
		c4.6,0,8.9,0.8,12.8,2.5c3.9,1.7,7.3,4,10.2,6.8c2.8,2.9,5.1,6.3,6.7,10.2c1.6,3.9,2.4,8,2.4,12.5c0,4.4-0.8,8.6-2.4,12.5
		c-1.6,3.9-3.8,7.4-6.7,10.3c-2.9,2.9-6.3,5.2-10.2,6.9c-3.9,1.7-8.3,2.5-13,2.5c-4.5,0-8.7-0.8-12.7-2.3c-3.9-1.5-7.4-3.7-10.3-6.6
		c-2.9-2.8-5.3-6.2-7-10.2C746.4,267.9,745.5,263.5,745.5,258.7z M759.2,258.9c0,2.6,0.5,5,1.4,7.3c1,2.3,2.3,4.2,4,5.9
		c1.7,1.7,3.6,3,5.9,4c2.3,1,4.7,1.4,7.3,1.4s5-0.5,7.3-1.4c2.3-1,4.2-2.3,5.9-4c1.7-1.7,3-3.6,4-5.9c1-2.3,1.5-4.7,1.5-7.3
		c0-2.6-0.5-5-1.5-7.3c-1-2.3-2.4-4.2-4-5.9c-1.7-1.7-3.6-3-5.9-4c-2.3-1-4.7-1.5-7.3-1.5s-5,0.5-7.3,1.5c-2.3,1-4.2,2.4-5.9,4
		c-1.7,1.7-3,3.6-4,5.9C759.7,253.9,759.2,256.3,759.2,258.9z"/>
	<path class="st1" d="M823.4,228.2h12.1c0.2,3.5,0.4,6.3,0.6,8.4c0.2,2.2,0.5,4.6,0.6,7.3c2.2-5.2,5.3-9.4,9.4-12.5
		s9.1-4.8,15.1-4.8c6.2,0,11.2,1.7,14.9,5.1c3.7,3.4,5.6,7.8,5.8,13.3v44.4h-13.7v-37.9c-0.2-3-1.2-5.5-3.2-7.7
		c-1.9-2.2-4.9-3.3-8.9-3.5c-2.8,0-5.4,0.5-7.7,1.5c-2.4,1-4.4,2.4-6,4.1c-1.7,1.7-3,3.8-3.9,6.2c-0.9,2.4-1.4,5-1.4,7.8v29.5h-13.8
		V228.2z"/>
</g>
<g>
	<g>
		<path class="st1" d="M511.9,67.1c-2.1,4.5-5.6,6.3-10.6,6.1c-10-0.3-19.9-0.1-29.9-0.1c-6.2,0-9.1-2.9-9.2-9.2
			c0-10,0.2-19.9-0.1-29.9c-0.2-5.1,1.6-8.5,6.1-10.6c12.4,0,24.7,0,37.1,0c3.1,1.2,5.3,3.4,6.5,6.5
			C511.9,42.3,511.9,54.7,511.9,67.1z M478.8,56.4c5.6,0,11,0,16.6,0c0-5,0.1-9.9-0.1-14.8c0-0.6-1-1.7-1.6-1.7
			c-4.9-0.1-9.9-0.1-14.9-0.1C478.8,45.6,478.8,50.9,478.8,56.4z"/>
		<path class="st1" d="M379,112.7c2.1-4.5,5.6-6.3,10.6-6.1c10,0.3,19.9,0.1,29.9,0.1c6.2,0,9.1,2.9,9.2,9.2c0,10-0.2,19.9,0.1,29.9
			c0.2,5.1-1.6,8.5-6.1,10.6c-12.4,0-24.7,0-37.1,0c-3.1-1.2-5.3-3.4-6.5-6.5C379,137.4,379,125,379,112.7z M412,139.7
			c0-5.7,0-11.1,0-16.3c-5.6,0-11,0-16.2,0c0,5.6,0,11,0,16.3C401.3,139.7,406.6,139.7,412,139.7z"/>
		<path class="st1" d="M379,63.1c3-8.1,10-6.4,16-6.5c1.2-3.9,1.9-7.7,3.6-11.1c4.3-8.8,11.7-13.2,21.3-13.6
			c5.7-0.3,11.5-0.1,17.2,0c4.8,0.1,8.3,3.7,8.3,8.2s-3.6,8.1-8.4,8.1c-5.3,0.1-10.6-0.1-15.9,0.1c-5.2,0.1-8.3,3.1-8.7,8.4
			c2.5,0,5,0,7.4,0c3.7,0,6.6,1.5,8.1,4.9c1.6,3.5,0.8,6.8-1.9,9.6c-5.3,5.4-10.7,10.8-16.1,16.1c-3.6,3.5-8,3.7-11.6,0.3
			c-5.7-5.4-11.3-11.1-16.8-16.8c-1-1-1.7-2.4-2.5-3.7C379,65.8,379,64.4,379,63.1z"/>
		<path class="st1" d="M511.9,116.6c-3,5.7-3,5.7-16,6.6c-1.2,3.7-1.9,7.6-3.5,11c-4.3,8.8-11.7,13.2-21.3,13.6
			c-5.7,0.3-11.5,0.1-17.2,0c-4.8-0.1-8.3-3.7-8.3-8.2s3.6-8.1,8.4-8.1c5.3-0.1,10.6,0.1,15.9-0.1c5.2-0.1,8.3-3.1,8.7-8.4
			c-2.5,0-5,0-7.4,0c-3.7,0-6.6-1.5-8.1-4.9c-1.6-3.5-0.8-6.8,1.9-9.6c5.3-5.4,10.7-10.8,16.1-16.1c3.6-3.5,8-3.7,11.6-0.3
			c5.7,5.4,11.3,11.1,16.8,16.8c1,1,1.7,2.4,2.5,3.7C511.9,114,511.9,115.3,511.9,116.6z"/>
	</g>
</g>
</svg>
