<?xml version="1.0" encoding="utf-8"?>
<!-- Generator: Adobe Illustrator 20.1.0, SVG Export Plug-In . SVG Version: 6.00 Build 0)  -->
<svg version="1.1" id="Layer_1" xmlns="http://www.w3.org/2000/svg" xmlns:xlink="http://www.w3.org/1999/xlink" x="0px" y="0px"
	 viewBox="0 0 512 512" style="enable-background:new 0 0 512 512;" xml:space="preserve">
<style type="text/css">
	.st0{fill:#999999;}
	.st1{fill:#166DB7;}
</style>
<g>
	<path class="st0" d="M506,256c0,138.1-111.9,250-250,250S6,394.1,6,256S117.9,6,256,6S506,117.9,506,256z M256,37.2
		c-120.8,0-218.8,98-218.8,218.8s98,218.8,218.8,218.8s218.8-98,218.8-218.8S376.8,37.2,256,37.2z"/>
</g>
<path class="st1" d="M147.8,186.7c-0.3-46.4,19.4-76.1,61.8-93.3c12.6-5.1,20.2-2.2,26,10.4c8.1,17.6,16.1,35.2,23.9,52.9
	c5.9,13.3,2.9,20.9-10.1,26.8c-7.5,3.4-15.1,6.6-22.5,10.1c-12.3,5.8-16.1,15-10.7,27.2c14.5,32.8,29.3,65.4,44.2,98
	c5.6,12.2,15.1,15.5,27.5,10.3c8.3-3.5,16.3-7.5,24.6-10.8c11.1-4.5,19.1-1.6,24,9c8.7,18.5,17,37.1,25.2,55.9
	c5.3,12.1,2,19.3-9.7,25.4c-53.5,27.9-99.8,4.9-127.6-32.2c-38.1-51.1-65.7-107.6-75.9-171.4c-0.3-2.1-0.7-4.3-0.8-6.4
	C147.7,194.6,147.8,190.7,147.8,186.7z"/>
</svg>
