<?xml version="1.0" encoding="utf-8"?>
<!-- Generator: Adobe Illustrator 19.2.1, SVG Export Plug-In . SVG Version: 6.00 Build 0)  -->
<svg version="1.1" id="Layer_1" xmlns="http://www.w3.org/2000/svg" xmlns:xlink="http://www.w3.org/1999/xlink" x="0px" y="0px"
	 viewBox="0 0 512 512" style="enable-background:new 0 0 512 512;" xml:space="preserve">
<style type="text/css">
	.st0{fill:#999999;}
</style>
<g>
	<path class="st0" d="M268,240.6c-63.6-1.1-143.9-4-193.3-50.3c-28.8-27-25.8-61.2-24.1-98.2c1.5-33.7,31.2-51.8,59.9-62.9
		C180.5,2.4,263.7,1.5,336.9,13c34.2,5.4,73,14.2,100.6,36.1c29.4,23.2,27.1,66.9,22.9,101.2c-4.3,35.1-44.2,57.6-73.7,69.2
		C348.7,234.6,308.1,236.5,268,240.6C211.4,239.7,281.6,239.2,268,240.6z M255.1,137.6c44-2.1,163.8-8.1,170.6-45.3
		c4.4-23.9-58.3-37.8-73.6-41.2c-31-6.9-63-9.4-94.7-9.6c-33.7-0.2-67.5,2.8-100.4,10.3c-16.3,3.7-68.8,14.3-71.3,36.3
		c-2.3,21,52,34.6,66.8,38.4C185.8,134.9,220.5,137.5,255.1,137.6C255.1,138.2,255.1,137.6,255.1,137.6z M386.2,173.2
		c0.2-30.6-44.6-21.8-44.8,5.1C341.3,208.9,386,201,386.2,173.2C386.2,162,386.1,186.8,386.2,173.2z"/>
	<path class="st0" d="M459.7,338.5c0,25.3,4.8,54.3-4.8,78.4c-8.1,20.6-26,36.5-43.9,48.6c-42.4,28.9-97.6,39-148.1,40.4
		c-52.1,1.5-109.4-8.5-154.9-35.2c-21.1-12.4-41.2-30.2-51-53c-10.4-24.1-6.4-53.3-6.4-78.9c5.8,0.6,13.3,10.4,18,14.2
		c7.1,5.6,14.7,10.9,22.6,15.6c15.6,9.4,32.3,16.6,49.4,22.4c35.6,11.7,73.6,17.5,111,18c39.3,0.6,78.6-5.2,116-17.5
		c18-5.9,35.6-13.1,51.9-22.7C434.5,360.2,445.9,348.3,459.7,338.5C459.7,359.2,458.6,339.2,459.7,338.5z M386.2,437
		c0.3-30.6-44.5-22-44.8,4.9C341.2,472.7,385.9,464.8,386.2,437C386.3,425.9,386.1,450.6,386.2,437z"/>
	<path class="st0" d="M51.1,210.2c52.5,50.6,126.5,67.1,197.5,68.7c40.1,0.9,80.3-4,118.8-15.8c17.8-5.4,35.2-12.4,51.3-21.6
		c15.2-8.7,26.7-22.2,41.3-31.1c1.8,23.5,6.5,60.1-2.8,82.1c-8.7,20.8-31,35.6-50,45.8c-47,25.5-104.5,32.6-157.3,32.2
		c-51.5-0.4-109.4-9.3-154-36.4c-18.3-11.2-40.2-28-44.8-50.3C46.6,261.8,51.1,210.2,51.1,210.2S50.9,213,51.1,210.2z M386.2,305.3
		c-0.1-30.3-45.2-20.9-44.8,6C341.8,341.6,386.3,332.9,386.2,305.3C386.1,294.1,386.2,319.3,386.2,305.3z"/>
</g>
</svg>
