<?xml version="1.0" encoding="utf-8"?>
<!-- Generator: Adobe Illustrator 19.2.1, SVG Export Plug-In . SVG Version: 6.00 Build 0)  -->
<svg version="1.1" id="Layer_1" xmlns="http://www.w3.org/2000/svg" xmlns:xlink="http://www.w3.org/1999/xlink" x="0px" y="0px"
	 viewBox="0 0 512 512" style="enable-background:new 0 0 512 512;" xml:space="preserve">
<style type="text/css">
	.st0{fill:#999999;}
</style>
<g>
	<path class="st0" d="M256,506c2.5-23.5,5.2-46.6,8-69.3c2.8-22.7,5.5-45.8,8-69.3h-63.6c-2.6,23.5-5.2,46.6-8,69.3
		c-2.8,22.7-5.5,45.8-8,69.3h-79.6c2.5-23.5,5.2-46.6,8-69.3c2.8-22.7,5.5-45.8,8-69.3H62.3c1.5-13.3,3.2-26.2,5-38.7
		c1.8-12.5,3.2-25.1,4.2-37.9h66.6l8.4-66.6H79.9l8.4-75.8h65.9c3.6-24.5,6.8-48.4,9.6-71.6c2.8-23.2,5.7-46.8,8.8-70.8h79.6
		l-18.4,142.4h64.3c2.5-24.5,5.4-48.4,8.4-71.6c3.1-23.2,6.1-46.8,9.2-70.8h79.6L377,148.4h72.7c-1.5,12.8-2.8,25.4-3.8,37.9
		c-1,12.5-2.3,25.1-3.8,37.9h-73.5l-7.7,66.6h72.7c-1.5,12.8-3.2,25.4-5,37.9c-1.8,12.5-3.2,25.4-4.2,38.7h-72.7L334.9,506H256z
		 M225.4,224.2c-1,11.2-2.2,22.3-3.4,33.3c-1.3,11-2.7,22.1-4.2,33.3h63.6l7.7-66.6H225.4z"/>
</g>
</svg>
