<?xml version="1.0" encoding="utf-8"?>
<!-- Generator: Adobe Illustrator 19.2.1, SVG Export Plug-In . SVG Version: 6.00 Build 0)  -->
<svg version="1.1" id="Layer_1" xmlns="http://www.w3.org/2000/svg" xmlns:xlink="http://www.w3.org/1999/xlink" x="0px" y="0px"
	 viewBox="0 0 512 512" style="enable-background:new 0 0 512 512;" xml:space="preserve">
<style type="text/css">
	.st0{fill:#999999;}
</style>
<path class="st0" d="M494.3,158.9c-6.6-10.6-12.6-22.3-15.9-34.2c-8.6-31.9-28.4-48-61.1-49.7c-11.5-0.6-23.9-1.7-34.2-6.3
	c-27.4-12.3-55.4-10.5-83.9-7.7c-24.5,2.5-44.1,11.8-58.8,33c-6.8,9.9-18,17.6-28.8,23.5c-22.4,12.5-54.8,77.6-49.2,102.4
	c0.8,3.7,2.3,7.4,3.9,10.9c23.8,50.7,56.6,68,116.5,58.9c25.1,41,33,82,14.4,127.8c-25.8,0-51.1,0-77.8,0
	c-6.9-20.9-13.2-40.3-19.1-58.9c11.5-11.5,33.9-14.9,17.6-37.5c-55.4,0-111.8,0-170.9,0c1,9.8-0.3,18.1,3,23.6
	c3.4,5.5,11.4,8.3,17.1,12c-6.8,22.3-12.6,41.8-17.9,59.6c-16.6,2.7-28.9,4.8-41.2,6.9c-0.9,5.9-2.4,9.8-1.8,13.4
	c0.8,4.7,3.4,9.1,5.9,15.2c135.2-1.6,269.6,4.2,406.4-1.6c-0.7-11.6-1.1-19.7-1.7-28.8c-23.1-1.5-43.4-2.7-65.2-4.1
	c-7.8-40.7-12.7-78,12.7-110.2c17.1,1.6,31.2,3.9,45.3,4.1c34.7,0.2,44.9-8.1,57.1-40.7c3.4-8.9,10-17.2,16.9-24
	C509.1,222,513.1,189,494.3,158.9z M79,418.2c7.4-23.6,14.2-44.8,21.1-66.4c23.8,0,43.9,0,67.2,0c7,21.4,14,42.7,21.8,66.4
	C151.7,418.2,117.6,418.2,79,418.2z M329.3,316.2c-18.1-4.4-22-17-26.5-39.2c17,5.6,27,9,39.4,13.1
	C337.2,300.6,333.5,308,329.3,316.2z"/>
</svg>
