<?xml version="1.0" encoding="utf-8"?>
<!-- Generator: Adobe Illustrator 19.2.1, SVG Export Plug-In . SVG Version: 6.00 Build 0)  -->
<svg version="1.1" id="Layer_1" xmlns="http://www.w3.org/2000/svg" xmlns:xlink="http://www.w3.org/1999/xlink" x="0px" y="0px"
	 viewBox="0 0 512 512" style="enable-background:new 0 0 512 512;" xml:space="preserve">
<style type="text/css">
	.st0{fill:#999999;}
</style>
<path class="st0" d="M349.4,6h-30.1H192.7h-30.1H6v156.6v30.1v126.6v30.1V506h156.6h30.1h126.6h30.1H506V349.4v-30.1V192.7v-30.1V6
	H349.4z M319,319H193V193h126V319z M36,193h127v126H36V193z M36,476V349h127v127H36z M319,476H193V349h126V476z M476,476H349V349
	h127V476z M476,319H349V193h127V319z M319,163H193V37h126V163z M36,37h127v126H36V37z M476,163H349V37h127V163z"/>
</svg>
