<?xml version="1.0" encoding="utf-8"?>
<!-- Generator: Adobe Illustrator 19.2.1, SVG Export Plug-In . SVG Version: 6.00 Build 0)  -->
<svg version="1.1" id="Layer_1" xmlns="http://www.w3.org/2000/svg" xmlns:xlink="http://www.w3.org/1999/xlink" x="0px" y="0px"
	 viewBox="0 0 512 512" style="enable-background:new 0 0 512 512;" xml:space="preserve">
<style type="text/css">
	.st0{fill:#999999;}
</style>
<g>
	<path class="st0" d="M505.5,262.8c5.4,38.7-39.6,81.1-79.4,74.2c0.5-17,7.1-31.5,17.6-44.6C458.9,273.4,483.9,261.5,505.5,262.8z"
		/>
	<path class="st0" d="M85.5,337.2c-38.6,7.5-82.8-33.7-79.3-73.7C43.5,259.5,85.3,296.6,85.5,337.2z"/>
	<path class="st0" d="M431.8,413.9c-5.7,11.1-14.8,17.9-26,21.4c-17.9,5.5-36.4,5.8-54.8,2.7c-10.4-1.7-18.7-7.9-27.2-13.7
		C340.5,399,394.8,383.1,431.8,413.9z"/>
	<path class="st0" d="M81.5,416.5c1.6-0.4,2.7-0.6,4.6-1c-2.5-0.4-3.9-0.6-6.4-1c1.5-1.4,2.6-2.6,3.7-3.4
		c29.6-21.7,75.5-18,101.4,8.2c3.9,3.9,3.7,4.4-0.7,7.7c-12.7,9.6-27.1,13.6-42.8,12.6c-10.4-0.6-20.9-1.1-31-3.2
		C98.5,434,88.7,427.4,81.5,416.5z"/>
	<path class="st0" d="M9.6,177.8c42.1,11.8,63,63.3,51.1,95.8C34.6,270.3-5.6,222.3,9.6,177.8z"/>
	<path class="st0" d="M382.1,388.8c11.9-36.3,65-59.8,98.9-44.2C473.2,381.7,410.7,404.6,382.1,388.8z"/>
	<path class="st0" d="M129.6,388.9c-26,15.6-89.2-5-98.9-44.1C64,328.7,120.3,353.9,129.6,388.9z"/>
	<path class="st0" d="M502.4,177.8c14.7,41.5-21.3,90-50.4,95.9C433.7,247,466.7,183.9,502.4,177.8z"/>
	<path class="st0" d="M214.5,426.4c14.2,0.1,24.9,2.6,35.1,7.3c6,2.8,6.2,3.2,2.2,8.7c-7.4,10.5-17.2,18.2-29.2,22.7
		c-20.3,7.7-41.1,11.2-62.7,4.3c-12-3.9-12.9-5.5-4.7-14.8C171.7,436,192.7,427,214.5,426.4z"/>
	<path class="st0" d="M295.2,426.9c26.3,0.6,48,10.9,64.4,31.5c4.3,5.3,3.8,7.3-2.8,9.6c-31.1,10.7-60,5.5-86.1-14.1
		c-4.8-3.6-8.2-9-12.2-13.8c-1.8-2.3-1.2-3.7,1.4-5C271.2,429.8,282.8,426.7,295.2,426.9z"/>
	<path class="st0" d="M57.4,206.4c-14.5-11.6-25.5-25.2-27-44.6C28.7,140,33.8,119.4,40.7,99C69.6,117,84.2,172.8,57.4,206.4z"/>
	<path class="st0" d="M454.4,206.4c-26.2-34.9-12.3-87.8,16.7-107.9c1.2,4,2.5,7.8,3.6,11.6c5.1,16.9,8.2,33.9,6.9,51.6
		C480.1,181.1,469.1,194.7,454.4,206.4z"/>
	<polygon class="st0" points="256.1,98.9 293.7,175.2 377.8,187.4 316.9,246.8 331.3,330.5 256.1,291 180.8,330.5 195.1,246.8 
		134.3,187.4 218.4,175.2 	"/>
</g>
</svg>
