<?xml version="1.0" encoding="utf-8"?>
<!-- Generator: Adobe Illustrator 19.2.1, SVG Export Plug-In . SVG Version: 6.00 Build 0)  -->
<svg version="1.1" id="Layer_1" xmlns="http://www.w3.org/2000/svg" xmlns:xlink="http://www.w3.org/1999/xlink" x="0px" y="0px"
	 viewBox="0 0 512 512" style="enable-background:new 0 0 512 512;" xml:space="preserve">
<style type="text/css">
	.st0{fill:#999999;}
</style>
<g>
	<rect x="8.2" y="6" class="st0" width="49" height="277.2"/>
	<rect x="8.2" y="234.2" class="st0" width="276.5" height="49"/>
	<rect x="166.7" y="143.8" class="st0" width="49" height="49"/>
	<rect x="80.2" y="73.1" class="st0" width="49" height="49"/>
	<rect x="149.9" y="20.9" class="st0" width="49" height="49"/>
	<g>
		<path class="st0" d="M390.9,494.4c-5,2.5-10.6,4.7-16.6,6.7s-11.9,3.7-17.3,4.8l-9.5-8.2V392.9H244l-9.4-9
			c1.3-4.9,2.9-10.4,5-16.1c2.1-5.8,4.3-11.1,6.5-16.1h101.2V249.3c4.7-1.5,10.3-3.4,16.6-5.6c6.3-2.2,12.2-4,17.8-5.3l9,8.6v104.6
			h103.9l9,9c-1.3,5-2.9,10.6-5,16.7c-2.1,6.1-4.2,11.4-6.2,15.6H390.9V494.4z"/>
	</g>
</g>
</svg>
