<?xml version="1.0" encoding="utf-8"?>
<!-- Generator: Adobe Illustrator 19.2.1, SVG Export Plug-In . SVG Version: 6.00 Build 0)  -->
<svg version="1.1" id="Layer_1" xmlns="http://www.w3.org/2000/svg" xmlns:xlink="http://www.w3.org/1999/xlink" x="0px" y="0px"
	 viewBox="0 0 512 512" style="enable-background:new 0 0 512 512;" xml:space="preserve">
<style type="text/css">
	.st0{fill:#999999;}
</style>
<rect x="16" y="35.3" class="st0" width="46.6" height="263.7"/>
<rect x="16" y="252.4" class="st0" width="263" height="46.6"/>
<rect x="166.8" y="166.4" class="st0" width="46.6" height="46.6"/>
<rect x="84.5" y="99.1" class="st0" width="46.6" height="46.6"/>
<rect x="150.8" y="49.5" class="st0" width="46.6" height="46.6"/>
<g>
	<path class="st0" d="M380,499.9c-4.8,2.4-10.1,4.5-15.8,6.4c-5.7,1.9-11.3,3.5-16.5,4.6l-9-7.8v-99.8h-98.4l-8.9-8.6
		c1.2-4.7,2.8-9.9,4.8-15.3c2-5.5,4.1-10.6,6.2-15.3h96.3v-97.4c4.5-1.4,9.8-3.2,15.8-5.3c6-2.1,11.6-3.8,16.9-5l8.6,8.2v99.5h98.8
		l8.6,8.6c-1.2,4.8-2.8,10.1-4.8,15.9c-2,5.8-4,10.8-5.9,14.8H380V499.9z"/>
</g>
</svg>
