<?xml version="1.0" encoding="utf-8"?>
<!-- Generator: Adobe Illustrator 19.2.1, SVG Export Plug-In . SVG Version: 6.00 Build 0)  -->
<svg version="1.1" id="Layer_1" xmlns="http://www.w3.org/2000/svg" xmlns:xlink="http://www.w3.org/1999/xlink" x="0px" y="0px"
	 viewBox="0 0 512 512" style="enable-background:new 0 0 512 512;" xml:space="preserve">
<style type="text/css">
	.st0{fill:#999999;}
</style>
<g>
	<path class="st0" d="M311.9,117.9c107,0,194.1,87.1,194.1,194.1S418.9,506,311.9,506s-194.1-87.1-194.1-194.1
		S204.9,117.9,311.9,117.9z M311.9,462.9c83.2,0,150.9-67.7,150.9-150.9S395.2,161,311.9,161S161,228.7,161,311.9
		S228.7,462.9,311.9,462.9z"/>
	<path class="st0" d="M200.1,6c107,0,194.1,87.1,194.1,194.1s-87.1,194.1-194.1,194.1S6,307.1,6,200.1S93.1,6,200.1,6z M200.1,351
		c83.2,0,150.9-67.7,150.9-150.9S283.3,49.1,200.1,49.1S49.1,116.8,49.1,200.1S116.8,351,200.1,351z"/>
	<path class="st0" d="M351,200.1c0,83.2-67.7,150.9-150.9,150.9c-30.1,0-58.1-8.8-81.6-24c7.7,100,91.5,179,193.5,179
		c107,0,194.1-87.1,194.1-194.1c0-101.9-79-185.8-179-193.5C342.2,142,351,170,351,200.1z"/>
</g>
</svg>
