<?xml version="1.0" encoding="utf-8"?>
<!-- Generator: Adobe Illustrator 19.2.1, SVG Export Plug-In . SVG Version: 6.00 Build 0)  -->
<svg version="1.1" id="Layer_1" xmlns="http://www.w3.org/2000/svg" xmlns:xlink="http://www.w3.org/1999/xlink" x="0px" y="0px"
	 viewBox="0 0 512 512" style="enable-background:new 0 0 512 512;" xml:space="preserve">
<style type="text/css">
	.st0{fill:#999999;}
</style>
<g>
	<path class="st0" d="M174.3,173.8c23.5,0,42.7,19.2,42.7,42.7v246.8c0,23.9-18.4,42.7-42.7,42.7H48.7C24.4,506,6,487.2,6,463.3
		V216.5c0-23.5,19.2-42.7,42.7-42.7H174.3z M174.3,463.3V216.5H48.7v246.8H174.3z"/>
	<path class="st0" d="M463.3,295.5v-86.3c0-12.4,5.6-21.4,21.4-21.4c15.8,0,21.4,9,21.4,21.4v107.6c0,15.4-10.2,21.4-21.4,21.4
		H316.4c-11.1,0-21.4-6-21.4-21.4c0-15.4,10.2-21.4,21.4-21.4h62.8V48.7h-62.8c-11.1,0-21.4-6-21.4-21.4C295,12,305.3,6,316.4,6
		h105.5v289.5H463.3z"/>
</g>
</svg>
