<?xml version="1.0" encoding="utf-8"?>
<!-- Generator: Adobe Illustrator 19.2.1, SVG Export Plug-In . SVG Version: 6.00 Build 0)  -->
<svg version="1.1" id="Layer_1" xmlns="http://www.w3.org/2000/svg" xmlns:xlink="http://www.w3.org/1999/xlink" x="0px" y="0px"
	 viewBox="0 0 512 512" style="enable-background:new 0 0 512 512;" xml:space="preserve">
<style type="text/css">
	.st0{fill:#999999;}
</style>
<g id="EDJ6lQ.tif">
	<g>
		<path class="st0" d="M192.5,496.2c-3.1-2.3-4.7-5.3-5.3-9.2c-4.2-30.9-8.7-61.8-13.2-92.7c-0.8-5.3-1.3-10.6-2.3-15.9
			c-1.5-7.6-0.1-14.2,3.7-21c52.1-90,104.1-180.1,156-270.1c0.5-0.9,1-1.7,1.5-2.6c5.8-9.7,14.1-11.9,24-6.3
			c28.1,16.2,56,32.3,84,48.5c9.5,5.4,18.8,10.9,28.3,16.3c9.7,5.6,11.9,14.2,6.3,24c-30.6,53.1-61.3,106.2-91.9,159.2
			c-22.1,38.1-44.1,76.3-66,114.5c-3.3,5.8-7.8,9.7-14,12.2c-33.8,13.5-67.6,26.9-101.3,40.5c-1.8,0.6-3.3,1.8-5,2.7
			C195.7,496.2,194.2,496.2,192.5,496.2z M363.4,128.8c-7.6,0.1-12.2,2.8-15.3,7.9c-2.4,4.1-4.7,8.2-7.1,12.2
			c-36.5,63.2-72.9,126.3-109.4,189.5c-5.8,10-3.6,18.2,6.2,24c15.1,8.8,30.4,17.6,45.6,26.3c8.8,5,17.4,2.8,22.6-6
			c38.8-67.2,77.7-134.5,116.5-201.8c5.4-9.2,2.9-17.7-6.3-23.2c-15.1-8.8-30.4-17.6-45.6-26.3C367.9,130,364.8,129.3,363.4,128.8z"
			/>
		<path class="st0" d="M506,89.9c-4.1,7.2-7.9,14.5-12.2,21.7c-5.3,8.8-14,11.2-22.9,6c-30.8-17.7-61.7-35.5-92.4-53.3
			c-9.4-5.4-11.5-13.8-6.3-23.2c2.3-4.2,5-8.3,7.2-12.7c2.9-5.9,6.9-10.5,13.3-12.6c1.9,0,3.8,0,5.9,0c3.6,1.9,7.2,3.6,10.6,5.6
			c28.1,16.2,56.2,32.4,84.2,48.5c5.4,3.1,10,6.5,12.4,12.2C506,84.7,506,87.3,506,89.9z"/>
		<path class="st0" d="M6,469.8c2.3-3.8,5.8-5,10.3-5c39.6,0.1,79.2,0.1,118.8,0.1c7.3,0,9.6,2.3,9.6,9.5c0,3.7-0.3,7.4,0.1,11.2
			c0.5,5-1.5,8.5-5.9,10.5c-44.2,0-88.6,0-132.8,0C6,487.3,6,478.6,6,469.8z"/>
	</g>
</g>
</svg>
