<?xml version="1.0" encoding="utf-8"?>
<!-- Generator: Adobe Illustrator 19.2.1, SVG Export Plug-In . SVG Version: 6.00 Build 0)  -->
<svg version="1.1" id="Layer_1" xmlns="http://www.w3.org/2000/svg" xmlns:xlink="http://www.w3.org/1999/xlink" x="0px" y="0px"
	 viewBox="0 0 512 512" style="enable-background:new 0 0 512 512;" xml:space="preserve">
<style type="text/css">
	.st0{fill:#999999;}
</style>
<path class="st0" d="M469,126.5c-3.2,5.6-6.2,11.3-9.5,16.9c-4.1,6.9-10.9,8.7-17.9,4.7c-24-13.8-48.1-27.7-72.1-41.6
	c-7.3-4.2-9-10.8-4.9-18.1c1.8-3.3,3.9-6.5,5.6-9.9c2.3-4.6,5.4-8.2,10.4-9.8c1.5,0,3,0,4.6,0c2.8,1.5,5.6,2.8,8.3,4.4
	c21.9,12.6,43.8,25.3,65.7,37.8c4.2,2.4,7.8,5.1,9.7,9.5C469,122.4,469,124.5,469,126.5z"/>
<path class="st0" d="M79,422.8c1.8-3,4.5-3.9,8-3.9c30.9,0.1,61.8,0.1,92.7,0.1c5.7,0,7.5,1.8,7.5,7.4c0,2.9-0.2,5.8,0.1,8.7
	c0.4,3.9-1.2,6.6-4.6,8.2c-34.5,0-69.1,0-103.6,0C79,436.5,79,429.7,79,422.8z"/>
<rect x="305.7" y="87.1" transform="matrix(0.5002 -0.8659 0.8659 0.5002 -75.8303 415.1473)" class="st0" width="32" height="372.4"/>
<path class="st0" d="M326.5,331.5c-4.5,7.8-9,15.6-13.5,23.4c-3.9,6.8-10.7,8.6-17.6,4.7c-11.9-6.8-23.7-13.6-35.6-20.5
	c-7.6-4.4-9.3-10.9-4.8-18.7c4.4-7.5,8.7-15.1,13.1-22.6l-26.4-15.3c-10.2,17.6-20.3,35.1-30.5,52.7c-3,5.2-4.1,10.5-2.9,16.4
	c0.8,4.1,1.2,8.3,1.8,12.4c3.5,24.1,7,48.2,10.3,72.3c0.4,3.1,1.7,5.4,4.1,7.2c1.3,0,2.5,0,3.8,0c1.3-0.7,2.5-1.6,3.9-2.1
	c26.3-10.5,52.7-21.1,79-31.6c4.8-1.9,8.3-5,10.9-9.5c10.2-17.9,20.5-35.7,30.8-53.5L326.5,331.5z"/>
<path class="st0" d="M316.1,214.6c8.1-14,16.2-28,24.3-42.1c1.8-3.2,3.6-6.4,5.5-9.5c2.4-4,6-6.1,11.9-6.2c1.2,0.4,3.5,1,5.6,2.2
	c11.9,6.8,23.8,13.6,35.6,20.5c7.3,4.2,9.1,10.8,4.9,18.1c-9.8,16.9-19.6,33.9-29.3,50.8l26.4,15.3c14.8-25.6,29.6-51.2,44.3-76.8
	c4.4-7.6,2.6-14.3-4.9-18.7c-7.3-4.3-14.7-8.5-22.1-12.7c-21.8-12.6-43.7-25.3-65.5-37.8c-7.7-4.4-14.2-2.7-18.7,4.9
	c-0.4,0.7-0.8,1.3-1.2,2c-14.4,25-28.8,49.9-43.2,74.9L316.1,214.6z"/>
</svg>
