<?xml version="1.0" encoding="utf-8"?>
<!-- Generator: Adobe Illustrator 19.2.1, SVG Export Plug-In . SVG Version: 6.00 Build 0)  -->
<svg version="1.1" id="Layer_1" xmlns="http://www.w3.org/2000/svg" xmlns:xlink="http://www.w3.org/1999/xlink" x="0px" y="0px"
	 viewBox="0 0 512 512" style="enable-background:new 0 0 512 512;" xml:space="preserve">
<style type="text/css">
	.st0{fill:#999999;}
</style>
<g>
	<path class="st0" d="M479.3,98.7c-3.9,6.8-7.5,13.7-11.5,20.5c-5,8.4-13.2,10.6-21.7,5.7c-29.1-16.7-58.4-33.6-87.5-50.5
		c-8.9-5.1-10.9-13.1-5.9-22c2.2-4,4.7-7.9,6.8-12c2.8-5.6,6.6-10,12.6-11.9c1.8,0,3.6,0,5.6,0c3.4,1.8,6.8,3.4,10.1,5.3
		c26.6,15.3,53.2,30.7,79.7,45.9c5.1,2.9,9.5,6.2,11.8,11.5C479.3,93.7,479.3,96.3,479.3,98.7z"/>
	<path class="st0" d="M6,458.3c2.2-3.6,5.5-4.7,9.7-4.7c37.5,0.1,75,0.1,112.5,0.1c6.9,0,9.1,2.2,9.1,9c0,3.5-0.2,7,0.1,10.6
		c0.5,4.7-1.5,8-5.6,10c-41.9,0-83.9,0-125.7,0C6,474.9,6,466.7,6,458.3z"/>
	
		<rect x="281.2" y="50.9" transform="matrix(0.5002 -0.8659 0.8659 0.5002 -89.4997 398.671)" class="st0" width="38.8" height="452"/>
	<path class="st0" d="M306.4,347.5c-5.5,9.5-10.9,18.9-16.4,28.4c-4.7,8.3-13,10.4-21.4,5.7c-14.4-8.3-28.8-16.5-43.2-24.9
		c-9.2-5.3-11.3-13.2-5.8-22.7c5.3-9.1,10.6-18.3,15.9-27.4l-32-18.6c-12.4,21.4-24.6,42.6-37,64c-3.6,6.3-5,12.7-3.5,19.9
		c1,5,1.5,10.1,2.2,15c4.2,29.2,8.5,58.5,12.5,87.7c0.5,3.8,2.1,6.6,5,8.7c1.6,0,3,0,4.6,0c1.6-0.8,3-1.9,4.7-2.5
		c31.9-12.7,64-25.6,95.9-38.4c5.8-2.3,10.1-6.1,13.2-11.5c12.4-21.7,24.9-43.3,37.4-64.9L306.4,347.5z"/>
	<path class="st0" d="M293.8,205.6c9.8-17,19.7-34,29.5-51.1c2.2-3.9,4.4-7.8,6.7-11.5c2.9-4.9,7.3-7.4,14.4-7.5
		c1.5,0.5,4.2,1.2,6.8,2.7c14.4,8.3,28.9,16.5,43.2,24.9c8.9,5.1,11,13.1,5.9,22c-11.9,20.5-23.8,41.1-35.6,61.7l32,18.6
		c18-31.1,35.9-62.1,53.8-93.2c5.3-9.2,3.2-17.4-5.9-22.7c-8.9-5.2-17.8-10.3-26.8-15.4c-26.5-15.3-53-30.7-79.5-45.9
		c-9.3-5.3-17.2-3.3-22.7,5.9c-0.5,0.8-1,1.6-1.5,2.4c-17.5,30.3-35,60.6-52.4,90.9L293.8,205.6z"/>
</g>
</svg>
