<?xml version="1.0" encoding="utf-8"?>
<!-- Generator: Adobe Illustrator 19.2.1, SVG Export Plug-In . SVG Version: 6.00 Build 0)  -->
<svg version="1.1" id="Layer_1" xmlns="http://www.w3.org/2000/svg" xmlns:xlink="http://www.w3.org/1999/xlink" x="0px" y="0px"
	 viewBox="0 0 512 512" style="enable-background:new 0 0 512 512;" xml:space="preserve">
<style type="text/css">
	.st0{fill:#999999;}
</style>
<path class="st0" d="M277.1,359.7c-23.9,48.5-48.5,97.3-73.7,146.3c-26.1-49.1-50.8-97.9-74.3-146.3c-23.4-48.5-47.6-97.4-72.3-147
	h67.7c16.5,32.2,29.4,58,38.8,77.5c9.3,19.6,16.7,35.4,21.9,47.6c5.2,12.2,9,21.9,11.5,29c2.4,7.1,4.7,14.6,6.9,22.5
	c2.5-7.8,5.1-15.3,7.5-22.5c2.4-7.1,6.2-16.8,11.5-29c5.2-12.2,12.5-28,21.9-47.6C253.6,270.6,371.6,38.1,388.2,6h67.1
	C430.3,55.5,300.9,311.2,277.1,359.7z"/>
</svg>
