<?xml version="1.0" encoding="utf-8"?>
<!-- Generator: Adobe Illustrator 19.2.1, SVG Export Plug-In . SVG Version: 6.00 Build 0)  -->
<svg version="1.1" id="Layer_1" xmlns="http://www.w3.org/2000/svg" xmlns:xlink="http://www.w3.org/1999/xlink" x="0px" y="0px"
	 viewBox="0 0 512 512" style="enable-background:new 0 0 512 512;" xml:space="preserve">
<style type="text/css">
	.st0{fill:#999999;}
</style>
<path class="st0" d="M506,256c0,138.1-111.9,250-250,250S6,394.1,6,256S117.9,6,256,6S506,117.9,506,256z M256,37.2
	C135.2,37.2,37.2,135.2,37.2,256S135.2,474.8,256,474.8S474.8,376.8,474.8,256S376.8,37.2,256,37.2z"/>
<g>
	<path class="st0" d="M225.1,249.2c-11.3-16.7-23.3-33.2-36-49.7s-24.8-33.1-36.5-49.7h59c4,6.3,7.7,12.1,11.2,17.3
		c3.5,5.2,7,10.1,10.5,14.7c3.5,4.7,7.1,9.5,11,14.5c3.8,5,7.7,10.5,11.7,16.5c4-6,7.8-11.5,11.5-16.5s7.3-9.9,11-14.5
		c3.7-4.7,7.3-9.6,11-14.7c3.7-5.2,7.5-10.7,11.5-16.8h53.5c-6.3,9.7-12.3,18.5-18,26.3c-5.7,7.8-11.2,15.6-16.8,23.2
		c-5.5,7.7-11.1,15.6-17,24c-5.9,8.3-12.1,17.5-18.8,27.5c5.7,8.3,12,17.3,19,26.8c7,9.5,14.2,19,21.5,28.7s14.5,19.2,21.3,28.7
		s13.1,18.5,18.8,26.8h-61.5c-9-12.7-18-24.2-26.8-34.8c-8.8-10.5-17.6-21.9-26.3-34.3c-8.7,12.7-16.9,24.1-24.7,34.3
		c-7.8,10.2-16.1,21.8-24.7,34.8h-53.5c12.7-19,25.8-37.8,39.3-56.5C199.9,287,212.8,268.1,225.1,249.2z"/>
</g>
</svg>
