<?xml version="1.0" encoding="utf-8"?>
<!-- Generator: Adobe Illustrator 19.2.1, SVG Export Plug-In . SVG Version: 6.00 Build 0)  -->
<svg version="1.1" id="Layer_1" xmlns="http://www.w3.org/2000/svg" xmlns:xlink="http://www.w3.org/1999/xlink" x="0px" y="0px"
	 viewBox="0 0 512 512" style="enable-background:new 0 0 512 512;" xml:space="preserve">
<style type="text/css">
	.st0{fill:#4DAF4A;}
	.st1{fill-rule:evenodd;clip-rule:evenodd;fill:#4DAF4A;}
</style>
<path class="st0" d="M90.8,347.6l-47.1,0.6l-13.6,13.6L30,446.3l13,13h425.3l13.7-13.7l-0.1-83.3l-14.3-14.2l-375.7-0.5 M152,411
	H69.4v-32H152V411L152,411L152,411z"/>
<path class="st1" d="M419.9,306.9l3.4-39.4l0.5-3.2l1.2-158.1l-5-45.2l-10.2-8.4h-309l-9.6,11l-4,40l-1,140.6l5.6,60.7 M139.8,90.7
	l-12.4,13.6l-0.5,125.9l0.6,15.5l9,9.7l7.7,0.6h216.8l11-0.6l9-13.6V105.6l-9-14.2l-11.6-0.6H140.4"/>
</svg>
