<?xml version="1.0" encoding="utf-8"?>
<!-- Generator: Adobe Illustrator 19.2.1, SVG Export Plug-In . SVG Version: 6.00 Build 0)  -->
<svg version="1.1" id="Layer_1" xmlns="http://www.w3.org/2000/svg" xmlns:xlink="http://www.w3.org/1999/xlink" x="0px" y="0px"
	 viewBox="0 0 512 512" style="enable-background:new 0 0 512 512;" xml:space="preserve">
<style type="text/css">
	.st0{fill:#4DAF4A;}
</style>
<g>
	<path class="st0" d="M73.3,357.4L21.2,358l-15,15L6,466.6l14.4,14.4h470.5l15.2-15.2l-0.1-92.1l-15.8-15.7l-415.6-0.6 M141,427.5
		H49.6v-35.4H141V427.5L141,427.5L141,427.5z"/>
	<path class="st0" d="M437.7,312.4l3.8-43.6l0.6-3.5l1.3-174.9l-5.5-50l-11.3-9.3H84.8L74.1,43.2l-4.4,44.2L68.6,243l6.2,67.1
		 M127.9,73.2l-13.7,15l-0.6,139.3l0.7,17.1l10,10.7l8.5,0.7h239.8l12.2-0.7l10-15V89.7l-10-15.7l-12.8-0.7H128.6"/>
</g>
</svg>
