<?xml version="1.0" encoding="utf-8"?>
<!-- Generator: Adobe Illustrator 19.2.1, SVG Export Plug-In . SVG Version: 6.00 Build 0)  -->
<svg version="1.1" id="Layer_1" xmlns="http://www.w3.org/2000/svg" xmlns:xlink="http://www.w3.org/1999/xlink" x="0px" y="0px"
	 viewBox="0 0 512 512" style="enable-background:new 0 0 512 512;" xml:space="preserve">
<style type="text/css">
	.st0{fill:#FF7F00;}
	.st1{fill:#FFFFFF;}
</style>
<g>
	<path class="st0" d="M248.5,269.4c2.4-3.7,4.8-7.6,7.4-11.2c3.2-4.4,6.7-8.5,10-12.8c0.5-0.7,1.1-1.8,0.9-2.5
		c-0.6-1.7,0.2-2.1,1.6-2.1c0.9,0,1.9,0.4,2.8,0.4c1,0,2.1-0.2,3.1-0.3c-0.4-1.1-0.4-2.4-1.1-3.1c-1.9-2-1.4-5.5-4.6-6.8
		c-0.7-0.3-0.8-2.6-1-3.9c-0.4-4-0.6-8.1-1-12.1c-0.3-3.2-0.1-3.5,3.2-4.1c4.4-0.7,4.5-0.7,4.5-5.1c0-12.7,0-25.2,0-37.9
		c0-1,0-1.9-0.1-2.9c0-0.4-0.3-1.2-0.5-1.2c-0.6,0-1.5,0-1.9,0.4c-6.6,6.5-13,13.2-19.5,19.6c-10.1,10.1-20.2,19.9-30.2,30
		c-8.2,8.3-16.1,16.6-24.2,24.9c-5.9,5.9-11.9,11.7-17.8,17.4c-1.5,1.5-2.8,3.2-4.3,4.7c-4.7,4.8-9,10-14.2,13.9
		c-5.5,4.1-6,8.7-4.9,14.7c0.7,4.1,0,8.5-0.2,12.8c-0.1,2.7-1.5,3.6-4.2,3.6c-10.3-0.1-20.4-0.1-30.7,0c-4.1,0-4.3,0.5-4.3,4.5
		c0,2.6,1.4,3.7,3.4,3.6c3.8-0.3,7.5-1.1,10.2,2.9c0.4,0.6,2.2,0.4,3.4,0.4c4.5,0.1,9.1,0.4,13.6,0c7.6-0.7,15.7,5,18.5,13.6
		c1.4,4.5,1.4,8.4-1,12.3c-1.1,1.8-2.2,3.7-3.5,5.4c-1.1,1.4-1,1.9,0.7,2c1.4,0.1,2.9,0.1,4.3,0.1c35.7,0,71.3,0,107.1,0
		c7,0,6.7,0.8,6.7-6.4c0-1.9-0.2-3.8,0.1-5.7c0.1-1,1-2.8,1.6-2.8c4.5-0.3,3.7-3.4,3.7-6.2c0-8.4,0-16.6,0-25c0-7.4-0.9-6.7,7-6.8
		c11-0.1,21.9,0,32.9,0c1.7,0,3.4,0.2,5-0.1c0.9-0.2,1.5-1.3,2.2-2.1c0.1-0.1,0.1-0.5,0.1-0.7c0-13.4,0.1-26.6,0.1-40
		c0-2.1-0.8-2.5-2.5-1.3c-1.2,0.8-2.3,1.9-3.6,2.3c-0.8,0.3-2.3-0.2-2.8-0.9c-1.8-2.5-3.4-5.1-5.1-7.8c-1.2-2-0.7-3.7,1.3-4.8
		c6.3-3.8,12.6-7.5,18.8-11.4c7.6-4.8,15-9.7,22.7-14.4c8.3-5.1,16.5-10.1,24.8-15.1c1.8-1.1,3-0.6,4.5,0.3
		c6.1,3.6,12.3,7.1,18.4,10.6c8.2,4.7,16.4,9.3,24.6,14c8.2,4.7,16.1,9.7,24.3,14.3c1.9,1.1,2,2.3,0.9,4c-0.8,1.4-1.3,3.1-2.2,4.5
		c-1,1.6-1.9,3.6-3.4,4.5c-0.9,0.5-2.9-0.7-4.4-1.2c-1.6-0.5-2.1,0.3-2.2,1.7c0,0.7,0,1.4,0,2.1c0,19.2,0,38.6,0,57.8
		c0,0.7,0,1.4,0,2.1c0,1.6,0.5,2.8,2.4,2.7c2-0.1,2.1-1.5,2.1-3c0.3-10.5,0.6-20.9,0.8-31.3c0.2-7.6-1.4-8,8.1-6.4
		c10.5,1.8,20.8,4.4,31.3,6.5c2.3,0.5,2.7,1.6,2.2,3.5c-0.3,1.4-0.8,2.7-1.2,4.1c-0.6,2-0.7,4.9-2,5.9c-1.2,0.9-3.9-0.2-5.9-0.8
		c-1.7-0.5-2.3,0.1-2.3,1.5c-0.1,3.1,0,6.2,0,9.3c0,7.2,0,14.2,0,21.4c0,1.4-0.5,3.5,0.2,4.2c4.4,3.8,2.6,8.8,2.8,13.3
		c0.1,2.7,0.9,3.8,3.7,3.7c5.5-0.2,11,0,16.4,0c0,22.4,0-12.4,0,10c-1.7-0.1-3.3-0.2-5-0.2c-142.4,0-284.8,0-427.3,0
		c-22.6,0-45.2,0.1-67.8,0.2c0-22.4,0,12.4,0-10c6.4,0,12.9,0,19.2,0c0.5,0,0.9-0.2,1.4-0.3c-0.3-0.5-0.4-1.2-0.8-1.5
		c-6.3-6.2-6.3-13.6-3.4-20.8c2.7-6.8,8.6-10,15.7-10.3c4.3-0.2,8.6,0,12.9-0.1c3.1-0.1,6.6,1.3,8.8-2.6c0.5-0.9,3.1-0.6,4.7-0.7
		c4-0.3,4-0.3,4.1-3.9c0.1-3.8-0.2-4.2-3.9-4.2c-11.9-0.1-23.8,0-35.7,0c-1.7,0-3.3,0-5,0c-2.3,0-3.6-1-3.7-3.4
		c-0.4-8.6,0.7-17,2.5-25.4c0.1-0.7,0.3-1.5,0.7-2c8.5-10.2,14.2-22.1,20.9-33.4c5.9-10,12.1-19.8,18-29.8c2.9-4.8,6.5-9.1,6.8-15.1
		c0.2-3.7,2.2-5,5.8-5.2c11.2-0.5,21.7-4.1,32.7-5.9c4.7-0.8,9.2-2.1,13.8-3.2c15.1-3.7,30.6-6.2,45.6-10.2
		c10.7-2.9,21.8-4.2,32.7-6.3c0.9-0.2,1.9-0.2,2.8-0.6c12.4-4.4,25.5-5.2,38.1-8.9c8.3-2.4,17.2-2.6,25.4-6.1c0.7-0.3,2,0,2.6,0.5
		c2,1.6,4,3.3,5.5,5.3c1,1.4,1.6,3.4,1.7,5.1c0.2,9.8,0.1,19.5,0.1,29.3c0,5.7,0,11.5,0,17.1c0,2.6,0.6,4.4,3.6,3.5
		c3.5-1,3.9,1.2,3.4,3.4c-1.1,5.8,0.3,12.2-3.5,17.4c-0.1,0.2-0.3,0.5-0.2,0.6c2.7,4.4,1.7,9,1.3,13.7c-0.1,1.1,1.2,2.6,2.2,3.6
		c7,7,13.6,14.2,21.1,20.5c3.1,2.5,5,4.5,4.9,8.4c0,1,0.6,2.5,1.4,3.1c2.8,2,1,3.5,0,5.4c-1.1,2.2-2.4,2.3-4.5,1.4
		c-2.1-0.9-4.5-1.4-6.8-1.5c-16.1-0.1-32.4-0.1-48.5,0c-2.3,0-4.6,0.9-6.8,1.5c-1.4,0.4-2.9,1.4-3.7-0.4c-0.8-1.8-3.4-3.6-1.1-5.7
		c2.3-2,3.3-4.3,3.7-7.3c0.5-3.7,4.2-4.7,6.7-6.8c0.2,1.8,0.5,3.6,0.7,5.4c1.7-0.5,3.5-1,5.1-1.7c1.3-0.6,2.4-1.5,3.6-2.3
		c4.2-2.7,8.4-5.4,12.5-8.1c2.4-1.5,4.7-1.9,7.2-0.2c1.5,1.1,3.2,2,4.8,3c4.6,2.9,9.1,5.9,13.7,8.9c1.5,1,3,1.5,4.3-0.3
		c1.3-1.8-0.3-2.6-1.2-3.5c-6-6.1-12.3-11.8-18.1-18c-2.9-3.1-5.8-4.9-10.3-5.2c-2.5-0.1-3.9,0-5.3,1.9c-4.2,5.7-8.5,11.3-13,16.8
		C251.7,267.4,250,268.3,248.5,269.4z M247.6,177.4c-2.8-0.7-2.9,1.5-3.2,3.2c-0.3,1.7-0.5,3.4-0.7,5.2c1.4-1.2,3.2-2.2,4.1-3.8
		C248.4,180.9,247.8,179,247.6,177.4c2.4,0.4,4.4,0.1,4.8-2.6c0.2-1.7,0-3.4-0.1-5.2c-1.6,1.2-3.6,2.2-4.8,3.7
		C246.9,174.3,247.5,176,247.6,177.4z M78.8,240.5c0,8.1,0,16.1,0,24.3c0,2.4,0.9,3.5,3.3,3.4c5-0.1,10,0,15-0.1
		c1.7,0,2.6-0.9,2.6-2.6c0-3.8,0-7.6,0-11.5c0.1-4.7,0.1-4.8,4.7-4.8c12.7,0,25.2,0,37.9,0c1.2,0,3-0.3,3.5,0.3c2,2.6,3.3,1.1,5-0.3
		c9.5-8.1,18.9-16.1,28.4-24.3c9.2-7.9,18.2-15.7,27.3-23.5c9.2-7.9,18.2-15.7,27.5-23.4c7.1-6,14.3-11.7,21.4-17.5
		c0.7-0.6,1.1-1.4,1.6-2.1c-0.9-0.1-1.8-0.5-2.7-0.3c-15.9,3.4-31.8,7.2-47.8,10.1c-16,3-32,6.7-47.8,10.3
		c-12.2,2.8-24.6,4.7-36.7,8.2c-2,0.6-4.1,1-6.2,1.4c-10.3,2-20.4,3.9-30.7,5.9c-0.8,0.2-2,1.8-1.8,2.3c2.1,5.5-3,9.9-1.9,15.1
		c-3.8,3.1-2.3,7.4-2.4,11.3C78.7,228.6,78.8,234.5,78.8,240.5z M92.9,350.7c15.9,0,31.9,0,47.8,0c4.4,0,8.8,0.6,13.1-1.3
		c6.4-2.9,9.3-8.1,9.2-14.6c-0.1-6-5.8-12.3-12-12.8c-6.8-0.6-13.7-0.5-20.5-0.5c-26-0.2-52.1-0.3-78.1-0.4
		c-5.2,0-10.4,0.1-15.4,0.8c-7,1-12,6.7-12.5,13.5c-0.4,6.1,4,12.5,10.3,14.4c2.2,0.7,4.7,0.9,7,0.9
		C58.6,350.7,75.7,350.7,92.9,350.7z M72.9,240.7L72.9,240.7c0-8.1,0.2-16.1-0.1-24.3c-0.1-2.7-1.4-5.4-2.1-8.2
		c-1.7,1.9-3.4,3.8-5.1,5.8c-0.3,0.4-0.5,0.8-0.7,1.2c-6.3,10.6-12.7,21-18.9,31.6c-5,8.3-10,16.6-14.8,25c-1.3,2.2-0.9,2.9,1.8,2.9
		c11.2,0,22.4,0,33.6,0c4.4,0,4.5,0,5.5-4.9c0.5-2.5,0.9-5.1,0.9-7.7C73,255,72.9,247.9,72.9,240.7z M403.2,314.8L403.2,314.8
		c0-5.7-0.1-11.3,0-16.9c0-2.2-1-2.9-3-2.9c-6.7,0.1-13.4,0.1-19.9,0c-2.3,0-2.8,1.2-2.7,3.2c0.1,1.4,0,2.9,0,4.3
		c0,9.3,0,18.5,0,27.8c0,4.2-0.1,4.5-4.1,4.6c-3,0.1-3.4,1.4-3.6,3.9c-0.3,4.2-0.5,4.2-4.5,4.7c-4.1,0.5-4.4,0.8-4.1,4.7
		c0.1,0.8,0.7,1.6,1.1,2.4c0.7-0.4,1.8-0.7,2-1.3c0.7-2,2.1-2.3,3.9-2.5c4.3-0.5,4.3-0.6,4.7-4.8c0.3-3.6,0.3-3.7,4.3-3.8
		c8.8-0.1,17.6-0.1,26.4,0c4.4,0,4.6,0.1,4.9,4.8c0.2,2.7,0.9,4,3.7,3.8c1.6-0.1,3.3-0.3,4,1.9c0.3,0.8,1.5,1.3,2.3,1.9
		c0.4-1,1.2-1.9,1.3-3c0.3-3.6,0.1-3.7-3.9-4.2c-4.1-0.5-4.1-0.5-4.5-4.3c-0.4-3.7-0.4-3.9-4.6-4.1c-2.7-0.1-3.8-1-3.7-3.8
		C403.3,325.8,403.2,320.3,403.2,314.8z M125.4,257.7L125.4,257.7c-4.8,0-9.5-0.1-14.2,0.1c-0.8,0-2.3,1.2-2.3,1.9
		c-0.2,6.4-0.2,12.8,0,19.2c0,0.7,1.3,1.6,2.2,2c0.8,0.3,1.9,0.2,2.8,0.1c3.8-0.4,7,0.3,8.9,4.1c0.8,1.7,2.3,2.8,4.6,2.8
		c6.2-0.1,12.4-0.1,18.5,0c2.2,0,3-1.1,2.7-3.1c-0.9-5.4-1.5-10.8-2.9-16c-1-3.6-2.4-7.6-4.9-10c-1.7-1.6-5.8-0.8-8.9-0.9
		C129.7,257.6,127.6,257.7,125.4,257.7z M417.5,260.2L417.5,260.2c0,3.6,0,7.2,0,10.7c0,2.2,0.8,3.7,3.3,3.7c4.3,0,8.6,0,12.9,0
		c2.4,0,3.4-1.3,3.4-3.6c0-6.9,0-13.8,0-20.6c0-1.8-0.8-2.6-2.6-2.6c-4.8,0-9.5,0-14.2,0c-2.3,0-2.7,1.3-2.7,3.2
		C417.6,254.1,417.5,257.2,417.5,260.2z M437,308.4C437,308.4,436.9,308.4,437,308.4c0-3.6-0.1-7.2,0-10.7c0-1.8-0.9-2.6-2.6-2.6
		c-4.5,0-9.1,0-13.6,0c-2.5,0-3.3,1.4-3.3,3.6c-0.1,6.4-0.1,12.9-0.2,19.2c0,2.4,1.6,3.6,3.6,3.6c4.3,0,8.5-0.5,12.8-0.6
		c2.3-0.1,3.5-0.8,3.4-3.4C436.9,314.5,437,311.5,437,308.4z M366,261L366,261c0-3.6,0-7.2,0-10.7c0-1.7-0.8-2.6-2.6-2.6
		c-4.5,0-9.1,0-13.6,0c-2.2,0-2.8,1.2-2.7,3.2c0.1,3.1-0.1,6.2,0,9.3c0.2,4.7,0.6,9.4,0.9,13.9c4.7,0.2,9.5,0.2,14.1,0.5
		c2.7,0.2,4-0.8,3.9-3.6C366,267.7,366,264.4,366,261z M305.9,315c-0.1,0-0.1,0-0.2,0c0.2,4,0.4,8,0.6,12.1
		c4.2,0.3,8.4,0.6,12.6,0.9c1,0.1,1.9-0.1,2.9,0c2.2,0.1,2.8-1.1,2.8-3.1c-0.1-5.5,0-11,0-16.4c0-6.9,0.7-6.6-6.6-6.5
		c-3.8,0-7.6,0.3-11.3,0.5c-0.3,3.7-0.5,7.5-0.8,11.2C305.9,314.2,305.9,314.6,305.9,315z M280.2,222.5c-0.1-9.6-0.6-10.1-9-8.8
		c-1.8,0.3-2.4,1.1-2.2,2.8c0.4,3.5,0.9,7.1,0.9,10.6c0.1,2.4,0.8,3.2,3.3,3.4c7.1,0.5,7,0.6,7.1-6.7
		C280.2,223.4,280.2,223,280.2,222.5z M177.1,239.1c0-1.8,0.1-3-0.1-4.2c0-0.3-1.2-0.8-1.4-0.6c-3.2,2.7-6.4,5.6-9.6,8.4
		c2,2.5,4,5,6.1,7.5c0.6,0.7,1.2,1.5,1.9,2.1c0.3,0.3,0.8,0.5,1.2,0.7c0.2-0.4,0.5-0.8,0.6-1.2C176.2,247.4,176.7,242.9,177.1,239.1
		z M161.1,246c-3.3,3.1-6.4,5.9-9.4,8.7c1.3,1.9,2.4,3.9,3.8,5.7c1.4,1.9,2.8,3.7,4.3,5.6c0.3,0.4,0.9,0.6,1.4,0.9
		c0.1-0.4,0.4-0.9,0.4-1.3c0.3-5.9,0.6-11.7,0.9-17.5C162.4,247.5,161.8,247,161.1,246z M189.9,231.5c0.1-1.5,0.1-1.7,0.1-2
		c-0.1-2.3-0.2-4.6-0.4-6.9c-1.9,1.3-3.9,2.5-5.7,3.9c-1.1,0.8-2,2-2.9,3.1c-0.4,0.5-0.9,1.6-0.8,1.8c2.6,2.6,5.4,5,8.1,7.5
		c2.6-1.9,1.1-4.8,1.6-7.2C190,231.2,189.9,230.8,189.9,231.5z M173.8,255.9c-0.3-0.5-0.5-1.2-0.9-1.7c-2.1-2.2-4.3-4.3-6.4-6.4
		c-0.3-0.3-0.8-0.4-1.3-0.6c-0.2,0.6-0.7,1.2-0.7,1.8c-0.3,4.9-0.6,9.9-0.9,14.8c0,0.4,0.2,1,0.5,1c0.4,0.1,1,0,1.3-0.3
		c2.7-2.6,5.4-5.3,8.1-8C173.6,256.4,173.7,256.2,173.8,255.9z M217.5,198.4c-1.6,1.4-3.3,2.7-4.7,4.3c-1.6,1.7-5.6,2-4.5,5.2
		c0.8,2.2,3.5,3.7,5.4,5.4c0.3,0.2,1.6-0.1,1.7-0.3c1-4.5,2-9.1,2.9-13.7C218.4,199.1,217.9,198.8,217.5,198.4z M178.6,243.1
		L178.6,243.1c-0.1,1.9-0.1,3.8-0.1,5.7c0,1.1,0.5,2,1.6,1c2.1-1.9,4-4,6.1-6c1.1-1.1,0.9-2-0.3-2.9c-0.7-0.6-1.2-1.4-1.9-2
		c-1.4-1.2-3-3.5-4.1-3.3c-2.2,0.4-1,3-1.3,4.7C178.5,241.2,178.6,242.1,178.6,243.1z M203.2,218.9c-0.1,0-0.2,0-0.3,0
		c0-2.6,0-5.2,0-7.8c-2.2,1.6-4.6,3.1-6.7,4.9c-2,1.7-1.6,3.5,0.5,5.1c2,1.4,3.8,3.1,5.6,4.7C202.7,223.5,202.9,221.2,203.2,218.9z
		 M192.1,236.7c-0.2-1-0.1-0.3,0.1,0.4c0.6-0.3,1.2-0.6,1.8-1s1-1,1.5-1.5c5.8-5.9,5.8-5.9,0.1-11.2c-0.5-0.4-1.1-0.6-1.7-0.9
		c-0.2,0.6-0.5,1.3-0.6,1.9C192.8,228.1,192.5,231.5,192.1,236.7z M231.4,190.2c-0.1-0.4-0.2-1.1-0.3-1.7c-0.8,0.2-1.8,0.2-2.4,0.7
		c-2.1,1.4-4.2,3-6.2,4.6c-0.4,0.3-0.8,1.6-0.6,1.8c1.9,1.7,4,3.3,6,4.9c0.7-1.7,1.5-3.4,2.1-5.1
		C230.5,193.7,230.9,192.1,231.4,190.2z M212.7,217.4c0.2-1.1,0.3-1.5,0.2-1.6c-2-1.9-4-3.9-6-5.8c-0.4,0.4-1,0.8-1.1,1.2
		c-0.3,3.7-0.5,7.4-0.7,11.2c0,0.2,0.7,0.8,0.7,0.7C208.3,221.2,210.8,219.1,212.7,217.4z M151.7,262.9c0.8,3,1.6,6.2,2.5,9.3
		c0.8,2.6,1.1,2.7,2.8,0.8c0.9-1.1,2.4-3.1,2-3.7c-1.5-2.6-3.7-4.8-5.6-7c-0.4-0.4-1-0.6-1.5-0.9
		C151.9,261.8,151.9,262.3,151.7,262.9z M242.4,179.2c-0.2-0.3-0.4-0.9-0.7-0.9c-0.4-0.1-1,0.1-1.3,0.4c-1.7,1.6-3.5,3.1-5.1,4.8
		c-0.3,0.3-0.3,1.3,0,1.6c1.3,1.4,2.7,2.6,4,3.9c0.7-1.6,1.6-3.2,2.1-4.9C242,182.6,242.1,180.9,242.4,179.2z M42.5,288.5
		c0,0.2,0,0.3,0,0.5c0.7-0.1,1.5,0.1,2.1-0.2c0.5-0.3,1.1-1,1.2-1.6c0.1-0.5-0.5-1.6-0.9-1.7c-3.7-0.1-7.4-0.1-11.2,0
		c-0.3,0-0.9,1.1-0.8,1.6c0,0.5,0.8,1.2,1.2,1.2C36.9,288.6,39.7,288.5,42.5,288.5z M219.5,210.1c0.2-0.1,0.5-0.2,0.6-0.4
		c1.6-1.7,3.4-3.3,4.8-5.1c0.4-0.5,0.6-2,0.2-2.4c-1.1-1.1-2.5-1.9-3.8-2.8c-0.1-0.1-0.9,0.5-0.9,0.8c-0.6,3-1.1,6-1.6,8.9
		C218.9,209.5,219.3,209.8,219.5,210.1z M39.3,283.6L39.3,283.6c1.7,0,3.3,0.1,5,0c0.5,0,1-0.7,1.4-1.1c-0.4-0.5-0.8-1.3-1.2-1.4
		c-3.3-0.1-6.6-0.1-10,0c-0.5,0-0.9,0.8-1.4,1.2c0.4,0.5,0.8,1.2,1.2,1.3C35.9,283.7,37.6,283.6,39.3,283.6z M40.2,290.2
		c-2.5,1.2-6.5-1.1-6.7,1.9c-0.1,2.2,4,1.2,6.1,1.1c2-0.1,4.8,1.8,6.1-1.5C43.8,291.2,41.9,290.7,40.2,290.2z M39,297.8
		c1.9-1,4.7,1.3,6.5-1.5c-2.2-0.3-4.3-0.8-6.5-1c-1.6-0.1-3.3,0-4.9,0.2c-0.3,0-0.7,0.6-0.8,0.9c0,0.3,0.3,1,0.6,1
		C35.5,297.6,37.1,297.7,39,297.8z M233.2,196.5c1.4-1.2,2.8-2.4,4-3.8c0.4-0.5,0.6-1.8,0.2-2.3c-0.6-0.9-1.7-1.6-2.7-1.9
		c-0.3-0.1-1.3,1.2-1.6,2c-0.5,1.6-0.7,3.2-0.9,4.8C232.2,195.6,232.7,195.9,233.2,196.5z M265.1,164.5c1.5-1.3,2.9-2.3,3.9-3.6
		c0.4-0.5,0.3-1.7-0.1-2.4c-0.4-0.7-1.3-1.2-1.9-1.8c-0.6,0.7-1.4,1.2-1.6,2c-0.5,1.3-0.7,2.7-0.9,4.1
		C264.4,163.3,264.8,163.8,265.1,164.5z M261.6,160.2c-1.7,2.5-2.8,4.1-3.8,5.8c-0.1,0.2,1.2,1.3,2,1.6c0.3,0.1,1.2-0.5,1.4-0.9
		c0.5-1.3,0.9-2.6,1.2-4C262.6,162.3,262.2,161.7,261.6,160.2z M258.8,170.5c-0.8-0.8-1.1-1.5-1.7-1.8c-1-0.5-2.7,2.5-2.6,4.6
		c0,0.4,0.4,0.7,0.6,1c0,0,0.4-0.2,0.6-0.3C256.8,172.9,257.8,171.7,258.8,170.5z M245.2,273.4c-0.5,1.4-1.1,2.1-1,2.8
		c0,0.8,0.6,1.5,1,2.3c0.7-0.8,1.6-1.5,1.9-2.4C247.2,275.6,246.2,274.8,245.2,273.4z M304.9,274.4c-1.1,0.8-2,1.3-2,1.6
		c0.3,1,0.8,1.9,1.3,2.8c0.5-0.3,1.4-0.7,1.4-1C305.6,276.9,305.2,275.9,304.9,274.4z"/>
	<path class="st1" d="M92.9,350.7c-17.1,0-34.3,0-51.3,0c-2.3,0-4.8-0.2-7-0.9c-6.3-2-10.7-8.4-10.3-14.4
		c0.5-6.8,5.5-12.5,12.5-13.5c5.1-0.7,10.4-0.8,15.4-0.8c26,0,52.1,0.2,78.1,0.4c6.9,0,13.8-0.1,20.5,0.5c6.1,0.5,11.9,6.8,12,12.8
		c0.1,6.6-2.8,11.8-9.2,14.6c-4.3,1.9-8.7,1.3-13.1,1.3C124.7,350.7,108.7,350.7,92.9,350.7z M106.9,338.1c2,0,2.5,0,2.9,0
		c2.6-0.3,2.5,0.9,1.6,2.7c-1.5,2.9-0.1,5.1,2,6.8c1.5,1.2,3.6,1.6,5.3,0.3c2.2-1.6,3.6-3.8,2.5-6.8c-0.2-0.4-0.5-0.8-0.6-1.3
		c-0.1-0.4,0.1-1.2,0.2-1.2c1.9-0.1,3.7-0.2,5.6-0.3c-0.1,1,0,2.1-0.2,3c-0.7,2.7,0.3,5.1,2.5,6.1c1.7,0.8,4.6,0.9,6-0.1
		c1.3-0.9,1.4-3.7,1.8-5.6c0.1-0.6-0.4-1.4-0.5-2.1c0-0.4,0.3-0.8,0.4-1.3c0.3,0.2,0.7,0.4,0.9,0.7c1,1.3,2,2.7,2.9,4
		c2.6,3.6,6.1,5.4,10.4,4.4c4.7-1.1,7.9-4.4,9.3-9c1.7-5.6-1.3-11-7.4-13.8c-4.2-1.9-10.1-0.1-13.1,4.3c-1.1,1.5-1.8,3.3-2.8,5
		c-0.2,0.3-0.8,0.3-1.2,0.4c0-0.4-0.2-0.8,0-1.1c0.3-0.9,0.9-1.7,1.1-2.6c0.6-2.4-0.8-5.6-2.8-6.7c-1.8-1-4.4-0.3-6.4,1.8
		c-1.8,1.8-2,3.8-1,5.9c0.8,1.6,0.2,2.3-1.2,2.4c-1.4,0.1-2.7-0.2-4.1-0.3c0.1-1,0.5-2.1,0.4-3.1c-0.2-1.6-0.5-3.2-1.2-4.6
		c-1.1-2.1-3.1-3.5-5.3-2.1c-1.7,1.1-3.2,2.9-4.2,4.7c-0.4,0.8,0.6,2.5,1.3,3.7c0.7,1.4,0.7,2.2-1.1,2.3c-0.7,0-1.4,0-2.1,0
		c-3.5-0.1-3.5-0.1-2.4-3.8c0.8-2.7-2-6.9-5-7.3c-2.3-0.4-5.5,2.4-5.8,5.3c-0.1,0.9,0.1,2,0.5,2.8c1.5,2.7-0.6,2.8-2.2,3
		c-2.6,0.3-3.3-0.6-2.7-3.5c0.6-3-0.5-5.3-2.9-6.7c-1.3-0.7-3.4-1-4.6-0.5c-2.5,1.2-3.6,3.6-3.1,6.5c0.1,0.5,0.6,1,0.5,1.3
		c-0.4,0.9-1,2.1-1.7,2.4c-1,0.4-2.3-0.1-3.5,0c-1.5,0.2-1.6-0.4-1.1-1.5c0.3-0.7,0.8-1.3,0.9-1.9c0.6-3.7-1.8-7-5.1-7.3
		c-3.2-0.3-5.9,2.6-6,6.5c0,0.5,0.3,0.9,0.4,1.4c0.8,2-0.4,2.5-2.1,2.5c-2.6,0.1-3.1-0.7-2.5-3.4c0.7-3.5-0.9-5.6-3.8-6.6
		c-2.4-0.9-4.8,0.2-6.6,3c-1.4,2.1-1.4,2.1-3.5,0.8c-0.6-0.4-1.3-0.7-1.8-1.1c-4.7-3.8-9.2-2.6-13.8,0.2c-4.2,2.5-4,6.6-4.1,10.7
		c-0.1,4.9,3.6,7,6.8,9.3c3,2.1,6.3,1.9,9.4,0c1.6-1,3.3-2.1,4.5-3.5c1.7-1.9,1.8-1.6,2.2,0.7c0.8,3.9,2.4,4.8,6.7,4.3
		c2.8-0.3,4.2-2,4.3-5.5c0-0.7-0.4-1.4-0.6-2.1c-0.5-2,0.6-2.5,2.3-2.5c1.8,0,3.5,0,2.9,2.6c-0.2,0.9-0.6,1.8-0.5,2.7
		c0.4,3.6,1.9,4.9,5.7,4.7c3.8-0.2,5.2-1.5,5.2-5.2c0-0.9,0-2-0.4-2.8c-0.6-1.4-0.5-2.1,1.2-2c1.4,0.1,3.2-0.2,4.1,0.6
		c0.6,0.5-0.1,2.5,0,3.8c0.1,4.6,3.4,7,7.6,5.4c2.4-0.9,3.6-3.6,2.6-7.2c-0.5-1.9-0.5-2.6,1.5-2.6c0.5,0,1,0,1.4,0
		c2.3-0.1,3.4,0,2.4,3.1c-1.3,4.2,0.8,6.9,4.5,7c4,0.1,6.4-2.9,5.4-7C105.3,338.1,105.3,338.1,106.9,338.1z"/>
	<path class="st1" d="M403.2,314.8c0,5.5,0.1,11,0,16.4c-0.1,2.8,1,3.7,3.7,3.8c4.2,0.2,4.2,0.4,4.6,4.1c0.4,3.9,0.4,3.9,4.5,4.3
		c4,0.4,4.2,0.6,3.9,4.2c-0.1,1-0.8,2-1.3,3c-0.8-0.6-2.1-1.1-2.3-1.9c-0.7-2.3-2.4-2-4-1.9c-2.8,0.2-3.5-1.2-3.7-3.8
		c-0.3-4.7-0.5-4.8-4.9-4.8c-8.8-0.1-17.6,0-26.4,0c-4,0-4,0.1-4.3,3.8c-0.4,4.2-0.4,4.3-4.7,4.8c-1.8,0.2-3.2,0.5-3.9,2.5
		c-0.2,0.6-1.3,0.9-2,1.3c-0.4-0.8-1-1.6-1.1-2.4c-0.3-3.9,0-4.2,4.1-4.7c4-0.5,4.2-0.5,4.5-4.7c0.2-2.5,0.5-3.8,3.6-3.9
		c4-0.1,4.1-0.4,4.1-4.6c0.1-9.3,0-18.5,0-27.8c0-1.4,0-2.9,0-4.3c-0.1-2,0.4-3.2,2.7-3.2c6.7,0.1,13.4,0,19.9,0c2,0,3.1,0.7,3,2.9
		C403.1,303.6,403.2,309.2,403.2,314.8L403.2,314.8z"/>
	<path class="st1" d="M125.4,257.7c2.1,0,4.3-0.1,6.4,0c3,0.1,7.1-0.7,8.9,0.9c2.6,2.4,4,6.4,4.9,10c1.4,5.2,2,10.7,2.9,16
		c0.3,2-0.4,3.1-2.7,3.1c-6.2,0-12.4-0.1-18.5,0c-2.3,0.1-3.7-1-4.6-2.8c-1.9-3.9-5.1-4.5-8.9-4.1c-0.9,0.1-2,0.3-2.8-0.1
		c-0.9-0.4-2.2-1.3-2.2-2c-0.2-6.4-0.1-12.8,0-19.2c0-0.7,1.5-1.8,2.3-1.9C115.9,257.6,120.7,257.7,125.4,257.7L125.4,257.7z"/>
	<path class="st1" d="M417.5,260.2c0-3.1,0-6.2,0-9.3c0-1.9,0.4-3.3,2.7-3.2c4.8,0,9.5,0,14.2,0c1.7,0,2.6,0.8,2.6,2.6
		c0,6.9,0,13.8,0,20.6c0,2.3-1,3.6-3.4,3.6c-4.3,0-8.6,0-12.9,0c-2.4,0-3.3-1.5-3.3-3.7C417.5,267.4,417.5,263.8,417.5,260.2
		L417.5,260.2z"/>
	<path class="st1" d="M437,308.4c0,3.1-0.1,6.2,0,9.3c0.1,2.5-1.1,3.3-3.4,3.4c-4.3,0.1-8.5,0.6-12.8,0.6c-2,0-3.6-1.1-3.6-3.6
		c0.1-6.4,0.1-12.9,0.2-19.2c0-2.2,0.9-3.6,3.3-3.6c4.5,0,9.1,0,13.6,0c1.7,0,2.6,0.7,2.6,2.6C436.9,301.2,436.9,304.8,437,308.4
		C436.9,308.4,437,308.4,437,308.4z"/>
	<path class="st1" d="M366,261c0,3.3-0.1,6.7,0,10c0.1,2.8-1.1,3.8-3.9,3.6c-4.7-0.3-9.5-0.3-14.1-0.5c-0.3-4.7-0.7-9.4-0.9-13.9
		c-0.1-3.1,0-6.2,0-9.3c0-2,0.5-3.2,2.7-3.2c4.5,0,9.1,0,13.6,0c1.8,0,2.6,0.9,2.6,2.6C366,254,366,257.6,366,261L366,261z"/>
	<path class="st1" d="M305.9,315c0-0.5,0-1,0-1.4c0.3-3.7,0.5-7.5,0.8-11.2c3.8-0.2,7.6-0.4,11.3-0.5c7.3-0.1,6.5-0.4,6.6,6.5
		c0,5.5,0,11,0,16.4c0,2-0.6,3.2-2.8,3.1c-1,0-1.9,0.1-2.9,0c-4.2-0.3-8.4-0.6-12.6-0.9c-0.2-4-0.4-8-0.6-12.1
		C305.8,315.1,305.8,315,305.9,315z"/>
	<path class="st1" d="M42.5,288.5c-2.8,0-5.6,0.1-8.4-0.1c-0.4,0-1.2-0.8-1.2-1.2c0-0.6,0.5-1.6,0.8-1.6c3.7-0.1,7.4-0.1,11.2,0
		c0.3,0,0.9,1.1,0.9,1.7c-0.1,0.6-0.7,1.3-1.2,1.6c-0.6,0.3-1.4,0.2-2.1,0.2C42.5,288.9,42.5,288.7,42.5,288.5z"/>
	<path class="st1" d="M39.3,283.6c-1.7,0-3.3,0.1-5-0.1c-0.4,0-0.8-0.8-1.2-1.3c0.5-0.4,0.9-1.2,1.4-1.2c3.3-0.1,6.6-0.1,10,0
		c0.4,0,0.8,0.9,1.2,1.4c-0.5,0.4-0.9,1.1-1.4,1.1C42.6,283.7,40.9,283.6,39.3,283.6L39.3,283.6z"/>
	<path class="st1" d="M40.2,290.2c1.7,0.5,3.6,1,5.6,1.5c-1.3,3.3-4.1,1.4-6.1,1.5c-2.1,0.1-6.2,1.2-6.1-1.1
		C33.7,289.1,37.7,291.4,40.2,290.2z"/>
	<path class="st1" d="M39,297.8c-1.9-0.1-3.5-0.2-5.1-0.4c-0.2,0-0.6-0.7-0.6-1c0-0.4,0.5-0.9,0.8-0.9c1.6-0.1,3.3-0.3,4.9-0.2
		c2.2,0.2,4.3,0.7,6.5,1C43.7,299.1,40.9,296.8,39,297.8z"/>
	<path class="st0" d="M106.9,338.1c-1.6,0-1.6,0-0.8,3.2c1,4-1.4,7.1-5.4,7c-3.6-0.1-5.8-2.8-4.5-7c1-3.1-0.2-3.2-2.4-3.1
		c-0.5,0-1,0-1.4,0c-2.1,0-2.1,0.7-1.5,2.6c1,3.5-0.2,6.2-2.6,7.2c-4.1,1.6-7.5-0.7-7.6-5.4c0-1.3,0.7-3.3,0-3.8
		c-0.9-0.7-2.7-0.5-4.1-0.6c-1.7-0.1-1.8,0.6-1.2,2c0.4,0.8,0.4,1.9,0.4,2.8c0,3.7-1.4,5.1-5.2,5.2c-3.8,0.2-5.4-1.1-5.7-4.7
		c-0.1-0.9,0.3-1.8,0.5-2.7c0.6-2.6-1.1-2.6-2.9-2.6c-1.7,0-2.8,0.5-2.3,2.5c0.2,0.7,0.6,1.4,0.6,2.1c-0.1,3.5-1.4,5.2-4.3,5.5
		c-4.3,0.5-5.9-0.4-6.7-4.3c-0.4-2.3-0.5-2.6-2.2-0.7c-1.2,1.4-2.9,2.4-4.5,3.5c-3.1,2-6.4,2.1-9.4,0c-3.2-2.3-6.9-4.4-6.8-9.3
		c0.1-4.1-0.1-8.1,4.1-10.7c4.6-2.8,9.1-4,13.8-0.2c0.5,0.4,1.2,0.7,1.8,1.1c2.1,1.4,2.1,1.4,3.5-0.8c1.8-2.7,4.2-3.8,6.6-3
		c3,1.1,4.5,3.1,3.8,6.6c-0.5,2.7-0.1,3.5,2.5,3.4c1.6-0.1,2.8-0.5,2.1-2.5c-0.2-0.4-0.4-0.9-0.4-1.4c0-3.9,2.7-6.8,6-6.5
		c3.3,0.3,5.6,3.6,5.1,7.3c-0.1,0.7-0.6,1.3-0.9,1.9c-0.5,1.1-0.3,1.7,1.1,1.5c1.1-0.1,2.5,0.4,3.5,0c0.8-0.3,1.3-1.5,1.7-2.4
		c0.1-0.3-0.4-0.8-0.5-1.3c-0.5-2.9,0.5-5.3,3.1-6.5c1.2-0.6,3.4-0.2,4.6,0.5c2.4,1.4,3.6,3.6,2.9,6.7c-0.6,2.9,0.1,3.7,2.7,3.5
		c1.6-0.2,3.7-0.3,2.2-3c-0.4-0.8-0.6-1.9-0.5-2.8c0.3-2.9,3.4-5.7,5.8-5.3c2.9,0.5,5.8,4.7,5,7.3c-1.1,3.7-1.1,3.7,2.4,3.8
		c0.7,0,1.4,0,2.1,0c1.8-0.1,1.8-0.9,1.1-2.3c-0.6-1.2-1.7-2.9-1.3-3.7c0.9-1.8,2.4-3.6,4.2-4.7c2.2-1.4,4.2,0,5.3,2.1
		c0.7,1.4,1,3,1.2,4.6c0.1,1-0.2,2.1-0.4,3.1c1.4,0.1,2.8,0.4,4.1,0.3c1.4-0.1,2-0.7,1.2-2.4c-1.1-2.1-0.8-4.1,1-5.9
		c2-2,4.6-2.8,6.4-1.8c2,1.1,3.4,4.4,2.8,6.7c-0.2,0.9-0.8,1.7-1.1,2.6c-0.1,0.3,0,0.8,0,1.1c0.4-0.1,1-0.1,1.2-0.4
		c1-1.6,1.7-3.4,2.8-5c3-4.3,8.9-6.2,13.1-4.3c6,2.8,9.1,8.1,7.4,13.8c-1.4,4.6-4.5,7.9-9.3,9c-4.3,1-7.8-0.8-10.4-4.4
		c-1-1.3-1.9-2.7-2.9-4c-0.2-0.3-0.6-0.5-0.9-0.7c-0.1,0.4-0.4,0.9-0.4,1.3c0.1,0.7,0.6,1.4,0.5,2.1c-0.4,2-0.5,4.7-1.8,5.6
		c-1.4,1-4.3,0.9-6,0.1c-2.1-1-3.2-3.4-2.5-6.1c0.3-1,0.2-2,0.2-3c-1.9,0.1-3.7,0.1-5.6,0.3c-0.1,0-0.3,0.8-0.2,1.2
		c0.1,0.4,0.5,0.8,0.6,1.3c1.1,2.9-0.3,5.1-2.5,6.8c-1.7,1.3-3.8,1-5.3-0.3c-2.1-1.7-3.5-3.9-2-6.8c1-1.8,1-3-1.6-2.7
		C109.4,338.1,108.9,338.1,106.9,338.1z M38.8,331.9c-3.4,0-4.7,1-4.7,3.8c0,2.5,1.9,4.6,4.3,4.7c2.2,0.1,4.5-2,4.7-4.3
		C43.3,333.3,42,332,38.8,331.9z M149.2,331.9c-2.9,0-4.9,1.6-4.9,4c0,2.1,2.4,4.5,4.6,4.7c2.4,0.2,4.1-1.8,4.1-4.7
		C153.1,333.1,151.9,331.9,149.2,331.9z M100.6,326.3c-0.8,1.6-1.8,2.7-1.6,3.5c0.2,0.9,1.6,1.4,2.5,2.1c0.5-0.9,1.6-1.8,1.5-2.7
		C102.9,328.3,101.7,327.6,100.6,326.3z M85.5,327c-0.8,0.9-1.9,1.7-1.8,2c0.4,0.9,1.3,2.2,1.9,2.2c0.8-0.1,1.6-1.2,2.4-2
		C87.3,328.6,86.6,328,85.5,327z M116.2,326.9c-0.8,1.3-1.7,2.1-1.8,3c-0.1,0.6,1,1.3,1.6,1.9c0.8-0.9,1.7-1.8,2.4-2.8
		C118.5,328.8,117.2,327.9,116.2,326.9z M86,345.3c0.9-1.1,1.5-1.7,2-2.4c-0.9-0.6-1.7-1.6-2.6-1.7c-0.5-0.1-1.3,1.1-1.9,1.7
		C84.3,343.6,85,344.3,86,345.3z M132.1,346.6c0.9-1.9,1.6-2.8,1.6-3.6c-0.1-0.7-1-1.7-1.7-1.9c-0.5-0.1-1.6,0.9-1.8,1.5
		C130.2,343.3,130.9,344.1,132.1,346.6z M119.3,342.4c-1.8-0.7-2.7-1.3-3.7-1.2c-0.5,0-1.3,1.4-1.2,2c0.1,0.6,1.3,1.6,1.7,1.5
		C117.1,344.4,117.9,343.5,119.3,342.4z M103.6,342.9c-0.9-0.9-1.7-2-2.1-1.8c-1,0.3-1.7,1.1-2.6,1.8c0.8,0.6,1.6,1.5,2.6,1.8
		C101.9,344.7,102.7,343.7,103.6,342.9z M132,326.9c-0.9,1.2-1.7,2-1.8,2.8c-0.1,0.6,1,1.2,1.6,1.9c0.7-0.8,1.6-1.4,2-2.3
		C134,328.9,132.9,328,132,326.9z M73.1,329.1c-1.1-0.6-1.8-1.4-2.5-1.4c-0.7,0.1-1.2,1-1.9,1.6c0.7,0.7,1.5,1.5,2.2,2.2
		C71.6,330.8,72.2,330.2,73.1,329.1z M57.7,329.4c-1-0.7-1.6-1.6-2.2-1.6c-0.7,0-1.4,0.8-2.2,1.2c0.6,0.9,1.3,1.7,1.9,2.6
		C56,331,56.6,330.4,57.7,329.4z M57.6,342.5c-1.3-0.6-2-1.3-2.8-1.3c-0.5,0-1.4,1.2-1.3,1.4c0.4,0.7,1.1,1.7,1.7,1.8
		C55.9,344.5,56.6,343.5,57.6,342.5z M73.4,343.6c-0.3-0.5-0.6-1-0.9-1.4c-0.8-0.3-1.5-0.9-2.3-0.8c-0.5,0-1.4,1.3-1.3,1.4
		c0.5,0.7,1.2,1.6,1.9,1.7C71.6,344.6,72.5,343.9,73.4,343.6z M51.5,335.2c0.2-0.7,0.5-1.1,0.4-1.3c-0.2-0.4-0.6-0.6-1-0.9
		c-0.2,0.3-0.7,0.7-0.6,0.9C50.5,334.3,51,334.6,51.5,335.2z"/>
	<path class="st1" d="M38.8,331.9c3.2,0,4.5,1.3,4.3,4.2c-0.2,2.3-2.5,4.4-4.7,4.3c-2.4-0.1-4.3-2.3-4.3-4.7
		C34.2,332.9,35.4,331.9,38.8,331.9z"/>
	<path class="st1" d="M149.2,331.9c2.7,0,3.9,1.2,3.8,4c0,2.9-1.8,4.9-4.1,4.7c-2.2-0.2-4.6-2.6-4.6-4.7
		C144.3,333.4,146.3,331.8,149.2,331.9z"/>
	<path class="st1" d="M100.6,326.3c1.1,1.3,2.3,2,2.4,2.9c0.1,0.8-1,1.8-1.5,2.7c-0.9-0.7-2.2-1.2-2.5-2.1
		C98.8,329,99.8,327.9,100.6,326.3z"/>
	<path class="st1" d="M85.5,327c1.1,0.9,1.8,1.6,2.6,2.3c-0.8,0.7-1.6,1.9-2.4,2c-0.6,0-1.5-1.3-1.9-2.2
		C83.6,328.8,84.7,327.9,85.5,327z"/>
	<path class="st1" d="M116.2,326.9c1.1,1,2.3,1.9,2.2,2c-0.7,1-1.6,1.9-2.4,2.8c-0.6-0.6-1.7-1.3-1.6-1.9
		C114.5,329,115.4,328.1,116.2,326.9z"/>
	<path class="st1" d="M86,345.3c-1-1-1.8-1.7-2.5-2.4c0.7-0.6,1.4-1.8,1.9-1.7c0.9,0.2,1.8,1.1,2.6,1.7
		C87.5,343.5,86.9,344.2,86,345.3z"/>
	<path class="st1" d="M132.1,346.6c-1.2-2.5-2-3.4-1.9-4c0.2-0.7,1.3-1.7,1.8-1.5c0.7,0.2,1.6,1.2,1.7,1.9
		C133.7,343.8,133,344.7,132.1,346.6z"/>
	<path class="st1" d="M119.3,342.4c-1.5,1.2-2.2,2.1-3.1,2.3c-0.5,0.1-1.6-0.9-1.7-1.5c-0.1-0.6,0.7-2,1.2-2
		C116.6,341.2,117.6,341.8,119.3,342.4z"/>
	<path class="st1" d="M103.6,342.9c-1,0.8-1.8,1.9-2.2,1.7c-0.9-0.3-1.7-1.2-2.6-1.8c0.9-0.6,1.6-1.5,2.6-1.8
		C102,341,102.7,342.1,103.6,342.9z"/>
	<path class="st1" d="M132,326.9c0.9,1.1,1.9,2,1.8,2.4c-0.4,0.9-1.3,1.6-2,2.3c-0.6-0.6-1.7-1.3-1.6-1.9
		C130.4,328.9,131.2,328.1,132,326.9z"/>
	<path class="st1" d="M73.1,329.1c-1,1.1-1.6,1.8-2.2,2.4c-0.7-0.7-1.5-1.5-2.2-2.2c0.6-0.6,1.2-1.5,1.9-1.6
		C71.3,327.7,72,328.5,73.1,329.1z"/>
	<path class="st1" d="M57.7,329.4c-1.1,1-1.8,1.6-2.5,2.2c-0.6-0.9-1.3-1.7-1.9-2.6c0.7-0.4,1.4-1.2,2.2-1.2
		C56.1,327.8,56.8,328.7,57.7,329.4z"/>
	<path class="st1" d="M57.6,342.5c-1.1,0.9-1.8,2-2.3,1.9c-0.7-0.1-1.4-1-1.7-1.8c-0.1-0.2,0.9-1.4,1.3-1.4
		C55.6,341.4,56.4,342,57.6,342.5z"/>
	<path class="st1" d="M73.4,343.6c-0.9,0.3-1.8,1-2.6,0.9c-0.7-0.1-1.4-1-1.9-1.7c-0.1-0.1,0.8-1.4,1.3-1.4c0.7,0,1.5,0.5,2.3,0.8
		C72.8,342.7,73.1,343.1,73.4,343.6z"/>
	<path class="st1" d="M51.5,335.2c-0.5-0.5-1-0.9-1.2-1.4c-0.1-0.2,0.4-0.6,0.6-0.9c0.3,0.3,0.8,0.5,1,0.9
		C52,334,51.7,334.5,51.5,335.2z"/>
</g>
</svg>
