<?xml version="1.0" encoding="utf-8"?>
<!-- Generator: Adobe Illustrator 19.2.1, SVG Export Plug-In . SVG Version: 6.00 Build 0)  -->
<svg version="1.1" id="Layer_1" xmlns="http://www.w3.org/2000/svg" xmlns:xlink="http://www.w3.org/1999/xlink" x="0px" y="0px"
	 viewBox="0 0 512 512" style="enable-background:new 0 0 512 512;" xml:space="preserve">
<style type="text/css">
	.st0{fill:#FF7F00;}
	.st1{fill:#FFFFFF;}
</style>
<g>
	<path class="st0" d="M248.7,269.7c2.4-3.7,4.8-7.6,7.4-11.2c3.2-4.4,6.7-8.5,10-12.8c0.5-0.7,1.1-1.8,0.9-2.5
		c-0.6-1.7,0.2-2.1,1.6-2.1c0.9,0,1.9,0.4,2.8,0.4c1,0,2.1-0.2,3.1-0.3c-0.4-1.1-0.4-2.4-1.1-3.1c-1.9-2-1.4-5.5-4.6-6.8
		c-0.7-0.3-0.8-2.6-1-3.9c-0.4-4-0.6-8.1-1-12.1c-0.3-3.2-0.1-3.5,3.2-4.1c4.4-0.7,4.5-0.7,4.5-5.1c0-12.7,0-25.3,0-38
		c0-1,0-1.9-0.1-2.9c0-0.4-0.3-1.2-0.5-1.2c-0.6,0-1.5,0-1.9,0.4c-6.6,6.5-13,13.2-19.6,19.7c-10.1,10.1-20.3,20-30.3,30.1
		c-8.2,8.3-16.2,16.7-24.3,25c-5.9,5.9-11.9,11.7-17.9,17.5c-1.5,1.5-2.8,3.2-4.3,4.7c-4.7,4.8-9,10-14.3,14
		c-5.5,4.1-6,8.7-4.9,14.8c0.7,4.1,0,8.5-0.2,12.8c-0.1,2.7-1.5,3.6-4.2,3.6c-10.3-0.1-20.5-0.1-30.8,0c-4.1,0-4.3,0.5-4.3,4.5
		c0,2.6,1.4,3.7,3.4,3.6c3.8-0.3,7.5-1.1,10.2,2.9c0.4,0.6,2.2,0.4,3.4,0.4c4.5,0.1,9.1,0.4,13.6,0c7.6-0.7,15.8,5,18.6,13.6
		c1.4,4.5,1.4,8.4-1,12.3c-1.1,1.8-2.2,3.7-3.5,5.4c-1.1,1.4-1,1.9,0.7,2c1.4,0.1,2.9,0.1,4.3,0.1c35.8,0,71.6,0,107.5,0
		c7,0,6.7,0.8,6.7-6.4c0-1.9-0.2-3.8,0.1-5.7c0.1-1,1-2.8,1.6-2.8c4.5-0.3,3.7-3.4,3.7-6.2c0-8.4,0-16.7,0-25.1c0-7.4-0.9-6.7,7-6.8
		c11-0.1,22,0,33,0c1.7,0,3.4,0.2,5-0.1c0.9-0.2,1.5-1.3,2.2-2.1c0.1-0.1,0.1-0.5,0.1-0.7c0-13.4,0.1-26.7,0.1-40.1
		c0-2.1-0.8-2.5-2.5-1.3c-1.2,0.8-2.3,1.9-3.6,2.3c-0.8,0.3-2.3-0.2-2.8-0.9c-1.8-2.5-3.4-5.1-5.1-7.8c-1.2-2-0.7-3.7,1.3-4.8
		c6.3-3.8,12.6-7.5,18.9-11.4c7.6-4.8,15.1-9.7,22.8-14.5c8.3-5.1,16.6-10.1,24.9-15.2c1.8-1.1,3-0.6,4.5,0.3
		c6.1,3.6,12.3,7.1,18.5,10.6c8.2,4.7,16.5,9.3,24.7,14.1c8.2,4.7,16.2,9.7,24.4,14.4c1.9,1.1,2,2.3,0.9,4c-0.8,1.4-1.3,3.1-2.2,4.5
		c-1,1.6-1.9,3.6-3.4,4.5c-0.9,0.5-2.9-0.7-4.4-1.2c-1.6-0.5-2.1,0.3-2.2,1.7c0,0.7,0,1.4,0,2.1c0,19.3,0,38.7,0,58
		c0,0.7,0,1.4,0,2.1c0,1.6,0.5,2.8,2.4,2.7c2-0.1,2.1-1.5,2.1-3c0.3-10.5,0.6-21,0.8-31.4c0.2-7.6-1.4-8,8.1-6.4
		c10.5,1.8,20.9,4.4,31.4,6.5c2.3,0.5,2.7,1.6,2.2,3.5c-0.3,1.4-0.8,2.7-1.2,4.1c-0.6,2-0.7,4.9-2,5.9c-1.2,0.9-3.9-0.2-5.9-0.8
		c-1.7-0.5-2.3,0.1-2.3,1.5c-0.1,3.1,0,6.2,0,9.3c0,7.2,0,14.3,0,21.5c0,1.4-0.5,3.5,0.2,4.2c4.4,3.8,2.6,8.8,2.8,13.3
		c0.1,2.7,0.9,3.8,3.7,3.7c5.5-0.2,11,0,16.5,0c0,22.5,0-12.4,0,10c-1.7-0.1-3.3-0.2-5-0.2c-142.9,0-285.8,0-428.8,0
		c-22.7,0-45.4,0.1-68,0.2c0-22.5,0,12.4,0-10c6.4,0,12.9,0,19.3,0c0.5,0,0.9-0.2,1.4-0.3c-0.3-0.5-0.4-1.2-0.8-1.5
		c-6.3-6.2-6.3-13.6-3.4-20.9c2.7-6.8,8.6-10,15.8-10.3c4.3-0.2,8.6,0,12.9-0.1c3.1-0.1,6.6,1.3,8.8-2.6c0.5-0.9,3.1-0.6,4.7-0.7
		c4-0.3,4-0.3,4.1-3.9c0.1-3.8-0.2-4.2-3.9-4.2c-11.9-0.1-23.9,0-35.8,0c-1.7,0-3.3,0-5,0c-2.3,0-3.6-1-3.7-3.4
		c-0.4-8.6,0.7-17.1,2.5-25.5c0.1-0.7,0.3-1.5,0.7-2c8.5-10.2,14.3-22.2,21-33.5c5.9-10,12.1-19.9,18.1-29.9
		c2.9-4.8,6.5-9.1,6.8-15.2c0.2-3.7,2.2-5,5.8-5.2c11.2-0.5,21.8-4.1,32.8-5.9c4.7-0.8,9.2-2.1,13.8-3.2
		c15.2-3.7,30.7-6.2,45.8-10.2c10.7-2.9,21.9-4.2,32.8-6.3c0.9-0.2,1.9-0.2,2.8-0.6c12.4-4.4,25.6-5.2,38.2-8.9
		c8.3-2.4,17.3-2.6,25.5-6.1c0.7-0.3,2,0,2.6,0.5c2,1.6,4,3.3,5.5,5.3c1,1.4,1.6,3.4,1.7,5.1c0.2,9.8,0.1,19.6,0.1,29.4
		c0,5.7,0,11.5,0,17.2c0,2.6,0.6,4.4,3.6,3.5c3.5-1,3.9,1.2,3.4,3.4c-1.1,5.8,0.3,12.2-3.5,17.5c-0.1,0.2-0.3,0.5-0.2,0.6
		c2.7,4.4,1.7,9,1.3,13.7c-0.1,1.1,1.2,2.6,2.2,3.6c7,7,13.6,14.3,21.2,20.6c3.1,2.5,5,4.5,4.9,8.4c0,1,0.6,2.5,1.4,3.1
		c2.8,2,1,3.5,0,5.4c-1.1,2.2-2.4,2.3-4.5,1.4c-2.1-0.9-4.5-1.4-6.8-1.5c-16.2-0.1-32.5-0.1-48.7,0c-2.3,0-4.6,0.9-6.8,1.5
		c-1.4,0.4-2.9,1.4-3.7-0.4c-0.8-1.8-3.4-3.6-1.1-5.7c2.3-2,3.3-4.3,3.7-7.3c0.5-3.7,4.2-4.7,6.7-6.8c0.2,1.8,0.5,3.6,0.7,5.4
		c1.7-0.5,3.5-1,5.1-1.7c1.3-0.6,2.4-1.5,3.6-2.3c4.2-2.7,8.4-5.4,12.5-8.1c2.4-1.5,4.7-1.9,7.2-0.2c1.5,1.1,3.2,2,4.8,3
		c4.6,2.9,9.1,5.9,13.7,8.9c1.5,1,3,1.5,4.3-0.3c1.3-1.8-0.3-2.6-1.2-3.5c-6-6.1-12.3-11.8-18.2-18.1c-2.9-3.1-5.8-4.9-10.3-5.2
		c-2.5-0.1-3.9,0-5.3,1.9c-4.2,5.7-8.5,11.3-13,16.9C251.9,267.7,250.2,268.6,248.7,269.7z M247.8,177.4c-2.8-0.7-2.9,1.5-3.2,3.2
		c-0.3,1.7-0.5,3.4-0.7,5.2c1.4-1.2,3.2-2.2,4.1-3.8c0.6-1.1,0-3-0.1-4.5c2.3,0.3,4.3,0,4.7-2.7c0.2-1.7,0-3.4-0.1-5.2
		c-1.6,1.2-3.6,2.2-4.8,3.7C247.1,174.2,247.7,176,247.8,177.4z M78.4,240.7c0,8.1,0,16.2,0,24.4c0,2.4,0.9,3.5,3.3,3.4
		c5-0.1,10,0,15.1-0.1c1.7,0,2.6-0.9,2.6-2.6c0-3.8,0-7.6,0-11.5c0.1-4.7,0.1-4.8,4.7-4.8c12.7,0,25.3,0,38,0c1.2,0,3-0.3,3.5,0.3
		c2,2.6,3.3,1.1,5-0.3c9.5-8.1,19-16.2,28.5-24.4c9.2-7.9,18.3-15.8,27.4-23.6c9.2-7.9,18.3-15.8,27.6-23.5
		c7.1-6,14.4-11.7,21.5-17.6c0.7-0.6,1.1-1.4,1.6-2.1c-0.9-0.1-1.8-0.5-2.7-0.3c-16,3.4-31.9,7.2-48,10.1c-16.1,3-32.1,6.7-48,10.3
		c-12.2,2.8-24.7,4.7-36.8,8.2c-2,0.6-4.1,1-6.2,1.4c-10.3,2-20.5,3.9-30.8,5.9c-0.8,0.2-2,1.8-1.8,2.3c2.1,5.5-3,9.9-1.9,15.2
		c-3.8,3.1-2.3,7.4-2.4,11.3C78.3,228.7,78.4,234.7,78.4,240.7z M92.5,351.3c16,0,32,0,48,0c4.4,0,8.8,0.6,13.1-1.3
		c6.4-2.9,9.3-8.1,9.2-14.7c-0.1-6-5.8-12.3-12-12.8c-6.8-0.6-13.7-0.5-20.6-0.5c-26.1-0.2-52.3-0.3-78.4-0.4
		c-5.2,0-10.4,0.1-15.5,0.8c-7,1-12,6.7-12.5,13.5c-0.4,6.1,4,12.5,10.3,14.5c2.2,0.7,4.7,0.9,7,0.9
		C58.1,351.3,75.3,351.3,92.5,351.3z M72.4,240.9C72.4,240.9,72.4,240.9,72.4,240.9c0-8.1,0.2-16.2-0.1-24.4
		c-0.1-2.7-1.4-5.4-2.1-8.2c-1.7,1.9-3.4,3.8-5.1,5.8c-0.3,0.4-0.5,0.8-0.7,1.2c-6.3,10.6-12.7,21.1-19,31.7
		c-5,8.3-10,16.7-14.9,25.1c-1.3,2.2-0.9,2.9,1.8,2.9c11.2,0,22.5,0,33.7,0c4.4,0,4.5,0,5.5-4.9c0.5-2.5,0.9-5.1,0.9-7.7
		C72.5,255.2,72.4,248.1,72.4,240.9z M403.9,315.3C403.9,315.3,403.9,315.3,403.9,315.3c0-5.7-0.1-11.3,0-17c0-2.2-1-2.9-3-2.9
		c-6.7,0.1-13.4,0.1-20,0c-2.3,0-2.8,1.2-2.7,3.2c0.1,1.4,0,2.9,0,4.3c0,9.3,0,18.6,0,27.9c0,4.2-0.1,4.5-4.1,4.6
		c-3,0.1-3.4,1.4-3.6,3.9c-0.3,4.2-0.5,4.2-4.5,4.7c-4.1,0.5-4.4,0.8-4.1,4.7c0.1,0.8,0.7,1.6,1.1,2.4c0.7-0.4,1.8-0.7,2-1.3
		c0.7-2,2.1-2.3,3.9-2.5c4.3-0.5,4.3-0.6,4.7-4.8c0.3-3.6,0.3-3.7,4.3-3.8c8.8-0.1,17.7-0.1,26.5,0c4.4,0,4.6,0.1,4.9,4.8
		c0.2,2.7,0.9,4,3.7,3.8c1.6-0.1,3.3-0.3,4,1.9c0.3,0.8,1.5,1.3,2.3,1.9c0.4-1,1.2-1.9,1.3-3c0.3-3.6,0.1-3.7-3.9-4.2
		c-4.1-0.5-4.1-0.5-4.5-4.3c-0.4-3.7-0.4-3.9-4.6-4.1c-2.7-0.1-3.8-1-3.7-3.8C404,326.3,403.9,320.8,403.9,315.3z M125.1,257.9
		C125.1,257.9,125.1,257.9,125.1,257.9c-4.8,0-9.5-0.1-14.3,0.1c-0.8,0-2.3,1.2-2.3,1.9c-0.2,6.4-0.2,12.8,0,19.3
		c0,0.7,1.3,1.6,2.2,2c0.8,0.3,1.9,0.2,2.8,0.1c3.8-0.4,7,0.3,8.9,4.1c0.8,1.7,2.3,2.8,4.6,2.8c6.2-0.1,12.4-0.1,18.6,0
		c2.2,0,3-1.1,2.7-3.1c-0.9-5.4-1.5-10.8-2.9-16.1c-1-3.6-2.4-7.6-4.9-10c-1.7-1.6-5.8-0.8-8.9-0.9
		C129.4,257.8,127.3,257.9,125.1,257.9z M418.3,260.5C418.3,260.5,418.3,260.5,418.3,260.5c0,3.6,0,7.2,0,10.7
		c0,2.2,0.8,3.7,3.3,3.7c4.3,0,8.6,0,12.9,0c2.4,0,3.4-1.3,3.4-3.6c0-6.9,0-13.8,0-20.7c0-1.8-0.8-2.6-2.6-2.6c-4.8,0-9.5,0-14.3,0
		c-2.3,0-2.7,1.3-2.7,3.2C418.4,254.3,418.3,257.4,418.3,260.5z M437.9,308.8C437.9,308.8,437.8,308.8,437.9,308.8
		c0-3.6-0.1-7.2,0-10.7c0-1.8-0.9-2.6-2.6-2.6c-4.5,0-9.1,0-13.6,0c-2.5,0-3.3,1.4-3.3,3.6c-0.1,6.4-0.1,12.9-0.2,19.3
		c0,2.4,1.6,3.6,3.6,3.6c4.3,0,8.5-0.5,12.8-0.6c2.3-0.1,3.5-0.8,3.4-3.4C437.8,315,437.9,311.9,437.9,308.8z M366.6,261.3
		C366.6,261.3,366.6,261.3,366.6,261.3c0-3.6,0-7.2,0-10.7c0-1.7-0.8-2.6-2.6-2.6c-4.5,0-9.1,0-13.6,0c-2.2,0-2.8,1.2-2.7,3.2
		c0.1,3.1-0.1,6.2,0,9.3c0.2,4.7,0.6,9.4,0.9,14c4.7,0.2,9.5,0.2,14.2,0.5c2.7,0.2,4-0.8,3.9-3.6C366.6,268,366.6,264.7,366.6,261.3
		z M306.3,315.5c-0.1,0-0.1,0-0.2,0c0.2,4,0.4,8,0.6,12.1c4.2,0.3,8.4,0.6,12.6,0.9c1,0.1,1.9-0.1,2.9,0c2.2,0.1,2.8-1.1,2.8-3.1
		c-0.1-5.5,0-11,0-16.5c0-6.9,0.7-6.6-6.6-6.5c-3.8,0-7.6,0.3-11.3,0.5c-0.3,3.7-0.5,7.5-0.8,11.2
		C306.3,314.6,306.3,315.1,306.3,315.5z M280.5,222.6c-0.1-9.6-0.6-10.1-9-8.8c-1.8,0.3-2.4,1.1-2.2,2.8c0.4,3.5,0.9,7.1,0.9,10.6
		c0.1,2.4,0.8,3.2,3.3,3.4c7.1,0.5,7,0.6,7.1-6.7C280.5,223.5,280.5,223.1,280.5,222.6z M177,239.3c0-1.8,0.1-3-0.1-4.2
		c0-0.3-1.2-0.8-1.4-0.6c-3.2,2.7-6.4,5.6-9.6,8.4c2,2.5,4,5,6.1,7.5c0.6,0.7,1.2,1.5,1.9,2.1c0.3,0.3,0.8,0.5,1.2,0.7
		c0.2-0.4,0.5-0.8,0.6-1.2C176.1,247.6,176.6,243.1,177,239.3z M161,246.2c-3.3,3.1-6.4,5.9-9.4,8.7c1.3,1.9,2.4,3.9,3.8,5.7
		c1.4,1.9,2.8,3.7,4.3,5.6c0.3,0.4,0.9,0.6,1.4,0.9c0.1-0.4,0.4-0.9,0.4-1.3c0.3-5.9,0.6-11.7,0.9-17.6
		C162.3,247.7,161.7,247.2,161,246.2z M189.9,231.7c0.1-1.5,0.1-1.7,0.1-2c-0.1-2.3-0.2-4.6-0.4-6.9c-1.9,1.3-3.9,2.5-5.7,3.9
		c-1.1,0.8-2,2-2.9,3.1c-0.4,0.5-0.9,1.6-0.8,1.8c2.6,2.6,5.4,5,8.1,7.5c2.6-1.9,1.1-4.8,1.6-7.2C190,231.4,189.9,230.9,189.9,231.7
		z M173.7,256.1c-0.3-0.5-0.5-1.2-0.9-1.7c-2.1-2.2-4.3-4.3-6.4-6.4c-0.3-0.3-0.8-0.4-1.3-0.6c-0.2,0.6-0.7,1.2-0.7,1.8
		c-0.3,4.9-0.6,9.9-0.9,14.9c0,0.4,0.2,1,0.5,1c0.4,0.1,1,0,1.3-0.3c2.7-2.6,5.4-5.3,8.1-8C173.5,256.6,173.6,256.4,173.7,256.1z
		 M217.6,198.4c-1.6,1.4-3.3,2.7-4.7,4.3c-1.6,1.7-5.6,2-4.5,5.2c0.8,2.2,3.5,3.7,5.4,5.4c0.3,0.2,1.6-0.1,1.7-0.3
		c1-4.5,2-9.1,2.9-13.7C218.5,199.1,218,198.8,217.6,198.4z M178.5,243.3c0,0-0.1,0-0.1,0c0,1.9,0,3.8,0,5.7c0,1.1,0.5,2,1.6,1
		c2.1-1.9,4-4,6.1-6c1.1-1.1,0.9-2-0.3-2.9c-0.7-0.6-1.2-1.4-1.9-2c-1.4-1.2-3-3.5-4.1-3.3c-2.2,0.4-1,3-1.3,4.7
		C178.4,241.4,178.5,242.3,178.5,243.3z M203.2,219c-0.1,0-0.2,0-0.3,0c0-2.6,0-5.2,0-7.8c-2.2,1.6-4.6,3.1-6.7,4.9
		c-2,1.7-1.6,3.5,0.5,5.1c2,1.4,3.8,3.1,5.6,4.7C202.7,223.6,202.9,221.3,203.2,219z M192.1,236.9c-0.2-1-0.1-0.3,0.1,0.4
		c0.6-0.3,1.2-0.6,1.8-1c0.6-0.4,1-1,1.5-1.5c5.8-5.9,5.8-5.9,0.1-11.2c-0.5-0.4-1.1-0.6-1.7-0.9c-0.2,0.6-0.5,1.3-0.6,1.9
		C192.8,228.2,192.5,231.7,192.1,236.9z M231.5,190.2c-0.1-0.4-0.2-1.1-0.3-1.7c-0.8,0.2-1.8,0.2-2.4,0.7c-2.1,1.4-4.2,3-6.2,4.6
		c-0.4,0.3-0.8,1.6-0.6,1.8c1.9,1.7,4,3.3,6,4.9c0.7-1.7,1.5-3.4,2.1-5.1C230.6,193.7,231,192.1,231.5,190.2z M212.7,217.5
		c0.2-1.1,0.3-1.5,0.2-1.6c-2-1.9-4-3.9-6-5.8c-0.4,0.4-1,0.8-1.1,1.2c-0.3,3.7-0.5,7.4-0.7,11.2c0,0.2,0.7,0.8,0.7,0.7
		C208.3,221.3,210.8,219.2,212.7,217.5z M151.5,263.2c0.8,3,1.6,6.2,2.5,9.3c0.8,2.6,1.1,2.7,2.8,0.8c0.9-1.1,2.4-3.1,2-3.7
		c-1.5-2.6-3.7-4.8-5.6-7c-0.4-0.4-1-0.6-1.5-0.9C151.7,262.1,151.7,262.6,151.5,263.2z M242.6,179.2c-0.2-0.3-0.4-0.9-0.7-0.9
		c-0.4-0.1-1,0.1-1.3,0.4c-1.7,1.6-3.5,3.1-5.1,4.8c-0.3,0.3-0.3,1.3,0,1.6c1.3,1.4,2.7,2.6,4,3.9c0.7-1.6,1.6-3.2,2.1-4.9
		C242.1,182.6,242.3,180.9,242.6,179.2z M41.9,288.9c0,0.2,0,0.3,0,0.5c0.7-0.1,1.5,0.1,2.1-0.2c0.5-0.3,1.1-1,1.2-1.6
		c0.1-0.5-0.5-1.6-0.9-1.7c-3.7-0.1-7.4-0.1-11.2,0c-0.3,0-0.9,1.1-0.8,1.6c0,0.5,0.8,1.2,1.2,1.2C36.3,289,39.1,288.9,41.9,288.9z
		 M219.6,210.2c0.2-0.1,0.5-0.2,0.6-0.4c1.6-1.7,3.4-3.3,4.8-5.1c0.4-0.5,0.6-2,0.2-2.4c-1.1-1.1-2.5-1.9-3.8-2.8
		c-0.1-0.1-0.9,0.5-0.9,0.8c-0.6,3-1.1,6-1.6,8.9C219,209.6,219.4,209.9,219.6,210.2z M38.7,283.9C38.7,283.9,38.7,283.9,38.7,283.9
		c1.7,0,3.3,0.1,5,0c0.5,0,1-0.7,1.4-1.1c-0.4-0.5-0.8-1.3-1.2-1.4c-3.3-0.1-6.6-0.1-10,0c-0.5,0-0.9,0.8-1.4,1.2
		c0.4,0.5,0.8,1.2,1.2,1.3C35.3,284,37,283.9,38.7,283.9z M39.6,290.6c-2.5,1.2-6.5-1.1-6.7,1.9c-0.1,2.2,4,1.2,6.1,1.1
		c2-0.1,4.8,1.8,6.1-1.5C43.2,291.6,41.3,291.1,39.6,290.6z M38.4,298.2c1.9-1,4.7,1.3,6.5-1.5c-2.2-0.3-4.3-0.8-6.5-1
		c-1.6-0.1-3.3,0-4.9,0.2c-0.3,0-0.7,0.6-0.8,0.9c0,0.3,0.3,1,0.6,1C34.9,298,36.5,298.1,38.4,298.2z M233.3,196.5
		c1.4-1.2,2.8-2.4,4-3.8c0.4-0.5,0.6-1.8,0.2-2.3c-0.6-0.9-1.7-1.6-2.7-1.9c-0.3-0.1-1.3,1.2-1.6,2c-0.5,1.6-0.7,3.2-0.9,4.8
		C232.3,195.6,232.8,195.9,233.3,196.5z M265.3,164.4c1.5-1.3,2.9-2.3,3.9-3.6c0.4-0.5,0.3-1.7-0.1-2.4c-0.4-0.7-1.3-1.2-1.9-1.8
		c-0.6,0.7-1.4,1.2-1.6,2c-0.5,1.3-0.7,2.7-0.9,4.1C264.6,163.2,265,163.7,265.3,164.4z M261.8,160.1c-1.7,2.5-2.8,4.1-3.8,5.8
		c-0.1,0.2,1.2,1.3,2,1.6c0.3,0.1,1.2-0.5,1.4-0.9c0.5-1.3,0.9-2.6,1.2-4C262.8,162.2,262.4,161.6,261.8,160.1z M259,170.4
		c-0.8-0.8-1.1-1.5-1.7-1.8c-1-0.5-2.7,2.5-2.6,4.6c0,0.4,0.4,0.7,0.6,1c0,0,0.4-0.2,0.6-0.3C257,172.8,258,171.6,259,170.4z
		 M245.4,273.7c-0.5,1.4-1.1,2.1-1,2.8c0,0.8,0.6,1.5,1,2.3c0.7-0.8,1.6-1.5,1.9-2.4C247.4,275.9,246.4,275.1,245.4,273.7z
		 M305.3,274.7c-1.1,0.8-2,1.3-2,1.6c0.3,1,0.8,1.9,1.3,2.8c0.5-0.3,1.4-0.7,1.4-1C306,277.2,305.6,276.2,305.3,274.7z"/>
	<path class="st1" d="M92.5,351.3c-17.2,0-34.4,0-51.5,0c-2.3,0-4.8-0.2-7-0.9c-6.3-2-10.7-8.4-10.3-14.5
		c0.5-6.8,5.5-12.5,12.5-13.5c5.1-0.7,10.4-0.8,15.5-0.8c26.1,0,52.3,0.2,78.4,0.4c6.9,0,13.8-0.1,20.6,0.5
		c6.1,0.5,11.9,6.8,12,12.8c0.1,6.6-2.8,11.8-9.2,14.7c-4.3,1.9-8.7,1.3-13.1,1.3C124.4,351.3,108.4,351.3,92.5,351.3z M106.6,338.6
		c2,0,2.5,0,2.9,0c2.6-0.3,2.5,0.9,1.6,2.7c-1.5,2.9-0.1,5.1,2,6.8c1.5,1.2,3.6,1.6,5.3,0.3c2.2-1.6,3.6-3.8,2.5-6.8
		c-0.2-0.4-0.5-0.8-0.6-1.3c-0.1-0.4,0.1-1.2,0.2-1.2c1.9-0.1,3.7-0.2,5.6-0.3c-0.1,1,0,2.1-0.2,3c-0.7,2.7,0.3,5.1,2.5,6.1
		c1.7,0.8,4.6,0.9,6-0.1c1.3-0.9,1.4-3.7,1.8-5.6c0.1-0.6-0.4-1.4-0.5-2.1c0-0.4,0.3-0.8,0.4-1.3c0.3,0.2,0.7,0.4,0.9,0.7
		c1,1.3,2,2.7,2.9,4c2.6,3.6,6.1,5.4,10.4,4.4c4.7-1.1,7.9-4.4,9.3-9c1.7-5.6-1.3-11-7.4-13.8c-4.2-1.9-10.1-0.1-13.1,4.3
		c-1.1,1.5-1.8,3.3-2.8,5c-0.2,0.3-0.8,0.3-1.2,0.4c0-0.4-0.2-0.8,0-1.1c0.3-0.9,0.9-1.7,1.1-2.6c0.6-2.4-0.8-5.6-2.8-6.7
		c-1.8-1-4.4-0.3-6.4,1.8c-1.8,1.8-2,3.8-1,5.9c0.8,1.6,0.2,2.3-1.2,2.4c-1.4,0.1-2.7-0.2-4.1-0.3c0.1-1,0.5-2.1,0.4-3.1
		c-0.2-1.6-0.5-3.2-1.2-4.6c-1.1-2.1-3.1-3.5-5.3-2.1c-1.7,1.1-3.2,2.9-4.2,4.7c-0.4,0.8,0.6,2.5,1.3,3.7c0.7,1.4,0.7,2.2-1.1,2.3
		c-0.7,0-1.4,0-2.1,0c-3.5-0.1-3.5-0.1-2.4-3.8c0.8-2.7-2-6.9-5-7.3c-2.3-0.4-5.5,2.4-5.8,5.3c-0.1,0.9,0.1,2,0.5,2.8
		c1.5,2.7-0.6,2.8-2.2,3c-2.6,0.3-3.3-0.6-2.7-3.5c0.6-3-0.5-5.3-2.9-6.7c-1.3-0.7-3.4-1-4.6-0.5c-2.5,1.2-3.6,3.6-3.1,6.5
		c0.1,0.5,0.6,1,0.5,1.3c-0.4,0.9-1,2.1-1.7,2.4c-1,0.4-2.3-0.1-3.5,0c-1.5,0.2-1.6-0.4-1.1-1.5c0.3-0.7,0.8-1.3,0.9-1.9
		c0.6-3.7-1.8-7-5.1-7.3c-3.2-0.3-5.9,2.6-6,6.5c0,0.5,0.3,0.9,0.4,1.4c0.8,2-0.4,2.5-2.1,2.5c-2.6,0.1-3.1-0.7-2.5-3.4
		c0.7-3.5-0.9-5.6-3.8-6.6c-2.4-0.9-4.8,0.2-6.6,3c-1.4,2.1-1.4,2.1-3.5,0.8c-0.6-0.4-1.3-0.7-1.8-1.1c-4.7-3.8-9.2-2.6-13.8,0.2
		c-4.2,2.5-4,6.6-4.1,10.7c-0.1,4.9,3.6,7,6.8,9.3c3,2.1,6.3,1.9,9.4,0c1.6-1,3.3-2.1,4.5-3.5c1.7-1.9,1.8-1.6,2.2,0.7
		c0.8,3.9,2.4,4.8,6.7,4.3c2.8-0.3,4.2-2,4.3-5.5c0-0.7-0.4-1.4-0.6-2.1c-0.5-2,0.6-2.5,2.3-2.5c1.8,0,3.5,0,2.9,2.6
		c-0.2,0.9-0.6,1.8-0.5,2.7c0.4,3.6,1.9,4.9,5.7,4.7c3.8-0.2,5.2-1.5,5.2-5.2c0-0.9,0-2-0.4-2.8c-0.6-1.4-0.5-2.1,1.2-2
		c1.4,0.1,3.2-0.2,4.1,0.6c0.6,0.5-0.1,2.5,0,3.8c0.1,4.6,3.4,7,7.6,5.4c2.4-0.9,3.6-3.6,2.6-7.2c-0.5-1.9-0.5-2.6,1.5-2.6
		c0.5,0,1,0,1.4,0c2.3-0.1,3.4,0,2.4,3.1c-1.3,4.2,0.8,6.9,4.5,7c4,0.1,6.4-2.9,5.4-7C105,338.6,105,338.6,106.6,338.6z"/>
	<path class="st1" d="M403.9,315.3c0,5.5,0.1,11,0,16.5c-0.1,2.8,1,3.7,3.7,3.8c4.2,0.2,4.2,0.4,4.6,4.1c0.4,3.9,0.4,3.9,4.5,4.3
		c4,0.4,4.2,0.6,3.9,4.2c-0.1,1-0.8,2-1.3,3c-0.8-0.6-2.1-1.1-2.3-1.9c-0.7-2.3-2.4-2-4-1.9c-2.8,0.2-3.5-1.2-3.7-3.8
		c-0.3-4.7-0.5-4.8-4.9-4.8c-8.8-0.1-17.7,0-26.5,0c-4,0-4,0.1-4.3,3.8c-0.4,4.2-0.4,4.3-4.7,4.8c-1.8,0.2-3.2,0.5-3.9,2.5
		c-0.2,0.6-1.3,0.9-2,1.3c-0.4-0.8-1-1.6-1.1-2.4c-0.3-3.9,0-4.2,4.1-4.7c4-0.5,4.2-0.5,4.5-4.7c0.2-2.5,0.5-3.8,3.6-3.9
		c4-0.1,4.1-0.4,4.1-4.6c0.1-9.3,0-18.6,0-27.9c0-1.4,0-2.9,0-4.3c-0.1-2,0.4-3.2,2.7-3.2c6.7,0.1,13.4,0,20,0c2,0,3.1,0.7,3,2.9
		C403.8,304,403.9,309.6,403.9,315.3C403.9,315.3,403.9,315.3,403.9,315.3z"/>
	<path class="st1" d="M125.1,257.9c2.1,0,4.3-0.1,6.4,0c3,0.1,7.1-0.7,8.9,0.9c2.6,2.4,4,6.4,4.9,10c1.4,5.2,2,10.7,2.9,16.1
		c0.3,2-0.4,3.1-2.7,3.1c-6.2,0-12.4-0.1-18.6,0c-2.3,0.1-3.7-1-4.6-2.8c-1.9-3.9-5.1-4.5-8.9-4.1c-0.9,0.1-2,0.3-2.8-0.1
		c-0.9-0.4-2.2-1.3-2.2-2c-0.2-6.4-0.1-12.8,0-19.3c0-0.7,1.5-1.8,2.3-1.9C115.6,257.8,120.4,257.9,125.1,257.9
		C125.1,257.9,125.1,257.9,125.1,257.9z"/>
	<path class="st1" d="M418.3,260.5c0-3.1,0-6.2,0-9.3c0-1.9,0.4-3.3,2.7-3.2c4.8,0,9.5,0,14.3,0c1.7,0,2.6,0.8,2.6,2.6
		c0,6.9,0,13.8,0,20.7c0,2.3-1,3.6-3.4,3.6c-4.3,0-8.6,0-12.9,0c-2.4,0-3.3-1.5-3.3-3.7C418.3,267.7,418.3,264.1,418.3,260.5
		C418.3,260.5,418.3,260.5,418.3,260.5z"/>
	<path class="st1" d="M437.9,308.8c0,3.1-0.1,6.2,0,9.3c0.1,2.5-1.1,3.3-3.4,3.4c-4.3,0.1-8.5,0.6-12.8,0.6c-2,0-3.6-1.1-3.6-3.6
		c0.1-6.4,0.1-12.9,0.2-19.3c0-2.2,0.9-3.6,3.3-3.6c4.5,0,9.1,0,13.6,0c1.7,0,2.6,0.7,2.6,2.6C437.8,301.6,437.8,305.2,437.9,308.8
		C437.8,308.8,437.9,308.8,437.9,308.8z"/>
	<path class="st1" d="M366.6,261.3c0,3.3-0.1,6.7,0,10c0.1,2.8-1.1,3.8-3.9,3.6c-4.7-0.3-9.5-0.3-14.2-0.5c-0.3-4.7-0.7-9.4-0.9-14
		c-0.1-3.1,0-6.2,0-9.3c0-2,0.5-3.2,2.7-3.2c4.5,0,9.1,0,13.6,0c1.8,0,2.6,0.9,2.6,2.6C366.6,254.2,366.6,257.8,366.6,261.3
		C366.6,261.3,366.6,261.3,366.6,261.3z"/>
	<path class="st1" d="M306.3,315.5c0-0.5,0-1,0-1.4c0.3-3.7,0.5-7.5,0.8-11.2c3.8-0.2,7.6-0.4,11.3-0.5c7.3-0.1,6.5-0.4,6.6,6.5
		c0,5.5,0,11,0,16.5c0,2-0.6,3.2-2.8,3.1c-1,0-1.9,0.1-2.9,0c-4.2-0.3-8.4-0.6-12.6-0.9c-0.2-4-0.4-8-0.6-12.1
		C306.2,315.6,306.2,315.5,306.3,315.5z"/>
	<path class="st1" d="M41.9,288.9c-2.8,0-5.6,0.1-8.4-0.1c-0.4,0-1.2-0.8-1.2-1.2c0-0.6,0.5-1.6,0.8-1.6c3.7-0.1,7.4-0.1,11.2,0
		c0.3,0,0.9,1.1,0.9,1.7c-0.1,0.6-0.7,1.3-1.2,1.6c-0.6,0.3-1.4,0.2-2.1,0.2C41.9,289.3,41.9,289.1,41.9,288.9z"/>
	<path class="st1" d="M38.7,283.9c-1.7,0-3.3,0.1-5-0.1c-0.4,0-0.8-0.8-1.2-1.3c0.5-0.4,0.9-1.2,1.4-1.2c3.3-0.1,6.6-0.1,10,0
		c0.4,0,0.8,0.9,1.2,1.4c-0.5,0.4-0.9,1.1-1.4,1.1C42,284,40.3,283.9,38.7,283.9C38.7,283.9,38.7,283.9,38.7,283.9z"/>
	<path class="st1" d="M39.6,290.6c1.7,0.5,3.6,1,5.6,1.5c-1.3,3.3-4.1,1.4-6.1,1.5c-2.1,0.1-6.2,1.2-6.1-1.1
		C33.1,289.5,37.1,291.8,39.6,290.6z"/>
	<path class="st1" d="M38.4,298.2c-1.9-0.1-3.5-0.2-5.1-0.4c-0.2,0-0.6-0.7-0.6-1c0-0.4,0.5-0.9,0.8-0.9c1.6-0.1,3.3-0.3,4.9-0.2
		c2.2,0.2,4.3,0.7,6.5,1C43.1,299.5,40.3,297.2,38.4,298.2z"/>
	<path class="st0" d="M106.6,338.6c-1.6,0-1.6,0-0.8,3.2c1,4-1.4,7.1-5.4,7c-3.6-0.1-5.8-2.8-4.5-7c1-3.1-0.2-3.2-2.4-3.1
		c-0.5,0-1,0-1.4,0c-2.1,0-2.1,0.7-1.5,2.6c1,3.5-0.2,6.2-2.6,7.2c-4.1,1.6-7.5-0.7-7.6-5.4c0-1.3,0.7-3.3,0-3.8
		c-0.9-0.7-2.7-0.5-4.1-0.6c-1.7-0.1-1.8,0.6-1.2,2c0.4,0.8,0.4,1.9,0.4,2.8c0,3.7-1.4,5.1-5.2,5.2c-3.8,0.2-5.4-1.1-5.7-4.7
		c-0.1-0.9,0.3-1.8,0.5-2.7c0.6-2.6-1.1-2.6-2.9-2.6c-1.7,0-2.8,0.5-2.3,2.5c0.2,0.7,0.6,1.4,0.6,2.1c-0.1,3.5-1.4,5.2-4.3,5.5
		c-4.3,0.5-5.9-0.4-6.7-4.3c-0.4-2.3-0.5-2.6-2.2-0.7c-1.2,1.4-2.9,2.4-4.5,3.5c-3.1,2-6.4,2.1-9.4,0c-3.2-2.3-6.9-4.4-6.8-9.3
		c0.1-4.1-0.1-8.1,4.1-10.7c4.6-2.8,9.1-4,13.8-0.2c0.5,0.4,1.2,0.7,1.8,1.1c2.1,1.4,2.1,1.4,3.5-0.8c1.8-2.7,4.2-3.8,6.6-3
		c3,1.1,4.5,3.1,3.8,6.6c-0.5,2.7-0.1,3.5,2.5,3.4c1.6-0.1,2.8-0.5,2.1-2.5c-0.2-0.4-0.4-0.9-0.4-1.4c0-3.9,2.7-6.8,6-6.5
		c3.3,0.3,5.6,3.6,5.1,7.3c-0.1,0.7-0.6,1.3-0.9,1.9c-0.5,1.1-0.3,1.7,1.1,1.5c1.1-0.1,2.5,0.4,3.5,0c0.8-0.3,1.3-1.5,1.7-2.4
		c0.1-0.3-0.4-0.8-0.5-1.3c-0.5-2.9,0.5-5.3,3.1-6.5c1.2-0.6,3.4-0.2,4.6,0.5c2.4,1.4,3.6,3.6,2.9,6.7c-0.6,2.9,0.1,3.7,2.7,3.5
		c1.6-0.2,3.7-0.3,2.2-3c-0.4-0.8-0.6-1.9-0.5-2.8c0.3-2.9,3.4-5.7,5.8-5.3c2.9,0.5,5.8,4.7,5,7.3c-1.1,3.7-1.1,3.7,2.4,3.8
		c0.7,0,1.4,0,2.1,0c1.8-0.1,1.8-0.9,1.1-2.3c-0.6-1.2-1.7-2.9-1.3-3.7c0.9-1.8,2.4-3.6,4.2-4.7c2.2-1.4,4.2,0,5.3,2.1
		c0.7,1.4,1,3,1.2,4.6c0.1,1-0.2,2.1-0.4,3.1c1.4,0.1,2.8,0.4,4.1,0.3c1.4-0.1,2-0.7,1.2-2.4c-1.1-2.1-0.8-4.1,1-5.9
		c2-2,4.6-2.8,6.4-1.8c2,1.1,3.4,4.4,2.8,6.7c-0.2,0.9-0.8,1.7-1.1,2.6c-0.1,0.3,0,0.8,0,1.1c0.4-0.1,1-0.1,1.2-0.4
		c1-1.6,1.7-3.4,2.8-5c3-4.3,8.9-6.2,13.1-4.3c6,2.8,9.1,8.1,7.4,13.8c-1.4,4.6-4.5,7.9-9.3,9c-4.3,1-7.8-0.8-10.4-4.4
		c-1-1.3-1.9-2.7-2.9-4c-0.2-0.3-0.6-0.5-0.9-0.7c-0.1,0.4-0.4,0.9-0.4,1.3c0.1,0.7,0.6,1.4,0.5,2.1c-0.4,2-0.5,4.7-1.8,5.6
		c-1.4,1-4.3,0.9-6,0.1c-2.1-1-3.2-3.4-2.5-6.1c0.3-1,0.2-2,0.2-3c-1.9,0.1-3.7,0.1-5.6,0.3c-0.1,0-0.3,0.8-0.2,1.2
		c0.1,0.4,0.5,0.8,0.6,1.3c1.1,2.9-0.3,5.1-2.5,6.8c-1.7,1.3-3.8,1-5.3-0.3c-2.1-1.7-3.5-3.9-2-6.8c1-1.8,1-3-1.6-2.7
		C109.1,338.6,108.6,338.6,106.6,338.6z M38.2,332.4c-3.4,0-4.7,1-4.7,3.8c0,2.5,1.9,4.6,4.3,4.7c2.2,0.1,4.5-2,4.7-4.3
		C42.7,333.8,41.4,332.5,38.2,332.4z M149,332.4c-2.9,0-4.9,1.6-4.9,4c0,2.1,2.4,4.5,4.6,4.7c2.4,0.2,4.1-1.8,4.1-4.7
		C152.9,333.6,151.7,332.4,149,332.4z M100.2,326.8c-0.8,1.6-1.8,2.7-1.6,3.5c0.2,0.9,1.6,1.4,2.5,2.1c0.5-0.9,1.6-1.8,1.5-2.7
		C102.5,328.8,101.3,328.1,100.2,326.8z M85.1,327.5c-0.8,0.9-1.9,1.7-1.8,2c0.4,0.9,1.3,2.2,1.9,2.2c0.8-0.1,1.6-1.2,2.4-2
		C86.9,329.1,86.2,328.5,85.1,327.5z M115.9,327.4c-0.8,1.3-1.7,2.1-1.8,3c-0.1,0.6,1,1.3,1.6,1.9c0.8-0.9,1.7-1.8,2.4-2.8
		C118.2,329.3,116.9,328.4,115.9,327.4z M85.6,345.9c0.9-1.1,1.5-1.7,2-2.4c-0.9-0.6-1.7-1.6-2.6-1.7c-0.5-0.1-1.3,1.1-1.9,1.7
		C83.9,344.2,84.6,344.9,85.6,345.9z M131.9,347.2c0.9-1.9,1.6-2.8,1.6-3.6c-0.1-0.7-1-1.7-1.7-1.9c-0.5-0.1-1.6,0.9-1.8,1.5
		C129.9,343.9,130.6,344.7,131.9,347.2z M119,343c-1.8-0.7-2.7-1.3-3.7-1.2c-0.5,0-1.3,1.4-1.2,2c0.1,0.6,1.3,1.6,1.7,1.5
		C116.8,345,117.6,344.1,119,343z M103.3,343.5c-0.9-0.9-1.7-2-2.1-1.8c-1,0.3-1.7,1.1-2.6,1.8c0.8,0.6,1.6,1.5,2.6,1.8
		C101.5,345.3,102.3,344.3,103.3,343.5z M131.8,327.4c-0.9,1.2-1.7,2-1.8,2.8c-0.1,0.6,1,1.2,1.6,1.9c0.7-0.8,1.6-1.4,2-2.3
		C133.8,329.4,132.7,328.5,131.8,327.4z M72.6,329.6c-1.1-0.6-1.8-1.4-2.5-1.4c-0.7,0.1-1.2,1-1.9,1.6c0.7,0.7,1.5,1.5,2.2,2.2
		C71.1,331.3,71.7,330.7,72.6,329.6z M57.2,329.9c-1-0.7-1.6-1.6-2.2-1.6c-0.7,0-1.4,0.8-2.2,1.2c0.6,0.9,1.3,1.7,1.9,2.6
		C55.5,331.5,56.1,330.9,57.2,329.9z M57.1,343.1c-1.3-0.6-2-1.3-2.8-1.3c-0.5,0-1.4,1.2-1.3,1.4c0.4,0.7,1.1,1.7,1.7,1.8
		C55.4,345.1,56.1,344.1,57.1,343.1z M72.9,344.2c-0.3-0.5-0.6-1-0.9-1.4c-0.8-0.3-1.5-0.9-2.3-0.8c-0.5,0-1.4,1.3-1.3,1.4
		c0.5,0.7,1.2,1.6,1.9,1.7C71.1,345.2,72,344.5,72.9,344.2z M51,335.7c0.2-0.7,0.5-1.1,0.4-1.3c-0.2-0.4-0.6-0.6-1-0.9
		c-0.2,0.3-0.7,0.7-0.6,0.9C50,334.8,50.5,335.1,51,335.7z"/>
	<path class="st1" d="M38.2,332.4c3.2,0,4.5,1.3,4.3,4.2c-0.2,2.3-2.5,4.4-4.7,4.3c-2.4-0.1-4.3-2.3-4.3-4.7
		C33.6,333.4,34.8,332.4,38.2,332.4z"/>
	<path class="st1" d="M149,332.4c2.7,0,3.9,1.2,3.8,4c0,2.9-1.8,4.9-4.1,4.7c-2.2-0.2-4.6-2.6-4.6-4.7
		C144.1,333.9,146.1,332.3,149,332.4z"/>
	<path class="st1" d="M100.2,326.8c1.1,1.3,2.3,2,2.4,2.9c0.1,0.8-1,1.8-1.5,2.7c-0.9-0.7-2.2-1.2-2.5-2.1
		C98.4,329.5,99.4,328.4,100.2,326.8z"/>
	<path class="st1" d="M85.1,327.5c1.1,0.9,1.8,1.6,2.6,2.3c-0.8,0.7-1.6,1.9-2.4,2c-0.6,0-1.5-1.3-1.9-2.2
		C83.2,329.3,84.3,328.4,85.1,327.5z"/>
	<path class="st1" d="M115.9,327.4c1.1,1,2.3,1.9,2.2,2c-0.7,1-1.6,1.9-2.4,2.8c-0.6-0.6-1.7-1.3-1.6-1.9
		C114.2,329.5,115.1,328.6,115.9,327.4z"/>
	<path class="st1" d="M85.6,345.9c-1-1-1.8-1.7-2.5-2.4c0.7-0.6,1.4-1.8,1.9-1.7c0.9,0.2,1.8,1.1,2.6,1.7
		C87.1,344.1,86.5,344.8,85.6,345.9z"/>
	<path class="st1" d="M131.9,347.2c-1.2-2.5-2-3.4-1.9-4c0.2-0.7,1.3-1.7,1.8-1.5c0.7,0.2,1.6,1.2,1.7,1.9
		C133.5,344.4,132.8,345.3,131.9,347.2z"/>
	<path class="st1" d="M119,343c-1.5,1.2-2.2,2.1-3.1,2.3c-0.5,0.1-1.6-0.9-1.7-1.5c-0.1-0.6,0.7-2,1.2-2
		C116.3,341.7,117.3,342.3,119,343z"/>
	<path class="st1" d="M103.3,343.5c-1,0.8-1.8,1.9-2.2,1.7c-0.9-0.3-1.7-1.2-2.6-1.8c0.9-0.6,1.6-1.5,2.6-1.8
		C101.6,341.5,102.3,342.6,103.3,343.5z"/>
	<path class="st1" d="M131.8,327.4c0.9,1.1,1.9,2,1.8,2.4c-0.4,0.9-1.3,1.6-2,2.3c-0.6-0.6-1.7-1.3-1.6-1.9
		C130.1,329.4,131,328.6,131.8,327.4z"/>
	<path class="st1" d="M72.6,329.6c-1,1.1-1.6,1.8-2.2,2.4c-0.7-0.7-1.5-1.5-2.2-2.2c0.6-0.6,1.2-1.5,1.9-1.6
		C70.8,328.2,71.5,329,72.6,329.6z"/>
	<path class="st1" d="M57.2,329.9c-1.1,1-1.8,1.6-2.5,2.2c-0.6-0.9-1.3-1.7-1.9-2.6c0.7-0.4,1.4-1.2,2.2-1.2
		C55.6,328.3,56.3,329.2,57.2,329.9z"/>
	<path class="st1" d="M57.1,343.1c-1.1,0.9-1.8,2-2.3,1.9c-0.7-0.1-1.4-1-1.7-1.8c-0.1-0.2,0.9-1.4,1.3-1.4
		C55.1,341.9,55.9,342.5,57.1,343.1z"/>
	<path class="st1" d="M72.9,344.2c-0.9,0.3-1.8,1-2.6,0.9c-0.7-0.1-1.4-1-1.9-1.7c-0.1-0.1,0.8-1.4,1.3-1.4c0.7,0,1.5,0.5,2.3,0.8
		C72.3,343.3,72.6,343.7,72.9,344.2z"/>
	<path class="st1" d="M51,335.7c-0.5-0.5-1-0.9-1.2-1.4c-0.1-0.2,0.4-0.6,0.6-0.9c0.3,0.3,0.8,0.5,1,0.9
		C51.5,334.5,51.2,335,51,335.7z"/>
</g>
</svg>
