<?xml version="1.0" encoding="utf-8"?>
<!-- Generator: Adobe Illustrator 19.2.1, SVG Export Plug-In . SVG Version: 6.00 Build 0)  -->
<svg version="1.1" id="Layer_1" xmlns="http://www.w3.org/2000/svg" xmlns:xlink="http://www.w3.org/1999/xlink" x="0px" y="0px"
	 viewBox="0 0 512 512" style="enable-background:new 0 0 512 512;" xml:space="preserve">
<style type="text/css">
	.st0{fill:#999999;}
</style>
<g>
	<g>
		<path class="st0" d="M364.6,397.1c-5.9,0-11.7-3.2-14.4-8.9c-4-8-0.8-17.7,7.3-21.7c5.2-2.5,9.8-2.4,12.3-2.3c0.2,0,0.6,0,0.8,0
			c8.4,0.1,17.1,0.1,25.5,0.1c13.5,0,27.5,0,41.4,0.3c2.4,0,3.6-0.3,3.9-0.5c0.2-0.3,0.6-1.6,0.6-4.2c-0.3-90.9-0.2-183.3-0.1-272.6
			c0-1.2-0.1-2-0.1-2.4c-0.2-0.1-0.6-0.1-1-0.2c-8.8-1.8-14.3-10.4-12.5-19.2c1.8-8.8,10.4-14.3,19.2-12.5
			c10,2.1,26.9,9.3,26.9,34.4c-0.1,89.3-0.2,181.6,0.1,272.5c0,14.3-5.7,22.7-10.3,27.3c-4.7,4.6-13.3,9.9-27.3,9.6
			c-13.5-0.3-27.2-0.3-40.6-0.3c-8.4,0-17.1,0-25.7-0.1c-0.5,0-0.8,0-1.3,0C367.6,396.9,366.1,397.1,364.6,397.1z M371.8,395.4
			L371.8,395.4L371.8,395.4z"/>
		<path class="st0" d="M193,178.9c-2.4,0-4.8-0.6-7.3-1.7c-7-3.6-10.4-11.5-8.3-18.8c0-0.5,0-0.9,0-1.4c0.1-23.4,0.2-47.4,0-71.1
			v-0.1c0-16.6,9.3-28.5,25.7-32.5c8.7-2.1,17.4,3.2,19.5,11.9c2.1,8.7-3.2,17.4-11.9,19.5c-0.5,0.1-0.8,0.2-1,0.3
			c0,0.2,0,0.5,0,0.7c0.2,23.9,0.1,48,0,71.4c0,0.1,0,0.3,0,0.6c0.1,2.5,0.2,7.2-2.3,12.3C204.7,175.6,199,178.9,193,178.9z
			 M178.6,155.5L178.6,155.5L178.6,155.5z"/>
		<path class="st0" d="M248.7,132.1c-1.2,0-2.4,0-3.8-0.2c-0.2,0-0.6-0.1-0.8-0.1c-13.7-2.5-20.1-10.4-20.1-24.6V53.9
			c0-15.6,9-24.6,24.6-24.8c7-0.1,14.1,0,20.8,0c0.9,0,1.8,0,2.8,0c0-0.1,0-0.2,0.1-0.2c3.8-13.8,16-22.8,31-22.8h48.1
			c0.1,0,0.1,0,0.2,0c2.1,0,4.3,0.3,6.3,1.2c13.4,5.3,19.2,14.1,21.6,22c5,0,9.8,0,14.7,0c2.5,0,5.1,0,7.6,0c17.3,0,26,8.8,26,26
			v51.6c0,15.6-7.8,24.1-23.4,25.4c-1.7,0.1-3.2,0.1-4.3,0.1c-0.2,0-0.5,0-0.6,0H252.2c-0.3,0-0.7,0-1,0
			C250.6,132.1,249.7,132.1,248.7,132.1z M395.3,107.9L395.3,107.9L395.3,107.9z M256.2,99.7h139.1V61.4c-0.5,0-0.9,0-1.4,0
			c-7.5,0-15.2,0-22.6,0.1c-0.1,0-0.2,0-0.3,0c-8.5,0-13.7-3.6-16.6-6.6c-3.9-4-5.9-9.5-5.8-15.3c0-0.6,0-0.9-0.1-1.2
			c-0.1-0.1-0.2-0.1-0.3-0.2h-44.9h-0.1c-0.1,0.7-0.2,1.5-0.2,2.2v0.1c-0.7,10-6.2,15.1-9.5,17.2c-5,3.2-10.3,3.6-13.8,3.6
			c-3.5,0-6.8,0-10.3,0c-4.3,0-8.7,0-12.9,0v38.4H256.2z M256.2,53.1L256.2,53.1L256.2,53.1z M380.8,40.5L380.8,40.5L380.8,40.5z"/>
	</g>
	<g id="OVdbYm.tif">
		<g>
			<path class="st0" d="M244,370.8c-4.4,0-8.8-0.5-13.4-1.3c-1.3-0.2-2.5-0.5-3.8-0.8c-2.1-0.5-5.1-1.2-6-0.9
				c-8.2,3.7-17.7,0-21.3-8.2c-3.7-8.2,0.1-17.8,8.2-21.3c10.2-4.5,19.6-2.5,25.8-1.2c1,0.2,2,0.5,2.9,0.6h0.1
				c11.5,2.2,21.5-0.7,30.3-8.8c13.8-12.7,27.2-26.5,40.8-40.7c4.8-5.1,7.5-11.3,8.2-19c1.2-14.9-0.7-21-9.5-31.3
				c-5.7-6.7-13.4-10.5-23.7-11.9c-13.3-1.7-23.8,2.5-35.4,14.2c-2.8,2.8-5.5,5.5-8.3,8.4c-8.1,8.1-16.4,16.5-24.2,24.8
				c-10.3,11-13.3,22.3-9.5,35.5c2.5,9.1,1.2,17-0.5,23c-2.3,8.7-11.2,13.7-19.7,11.4c-8.7-2.3-13.7-11.2-11.4-19.7
				c0.9-3.6,0.9-4.8,0.7-5.7c-7-24.2-1.3-47.3,16.8-66.6c8.2-8.8,16.7-17.3,24.9-25.6c2.8-2.8,5.5-5.5,8.2-8.3
				c18.7-18.8,39-26.5,62.4-23.5c18.1,2.3,33.3,10.3,44.2,23c14.2,16.7,18.9,31.5,17.1,54.8v0.1c-1.3,15.2-7,28.3-17.1,38.8
				c-14.1,14.7-27.8,28.8-42.3,42.2C275.7,364.7,260.5,370.8,244,370.8z"/>
			<path class="st0" d="M108.1,506c-2.9,0-6.2-0.6-9.7-2.2c-16.6-1.6-31.4-9.5-42.8-22.6c-14.3-16.4-20.2-35.2-17.3-56
				c2.2-15.7,7.7-28,17.1-37.7c14.1-14.7,27.8-28.8,42.3-42.2c16.5-15.1,36.6-20.9,58.1-16.7c1.3,0.2,2.5,0.5,3.8,0.8
				c2.1,0.5,5.1,1,6,0.9c8.2-3.7,17.7,0,21.3,8.2c3.7,8.2-0.1,17.7-8.2,21.3c-10.2,4.5-19.6,2.5-25.8,1.2c-1-0.2-2-0.5-2.9-0.6H150
				c-11.5-2.2-21.5,0.7-30.3,8.8c-13.8,12.7-27.2,26.5-40.8,40.7c-4.5,4.7-7.2,11.1-8.4,19.8c-1.6,11.4,1.5,21,9.6,30.2
				c6.3,7.3,14,11.2,22.8,11.8c0.1,0,0.3,0,0.5,0c2,0.2,3.9,0.7,5.8,1.4c2.2-0.6,4.4-0.9,6.2-1.3c1.7-0.3,3.5-0.6,4.4-0.9
				c0.1,0,0.2-0.1,0.3-0.1c6.2-2.2,12.2-6.2,18.3-12.5c3.8-3.9,7.7-7.8,11.5-11.5c7.4-7.4,15.1-15.1,22.2-22.7
				c9.5-10.2,12.5-21.5,9.2-34.4c-2.1-7.8-2-15.6,0.2-23.7c2.3-8.7,11.2-13.7,19.8-11.3c8.7,2.3,13.7,11.2,11.3,19.8
				c-0.7,2.5-0.7,4.6-0.1,7c6.1,23.9,0.2,46.1-16.8,64.4c-7.5,8.1-15.3,16-23,23.7c-3.7,3.7-7.6,7.6-11.3,11.4
				c-9.6,9.7-19.5,16.3-30.5,20.2c-3.7,1.4-7.3,2-10,2.5c-1.6,0.2-3.1,0.6-4,0.8C115.3,505,112.1,506,108.1,506z M96.5,502.7
				L96.5,502.7L96.5,502.7z"/>
			<path class="st0" d="M140.9,419.9c-7.7,0-14.5-5.5-15.9-13.4c-0.9-5.4-0.2-13.5,8.5-20.4c0.1,0,0.1-0.1,0.2-0.1
				c13.3-13.4,26.8-26.9,39.8-39.9c4.5-4.5,8.9-8.9,13.4-13.4l42.7-42.7c1.3-4.7,4.6-8.8,9.5-10.8c8.2-3.5,17.7,0.5,21.1,8.8
				c1.7,4,4.4,14.5-6.5,23.7l-0.1,0.1l0,0l-43.7,43.7c-4.5,4.5-9,8.9-13.4,13.4c-13.2,13-26.6,26.6-39.9,40c0,0,0,0-0.1,0.1
				c-0.1,0.1-0.1,0.1-0.2,0.2c-1.8,5.3-6.6,9.5-12.5,10.5C142.6,419.8,141.7,419.9,140.9,419.9z M156.8,401L156.8,401L156.8,401z
				 M253.8,311.3L253.8,311.3L253.8,311.3z M253.8,311.3L253.8,311.3L253.8,311.3z M253.8,311.3L253.8,311.3L253.8,311.3z
				 M253.8,311.3L253.8,311.3L253.8,311.3z M230.3,300.1C230.3,300.1,230.3,300.2,230.3,300.1C230.3,300.2,230.3,300.1,230.3,300.1z
				"/>
		</g>
	</g>
</g>
</svg>
