<?xml version="1.0" encoding="utf-8"?>
<!-- Generator: Adobe Illustrator 19.2.1, SVG Export Plug-In . SVG Version: 6.00 Build 0)  -->
<svg version="1.1" id="Layer_x5F_1" xmlns="http://www.w3.org/2000/svg" xmlns:xlink="http://www.w3.org/1999/xlink" x="0px"
	 y="0px" viewBox="0 0 512 512" style="enable-background:new 0 0 512 512;" xml:space="preserve">
<style type="text/css">
	.st0{fill:#999999;}
</style>
<g>
	<path class="st0" d="M100.6,222c104.9,0,205.9,0,309.4,0c0-72.3,0-143.4,0-215.8c12.7,0,22.8,0,33.8,0c19.6,20,40,40.8,62.2,63.5
		c0,142.8,0,288.7,0,436.1c-166.9,0-332.8,0-500,0C6,339.5,6,174.1,6,6.8c30.5,0,61.2,0,94.6,0C100.6,77.3,100.6,148.4,100.6,222z"
		/>
	<path class="st0" d="M381.1,6.2c0,62.8,0,124.2,0,187.3c-83.2,0-165.9,0-250.1,0c0-62.2,0-124.1,0-187.3
		C214.1,6.2,296.3,6.2,381.1,6.2z M290.3,40.5c0,41.2,0,79.6,0,118.3c19.8,0,38,0,56,0c0-40.5,0-78.9,0-118.3
		C327,40.5,309.3,40.5,290.3,40.5z"/>
</g>
</svg>
