<?xml version="1.0" encoding="utf-8"?>
<!-- Generator: Adobe Illustrator 19.2.1, SVG Export Plug-In . SVG Version: 6.00 Build 0)  -->
<svg version="1.1" id="Layer_1" xmlns="http://www.w3.org/2000/svg" xmlns:xlink="http://www.w3.org/1999/xlink" x="0px" y="0px"
	 viewBox="0 0 512 512" style="enable-background:new 0 0 512 512;" xml:space="preserve">
<style type="text/css">
	.st0{fill:#4DAF4A;}
</style>
<g>
	<path class="st0" d="M328.5,381.2c-12.5-8.5-16.9-21.5-21.7-33.9c-1.5-3.8-0.8-8.9,0.1-13.2c3.4-16.8-2-32.4-7.3-47.7
		c-3.7-10.6-12.6-14.4-23-11.8c-15.7,4-28.4-2-37.8-13.6c-9.3-11.4-13.8-25.2-11.8-40.4c0.5-3.5,0.8-7.1,0.9-10.6
		c0.3-9.3,3.2-17.6,8.9-25c4.9-6.2,9.2-12.9,14.7-18.4c3.4-3.3,8.4-5.5,13-7c8-2.5,16.4-3.7,24.5-6.1c14.1-4.2,21.4-2.1,30.5,9.5
		c2.3,2.9,4.6,6,7.4,8.4c4.2,3.6,9.1,5.4,14.4,2c4.3-2.7,8.5-2.2,12.8-0.2c3.7,1.7,7.5,3.5,11.4,4.7c5.8,1.8,10.1,0,12.6-4.5
		c3.8-6.9,1.1-12.1-6.8-13.2c-3.6-0.5-7.1-2.1-10.7-2.9c-2.7-0.6-5.5-1.1-8.2-0.9c-4.6,0.4-8.1-1.1-10.4-5.1
		c-2.7-4.5-5.2-9.1-8.1-13.5c-3.4-5.2-7.3-6.1-15-2.7c4.5,3.4,8.5,6.1,12.1,9.3c1.6,1.4,3.9,4.3,3.4,5.5c-1,2.2-3.7,3.6-6.8,5.2
		c2.2-8.4-3.7-10-8.4-12.6c-4.9-2.7-9.8-5.4-14.6-8.4c-6.2-3.8-10.6-3.6-15.6,1.6c-3.5,3.6-6.6,7.7-9.7,11.6
		c-4.4,5.5-10.5,6.9-19.4,4c-7.2-2.3-9.6-5.5-9.9-13.1c-0.5-13.5,8-23.4,21.3-22.6c10,0.6,17-3.4,23-10.2c1.4-1.6,1.7-5.4,0.8-7.4
		c-4.9-9.9-0.3-14.2,7.9-17c1.1-0.4,2.3-0.5,3.2-1.1c16-11.4,29.7-1.6,43.6,4.9c6.9,3.2,13.2,7.7,22.8,7.8
		c-34.1-30.6-72.6-47.6-118-52c3.2,4.4,5.9,7.9,8.4,11.5c3.8,5.5,3.9,10.8,0.4,16.7c-5,8.5-12,14.5-21.4,17.1
		c-15.5,4.3-31.1,8-46.7,11.8c-3.6,0.9-7.4,1.1-11.1,1.6c-5.8,0.8-7.2-0.1-7-6.2c0.3-7.3,1.1-14.6,1.9-21.8c0.9-8-0.5-10.3-8.4-9.9
		c-5.7,0.3-11.5,1.3-17.1,2.8c-7,2-9.4,5.9-8.4,13.1c0.5,3.6,1.4,7.6,3.3,10.6c3.9,5.9,3.4,12,3.6,18.7c0.4,18-8.4,28.8-24.6,33.7
		c-13.1,3.9-22.9,11.1-31.1,22.2c-6.9,9.4-16.2,17.1-24.1,25.8c-3,3.3-5.5,7.2-7.2,11.3c-6.2,15.3,0.4,29.2,15.4,35.8
		c11.8,5.2,23.4,10.9,34.4,17.5c6.4,3.9,12.2,9.4,16.9,15.3c6.7,8.5,14.4,15.2,24.3,19.3c0.7,0.3,1.4,0.6,2,1
		c6.3,3.8,14.3,5.1,17.6,13c4.2,10.2,5.1,20.6,2.1,31.3c-4.2,14.8-14,25.3-26.3,34c-4.6,3.2-9.3,6.4-13.5,10.1
		c-5.7,5.1-8.1,11.3-5.9,19.2c2,7,2,14,0.2,21.4c-2,8.7-2.1,17.8-3,27.2c-1.1-0.5-2.6-1-3.9-1.7c-67.6-39.1-108.8-96.8-119-174.4
		C-9.8,146.3,68.6,35.9,188.8,9.3c126.6-28.1,254.2,56,278.6,183.5c9.8,51,3.4,99.9-18.6,146.9c-2.3,4.9-4.7,6.9-10.4,6.6
		c-11.1-0.6-22.3-0.2-34-0.2c4.2-7.8,8.3-14.7,11.7-21.9c17.4-36.3,23.4-74.4,17.6-114.3c-0.3-1.9-1-4.3-2.4-5.2
		c-1.1-0.7-4.3-0.2-5.1,0.9c-1.4,1.8-1.9,4.5-2.4,6.8c-1.4,6.8-4.4,12.2-11.6,14.5c-4.2,1.4-4.3,5-2.6,8.3c1.5,3,3.8,5.5,5.8,8.3
		c5,7,4.9,11-0.7,17.6c-7.9,9.3-16.9,18.5-18.9,30.8c-3.2,19.1-12,36.1-17.6,54.3c-0.4,1.2-1.6,2.8-2.7,3.1
		C356.3,355,340.7,365.8,328.5,381.2z M40.6,228.1c-7.6,51.9,33,143.6,71,161.2c-0.6-1-1.1-1.8-1.6-2.5
		c-10.6-12.6-17.9-26.6-19.9-43.2c-1-8.2-5.3-14.8-10.7-21.1c-5.6-6.6-11.6-13.8-14.4-21.8c-5-14.2-8-29.2-11.4-43.9
		C51.2,246.6,47.7,237.2,40.6,228.1z"/>
	<path class="st0" d="M338.1,472c3.4,0,5.7,0,7.9,0c29.4,0,58.9,0,88.3,0c21.3,0,37.5-15.4,37.5-35.8c0.1-20.7-16.1-36.1-37.7-36.2
		c-29.4,0-58.9,0-88.3,0c-2.2,0-4.4,0-8.3,0c3.2-4.5,5.2-8,7.8-10.9c14.5-16.3,32.6-25,54.4-25c16.1,0,32.4-0.7,48.2,1.3
		c34.2,4.3,59.9,35.7,59.8,71c-0.1,34.7-26,66.4-60,70.1c-19.9,2.2-40.5,1.8-60.5-0.1c-19.7-1.8-35.1-13.3-46.6-29.5
		C339.9,475.9,339.4,474.5,338.1,472z"/>
	<path class="st0" d="M316.8,400.1c-2.6,0-4.7,0-6.9,0c-29.8,0-59.6,0-89.4,0c-19.1,0-34.6,13.9-36.5,32.3
		c-1.9,18.7,10.8,35.5,29.6,39.1c2.7,0.5,5.6,0.5,8.4,0.6c29.2,0,58.5,0,87.7,0c2.2,0,4.4,0,7.9,0c-1.4,2.6-2.1,4.4-3.3,5.9
		c-14.6,19.4-33.9,29.8-58.2,30c-16.1,0.1-32.4,0.7-48.2-1.3c-34.2-4.3-60-35.6-60-70.9c0-34.9,25.8-66.5,59.8-70.3
		c19.9-2.2,40.5-1.8,60.5,0c19.9,1.8,35.4,13.4,47,29.8c0.5,0.8,1,1.6,1.4,2.4C316.7,398.1,316.7,398.5,316.8,400.1z"/>
	<path class="st0" d="M327.3,454c-23.1,0-46.1,0-69.2,0c-12,0-20.2-7.3-20.2-17.9c-0.1-10.6,8.2-18.1,20-18.1c46.7,0,93.3,0,140,0
		c11.8,0,20,7.6,19.9,18.1c-0.1,10.4-8.2,17.8-19.7,17.8C374.5,454.1,350.9,454,327.3,454z"/>
</g>
</svg>
