<?xml version="1.0" encoding="utf-8"?>
<!-- Generator: Adobe Illustrator 19.2.1, SVG Export Plug-In . SVG Version: 6.00 Build 0)  -->
<svg version="1.1" id="Layer_1" xmlns="http://www.w3.org/2000/svg" xmlns:xlink="http://www.w3.org/1999/xlink" x="0px" y="0px"
	 viewBox="0 0 512 512" style="enable-background:new 0 0 512 512;" xml:space="preserve">
<style type="text/css">
	.st0{fill:#4DAF4A;}
</style>
<g>
	<path class="st0" d="M327.9,380.1c-12.4-8.4-16.8-21.3-21.5-33.6c-1.5-3.8-0.8-8.8,0.1-13.1c3.4-16.7-2-32.1-7.2-47.3
		c-3.7-10.5-12.5-14.3-22.8-11.7c-15.6,4-28.2-2-37.5-13.5c-9.2-11.3-13.7-25-11.7-40.1c0.5-3.5,0.8-7,0.9-10.5
		c0.3-9.2,3.2-17.5,8.8-24.8c4.9-6.1,9.1-12.8,14.6-18.2c3.4-3.3,8.3-5.5,12.9-6.9c7.9-2.5,16.3-3.7,24.3-6
		c14-4.2,21.2-2.1,30.2,9.4c2.3,2.9,4.6,5.9,7.3,8.3c4.2,3.6,9,5.4,14.3,2c4.3-2.7,8.4-2.2,12.7-0.2c3.7,1.7,7.4,3.5,11.3,4.7
		c5.8,1.8,10,0,12.5-4.5c3.8-6.8,1.1-12-6.7-13.1c-3.6-0.5-7-2.1-10.6-2.9c-2.7-0.6-5.5-1.1-8.1-0.9c-4.6,0.4-8-1.1-10.3-5.1
		c-2.7-4.5-5.2-9-8-13.4c-3.4-5.2-7.2-6-14.9-2.7c4.5,3.4,8.4,6,12,9.2c1.6,1.4,3.9,4.3,3.4,5.5c-1,2.2-3.7,3.6-6.7,5.2
		c2.2-8.3-3.7-9.9-8.3-12.5c-4.9-2.7-9.7-5.4-14.5-8.3c-6.1-3.8-10.5-3.6-15.5,1.6c-3.5,3.6-6.5,7.6-9.6,11.5
		c-4.4,5.5-10.4,6.8-19.2,4c-7.1-2.3-9.5-5.5-9.8-13c-0.5-13.4,7.9-23.2,21.1-22.4c9.9,0.6,16.9-3.4,22.8-10.1
		c1.4-1.6,1.7-5.4,0.8-7.3c-4.9-9.8-0.3-14.1,7.8-16.9c1.1-0.4,2.3-0.5,3.2-1.1c15.9-11.3,29.4-1.6,43.2,4.9
		c6.8,3.2,13.1,7.6,22.6,7.7c-33.8-30.3-72-47.2-117-51.6c3.2,4.4,5.8,7.8,8.3,11.4c3.8,5.5,3.9,10.7,0.4,16.6
		c-5,8.4-11.9,14.4-21.2,17c-15.4,4.3-30.8,7.9-46.3,11.7c-3.6,0.9-7.3,1.1-11,1.6c-5.8,0.8-7.1-0.1-6.9-6.1
		c0.3-7.2,1.1-14.5,1.9-21.6c0.9-7.9-0.5-10.2-8.3-9.8c-5.7,0.3-11.4,1.3-17,2.8c-6.9,2-9.3,5.8-8.3,13c0.5,3.6,1.4,7.5,3.3,10.5
		c3.9,5.8,3.4,11.9,3.6,18.5c0.4,17.8-8.3,28.6-24.4,33.4c-13,3.9-22.7,11-30.8,22c-6.8,9.3-16.1,17-23.9,25.6
		c-3,3.3-5.5,7.1-7.1,11.2c-6.1,15.2,0.4,29,15.3,35.5c11.7,5.2,23.2,10.8,34.1,17.4c6.3,3.9,12.1,9.3,16.8,15.2
		c6.6,8.4,14.3,15.1,24.1,19.1c0.7,0.3,1.4,0.6,2,1c6.2,3.8,14.2,5.1,17.5,12.9c4.2,10.1,5.1,20.4,2.1,31
		c-4.2,14.7-13.9,25.1-26.1,33.7c-4.6,3.2-9.2,6.3-13.4,10c-5.7,5.1-8,11.2-5.8,19c2,6.9,2,13.9,0.2,21.2c-2,8.6-2.1,17.6-3,27
		c-1.1-0.5-2.6-1-3.9-1.7c-67-38.8-107.9-96-118-172.9C-7.5,147.2,70.2,37.7,189.4,11.4c125.5-27.9,252,55.5,276.2,181.9
		c9.7,50.6,3.4,99.1-18.4,145.7c-2.3,4.9-4.7,6.8-10.3,6.5c-11-0.6-22.1-0.2-33.7-0.2c4.2-7.7,8.2-14.6,11.6-21.7
		c17.3-36,23.2-73.8,17.5-113.3c-0.3-1.9-1-4.3-2.4-5.2c-1.1-0.7-4.3-0.2-5.1,0.9c-1.4,1.8-1.9,4.5-2.4,6.7
		c-1.4,6.7-4.4,12.1-11.5,14.4c-4.2,1.4-4.3,5-2.6,8.2c1.5,3,3.8,5.5,5.8,8.2c5,6.9,4.9,10.9-0.7,17.5c-7.8,9.2-16.8,18.3-18.7,30.5
		c-3.2,18.9-11.9,35.8-17.5,53.8c-0.4,1.2-1.6,2.8-2.7,3.1C355.5,354.1,340,364.8,327.9,380.1z M42.4,228.3
		c-7.5,51.5,32.7,142.4,70.4,159.8c-0.6-1-1.1-1.8-1.6-2.5c-10.5-12.5-17.7-26.4-19.7-42.8c-1-8.1-5.3-14.7-10.6-20.9
		c-5.6-6.5-11.5-13.7-14.3-21.6c-5-14.1-7.9-29-11.3-43.5C52.9,246.7,49.5,237.3,42.4,228.3z"/>
	<path class="st0" d="M337.4,470.1c3.4,0,5.7,0,7.8,0c29.2,0,58.4,0,87.5,0c21.1,0,37.2-15.3,37.2-35.5c0.1-20.5-16-35.8-37.4-35.9
		c-29.2,0-58.4,0-87.5,0c-2.2,0-4.4,0-8.2,0c3.2-4.5,5.2-7.9,7.7-10.8c14.4-16.2,32.3-24.8,53.9-24.8c16,0,32.1-0.7,47.8,1.3
		c33.9,4.3,59.4,35.4,59.3,70.4c-0.1,34.4-25.8,65.8-59.5,69.5c-19.7,2.2-40.2,1.8-60-0.1c-19.5-1.8-34.8-13.2-46.2-29.2
		C339.2,474,338.7,472.6,337.4,470.1z"/>
	<path class="st0" d="M316.3,398.9c-2.6,0-4.7,0-6.8,0c-29.5,0-59.1,0-88.6,0c-18.9,0-34.3,13.8-36.2,32
		c-1.9,18.5,10.7,35.2,29.3,38.8c2.7,0.5,5.6,0.5,8.3,0.6c29,0,58,0,87,0c2.2,0,4.4,0,7.8,0c-1.4,2.6-2.1,4.4-3.3,5.8
		c-14.5,19.2-33.6,29.5-57.7,29.7c-16,0.1-32.1,0.7-47.8-1.3c-33.9-4.3-59.5-35.3-59.5-70.3c0-34.6,25.6-65.9,59.3-69.7
		c19.7-2.2,40.2-1.8,60,0c19.7,1.8,35.1,13.3,46.6,29.5c0.5,0.8,1,1.6,1.4,2.4C316.2,396.9,316.2,397.3,316.3,398.9z"/>
	<path class="st0" d="M326.7,452.3c-22.9,0-45.7,0-68.6,0c-11.9,0-20-7.2-20-17.7c-0.1-10.5,8.1-17.9,19.8-17.9
		c46.3,0,92.5,0,138.8,0c11.7,0,19.8,7.5,19.7,17.9c-0.1,10.3-8.1,17.6-19.5,17.6C373.5,452.4,350.1,452.3,326.7,452.3z"/>
</g>
</svg>
