<?xml version="1.0" encoding="utf-8"?>
<!-- Generator: Adobe Illustrator 19.2.1, SVG Export Plug-In . SVG Version: 6.00 Build 0)  -->
<svg version="1.1" id="Layer_1" xmlns="http://www.w3.org/2000/svg" xmlns:xlink="http://www.w3.org/1999/xlink" x="0px" y="0px"
	 viewBox="0 0 512 512" style="enable-background:new 0 0 512 512;" xml:space="preserve">
<style type="text/css">
	.st0{fill:none;stroke:#FF7F00;stroke-width:16;stroke-linecap:round;stroke-linejoin:round;stroke-miterlimit:10;}
	.st1{fill:#FFFF33;stroke:#231F20;stroke-width:8;stroke-linecap:round;stroke-linejoin:round;stroke-miterlimit:10;}
	.st2{fill:none;stroke:#231F20;stroke-width:8;stroke-linecap:round;stroke-linejoin:round;stroke-miterlimit:10;}
</style>
<path class="st0" d="M160.2,434c-20.3-15.4-36.9-34.8-49.6-57.8c-8.3-15.1-14.3-31.1-17.7-48.1c-3.2-15.9-4.1-31.9-2.5-48.1
	c1.5-15.7,5.2-30.7,11-45.3c2.2-5.6,6.9-14.1,12.3-16.7l0,0c-0.5,3-0.2,5.1,1,7.7c1.7,3.8,3.2,7.8,3.8,11.9c3,19.4,9,37.5,21,53.4
	c3.1,4.1,7,6.4,12,7.1l2.4,0c3-8.5-0.4-16.5-1.8-24.8c-2.2-13.1-3.2-26.2-2.6-39.5c1.2-28.1,8-54.7,18.6-80.5
	c10.4-25.2,24.5-47.9,41.6-69c16.1-19.9,34.5-37.2,56.2-51c13.9-8.8,28.4-16.1,44.3-20.4c3.1-0.8,7-1.4,9.9-0.4l5.3,2.2
	c-0.4,5.8-4,9.8-7.6,13.8c-17.2,18.9-28.9,40.8-34.2,65.8c-6.4,30.2-3.4,59.6,10,87.6c2.7,5.5,6.8,10.1,12.8,12.4l1-1.4
	c4.3-5.8,3.5-12.6,4.2-19.1c1.7-15.7,5-31,12.3-45.3c2.5-5,6-8.2,11.1-9.9l0.6,0.4c5,5.8,4.2,12.9,4.6,19.6
	c1,16.8,7.5,31.6,16.8,45.2c10.6,15.3,21.8,30.2,32.8,45.3c11.1,15.2,20.6,31.2,26.6,49.1c3.7,11.2,5.2,22.9,5.9,34.7
	c1.6,26.3-4.1,51.1-17.3,73.8c-12.6,21.7-28.8,38.6-47.9,51.4"/>
<g>
	<path class="st1" d="M289,303.2c0.2-0.4,0.2-0.8,0.1-1.2c-0.2-3.9-0.8-7.8-1.5-11.6c-1.5-7.2-3.6-14.2-6.7-21
		c-4.7-10.2-11.5-18.6-20.3-25.4c-5.6-4.4-12.1-7.4-18.7-9.9c-5.9-2.2-12-3.6-18.3-4.4c-5.8-0.8-11.6-1.1-17.4-0.9
		c-0.5,0-0.9-0.1-1.3,0.3l-0.3,0.1c-5.4,0.3-10.8,0.1-16.2,0.5c-1.6,0.1-3.2,0.4-4.7,1.1c-1.1,0.6-2.4,0.4-3.5,0.9l0.1,1
		c0.3,1.7,0.8,3.4,1.8,4.9c5,7.1,8.8,14.7,12.1,22.7c3.4,8.1,6,16.4,8.2,24.9c1.4,5.6,2.6,11.3,3.6,17.1c0.8,4.7,1.6,9.3,2.2,14
		c0.6,4.1,0.9,8.3,1.3,12.5c0.4,4.8,0.8,9.5,1.1,14.3c0.2,4.2,0.4,8.4,0.8,12.5l-0.1,0.3c-0.1,0.1-0.3,0.3-0.3,0.4c0,4,0,8-0.2,11.9
		l0.3,0.2c-2.7,0.3-5.4,1-8.1,1.6c-4.5,0.9-8.9,1.9-13.4,2.8c-0.9,0.2-1.2,0.4-1.2,1.3c0,20.6,0,41.2,0,61.8c0,0.2-0.1,0.4,0.4,0.7
		c2-0.5,4.2-1,6.4-1.5c4.6-0.9,9.2-2.2,13.9-2.9l3.5-0.2c0.2,0.5,0.1,1.1,0.1,1.6c0,19.6,0,39.1,0,58.7c0,1.1,0.2,1.8,1.3,2.4
		c2.3,1.3,4.5,2.8,6.7,4.2c0.7,0.5,1.5,0.8,2.2,0.8c2.8,0.3,5.7,0.3,8.5,0.6c2.9,0.3,5.9,0.3,8.9,0.8c1.4,0.2,2.8,0.1,4.3,0.3
		c6.2,0.6,12.4,0.8,18.6,0.2c2.3-0.2,4.7-0.2,7.1-0.3c6.1-0.3,12.3-0.5,18.4-0.9c1.8-0.1,3.5,0,5.3-0.3c1.4-0.2,2.3-1.2,3.4-2
		c2.3-1.7,4.7-3.3,7-5.1c0.8-0.6,0.8-1.1,0.8-1.8c-0.3-18.7-0.1-37.3-0.1-56c0-0.5-0.1-1.1,0.1-1.6l7.7,1.1c2,0.6,4.1,0.9,6.2,1.4
		c4.2,0.9,8.4,1.8,12.7,2.8c0-22,0-43.9,0-65.9c-0.6,0.1-1-0.3-1.5-0.4c-3.6-0.7-7.2-1.6-10.7-2.4c-2.3-0.5-4.6-1.3-6.9-1.7
		c-4.1-0.7-8.3-1.1-12.5-1.7c-2.3-0.3-4.7-0.4-6.9-1L289,303.2z"/>
	<path class="st2" d="M312.9,435.1c-4.2-1.3-8.6-1.4-12.8-2.3c-1.8-0.4-3.7-0.6-5.6-0.8c-2.3-0.2-4.4,0.7-6.6,1.2
		c-4.2,1-8.4,1.7-12.7,2.3c-6.7,0.9-13.3,1.3-20,1.1c-4.5-0.2-9-0.6-13.4-1.2c-3.5-0.5-6.9-1.1-10.3-1.8c-2.8-0.6-5.7-1.3-8.4-2.4"
		/>
	<path class="st2" d="M181.5,235.2c3.1,1.7,5.3,4.3,7.6,6.8c2.6,2.9,4.7,6.2,6.7,9.5c2.7,4.6,4.9,9.4,6.9,14.3
		c2.2,5.5,3.9,11.2,5.4,17c1,3.8,1.8,7.7,2.6,11.6c0.6,3,1.2,6,1.6,9c0.5,3.5,0.9,7,1.3,10.4c0.4,3.4,0.7,6.9,1,10.3
		c0.3,2.8,0.4,5.6,0.5,8.4c0.1,1.3,0.1,2.6,0.1,3.8c0,0.6,0,1.2,0.4,1.7"/>
	<path class="st1" d="M210.9,342.4c1.5-0.7,2.6-1.8,3.8-2.9c2.9-2.6,5.4-5.6,7.1-9.1c1.7-3.6,2.6-7.4,3.2-11.3
		c0.6-4.6-0.3-9-1.1-13.4c0.4,0,0.7-0.2,1.1-0.2c5.4,0.2,10.8-0.2,16.2-0.3c5.6-0.1,11.2,0,16.8-0.3c3.6-0.2,7.3,0,10.9-0.3
		c5-0.4,9.9,0,14.9-0.3c7.8-0.3,15.5-0.5,23.3-0.7c2.1-0.1,3.1,0.8,4.2,2.3c2.7,3.6,3.7,7.7,3.3,12.1c-0.4,4.1-2.1,7.7-4.2,11.2
		c-3.3,5.5-6.3,11.2-8,17.4c-0.6,2-0.7,4.1-0.2,6.2c0.6,2.8-0.9,5-2.5,7.1c-1.9,2.5-4.6,4.1-6.7,6.3c-0.3,0.3-1,0.3-1.5,0.3
		c-7.2,0-14.4,0.1-21.7-0.1c-3.7-0.1-7.5-0.1-11.2-0.1c-9-0.1-18.1-0.1-27.1-0.2c-2.7,0-5.4,0.5-8.1,0.8c-4,0.5-8,1.1-12.1,1.6"/>
	<path class="st2" d="M205,229.3c2.4,1.5,4.9,2.8,7.2,4.4c6.8,4.9,12.2,10.9,16.6,18c3.7,6,6.6,12.4,8.7,19.1
		c1.4,4.5,2.5,9,3.2,13.6c1,6,1.6,12,1.7,18.1c0,0.7,0.1,1.5,0.1,2.2"/>
	<path class="st2" d="M222.1,431.3c-0.2,0.6-0.1,1.3-0.1,1.9c0,21.5,0,43,0,64.6c0,0.6,0.1,1.2-0.1,1.8"/>
	<path class="st2" d="M245.1,235.8c-0.1,0.5,0.3,0.7,0.6,1c4.9,4.8,8,10.8,10.7,17c2.4,5.2,4.2,10.6,5.9,16.1
		c2.1,6.7,3.8,13.5,5.4,20.3c0.8,3.4,1.4,6.9,2.2,10.3c0.3,1.1,0.4,2.3,0.5,3.5"/>
	<path class="st2" d="M293.5,432.3c0,10.4,0.3,20.7,0.4,31.1c0.1,10.8,0.2,21.5,0.3,32.3c0,1.5-0.1,3,0.3,4.5"/>
	<path class="st2" d="M311.8,368.9c0,21.2,0,42.4,0,63.7c0,0.6,0.1,1.2-0.1,1.8"/>
	<path class="st2" d="M254.2,436.9c-0.2,0.5-0.1,1.1-0.1,1.6c0,21.3,0,42.5,0,63.8"/>
	<path class="st2" d="M291.8,425.8c-2.4-0.6-4.8-0.9-7.2-1.3c-2.6-0.4-5.2-0.8-7.8-1c-5.5-0.6-11.1-1.1-16.6-1.4
		c-4.6-0.2-9.2-0.3-13.9-0.2c-5.3,0.1-10.6,0.5-15.9,1.1c-0.6,0.1-1.3-0.1-1.9,0.3"/>
	<path class="st2" d="M208.2,369.4c0,20.4,0,40.8,0,61.2c0,0.5-0.1,1.1,0.1,1.6"/>
	<path class="st2" d="M292.1,366.6c0,19.2,0,38.3,0,57.5c0,2.6-0.1,5.2,0.1,7.8"/>
	<path class="st2" d="M228,366.4c0.2,0.5,0.1,1.1,0.1,1.6c0,17.8,0,35.6,0,53.3c0,2.3,0.1,4.6,0.1,6.9c0,1.7-0.1,1.7-1.9,1.9
		c-1.1,0.1-2.4-0.1-3.4,0.7"/>
	<path class="st1" d="M209.1,432.3c3.9-0.6,7.8-1,11.6-1.5c0.7-0.1,1.2,0.4,1.9,0.3"/>
	<path class="st2" d="M211.6,355.9c0.8,1.3,0.8,2.9,1.2,4.3c0.8,2.7,1.9,5.3,4.1,7.2"/>
</g>
</svg>
