<?xml version="1.0" encoding="utf-8"?>
<!-- Generator: Adobe Illustrator 19.2.1, SVG Export Plug-In . SVG Version: 6.00 Build 0)  -->
<svg version="1.1" id="Layer_1" xmlns="http://www.w3.org/2000/svg" xmlns:xlink="http://www.w3.org/1999/xlink" x="0px" y="0px"
	 viewBox="0 0 512 512" style="enable-background:new 0 0 512 512;" xml:space="preserve">
<style type="text/css">
	.st0{fill:none;stroke:#FF7F00;stroke-width:8;stroke-linecap:round;stroke-linejoin:round;stroke-miterlimit:10;}
	.st1{fill:#C89E05;}
	.st2{fill:#C79E06;}
	.st3{fill:#82672A;}
	.st4{fill:#C44411;}
	.st5{fill:#FAF8E2;}
	.st6{fill:#353739;}
	.st7{fill:#283036;}
	.st8{fill:#434A50;}
	.st9{fill:#8D949A;}
	.st10{fill:#AC7611;}
	.st11{fill:#E4BC46;}
	.st12{fill:#410400;}
	.st13{fill:#F8F8F5;}
</style>
<g>
	<path class="st0" d="M152.9,440.7c-19.4-13-36-30.3-48.8-52.4c-13.4-23.2-19.2-48.5-17.6-75.3c0.7-12,2.2-24,6-35.4
		c6.1-18.3,15.8-34.6,27.1-50.1c11.2-15.4,22.6-30.6,33.4-46.2c9.5-13.9,16.1-29,17.1-46.1c0.4-6.8-0.4-14.1,4.7-20l0.6-0.4
		c5.2,1.7,8.8,5,11.3,10.1c7.4,14.6,10.8,30.2,12.5,46.2c0.7,6.7-0.1,13.6,4.3,19.5l1,1.4c6.2-2.3,10.3-7,13.1-12.6
		c13.7-28.5,16.7-58.5,10.2-89.3c-5.4-25.5-17.4-47.8-34.9-67.1c-3.7-4.1-7.4-8.2-7.8-14.1l5.4-2.2c3-1,6.9-0.4,10.1,0.4
		c16.2,4.4,31,11.8,45.2,20.8c22.1,14.1,40.9,31.7,57.3,52c17.4,21.6,31.8,44.7,42.4,70.4c10.8,26.3,17.8,53.4,19,82.1
		c0.6,13.6-0.5,26.9-2.7,40.3c-1.4,8.5-4.9,16.6-1.8,25.3h2.4c5.1-0.7,9-3,12.2-7.2c12.2-16.3,18.3-34.7,21.4-54.5
		c0.6-4.1,2.2-8.2,3.9-12.1c1.2-2.7,1.5-4.8,1-7.9l0,0c5.5,2.6,10.3,11.3,12.5,17c5.9,14.9,9.7,30.2,11.2,46.2
		c1.7,16.5,0.8,32.8-2.5,49c-3.4,17.3-9.5,33.6-18,49c-13,23.4-29.9,43.2-50.6,58.9"/>
</g>
<g>
	<path class="st1" d="M204.4,441.7c-7,0-14,0-21.2,0c0-16,0-32,0-48.3c7.6-0.4,15.2-0.8,22.8-1.2c3.3-0.1,6.6-0.3,9.8-0.3
		c2.2,0,4.5,0.2,6.7,0.4c0,15.1,0,30.1,0,45.2c0,1.3-0.3,2.5-0.5,3.8c-2.3,0.1-4.6,0.3-6.9,0.4C211.5,441.7,208,441.7,204.4,441.7z"
		/>
	<path class="st2" d="M283.9,392.2c11.8,0.4,23.5,0.9,35.3,1.2c2.8,0.1,3.7,1,3.7,3.8c0.1,14.1,0.5,28.1,0.7,42.2
		c0,0.9-0.7,1.7-1,2.6c-0.2,0-0.4-0.1-0.6-0.1c-0.8,0-1.6,0-2.3,0c-10.1-0.2-20.1-0.4-30.2-0.6c-0.4,0.1-0.7,0.2-1.1,0.3
		c-1.3-0.1-2.6-0.3-3.9-0.4c-0.2-0.9-0.4-1.8-0.5-2.7c-0.2-7.5-0.5-14.9-0.5-22.4c-0.1-7.9,0-15.9,0-23.8
		C283.6,392.3,283.7,392.2,283.9,392.2z"/>
	<path class="st3" d="M204.4,441.7c3.6,0,7.1-0.1,10.7-0.1c2,0.2,3.9,0.3,5.9,0.6c1.2,0.2,2.3,1,3.5,1c5.2,0.1,10.4,0.1,15.6,0.1
		c-0.9,10.3-1.5,20.5-2.6,30.8c-1,9.7-3.9,18.9-7.4,28c-0.3,0-0.6,0.1-0.9,0.1c-7-0.8-14-1.7-21-2.5c-0.7-8.6-1.5-17.3-2-25.9
		C205.4,463.1,204.9,452.4,204.4,441.7z"/>
	<path class="st3" d="M222.5,392.3c-2.2-0.1-4.5-0.4-6.7-0.4c-3.3,0-6.6,0.2-9.8,0.3c-0.9-14.9-1.6-29.9-2.7-44.8
		c-1.1-15.3-7-29-15.7-41.5c-3.6-5.1-7.9-9.8-11.9-14.6c1.2-2.2,2.3-4.3,3.5-6.5c0.2,0,0.4,0,0.5,0c12.5,7.9,24.5,16.6,35.5,26.5
		c6.3,5.7,11.6,12.2,14.1,20.5c-4.6,0-9.3,0-14.3,0c1,2.4,1.9,4.1,2.4,5.8c2.4,7.4,2.2,14.3-3.8,20.2c-1.3,1.3-2.4,3-3.1,4.8
		c-2.6,6.8-0.9,13.1,2.8,19c1.7,2.7,4.1,3.9,7.6,3.8c5.6-0.2,11.3,0.2,16.9,0.4c0.2,2,0.4,4,0.6,6c-4,0-8.1,0.1-12.1,0.1
		C225,392,223.7,392.1,222.5,392.3z"/>
	<path class="st4" d="M237.8,385.8c-5.6-0.2-11.3-0.6-16.9-0.4c-3.5,0.1-5.9-1.1-7.6-3.8c-3.7-5.9-5.5-12.2-2.8-19
		c0.7-1.7,1.7-3.5,3.1-4.8c6-5.9,6.2-12.8,3.8-20.2c-0.5-1.7-1.4-3.3-2.4-5.8c5,0,9.7,0,14.3,0c13.2,0.2,26.4,0.3,39.6,0.5
		c0.4,0,0.7,0,1.1,0c12.7,0.2,25.4,0.5,38.1,0.6c2,0,3.1,0.5,4,2.4c3,6,3.6,12.1,1.4,18.3c-0.8,2.2-2.3,4.3-3.9,6.2
		c-6.6,7.8-5.5,19.1,2.5,25.3c0.1,0.1,0.2,0.3,0.7,1c-1.4,0.1-2.6,0.3-3.7,0.3c-8.5,0-17-0.1-25.5-0.1c-1.9,0-3.8-0.1-5.7-0.1
		C264.5,386.1,251.1,385.9,237.8,385.8z M217.6,333.6c0,0.3-0.1,0.5,0,0.7c0.1,0.3,0.2,0.5,0.3,0.8c3.9,9.2,3.3,17.6-4.1,25
		c-1.3,1.3-2.3,3.4-2.7,5.3c-1.1,5-0.1,9.8,2.6,14.2c1.7,2.9,3.9,4.3,7.5,4.3c23.2,0.1,46.5,0.5,69.7,0.8c6,0.1,12,0,18.2,0
		c-0.6-0.9-1.2-1.8-1.8-2.7c-4.2-6.2-5.4-16.9,1.3-23.5c6.2-6.1,5.5-13.6,2.8-21.2c-0.8-2.1-2-2.8-4.2-2.8
		c-20.7-0.2-41.3-0.6-62-0.8C236,333.6,226.8,333.6,217.6,333.6z"/>
	<path class="st5" d="M286.1,443.3c0.6,18.2,1.2,36.3,1.7,54.5c-1.6,1.4-3.3,2.8-4.9,4.2c-0.8-19.6-1.5-39.1-2.3-58.7
		C282.5,443.3,284.3,443.3,286.1,443.3z"/>
	<path class="st6" d="M282.9,502c1.6-1.4,3.3-2.8,4.9-4.2c1.1,5.5-1.8,9.2-7.3,9.2c-17.5-0.1-35.1-0.3-52.6-0.5
		c0.4-1.4,0.7-2.8,1.1-4.2c0.3,0,0.6-0.1,0.9-0.1c5.2,0,10.4,0.1,15.6,0.1C258.1,502.2,270.5,502.1,282.9,502z"/>
	<path class="st5" d="M269.9,332.4c-0.4,0-0.7,0-1.1,0c-0.5-1.2-0.8-2.5-1.4-3.5c-8.2-13.2-18.9-23.9-32.5-31.5
		c-16.3-9.2-34.7-12.9-52.1-19c0-0.1-0.1-0.2-0.1-0.2c0.1-0.7,0.2-1.3,0.3-2c14.8,5.1,29.7,10,44.4,15.4c8.6,3.2,16.2,8.4,22.9,14.8
		c7.6,7.4,15.2,14.7,19.3,24.8C269.6,331.5,269.7,332,269.9,332.4z"/>
	<path class="st4" d="M286.1,443.3c-1.8,0-3.6,0-5.5,0c-13.5,0-27.1,0-40.6,0.1c-5.2,0-10.4,0-15.6-0.1c-1.2,0-2.3-0.8-3.5-1
		c-1.9-0.3-3.9-0.4-5.9-0.6c2.3-0.1,4.6-0.3,6.9-0.4c1.6,0,3.2,0,4.8,0c0.7,0.1,1.5,0.2,2.2,0.2c16.7,0,33.5-0.1,50.2-0.2
		c1.8,0,3.5,0,5.3,0c1.3,0.1,2.6,0.3,3.9,0.4c0.4-0.1,0.7-0.2,1.1-0.3c10.1,0.2,20.1,0.4,30.2,0.6c-7,0.1-14,0-21,0.2
		C294.4,442.2,290.3,442.9,286.1,443.3z"/>
	<path class="st7" d="M179.1,284.8c-1.2,2.2-2.3,4.3-3.5,6.5c-2.6-3.6-6.1-5.6-10.4-6.5c-1.8-0.4-3.6-1.4-5.3-2.1
		c-2.4-1-2.8-2.8-1.6-4.9c0.9-1.6,1.9-3.1,2.8-4.7C167.1,277,173.1,280.9,179.1,284.8z"/>
	<path class="st8" d="M179.1,284.8c-6-3.9-12-7.8-18-11.6c1.2-2.1,2.4-4.2,3.6-6.3c5.5,4.6,11.2,8.6,17.9,11.2
		c0,0.1,0.1,0.2,0.1,0.3c-1,2.1-2.1,4.3-3.1,6.4C179.4,284.8,179.3,284.8,179.1,284.8z"/>
	<path class="st7" d="M229,502.2c-0.4,1.4-0.7,2.8-1.1,4.2c-6.2-0.7-12.5-1.3-18.6-2.3c-2.2-0.4-1.5-2.7-1.3-4.4
		C215,500.5,222,501.4,229,502.2z"/>
	<path class="st9" d="M182.6,278.1c-6.7-2.6-12.4-6.7-17.9-11.2c0.9-2.6,2.8-1.3,4.3-0.9c0.6,0.1,1.1,0.7,1.5,1.2
		c3.4,4,7.5,7,12.4,9C182.8,276.8,182.7,277.4,182.6,278.1z"/>
	<path class="st5" d="M277.9,386.3c1.9,0,3.8,0.1,5.7,0.1c0.1,2,0.2,3.9,0.3,5.9c-0.2,0-0.3,0.1-0.5,0.2c-1.8-0.2-3.7-0.4-5.5-0.6
		c0,0,0.1,0,0.1,0C277.9,389.9,277.9,388.1,277.9,386.3z"/>
	<path class="st4" d="M321.9,441.8c0.2,0,0.4,0.1,0.6,0.1C322.3,441.9,322.1,441.9,321.9,441.8z"/>
	<path class="st10" d="M226.8,441.2c-1.6,0-3.2,0-4.8,0c0.2-1.3,0.5-2.5,0.5-3.8c0-15.1,0-30.1,0-45.2c1.3-0.2,2.5-0.3,3.8-0.5
		c0,0.4-0.1,0.7-0.1,1.1c0,0.5,0,1.1,0,1.6C226.4,410.1,226.6,425.6,226.8,441.2z"/>
	<path class="st10" d="M277.9,391.8c1.8,0.2,3.7,0.4,5.5,0.6c0,7.9-0.1,15.9,0,23.8c0.1,7.5,0.3,14.9,0.5,22.4
		c0,0.9,0.3,1.8,0.5,2.7c-1.8,0-3.5,0-5.3,0c0-1,0-2,0-3c0-2.1-0.1-4.2-0.1-6.3C278.7,418.6,278.3,405.2,277.9,391.8z"/>
	<path class="st10" d="M289.5,441.3c-0.4,0.1-0.7,0.2-1.1,0.3C288.7,441.5,289.1,441.4,289.5,441.3z"/>
	<path class="st11" d="M240,443.4c13.5,0,27.1,0,40.6-0.1c0.8,19.6,1.5,39.1,2.3,58.7c-12.4,0.1-24.9,0.2-37.3,0.2
		c-5.2,0-10.4-0.1-15.6-0.1c3.5-9,6.4-18.3,7.4-28C238.5,463.9,239.1,453.6,240,443.4z"/>
	<path class="st12" d="M279.2,438.2c0,1,0,2,0,3c-16.7,0.1-33.5,0.1-50.2,0.2c-0.7,0-1.5-0.1-2.2-0.2c-0.2-15.6-0.4-31.1-0.6-46.7
		c0-0.5,0-1.1,0-1.6c0-0.4,0.1-0.7,0.1-1.1c4,0,8.1-0.1,12.1-0.1c13.2,0,26.4,0,39.6,0c0,0-0.1,0-0.1,0c0.4,13.4,0.8,26.8,1.2,40.2
		C279.1,434.1,279.2,436.2,279.2,438.2z"/>
	<path class="st11" d="M179.6,284.8c1-2.1,2.1-4.3,3.1-6.4c17.5,6.1,35.8,9.8,52.1,19c13.5,7.7,24.3,18.3,32.5,31.5
		c0.7,1.1,1,2.3,1.4,3.5c-13.2-0.2-26.4-0.3-39.6-0.5c-2.5-8.3-7.8-14.9-14.1-20.5C204.1,301.4,192.2,292.7,179.6,284.8z"/>
	<path class="st11" d="M278,391.7c-13.2,0-26.4,0-39.6,0c-0.2-2-0.4-4-0.6-6c13.4,0.2,26.7,0.3,40.1,0.5
		C277.9,388.1,277.9,389.9,278,391.7z"/>
	<path class="st13" d="M217.6,333.6c9.3,0,18.4-0.1,27.5,0c20.7,0.2,41.3,0.6,62,0.8c2.2,0,3.4,0.7,4.2,2.8
		c2.8,7.6,3.4,15.1-2.8,21.2c-6.7,6.6-5.5,17.3-1.3,23.5c0.6,0.9,1.2,1.8,1.8,2.7c-6.2,0-12.2,0.1-18.2,0
		c-23.2-0.3-46.5-0.6-69.7-0.8c-3.6,0-5.8-1.4-7.5-4.3c-2.7-4.4-3.7-9.2-2.6-14.2c0.4-1.9,1.3-3.9,2.7-5.3c7.4-7.4,8-15.8,4.1-25
		c-0.1-0.3-0.2-0.5-0.3-0.8C217.5,334.2,217.6,334,217.6,333.6z"/>
	<path class="st3" d="M226.2,392.9c0,0.5,0,1.1,0,1.6C226.2,394,226.2,393.4,226.2,392.9z"/>
	<path class="st4" d="M279.2,438.2c0-2.1-0.1-4.2-0.1-6.3C279.1,434.1,279.2,436.2,279.2,438.2z"/>
</g>
</svg>
