<?xml version="1.0" encoding="utf-8"?>
<!-- Generator: Adobe Illustrator 19.2.1, SVG Export Plug-In . SVG Version: 6.00 Build 0)  -->
<svg version="1.1" id="Layer_1" xmlns="http://www.w3.org/2000/svg" xmlns:xlink="http://www.w3.org/1999/xlink" x="0px" y="0px"
	 viewBox="0 0 512 512" style="enable-background:new 0 0 512 512;" xml:space="preserve">
<style type="text/css">
	.st0{fill:none;stroke:#FF7F00;stroke-width:8;stroke-linecap:round;stroke-linejoin:round;stroke-miterlimit:10;}
	.st1{fill:#FFFF33;stroke:#231F20;stroke-width:2;stroke-linecap:round;stroke-linejoin:round;stroke-miterlimit:10;}
	.st2{fill:none;stroke:#231F20;stroke-width:2;stroke-linecap:round;stroke-linejoin:round;stroke-miterlimit:10;}
</style>
<g>
	<path class="st0" d="M158.2,436.4c-20.7-15.7-37.6-35.5-50.6-58.9c-8.5-15.4-14.6-31.7-18-49c-3.3-16.2-4.2-32.5-2.5-49
		c1.5-16,5.3-31.3,11.2-46.2c2.2-5.7,7-14.4,12.5-17l0,0c-0.5,3.1-0.2,5.2,1,7.9c1.7,3.9,3.3,8,3.9,12.1
		c3.1,19.8,9.2,38.2,21.4,54.5c3.2,4.2,7.1,6.5,12.2,7.2h2.4c3.1-8.7-0.4-16.8-1.8-25.3c-2.2-13.4-3.3-26.7-2.7-40.3
		c1.2-28.7,8.2-55.8,19-82.1c10.6-25.7,25-48.8,42.4-70.4c16.4-20.3,35.2-37.9,57.3-52c14.2-9,29-16.4,45.2-20.8
		c3.2-0.8,7.1-1.4,10.1-0.4l5.4,2.2c-0.4,5.9-4.1,10-7.8,14.1c-17.5,19.3-29.5,41.6-34.9,67.1c-6.5,30.8-3.5,60.8,10.2,89.3
		c2.8,5.6,6.9,10.3,13.1,12.6l1-1.4c4.4-5.9,3.6-12.8,4.3-19.5c1.7-16,5.1-31.6,12.5-46.2c2.5-5.1,6.1-8.4,11.3-10.1l0.6,0.4
		c5.1,5.9,4.3,13.2,4.7,20c1,17.1,7.6,32.2,17.1,46.1c10.8,15.6,22.2,30.8,33.4,46.2c11.3,15.5,21,31.8,27.1,50.1
		c3.8,11.4,5.3,23.4,6,35.4c1.6,26.8-4.2,52.1-17.6,75.3c-12.8,22.1-29.4,39.4-48.8,52.4"/>
	<g>
		<path class="st1" d="M289.7,303c0.2-0.4,0.2-0.8,0.1-1.2c-0.2-4-0.8-8-1.5-11.8c-1.5-7.3-3.7-14.5-6.8-21.4
			c-4.8-10.4-11.7-19-20.7-25.9c-5.7-4.5-12.3-7.5-19.1-10.1c-6-2.2-12.2-3.7-18.7-4.5c-5.9-0.8-11.8-1.1-17.7-0.9
			c-0.5,0-0.9-0.1-1.3,0.3l-0.3,0.1c-5.5,0.3-11,0.1-16.5,0.5c-1.6,0.1-3.3,0.4-4.8,1.1c-1.1,0.6-2.4,0.4-3.6,0.9l0.1,1
			c0.3,1.7,0.8,3.5,1.8,5c5.1,7.2,9,15,12.3,23.1c3.5,8.3,6.1,16.7,8.4,25.4c1.4,5.7,2.7,11.5,3.7,17.4c0.8,4.8,1.6,9.5,2.2,14.3
			c0.6,4.2,0.9,8.5,1.3,12.7c0.4,4.9,0.8,9.7,1.1,14.6c0.2,4.3,0.4,8.6,0.8,12.7l-0.1,0.3c-0.1,0.1-0.3,0.3-0.3,0.4
			c0,4.1,0,8.2-0.2,12.1l0.3,0.2c-2.8,0.3-5.5,1-8.3,1.6c-4.6,0.9-9.1,1.9-13.7,2.9c-0.9,0.2-1.2,0.4-1.2,1.3c0,21,0,42,0,63
			c0,0.2-0.1,0.4,0.4,0.7c2-0.5,4.3-1,6.5-1.5c4.7-0.9,9.4-2.2,14.2-3l3.6-0.2c0.2,0.5,0.1,1.1,0.1,1.6c0,20,0,39.9,0,59.9
			c0,1.1,0.2,1.8,1.3,2.4c2.3,1.3,4.6,2.9,6.8,4.3c0.7,0.5,1.5,0.8,2.2,0.8c2.9,0.3,5.8,0.3,8.7,0.6c3,0.3,6,0.3,9.1,0.8
			c1.4,0.2,2.9,0.1,4.4,0.3c6.3,0.6,12.6,0.8,19,0.2c2.3-0.2,4.8-0.2,7.2-0.3c6.2-0.3,12.5-0.5,18.8-0.9c1.8-0.1,3.6,0,5.4-0.3
			c1.4-0.2,2.3-1.2,3.5-2c2.3-1.7,4.8-3.4,7.1-5.2c0.8-0.6,0.8-1.1,0.8-1.8c-0.3-19.1-0.1-38-0.1-57.1c0-0.5-0.1-1.1,0.1-1.6
			l7.9,1.1c2,0.6,4.2,0.9,6.3,1.4c4.3,0.9,8.6,1.8,13,2.9c0-22.4,0-44.8,0-67.2c-0.6,0.1-1-0.3-1.5-0.4c-3.7-0.7-7.3-1.6-10.9-2.4
			c-2.3-0.5-4.7-1.3-7-1.7c-4.2-0.7-8.5-1.1-12.7-1.7c-2.3-0.3-4.8-0.4-7-1L289.7,303z"/>
		<path class="st2" d="M314,437.5c-4.3-1.3-8.8-1.4-13.1-2.3c-1.8-0.4-3.8-0.6-5.7-0.8c-2.3-0.2-4.5,0.7-6.7,1.2
			c-4.3,1-8.6,1.7-13,2.3c-6.8,0.9-13.6,1.3-20.4,1.1c-4.6-0.2-9.2-0.6-13.7-1.2c-3.6-0.5-7-1.1-10.5-1.8c-2.9-0.6-5.8-1.3-8.6-2.4"
			/>
		<path class="st2" d="M180,233.6c3.2,1.7,5.4,4.4,7.7,6.9c2.7,3,4.8,6.3,6.8,9.7c2.8,4.7,5,9.6,7,14.6c2.2,5.6,4,11.4,5.5,17.3
			c1,3.9,1.8,7.9,2.7,11.8c0.6,3.1,1.2,6.1,1.6,9.2c0.5,3.6,0.9,7.1,1.3,10.6c0.4,3.5,0.7,7,1,10.5c0.3,2.9,0.4,5.7,0.5,8.6
			c0.1,1.3,0.1,2.7,0.1,3.9c0,0.6,0,1.2,0.4,1.7"/>
		<path class="st1" d="M210,342.9c1.5-0.7,2.7-1.8,3.9-3c3-2.7,5.5-5.7,7.2-9.3c1.7-3.7,2.7-7.5,3.3-11.5c0.6-4.7-0.3-9.2-1.1-13.7
			c0.4,0,0.7-0.2,1.1-0.2c5.5,0.2,11-0.2,16.5-0.3c5.7-0.1,11.4,0,17.1-0.3c3.7-0.2,7.4,0,11.1-0.3c5.1-0.4,10.1,0,15.2-0.3
			c8-0.3,15.8-0.5,23.8-0.7c2.1-0.1,3.2,0.8,4.3,2.3c2.8,3.7,3.8,7.9,3.4,12.3c-0.4,4.2-2.1,7.9-4.3,11.4
			c-3.4,5.6-6.4,11.4-8.2,17.7c-0.6,2-0.7,4.2-0.2,6.3c0.6,2.9-0.9,5.1-2.5,7.2c-1.9,2.5-4.7,4.2-6.8,6.4c-0.3,0.3-1,0.3-1.5,0.3
			c-7.3,0-14.7,0.1-22.1-0.1c-3.8-0.1-7.6-0.1-11.4-0.1c-9.2-0.1-18.5-0.1-27.6-0.2c-2.8,0-5.5,0.5-8.3,0.8
			c-4.1,0.5-8.2,1.1-12.3,1.6"/>
		<path class="st2" d="M204,227.6c2.4,1.5,5,2.9,7.3,4.5c6.9,5,12.4,11.1,16.9,18.4c3.8,6.1,6.7,12.6,8.9,19.5
			c1.4,4.6,2.5,9.2,3.3,13.9c1,6.1,1.6,12.2,1.7,18.5c0,0.7,0.1,1.5,0.1,2.2"/>
		<path class="st2" d="M221.4,433.6c-0.2,0.6-0.1,1.3-0.1,1.9c0,21.9,0,43.8,0,65.9c0,0.6,0.1,1.2-0.1,1.8"/>
		<path class="st2" d="M244.9,234.2c-0.1,0.5,0.3,0.7,0.6,1c5,4.9,8.2,11,10.9,17.3c2.4,5.3,4.3,10.8,6,16.4
			c2.1,6.8,3.9,13.8,5.5,20.7c0.8,3.5,1.4,7,2.2,10.5c0.3,1.1,0.4,2.3,0.5,3.6"/>
		<path class="st2" d="M294.2,434.6c0,10.6,0.3,21.1,0.4,31.7c0.1,11,0.2,21.9,0.3,32.9c0,1.5-0.1,3.1,0.3,4.6"/>
		<path class="st2" d="M312.9,370c0,21.6,0,43.2,0,65c0,0.6,0.1,1.2-0.1,1.8"/>
		<path class="st2" d="M254.2,439.3c-0.2,0.5-0.1,1.1-0.1,1.6c0,21.7,0,43.3,0,65.1"/>
		<path class="st2" d="M292.5,428c-2.4-0.6-4.9-0.9-7.3-1.3c-2.7-0.4-5.3-0.8-8-1c-5.6-0.6-11.3-1.1-16.9-1.4
			c-4.7-0.2-9.4-0.3-14.2-0.2c-5.4,0.1-10.8,0.5-16.2,1.1c-0.6,0.1-1.3-0.1-1.9,0.3"/>
		<path class="st2" d="M207.3,370.5c0,20.8,0,41.6,0,62.4c0,0.5-0.1,1.1,0.1,1.6"/>
		<path class="st2" d="M292.8,367.6c0,19.6,0,39.1,0,58.6c0,2.7-0.1,5.3,0.1,8"/>
		<path class="st2" d="M227.4,367.4c0.2,0.5,0.1,1.1,0.1,1.6c0,18.2,0,36.3,0,54.4c0,2.3,0.1,4.7,0.1,7c0,1.7-0.1,1.7-1.9,1.9
			c-1.1,0.1-2.4-0.1-3.5,0.7"/>
		<path class="st1" d="M208.2,434.6c4-0.6,8-1,11.8-1.5c0.7-0.1,1.2,0.4,1.9,0.3"/>
		<path class="st2" d="M210.7,356.7c0.8,1.3,0.8,3,1.2,4.4c0.8,2.8,1.9,5.4,4.2,7.3"/>
	</g>
</g>
</svg>
