<?xml version="1.0" encoding="utf-8"?>
<!-- Generator: Adobe Illustrator 19.2.1, SVG Export Plug-In . SVG Version: 6.00 Build 0)  -->
<svg version="1.1" id="Layer_1" xmlns="http://www.w3.org/2000/svg" xmlns:xlink="http://www.w3.org/1999/xlink" x="0px" y="0px"
	 viewBox="0 0 512 512" style="enable-background:new 0 0 512 512;" xml:space="preserve">
<style type="text/css">
	.st0{fill:#999999;}
</style>
<g>
	<path class="st0" d="M256,417.3c1.6-15.1,3.4-30.1,5.2-44.7c1.8-14.7,3.5-29.6,5.2-44.7h-41c-1.7,15.2-3.4,30.1-5.2,44.7
		c-1.8,14.7-3.5,29.6-5.2,44.7h-51.4c1.6-15.1,3.4-30.1,5.2-44.7c1.8-14.7,3.5-29.6,5.2-44.7h-43c1-8.6,2.1-16.9,3.2-24.9
		c1.2-8.1,2.1-16.2,2.7-24.5h43l5.4-43h-43l5.4-48.9h42.5c2.3-15.8,4.4-31.2,6.2-46.2c1.8-15,3.7-30.2,5.7-45.7h51.4l-11.9,91.9
		h41.5c1.6-15.8,3.5-31.2,5.4-46.2c2-15,4-30.2,5.9-45.7h51.4l-11.9,91.9H381c-1,8.2-1.8,16.4-2.5,24.5c-0.7,8.1-1.5,16.2-2.5,24.5
		h-47.4l-4.9,43h46.9c-1,8.2-2.1,16.4-3.2,24.5c-1.2,8.1-2.1,16.4-2.7,24.9h-46.9l-10.9,89.4H256z M236.2,235.5
		c-0.7,7.2-1.4,14.4-2.2,21.5c-0.8,7.1-1.7,14.3-2.7,21.5h41l4.9-43H236.2z"/>
</g>
<path class="st0" d="M256,506c-66.8,0-129.6-26-176.8-73.2C32,385.6,6,322.8,6,256c0-66.8,26-129.6,73.2-176.8
	C126.4,32,189.2,6,256,6c66.8,0,129.6,26,176.8,73.2C480,126.4,506,189.2,506,256c0,66.8-26,129.6-73.2,176.8
	C385.6,480,322.8,506,256,506z M256,48.9c-55.3,0-107.3,21.5-146.5,60.7C70.4,148.7,48.9,200.7,48.9,256
	c0,55.3,21.5,107.3,60.7,146.5c39.1,39.1,91.1,60.7,146.5,60.7c55.3,0,107.3-21.5,146.5-60.7s60.7-91.1,60.7-146.5
	c0-55.3-21.5-107.3-60.7-146.5C363.3,70.4,311.3,48.9,256,48.9z"/>
</svg>
