<?xml version="1.0" encoding="utf-8"?>
<!-- Generator: Adobe Illustrator 19.2.1, SVG Export Plug-In . SVG Version: 6.00 Build 0)  -->
<svg version="1.1" xmlns="http://www.w3.org/2000/svg" xmlns:xlink="http://www.w3.org/1999/xlink" x="0px" y="0px"
	 viewBox="0 0 360 360" style="enable-background:new 0 0 360 360;" xml:space="preserve">
<style type="text/css">
	.st0{fill:#00539B;}
	.st1{fill:#00A94F;}
</style>
<g id="LogoMark">
	<g>
		<path class="st0" d="M251.7,320.6c-4.1,0-8.3,0-12.4,0c-122-32.7-124.4-202.3-7.3-235c9,0,18,0,27,0
			C137,118.3,134.6,287.9,251.7,320.6z"/>
	</g>
	<g>
		<path class="st0" d="M279.3,330.7c-4.1,0-8.3,0-12.4,0c-122-32.7-124.4-202.3-7.3-235c9,0,18,0,27,0
			C164.6,128.4,162.1,298,279.3,330.7z"/>
	</g>
	<g>
		<path class="st0" d="M306.9,340.8c-4.1,0-8.3,0-12.4,0c-122-32.7-124.4-202.3-7.3-235c9,0,18,0,27,0
			C192.1,138.4,189.7,308,306.9,340.8z"/>
	</g>
	<path class="st1" d="M95.8,334.1c-2.1-2-4.1-4-6.2-5.9c22.6-89.8,9.5-175.8-31.3-239.2c7.6-7.2,15.1-14.5,22.7-21.7
		C120.7,146.5,126.9,242.5,95.8,334.1z"/>
	<path class="st1" d="M104.5,342.5c-2.1-2-4.1-4-6.2-5.9c34.5-92.4,31-192.4-8.2-277.9c7.6-7.2,15.1-14.5,22.7-21.7
		C150.8,138.2,147.4,248.1,104.5,342.5z"/>
	<path class="st1" d="M113.2,350.8c-2.1-2-4.1-4-6.2-6c46.3-95.1,52.5-209,14.8-316.6c7.6-7.2,15.1-14.5,22.7-21.7
		C181,129.9,167.9,253.7,113.2,350.8z"/>
</g>
<g id="Kitware">
</g>
</svg>
