<?xml version="1.0" encoding="utf-8"?>
<!-- Generator: Adobe Illustrator 19.2.1, SVG Export Plug-In . SVG Version: 6.00 Build 0)  -->
<svg version="1.1" id="Layer_1" xmlns="http://www.w3.org/2000/svg" xmlns:xlink="http://www.w3.org/1999/xlink" x="0px" y="0px"
	 viewBox="0 0 512 512" style="enable-background:new 0 0 512 512;" xml:space="preserve">
<style type="text/css">
	.st0{fill:#FF7F00;}
</style>
<g>
	<path class="st0" d="M92.8,417.6c-11.5,8.3-13.6,15.7-8.1,28.3c-1.9-0.5-3.3-0.6-4.7-1.2C36.7,427,10.7,395.3,6.6,348.6
		c-4.3-47.6,16.1-84.2,57.1-109c4.3-2.6,5.9-5.2,5.8-10c-0.4-10.6-0.2-21.2-0.1-31.9c0.1-11.9,5.5-17.2,17.3-17.3
		c8.3,0,16.7,0,25.4,0c0-7.6,0-14.7,0-21.9c-2.8-1.4-6.1-2.6-8.7-4.7c-6.3-5-8.8-11.5-7-19.6c1.5-6.4,3-12.7,4.6-19.1
		c4.1-16.5,14.7-22,30.8-16.3c4.1,1.5,13.3-1.3,15.5-4.8c0.6-1,0.3-2.7,0.2-4c-1.3-10.8,3.7-18.8,14-22.1c7.1-2.3,14.4-4.6,21.6-6.6
		c10-2.7,19.7,2.1,23.5,11.5c4,9.6,4,9.6,14.6,10.2c9.1-13.7,16.1-15.7,31.4-9.2c3.8,1.6,7.5,3.2,11.2,4.8
		c15,6.5,17.9,11.2,16.2,27.6c6.2,3.7,12.3,7.6,18.9,10.9c1.6,0.8,4.7,0.1,6.3-1c6.8-4.8,13.3-10.1,20-15.1
		c8.5-6.3,17.2-5.1,23.5,3.3c6.5,8.4,12.9,16.9,18.8,25.6c3.2,4.7,6.6,5.9,12,5.3c46.9-5.6,91.6,17.9,113.7,59.2
		c29.3,54.9,7.9,124.3-47.1,153.1c-2.7,1.4-5.7,2.4-8.6,3c-6.4,1.2-12.6-2.1-15.3-7.6c-2.7-5.6-1.5-12.7,3.3-16.8
		c2.9-2.5,6.2-4.8,9.4-6.6c38.1-22.1,52.5-70.5,32.5-109.6c-20.2-39.6-68.4-57.6-108.1-38.4c-41.9,20.1-59.1,61.4-44.8,103.6
		c13.8,40.7,57.5,63.7,99.1,53c1.6-0.4,3.2-0.8,4.4-1.1c0,5.4-1.3,11.1,0.4,15.9c1.6,4.6,6.2,8,10.1,12.8
		c-7.5,1.5-15.6,3.7-23.8,4.5c-68.1,6.7-125.6-45.9-125-114.2c0.1-15.9,3.4-31.2,10.2-45.6c1.7-3.6,1.7-6.1-0.9-9.3
		c-6.8-8.6-13.2-17.7-19.7-26.5c-7.2-9.9-6.2-17.4,3.6-24.6c6.2-4.6,12.4-9.1,19.4-14.3c-6.1-3.8-11.5-7.1-17.5-10.7
		c-8.9,9.4-18.8,8-29.1,2.8c-4-2-8.1-3.8-12.4-5.3c-7.7-2.9-12.6-7.9-14.2-16.2c-0.3-1.4-2.5-3.3-3.9-3.5c-2.9-0.2-7.1-0.5-8.4,1.2
		c-3.9,5-8.5,7.9-14.5,9.5c-6.1,1.7-12,4.5-18.2,5.3c-5.2,0.7-11.8,1-15.7-1.7c-6.6-4.6-10.5-2.4-15.2,1.6
		c2.7,13.9-2.9,26.5-6.8,39.1c-1.2,3.7-5.7,6.9-9.4,8.8c-3.6,1.8-4.8,3.6-4.5,7.2c0.3,5.1,0.1,10.1,0.1,16c9.6,0,18.8,0,27.9,0
		c13.8,0,18.7,4.9,18.7,18.9c0,10.2,0.2,20.4-0.1,30.6c-0.1,4.6,1.1,7.1,5.4,9.5c46.4,25.9,68.6,79.7,53.9,130.2
		c-14.7,50.4-62.1,84.5-114.3,81.7c-5.7-0.3-11.4-1.2-16.9-2.5c-7.8-1.9-12.1-8.2-11.2-15.9c0.9-7.2,6.4-12,14.4-12.2
		c12-0.4,24.2,0.7,35.8-1.3c38.7-6.6,67.1-42.4,66.7-82.3c-0.4-39.5-29.6-74.6-68.1-80.5c-49.4-7.5-84.3,20.5-95.3,58.8
		c-12.1,41.8,9.3,84.1,50.2,100.5C90.2,416.5,91.1,416.9,92.8,417.6z M124.6,147.7c7.3-8.7,6.3-21,10.3-32.6
		c-10.5,2.4-11.5,1.6-11.6-7.4c-6.8-1.3-10.4,0.5-12.1,6.6c-2.1,7.4-4,15-5.5,22.5c-0.9,4.8,1,8.5,4.4,9.7c3-2.9,5-5,7-6.9
		C119.4,142.1,121.6,144.5,124.6,147.7z M229.7,97.3c2.4,7.4,28.1,17.8,33.4,13.9c-1.2-3.5-2.3-6.6-3.3-9.6
		c3.3-0.8,6.6-1.6,10.5-2.6c0.3-3.5-1.7-6.7-5.8-8.5c-6.8-3.2-13.8-6.2-20.7-8.8c-4.8-1.9-8.8-0.7-11,2.3c2.4,3.6,4.1,6.1,5.8,8.6
		C235.6,94,232.7,95.6,229.7,97.3z M163.6,99.5c4.1,2.2,26.4-3.1,31.4-7.9c-1.8-2.6-4.9-5.2-4.7-7.3c0.2-2,4.1-3.6,6.7-5.7
		c-1.4-5.9-5.4-8.8-11.7-7.1c-7.4,2-14.8,4.3-22.1,6.7c-4.7,1.6-7,4.9-6.4,8.4c3.9,1.1,8.7,1.5,9,2.8
		C166.4,92.3,164.7,95.6,163.6,99.5z M303.2,138.2c1.2,1.3,1.8,2,2.5,2.7c4,4,9.2,6.8,8.8,14.1c-0.1,1.8,4.6,4.8,7.4,5.4
		c4.1,0.8,7.4-2.1,7.3-6.3c-0.1-2.9-2.2-7.6-4.2-8.1c-5.1-1.3-6.6-4.9-8.4-8.6c-1.1-2.1-2.2-4.1-3.5-6.5
		C309.8,133.6,306.8,135.8,303.2,138.2z M113,197.3c0.5,7.2,3.8,13.9-1.2,20.4c-1,1.3,1.6,7.1,4,8.6c2,1.3,7.1,0.2,8.8-1.7
		c1.7-1.9,2.3-7.3,0.9-9c-2.9-3.5-2.2-6.6-1.7-10.1c0.4-2.7,0.8-5.4,1.2-8.3C120.7,197.3,117.1,197.3,113,197.3z"/>
</g>
</svg>
