<?xml version="1.0" encoding="utf-8"?>
<!-- Generator: Adobe Illustrator 19.2.1, SVG Export Plug-In . SVG Version: 6.00 Build 0)  -->
<svg version="1.1" id="Layer_1" xmlns="http://www.w3.org/2000/svg" xmlns:xlink="http://www.w3.org/1999/xlink" x="0px" y="0px"
	 viewBox="0 0 512 512" style="enable-background:new 0 0 512 512;" xml:space="preserve">
<style type="text/css">
	.st0{fill:#FF7F00;}
</style>
<path class="st0" d="M92.8,419.9c-11.6,8.4-13.7,15.8-8.2,28.5c-1.9-0.5-3.3-0.6-4.7-1.2c-43.6-17.8-69.8-49.8-74-96.8
	c-4.3-48,16.2-84.8,57.5-109.8c4.3-2.6,5.9-5.2,5.8-10.1c-0.4-10.7-0.2-21.4-0.1-32.1c0.1-12,5.5-17.3,17.4-17.4
	c8.4,0,16.8,0,25.6,0c0-7.7,0-14.8,0-22.1c-2.8-1.4-6.1-2.6-8.8-4.7c-6.3-5-8.9-11.6-7.1-19.7c1.5-6.4,3-12.8,4.6-19.2
	c4.1-16.6,14.8-22.2,31-16.4c4.1,1.5,13.4-1.3,15.6-4.8c0.6-1,0.3-2.7,0.2-4c-1.3-10.9,3.7-18.9,14.1-22.3
	c7.2-2.3,14.5-4.6,21.8-6.6c10.1-2.7,19.8,2.1,23.7,11.6c4,9.7,4,9.7,14.7,10.3c9.2-13.8,16.2-15.8,31.6-9.3
	c3.8,1.6,7.6,3.2,11.3,4.8c15.1,6.5,18,11.3,16.3,27.8c6.2,3.7,12.4,7.7,19,11c1.6,0.8,4.7,0.1,6.3-1c6.9-4.8,13.4-10.2,20.2-15.2
	c8.6-6.3,17.3-5.1,23.7,3.3c6.5,8.5,13,17,18.9,25.8c3.2,4.7,6.6,5.9,12.1,5.3c47.3-5.6,92.3,18,114.6,59.7
	c29.5,55.3,8,125.2-47.5,154.3c-2.7,1.4-5.7,2.4-8.7,3c-6.4,1.2-12.7-2.1-15.4-7.7c-2.7-5.6-1.5-12.8,3.3-16.9
	c2.9-2.5,6.2-4.8,9.5-6.7c38.4-22.3,52.9-71,32.7-110.4c-20.4-39.9-68.9-58-108.9-38.7c-42.2,20.3-59.5,61.9-45.1,104.4
	c13.9,41,57.9,64.2,99.9,53.4c1.6-0.4,3.2-0.8,4.4-1.1c0,5.4-1.3,11.2,0.4,16c1.6,4.6,6.2,8.1,10.2,12.9c-7.6,1.5-15.7,3.7-24,4.5
	c-68.6,6.8-126.6-46.2-126-115.1c0.1-16,3.4-31.4,10.3-45.9c1.7-3.6,1.7-6.1-0.9-9.4c-6.9-8.7-13.3-17.8-19.8-26.7
	c-7.3-10-6.2-17.5,3.6-24.8c6.2-4.6,12.5-9.2,19.5-14.4c-6.1-3.8-11.6-7.2-17.6-10.8c-9,9.5-18.9,8.1-29.3,2.8
	c-4-2-8.2-3.8-12.5-5.3c-7.8-2.9-12.7-8-14.3-16.3c-0.3-1.4-2.5-3.3-3.9-3.5c-2.9-0.2-7.2-0.5-8.5,1.2c-3.9,5-8.6,8-14.6,9.6
	c-6.1,1.7-12.1,4.5-18.3,5.3c-5.2,0.7-11.9,1-15.8-1.7c-6.6-4.6-10.6-2.4-15.3,1.6c2.7,14-2.9,26.7-6.9,39.4c-1.2,3.7-5.7,7-9.5,8.9
	c-3.6,1.8-4.8,3.6-4.5,7.3c0.3,5.1,0.1,10.2,0.1,16.1c9.7,0,18.9,0,28.1,0c13.9,0,18.8,4.9,18.8,19c0,10.3,0.2,20.6-0.1,30.8
	c-0.1,4.6,1.1,7.2,5.4,9.6c46.8,26.1,69.1,80.3,54.3,131.2c-14.8,50.8-62.6,85.1-115.2,82.3c-5.7-0.3-11.5-1.2-17-2.5
	c-7.9-1.9-12.2-8.3-11.3-16c0.9-7.3,6.4-12.1,14.5-12.3c12.1-0.4,24.4,0.7,36.1-1.3c39-6.7,67.6-42.7,67.2-82.9
	c-0.4-39.8-29.8-75.2-68.6-81.1c-49.8-7.6-84.9,20.7-96,59.2c-12.2,42.1,9.4,84.7,50.6,101.3C90.2,418.8,91.1,419.2,92.8,419.9z
	 M124.8,147.9c7.4-8.8,6.3-21.2,10.4-32.8c-10.6,2.4-11.6,1.6-11.7-7.5c-6.9-1.3-10.5,0.5-12.2,6.7c-2.1,7.5-4,15.1-5.5,22.7
	c-0.9,4.8,1,8.6,4.4,9.8c3-2.9,5-5,7.1-7C119.6,142.3,121.8,144.7,124.8,147.9z M230.7,97.1c2.4,7.5,28.3,17.9,33.7,14
	c-1.2-3.5-2.3-6.6-3.3-9.7c3.3-0.8,6.6-1.6,10.6-2.6c0.3-3.5-1.7-6.8-5.8-8.6C259,87,252,84,245,81.3c-4.8-1.9-8.9-0.7-11.1,2.3
	c2.4,3.6,4.1,6.1,5.8,8.7C236.7,93.8,233.8,95.4,230.7,97.1z M164.1,99.4c4.1,2.2,26.6-3.1,31.6-8c-1.8-2.6-4.9-5.2-4.7-7.4
	c0.2-2,4.1-3.6,6.8-5.7c-1.4-5.9-5.4-8.9-11.8-7.2c-7.5,2-14.9,4.3-22.3,6.8c-4.7,1.6-7.1,4.9-6.4,8.5c3.9,1.1,8.8,1.5,9.1,2.8
	C167,92.1,165.2,95.4,164.1,99.4z M304.8,138.4c1.2,1.3,1.8,2,2.5,2.7c4,4,9.3,6.9,8.9,14.2c-0.1,1.8,4.6,4.8,7.5,5.4
	c4.1,0.8,7.5-2.1,7.4-6.3c-0.1-2.9-2.2-7.7-4.2-8.2c-5.1-1.3-6.6-4.9-8.5-8.7c-1.1-2.1-2.2-4.1-3.5-6.5
	C311.4,133.7,308.4,135.9,304.8,138.4z M113.2,197.9c0.5,7.3,3.8,14-1.2,20.6c-1,1.3,1.6,7.2,4,8.7c2,1.3,7.2,0.2,8.9-1.7
	c1.7-1.9,2.3-7.4,0.9-9.1c-2.9-3.5-2.2-6.6-1.7-10.2c0.4-2.7,0.8-5.4,1.2-8.4C120.9,197.9,117.3,197.9,113.2,197.9z"/>
</svg>
