<?xml version="1.0" encoding="utf-8"?>
<!-- Generator: Adobe Illustrator 19.2.1, SVG Export Plug-In . SVG Version: 6.00 Build 0)  -->
<svg version="1.1" id="Layer_1" xmlns="http://www.w3.org/2000/svg" xmlns:xlink="http://www.w3.org/1999/xlink" x="0px" y="0px"
	 viewBox="0 0 512 512" style="enable-background:new 0 0 512 512;" xml:space="preserve">
<style type="text/css">
	.st0{fill:none;stroke:#F0F0F0;stroke-miterlimit:10;}
	.st1{fill:none;stroke:#FFFFCC;stroke-miterlimit:10;}
</style>
<path vector-effect="non-scaling-stroke" class="st0" d="M240.5,188.9c-6.7-9.4-13.1-19.1-20-28.4c-5.5-7.5-11.2-15-17.9-21.4
	c-5.3-5.1-12-8.8-18.3-12.7c-11.5-7.2-17.8-17.1-17.4-31c0.2-5.8,1.5-7.6,7.5-7.5c7.3,0.1,14.6,1.2,21.9,1.4
	c2.4,0.1,5.3-0.6,7.2-1.9c7.9-5.8,16.6-7.8,26.3-7.1c14.9,1.2,28,6.9,40.2,14.9c9.2,6.1,18.5,11.9,27.1,18.8
	c7.9,6.3,15.1,13.5,22.1,20.9c11.2,11.9,22.3,23.9,33.5,35.9"/>
<path vector-effect="non-scaling-stroke" class="st0" d="M362.8,181.7c5.8,6.2,11.5,12.5,17.3,18.7c10.1,10.8,18,22.9,23.3,36.8
	c8.5,22.4,11.1,45.8,11.9,69.4c0.3,9,1.7,17.5,5.6,25.6c4.7,9.8,13.3,13.7,23.4,14.6c15.8,1.3,31.6,1.9,47.3,3.2
	c5.7,0.5,11.3,2.2,16.9,3.3c0,0.6,0,1.3,0,1.9c-4.5,1.5-8.9,3.8-13.6,4.5c-16.9,2.7-33.9,6.1-51.1,4c-16.7-2-33.2-5.3-46.3-16.7
	c-6.5-5.6-11.2-13.3-16.2-19.4c-4,4.9-8.5,11-13.7,16.4c-15.9,16.6-36,20.8-58.1,18.5c-10.1-1-20.3-1.5-30.4-1.8
	c-1.3,0-3.3,1.9-3.9,3.3c-5.1,12.2-14.8,18.4-27.2,20.7c-13.6,2.5-27.2,5.5-40.9,6.3c-18.5,1.1-37.2,0.3-56.3,0.3
	c0.9-4.3,3.6-6.1,7.4-6.8c17-2.9,34.1-5.6,51.1-8.6c13.1-2.3,22.4-10.1,29.6-21.2c-7.4-4.5-15.7-4.6-23.6-5
	c-27.9-1.5-55.9-2.3-83.8-3.1c-2.4-0.1-5.2,0.9-7.3,2.2C105,361.1,84.4,369.7,61.9,373c-10.9,2-22.2,2.1-33.5,3
	c-0.3-0.5-0.6-1-0.9-1.5c2.5-3.3,5.1-6.6,7.6-9.9c2.6-3.4,5.2-6.9,6.5-8.7c-10.6,1.5-23.8,3.5-37,5.4c-0.4-0.6-0.9-1.2-1.3-1.9
	c3.1-4.4,5.5-9.8,9.6-13c8.8-7,18.2-13.3,28-18.9c12.8-7.4,27.5-7.1,41.7-9.1c10.2-1.5,20.7-1.4,30-6.6c4.6-2.6,9.8-5,13-8.9
	c12.6-14.9,30.1-19.6,47.9-23.3c17-3.6,34.3-6.3,51.5-9c8.3-1.3,14.4-6.6,21.1-10.7c1.1-0.7,1.6-3.1,1.6-4.8
	c0.5-11.9,2.6-23.4,8.5-34c1.4-2.4,3.1-4.7,4.6-7c-0.6-0.7-1.2-1.4-1.8-2.1"/>
<path vector-effect="non-scaling-stroke" class="st1" d="M302.7,197c2-0.5,17.6-3.5,32.4-7.2c14.2-3.6,27.7-8.1,27.7-8.1l-10.1-10.9
	c0,0-11.8,4.1-24.3,7.4c-12.9,3.4-26.5,6.1-28.3,7"/>
<path vector-effect="non-scaling-stroke" class="st1" d="M259.1,194.2c-7.3-3.8-15.4-5-23.4-5.9c-3.5-0.4-5.8,1.9-6.3,5.7
	c-1.4,9.9,1.1,19,6.6,27.2c2.6,4,5,4.3,9,1.7c6.3-4,12-8.6,16.8-14.4"/>
<path vector-effect="non-scaling-stroke" class="st1" d="M274,205.7c7.5,2.8,15,4.9,23.1,5c3.1,0.1,4-1.2,4.8-3.2c1-2.2,1-4.6,1-7.1
	c-0.1-8-1.9-15.5-6.6-22.1c-2.5-3.6-4.7-4.7-9.5-1.7c-6.5,4.1-12.4,8.8-17.1,14.9"/>
<path vector-effect="non-scaling-stroke" class="st1" d="M259.8,203.9c2.5,5,8.4,6,12.6,2.2c0.1-0.1,0.3,0,0.4-0.1
	c2.7-4-0.5-7.6-0.8-11.5c-0.2-3.2-3.8-3.8-6.4-3.9c-2.9-0.1-5.1,1.7-6.7,4.1c-1,1.5-0.9,3.4-0.1,4.7c0.9,1.4,0.6,2.8,0.9,4.1"/>
<path vector-effect="non-scaling-stroke" class="st1" d="M281.3,189.7c-2.9,1.8-5.7,3.7-8.6,5.5"/>
<path vector-effect="non-scaling-stroke" class="st1" d="M258.1,198.7c-3.4-0.3-6.8-0.7-10.1-1"/>
<path vector-effect="non-scaling-stroke" class="st1" d="M273.9,200.1c2.2-0.2,4.3,1.1,6.5,0.2"/>
<path vector-effect="non-scaling-stroke" class="st1" d="M259.2,203.6c-2,0.8-3.3,3-5.7,3.1"/>
</svg>
