<?xml version="1.0" encoding="utf-8"?>
<!-- Generator: Adobe Illustrator 19.2.1, SVG Export Plug-In . SVG Version: 6.00 Build 0)  -->
<svg version="1.1" id="Layer_1" xmlns="http://www.w3.org/2000/svg" xmlns:xlink="http://www.w3.org/1999/xlink" x="0px" y="0px"
	 viewBox="0 0 512 512" style="enable-background:new 0 0 512 512;" xml:space="preserve">
<style type="text/css">
	.st0{fill:none;stroke:#F0F0F0;stroke-miterlimit:10;}
	.st1{fill:none;stroke:#FFFFCC;stroke-miterlimit:10;}
</style>
<g>
	<path vector-effect="non-scaling-stroke" class="st0" d="M160.2,191.6c11.1-11.9,22.1-23.8,33.2-35.5c6.9-7.3,14.1-14.4,21.9-20.7
		c8.5-6.8,17.7-12.6,26.8-18.6c12.1-7.9,25-13.6,39.8-14.7c9.6-0.7,18.2,1.3,26,7c1.9,1.3,4.8,2,7.1,1.9c7.2-0.2,14.4-1.3,21.7-1.4
		c5.9-0.1,7.2,1.7,7.4,7.4c0.4,13.8-5.8,23.6-17.2,30.7c-6.2,3.9-12.9,7.5-18.1,12.6c-6.6,6.3-12.3,13.8-17.7,21.2
		c-6.8,9.2-13.2,18.8-19.8,28.1"/>
	<path vector-effect="non-scaling-stroke" class="st0" d="M252.9,232.4c-0.6,0.7-1.2,1.4-1.8,2.1c1.5,2.3,3.2,4.6,4.6,6.9
		c5.8,10.5,7.9,21.9,8.4,33.7c0,1.7,0.5,4.1,1.6,4.8c6.6,4.1,12.7,9.3,20.9,10.6c17,2.7,34.1,5.3,51,8.9
		c17.6,3.7,34.9,8.3,47.4,23.1c3.2,3.9,8.3,6.2,12.9,8.8c9.2,5.1,19.6,5,29.7,6.5c14.1,2,28.6,1.7,41.3,9c9.7,5.5,19,11.8,27.7,18.7
		c4.1,3.2,6.4,8.5,9.5,12.9c-0.4,0.7-0.9,1.3-1.3,1.9c-13.1-1.9-26.1-3.9-36.6-5.3c1.3,1.8,3.9,5.2,6.4,8.6c2.5,3.3,5,6.5,7.5,9.8
		c-0.3,0.5-0.6,1-0.9,1.5c-11.2-0.9-22.4-1-33.2-3c-22.3-3.3-42.7-11.8-61.7-24c-2.1-1.3-4.8-2.3-7.2-2.2
		c-27.6,0.8-55.3,1.6-82.9,3.1c-7.8,0.4-16,0.5-23.4,4.9c7.1,11,16.3,18.7,29.3,21c16.8,3,33.7,5.6,50.6,8.5
		c3.8,0.7,6.4,2.5,7.3,6.7c-18.9,0-37.4,0.8-55.7-0.3c-13.6-0.8-27-3.8-40.5-6.2c-12.3-2.3-21.9-8.4-26.9-20.5
		c-0.6-1.4-2.6-3.3-3.9-3.3c-10,0.3-20.1,0.8-30.1,1.8c-21.9,2.3-41.8-1.9-57.5-18.3c-5.1-5.3-9.6-11.4-13.6-16.2
		c-4.9,6-9.6,13.7-16,19.2c-13,11.3-29.3,14.5-45.8,16.5c-17,2.1-33.8-1.3-50.6-4c-4.7-0.7-9-3-13.5-4.5c0-0.6,0-1.3,0-1.9
		c5.5-1.1,11.1-2.8,16.7-3.3c15.5-1.3,31.2-1.9,46.8-3.2c10-0.9,18.5-4.8,23.2-14.4c3.9-8,5.2-16.4,5.5-25.3
		c0.8-23.4,3.4-46.5,11.8-68.7c5.2-13.8,13.1-25.7,23.1-36.4c5.7-6.1,11.4-12.4,17.1-18.5"/>
	<path vector-effect="non-scaling-stroke" class="st1" d="M212.3,205.8c-1.8-0.9-15.2-3.6-28-6.9c-12.4-3.3-24-7.3-24-7.3l-10,10.8
		c0,0,13.4,4.5,27.4,8c14.6,3.7,30.1,6.6,32.1,7.1"/>
	<path vector-effect="non-scaling-stroke" class="st1" d="M250.2,228.9c4.8,5.7,10.4,10.3,16.6,14.3c4,2.6,6.3,2.3,8.9-1.7
		c5.4-8.1,7.9-17.1,6.5-26.9c-0.5-3.8-2.8-6-6.2-5.6c-7.9,0.9-15.9,2.1-23.2,5.8"/>
	<path vector-effect="non-scaling-stroke" class="st1" d="M242.3,212.1c-4.7-6-10.5-10.7-16.9-14.7c-4.8-3-6.9-1.9-9.4,1.7
		c-4.7,6.5-6.4,14-6.5,21.9c0,2.5,0,4.8,1,7c0.8,2,1.7,3.3,4.8,3.2c8-0.1,15.4-2.2,22.9-4.9"/>
	<path vector-effect="non-scaling-stroke" class="st1" d="M252.2,224c0.3-1.3,0-2.7,0.9-4.1c0.8-1.3,0.9-3.2-0.1-4.7
		c-1.6-2.4-3.8-4.2-6.6-4.1c-2.6,0.1-6.1,0.7-6.3,3.9c-0.3,3.9-3.5,7.4-0.8,11.4c0.1,0.1,0.3,0,0.4,0.1c4.2,3.8,10,2.8,12.5-2.2"/>
	<path vector-effect="non-scaling-stroke" class="st1" d="M239.4,215.7c-2.9-1.8-5.6-3.7-8.5-5.4"/>
	<path vector-effect="non-scaling-stroke" class="st1" d="M263.8,218.2c-3.3,0.3-6.6,0.7-10,1"/>
	<path vector-effect="non-scaling-stroke" class="st1" d="M231.8,220.8c2.2,0.9,4.3-0.4,6.4-0.2"/>
	<path vector-effect="non-scaling-stroke" class="st1" d="M258.4,227.1c-2.4-0.1-3.7-2.3-5.6-3.1"/>
</g>
</svg>
