<?xml version="1.0" encoding="utf-8"?>
<!-- Generator: Adobe Illustrator 19.2.1, SVG Export Plug-In . SVG Version: 6.00 Build 0)  -->
<svg version="1.1" id="Layer_1" xmlns="http://www.w3.org/2000/svg" xmlns:xlink="http://www.w3.org/1999/xlink" x="0px" y="0px"
	 viewBox="0 0 512 512" style="enable-background:new 0 0 512 512;" xml:space="preserve">
<style type="text/css">
	.st0{fill:none;stroke:#F0F0F0;stroke-miterlimit:10;}
	.st1{fill:none;stroke:#FFFFCC;stroke-miterlimit:10;}
</style>
<path vector-effect="non-scaling-stroke" class="st0" d="M159.1,170.8c11.2-12,22.3-24,33.5-35.9c7-7.4,14.2-14.6,22.1-20.9
	c8.6-6.9,17.9-12.7,27.1-18.8c12.2-8,25.3-13.7,40.2-14.9c9.7-0.7,18.4,1.3,26.3,7.1c1.9,1.3,4.8,2,7.2,1.9
	c7.3-0.2,14.6-1.3,21.9-1.4c6-0.1,7.3,1.7,7.5,7.5c0.4,13.9-5.9,23.8-17.4,31c-6.3,3.9-13,7.6-18.3,12.7
	c-6.7,6.4-12.4,13.9-17.9,21.4c-6.9,9.3-13.3,19-20,28.4"/>
<path vector-effect="non-scaling-stroke" class="st0" d="M252.8,212c-0.6,0.7-1.2,1.4-1.8,2.1c1.5,2.3,3.2,4.6,4.6,7
	c5.9,10.6,8,22.1,8.5,34c0,1.7,0.5,4.1,1.6,4.8c6.7,4.1,12.8,9.4,21.1,10.7c17.2,2.7,34.5,5.4,51.5,9c17.8,3.7,35.3,8.4,47.9,23.3
	c3.2,3.9,8.4,6.3,13,8.9c9.3,5.2,19.8,5.1,30,6.6c14.2,2,28.9,1.7,41.7,9.1c9.8,5.6,19.2,11.9,28,18.9c4.1,3.2,6.5,8.6,9.6,13
	c-0.4,0.7-0.9,1.3-1.3,1.9c-13.2-1.9-26.4-3.9-37-5.4c1.3,1.8,3.9,5.3,6.5,8.7c2.5,3.3,5.1,6.6,7.6,9.9c-0.3,0.5-0.6,1-0.9,1.5
	c-11.3-0.9-22.6-1-33.5-3c-22.5-3.3-43.1-11.9-62.3-24.2c-2.1-1.3-4.9-2.3-7.3-2.2c-27.9,0.8-55.9,1.6-83.8,3.1
	c-7.9,0.4-16.2,0.5-23.6,5c7.2,11.1,16.5,18.9,29.6,21.2c17,3,34.1,5.7,51.1,8.6c3.8,0.7,6.5,2.5,7.4,6.8c-19.1,0-37.8,0.8-56.3-0.3
	c-13.7-0.8-27.3-3.8-40.9-6.3c-12.4-2.3-22.1-8.5-27.2-20.7c-0.6-1.4-2.6-3.3-3.9-3.3c-10.1,0.3-20.3,0.8-30.4,1.8
	c-22.1,2.3-42.2-1.9-58.1-18.5c-5.2-5.4-9.7-11.5-13.7-16.4c-5,6.1-9.7,13.8-16.2,19.4c-13.1,11.4-29.6,14.7-46.3,16.7
	c-17.2,2.1-34.2-1.3-51.1-4c-4.7-0.7-9.1-3-13.6-4.5c0-0.6,0-1.3,0-1.9c5.6-1.1,11.2-2.8,16.9-3.3c15.7-1.3,31.5-1.9,47.3-3.2
	c10.1-0.9,18.7-4.8,23.4-14.6c3.9-8.1,5.3-16.6,5.6-25.6c0.8-23.6,3.4-47,11.9-69.4c5.3-13.9,13.2-26,23.3-36.8
	c5.8-6.2,11.5-12.5,17.3-18.7"/>
<path vector-effect="non-scaling-stroke" class="st1" d="M211.7,185.2c-1.8-0.9-15.4-3.6-28.3-7c-12.5-3.3-24.3-7.4-24.3-7.4
	L149,181.7c0,0,13.5,4.5,27.7,8.1c14.8,3.7,30.4,6.7,32.4,7.2"/>
<path vector-effect="non-scaling-stroke" class="st1" d="M250,208.5c4.8,5.8,10.5,10.4,16.8,14.4c4,2.6,6.4,2.3,9-1.7
	c5.5-8.2,8-17.3,6.6-27.2c-0.5-3.8-2.8-6.1-6.3-5.7c-8,0.9-16.1,2.1-23.4,5.9"/>
<path vector-effect="non-scaling-stroke" class="st1" d="M242.1,191.5c-4.7-6.1-10.6-10.8-17.1-14.9c-4.8-3-7-1.9-9.5,1.7
	c-4.7,6.6-6.5,14.1-6.6,22.1c0,2.5,0,4.9,1,7.1c0.8,2,1.7,3.3,4.8,3.2c8.1-0.1,15.6-2.2,23.1-5"/>
<path vector-effect="non-scaling-stroke" class="st1" d="M252.1,203.5c0.3-1.3,0-2.7,0.9-4.1c0.8-1.3,0.9-3.2-0.1-4.7
	c-1.6-2.4-3.8-4.2-6.7-4.1c-2.6,0.1-6.2,0.7-6.4,3.9c-0.3,3.9-3.5,7.5-0.8,11.5c0.1,0.1,0.3,0,0.4,0.1c4.2,3.8,10.1,2.8,12.6-2.2"/>
<path vector-effect="non-scaling-stroke" class="st1" d="M239.1,195.2c-2.9-1.8-5.7-3.7-8.6-5.5"/>
<path vector-effect="non-scaling-stroke" class="st1" d="M263.8,197.7c-3.3,0.3-6.7,0.7-10.1,1"/>
<path vector-effect="non-scaling-stroke" class="st1" d="M231.4,200.3c2.2,0.9,4.3-0.4,6.5-0.2"/>
<path vector-effect="non-scaling-stroke" class="st1" d="M258.3,206.7c-2.4-0.1-3.7-2.3-5.7-3.1"/>
</svg>
