<?xml version="1.0" encoding="utf-8"?>
<!-- Generator: Adobe Illustrator 19.2.1, SVG Export Plug-In . SVG Version: 6.00 Build 0)  -->
<svg version="1.1" id="Layer_1" xmlns="http://www.w3.org/2000/svg" xmlns:xlink="http://www.w3.org/1999/xlink" x="0px" y="0px"
	 viewBox="0 0 512 512" style="enable-background:new 0 0 512 512;" xml:space="preserve">
<style type="text/css">
	.st0{fill:#377EB8;}
</style>
<g>
	<path class="st0" d="M506,256c0,138.1-111.9,250-250,250S6,394.1,6,256S117.9,6,256,6S506,117.9,506,256z M256,37.2
		C135.2,37.2,37.2,135.2,37.2,256S135.2,474.8,256,474.8S474.8,376.8,474.8,256S376.8,37.2,256,37.2z"/>
	<g>
		<path class="st0" d="M202.6,171.1c-6.8-2.5-13.9-5.1-20.9-7.7c-7-2.6-14-5.3-20.9-7.7c1.9-6.2,4.7-13.8,8.4-22.5
			c3.7-8.8,9.2-17,16.4-24.8c7.2-7.8,16.6-14.5,28.1-19.9s26.3-8.2,44-8.2c13.1,0,25.4,2.5,36.8,7.5c11.4,5,21.3,11.7,29.5,20.1
			c8.3,8.4,14.8,18.3,19.7,29.5s7.2,23.1,7.2,35.6c0,17.8-4.1,33.5-12.4,46.9c-8.3,13.5-19.6,25.7-34,36.6c-4.1,2.8-8.6,6-13.6,9.4
			s-9.8,7.4-14.3,11.9c-4.5,4.5-8.4,9.7-11.5,15.4c-3.1,5.8-4.7,12.6-4.7,20.4v37.5h-48.7v-46.4c0-10.4,1.6-18.8,4.7-25.3
			s7.2-12.3,12.4-17.1c5.2-4.9,11-9.4,17.6-13.6c6.5-4.2,13.5-9,20.6-14.3c23.1-17.5,34.7-38,34.7-61.4c0-13.1-4-24-11.9-32.8
			c-8-8.8-18.7-13.1-32.1-13.1c-8.8,0-16.1,1-22.1,2.8c-6,1.9-11,4.6-15.2,8.2s-7.7,8.1-10.5,13.6
			C207.3,157.2,204.7,163.6,202.6,171.1z M235.9,431.9c-7.2,0-13.9-2.5-19.9-7.7c-6.1-5.2-9.2-12.1-9.2-20.9c0-8.1,3-15,9.2-20.6
			c6.1-5.7,12.7-8.4,19.9-8.4c6.8,0,13.3,2.8,19.2,8.4c6,5.7,8.9,12.5,8.9,20.6c0,8.8-2.9,15.7-8.9,20.9
			C249.2,429.2,242.7,431.9,235.9,431.9z"/>
	</g>
</g>
</svg>
