<?xml version="1.0" encoding="utf-8"?>
<!-- Generator: Adobe Illustrator 19.2.1, SVG Export Plug-In . SVG Version: 6.00 Build 0)  -->
<svg version="1.1" id="Layer_1" xmlns="http://www.w3.org/2000/svg" xmlns:xlink="http://www.w3.org/1999/xlink" x="0px" y="0px"
	 viewBox="0 0 512 512" style="enable-background:new 0 0 512 512;" xml:space="preserve">
<style type="text/css">
	.st0{fill:#999999;}
</style>
<g>
	<path class="st0" d="M10.2,279.7v-45.3c8.9-0.4,16.3-3.1,22.1-8.1c5.8-5,10.3-11.3,13.7-18.7c3.4-7.4,5.6-15.5,6.7-24.3
		c1.1-8.7,1.7-16.8,1.7-24.3V71.9c0-17.1,1.8-30.3,5.3-39.4c3.5-9.1,8.3-15.6,14.2-19.6c6-3.9,12.9-6,20.9-6.4
		c8-0.4,16.5-0.6,25.4-0.6h35.2v45.3h-25.1c-5.7,0-10.5,0.8-14.3,2.2c-3.8,1.5-6.8,4.4-9.1,8.7c-2.3,4.3-3.9,10.2-4.9,17.6
		c-1,7.5-1.4,17.1-1.4,29.1v72.1c0,11.5-1.2,21.5-3.6,29.9c-2.4,8.4-5.4,15.6-9.1,21.5c-3.7,6-7.5,10.9-11.6,14.8s-7.9,7-11.6,9.2
		c3.7,2.2,7.5,5.3,11.6,9.2s7.9,8.9,11.6,15.1c3.7,6.1,6.7,13.3,9.1,21.5c2.4,8.2,3.6,17.9,3.6,29.1v72.1c0,11.9,0.5,21.7,1.4,29.3
		c1,7.6,2.6,13.5,4.9,17.6c2.3,4.1,5.3,6.9,9.1,8.4c3.8,1.5,8.5,2.2,14.3,2.2h25.1V506h-35.2c-8.6,0-16.9-0.2-24.9-0.6
		c-8-0.4-15.1-2.5-21.2-6.4c-6.1-3.9-11-10.3-14.5-19.3c-3.5-8.9-5.3-22.2-5.3-39.7v-84.9c0-7.4-0.6-15.5-1.7-24.3
		c-1.1-8.7-3.4-16.8-6.7-24.3c-3.4-7.4-7.9-13.7-13.7-18.7C26.5,282.8,19.1,280.1,10.2,279.7z"/>
	<path class="st0" d="M501.8,234.5v45.3c-8.9,0.4-16.3,3.1-22.1,8.1c-5.8,5-10.2,11.3-13.4,18.7c-3.2,7.5-5.4,15.6-6.7,24.3
		c-1.3,8.8-2,16.9-2,24.3v84.9c0,17.5-1.8,30.7-5.3,39.7c-3.5,8.9-8.3,15.4-14.2,19.3c-6,3.9-12.9,6-20.9,6.4
		c-8,0.4-16.5,0.6-25.4,0.6h-35.2v-45.3h25.1c5.7,0,10.4-0.8,14.3-2.2c3.8-1.5,6.8-4.3,9.1-8.4c2.3-4.1,3.9-10,4.8-17.6
		c1-7.6,1.4-17.4,1.4-29.3v-72.1c0-11.2,1.2-20.9,3.6-29.3c2.4-8.4,5.4-15.5,9.1-21.5c3.7-6,7.6-10.9,11.9-14.8
		c4.2-3.9,8-7,11.3-9.2c-3.7-2.2-7.6-5.3-11.9-9.2c-4.2-3.9-8.1-8.8-11.6-14.8c-3.5-6-6.4-13.1-8.8-21.5c-2.4-8.4-3.6-18.3-3.6-29.9
		v-72.1c0-11.9-0.5-21.6-1.4-29.1c-1-7.4-2.6-13.3-4.8-17.6c-2.3-4.3-5.3-7.2-9.1-8.7c-3.8-1.5-8.6-2.2-14.3-2.2h-25.1V6h35.2
		c8.6,0,16.8,0.2,24.9,0.6c8,0.4,15.1,2.5,21.2,6.4c6.1,3.9,11,10.3,14.5,19.3c3.5,8.9,5.3,22.2,5.3,39.7v87.2
		c0,7.5,0.6,15.6,2,24.3c1.3,8.8,3.5,16.9,6.7,24.3c3.2,7.5,7.6,13.7,13.4,18.7C485.5,231.4,492.9,234.1,501.8,234.5z"/>
</g>
</svg>
