<?xml version="1.0" encoding="utf-8"?>
<!-- Generator: Adobe Illustrator 19.2.1, SVG Export Plug-In . SVG Version: 6.00 Build 0)  -->
<svg version="1.1" id="Layer_1" xmlns="http://www.w3.org/2000/svg" xmlns:xlink="http://www.w3.org/1999/xlink" x="0px" y="0px"
	 viewBox="0 0 512 512" style="enable-background:new 0 0 512 512;" xml:space="preserve">
<style type="text/css">
	.st0{fill:#4DAF4A;}
</style>
<path class="st0" d="M256,6C117.9,6,6,117.9,6,256s111.9,250,250,250s250-111.9,250-250S394.1,6,256,6z M251,340.4
	c-9.2,18.6-18.6,37.3-28.2,56.1c-10-18.8-19.5-37.5-28.5-56.1c-9-18.6-18.2-37.4-27.8-56.4h26c6.3,12.3,11.3,22.2,14.9,29.7
	c3.6,7.5,6.4,13.6,8.4,18.2c2,4.7,3.5,8.4,4.4,11.1c0.9,2.7,1.8,5.6,2.6,8.6c1-3,2-5.9,2.9-8.6c0.9-2.7,2.4-6.5,4.4-11.1
	c2-4.7,4.8-10.8,8.4-18.2c3.6-7.5,94.6-185.9,100.9-198.2H365C355.5,134.5,260.2,321.8,251,340.4z"/>
</svg>
