<?xml version="1.0" encoding="utf-8"?>
<!-- Generator: Adobe Illustrator 19.2.1, SVG Export Plug-In . SVG Version: 6.00 Build 0)  -->
<svg version="1.1" id="Layer_1" xmlns="http://www.w3.org/2000/svg" xmlns:xlink="http://www.w3.org/1999/xlink" x="0px" y="0px"
	 viewBox="0 0 512 512" style="enable-background:new 0 0 512 512;" xml:space="preserve">
<style type="text/css">
	.st0{fill:#4DAF4A;}
</style>
<path class="st0" d="M256,6C117.9,6,6,117.9,6,256s111.9,250,250,250s250-111.9,250-250S394.1,6,256,6z M272.6,355.9
	c-18.8,38.1-38.1,76.4-57.9,114.9c-20.5-38.6-39.9-76.9-58.4-114.9c-18.4-38.1-37.4-76.5-56.8-115.5h53.2
	c13,25.3,23.1,45.6,30.5,60.9c7.3,15.4,13.1,27.8,17.2,37.4c4.1,9.6,7.1,17.2,9,22.8c1.9,5.6,3.7,11.5,5.4,17.7c2-6.1,4-12,5.9-17.7
	c1.9-5.6,4.9-13.2,9-22.8c4.1-9.6,9.8-22,17.2-37.4c7.3-15.4,100-198.1,113-223.3h52.7C393,116.9,291.3,317.8,272.6,355.9z"/>
</svg>
