<?xml version="1.0" encoding="utf-8"?>
<!-- Generator: Adobe Illustrator 19.2.1, SVG Export Plug-In . SVG Version: 6.00 Build 0)  -->
<svg version="1.1" id="Layer_1" xmlns="http://www.w3.org/2000/svg" xmlns:xlink="http://www.w3.org/1999/xlink" x="0px" y="0px"
	 viewBox="0 0 512 512" style="enable-background:new 0 0 512 512;" xml:space="preserve">
<style type="text/css">
	.st0{fill:#999999;}
</style>
<g>
	<path vector-effect="non-scaling-stroke" class="st0" d="M213.7,511.7c-12.2-0.7-24.6-2.2-36.8-4.5c-10.1-1.5-16.1-8.4-16.1-17.6
		c-0.7-28.4,2.4-45.3,28.4-55.2c4.5-1.5,8.4-3,13-5.3l14-6.2c9.2-4.5,11.5-19.1,5.3-26.7c-0.7-1.5-3.1-1.5-5.3-2.4
		c-11.5-3.8-22.9-7-34.4-10.8c-6-2.4-11.5-7.7-13.7-15.4c17.6-2.4,22.2-15.4,25.3-29.1c2.4-11.5,3.8-23.8,7-35.1
		c6-23.8,19.1-42.1,45.3-47.5c32.3-7,64.3,15.4,68.2,48.2c1.5,10.8,2.4,21.4,3.8,32.3c3,15.6,9.9,27.9,27.4,33.9
		c-4.5,4.5-7.7,9.9-12.2,12.2c-10.8,4.5-21.4,9.2-32.3,11.5c-7.7,1.5-10.8,4.5-12.2,11.5c-1.5,7,1.5,14.5,7.7,17.6
		c4.5,2.4,9.2,4.5,13.7,6c4.5,2.4,8.4,3.8,13,5.3c26,9.9,29.1,26.7,28.4,55.2c0,9.2-6,16.1-16.1,17.6c-12.2,2.4-24.6,3.8-36.8,4.5
		c-15.4,0.7-31.3,0-48.2,0H213.7z"/>
	<g>
		<path class="st0" d="M412.9,432.6H393c-9.5,0-17.2-7.7-17.2-17.2s7.7-17.2,17.2-17.2h19.8l0-187.5l-313.7,0l0,187.5l19.8,0
			c9.5,0,17.2,7.7,17.2,17.2s-7.7,17.2-17.2,17.2H99.1c-18.9,0-34.3-15.4-34.3-34.3V210.7c0-18.9,15.4-34.3,34.3-34.3h313.7
			c18.9,0,34.3,15.4,34.3,34.3v187.5C447.2,417.2,431.8,432.6,412.9,432.6z"/>
		<path class="st0" d="M360.8,210.7c-9.5,0-17.2-7.7-17.2-17.2V122c0-48.3-39.3-87.7-87.7-87.7c-48.3,0-87.7,39.3-87.7,87.7v71.6
			c0,9.5-7.7,17.2-17.2,17.2s-17.2-7.7-17.2-17.2V122C134,54.7,188.7,0,256,0s122,54.7,122,122v71.6
			C378,203.1,370.3,210.7,360.8,210.7z"/>
	</g>
</g>
</svg>
