<?xml version="1.0" encoding="utf-8"?>
<!-- Generator: Adobe Illustrator 19.2.1, SVG Export Plug-In . SVG Version: 6.00 Build 0)  -->
<svg version="1.1" id="Layer_1" xmlns="http://www.w3.org/2000/svg" xmlns:xlink="http://www.w3.org/1999/xlink" x="0px" y="0px"
	 viewBox="0 0 512 512" style="enable-background:new 0 0 512 512;" xml:space="preserve">
<style type="text/css">
	.st0{fill:#999999;}
</style>
<g>
	<path class="st0" d="M500.2,65.8c0.1,16.6-5.8,29.5-14.7,41.8c-10,13.9-19.4,28.4-27.9,43.4c-8.8,15.8-8.8,33.5-7.2,51
		c0.9,11.2,3.1,22.4,4.7,33.5c4.7,32.4-18.1,62.5-51.7,68.6c-30.8,5.5-62.7-16.5-69-47.7c-3.9-19.8,1.2-37,13.3-53.2
		c10.2-13.8,19.3-28.5,27.6-43.5c9.9-18.2,7.9-38.4,6.4-58.3c-0.9-11.4-3.5-22.8-3.6-34.2c-0.5-32.7,24.2-58.4,58.3-61.1
		c29.9-2.5,58.7,20.9,63.3,51.6C500.1,60.8,500.1,64,500.2,65.8z M366.3,243.2c0,15.5,12.5,28.3,27.6,28.3c15.9,0,28.4-12.5,28.4-28
		c-0.1-15.4-12.7-28-27.9-27.9C378.8,215.5,366.3,228,366.3,243.2z M467,67.7c0.1-15.9-12.2-28.4-28-28.3c-15.4,0-28,12.6-28,27.9
		c0,15.4,13,28.4,28.5,28.1C454.6,95.3,466.9,82.8,467,67.7z"/>
	<path class="st0" d="M173.8,387.2c-7.4,28.9-1.5,54,15.3,75.7c-11.2,2.3-23.4,2.9-34,7.4c-16.2,7-32,15.5-46.7,25.2
		c-36.8,23.8-84.6,5.6-95-37.1c-8.8-36.3,19.3-73.9,56.7-74.1c12.9,0,25.8,3.9,38.7,5.9c18.3,2.8,36.7,5.9,55,0.5
		C166.9,389.6,170,388.6,173.8,387.2z M73.5,416.9c-15.9,0-28.5,12.2-28.7,27.9c-0.1,15.1,12.7,28,28,28.1
		c15.4,0.1,28-12.3,28.1-27.7C101.1,429.5,88.9,416.9,73.5,416.9z"/>
	<path class="st0" d="M318.9,277.8c-5.4-0.8-10-1.9-14.7-2.3c-18.3-1.5-35.6,3.2-52.9,8.6c-10.2,3.2-20.2,7.5-30.7,9.5
		c-33.3,6.2-66.8-21.7-68.8-55.7c-2-32.3,20.1-59.5,49.8-64.8c14.5-2.5,28.3-0.1,41.4,6.7c18.9,9.9,38.4,18.3,60,20.8
		c6.4,0.8,13.1,0.1,20.4,0.1C309.4,225.6,307.9,251.1,318.9,277.8z M213.4,205.3c-15.4-0.3-28.1,11.8-28.4,26.8
		c-0.3,15.9,11.7,28.7,27.3,29.2c15,0.4,28.3-12.3,28.5-27.6C241.2,218.5,228.8,205.6,213.4,205.3z"/>
	<path class="st0" d="M191.9,313c27.3,9.1,50.9-3.2,75.7-11.8c0.5,3.6,0.8,6.4,1.3,9.2c4,18.9,14.2,34.8,24.6,50.6
		c4,6.2,8.8,11.9,12.5,18.3c21.8,38.6-0.7,85-44.5,91.9c-41.7,6.6-77.4-32.9-68-74.5c4.8-21,7.1-42.5,3.7-64
		C196.5,326.4,194.1,320.4,191.9,313z M281.4,410.8c0.1-15.5-12.1-28.1-27.5-28.4c-15.8-0.3-28.4,12.1-28.7,27.9
		c-0.3,15.1,12.5,28,27.7,28.1C268.4,438.6,281.3,426.1,281.4,410.8z"/>
</g>
</svg>
