<?xml version="1.0" encoding="utf-8"?>
<!-- Generator: Adobe Illustrator 19.2.1, SVG Export Plug-In . SVG Version: 6.00 Build 0)  -->
<svg version="1.1" id="Layer_1" xmlns="http://www.w3.org/2000/svg" xmlns:xlink="http://www.w3.org/1999/xlink" x="0px" y="0px"
	 viewBox="0 0 512 512" style="enable-background:new 0 0 512 512;" xml:space="preserve">
<style type="text/css">
	.st0{fill:#999999;}
</style>
<g>
	<path class="st0" d="M436.4,353.8c-3.2,0-6.4-0.2-9.7-0.6c-9.1-1-15.5-9.3-14.5-18.2c1-9.1,9.3-15.5,18.2-14.5
		c21.8,2.6,37.7-8.6,44.8-31.5c5.4-17.2,5.2-33-0.1-47.1s-15.9-25.7-31.1-34.6c-11.1-6.4-28-16.2-28-42.2v-0.1
		c0.2-28.6-7.5-52.9-22.7-72.4c-15.2-19.3-37.3-33-65.5-40.4c-56.7-14.8-124.5,17.9-145.4,70c-0.1,2,1.3,7.1,2.2,10.3
		c0.9,3.4,2,6.9,2.6,10.7c1.5,9-4.4,17.5-13.4,19c-9,1.5-17.5-4.4-19-13.4c-0.4-2.2-1.1-4.7-1.9-7.5c-2.5-9.1-5.6-20.2-1-31.2
		c27-67.8,111.4-108.9,184.3-89.9c34.8,9.2,63.5,27.2,83,52c19.8,25.1,30.1,57.2,29.7,92.8c0,6,0.8,7.4,11.5,13.7
		c21.7,12.6,37.4,30.4,45.4,51.4c8,20.9,8.2,44.7,0.8,68.6C495.9,333.4,469.5,353.8,436.4,353.8z M182.4,121.9L182.4,121.9z"/>
	<path class="st0" d="M67.3,355.1c-8.5,0-18.4-2-27.9-10.1l-0.1-0.1C9.5,318.7-14,272.8,9.9,222.5c7.7-16.3,25.7-54.5,70.4-54.5
		c9.1,0,16.5,7.4,16.5,16.5c0,9.1-7.4,16.5-16.5,16.5c-17.5,0-28.2,9.4-40.6,35.7c-20.2,42.4,11.1,74.6,21.3,83.6
		c2.9,2.5,5.5,2.5,14.4,1.2c4.2-0.5,9-1.1,14.1-1c9.1,0.3,16.3,7.9,16,17s-7.9,16.2-17,16c-2.5-0.1-5.5,0.3-8.7,0.7
		C76.1,354.5,71.9,355.1,67.3,355.1z"/>
	<path class="st0" d="M67.4,198.9c-9.1,0-16.5-7.4-16.5-16.5c0-1.4,0.1-2.7,0.1-3.8c0-0.7,0.1-1.6,0.1-2.1
		c-5.5-25.3-0.8-48.5,12.9-65.3C77.8,94.4,99.8,85.5,125.9,86h0.1c11.6,0.3,20.4,4.9,27.5,8.7c4.7,2.5,8.4,4.4,11.8,4.6
		c9.1,0.5,16,8.3,15.4,17.4c-0.5,9.1-8.3,16-17.4,15.4c-10.4-0.6-18.6-4.9-25.1-8.4c-5.7-3-9.3-4.7-13-4.9
		c-16-0.3-28.3,4.3-35.6,13.3c-7.3,9-9.5,22.4-6,38.1c0.1,0.3,0.1,0.6,0.2,0.8c0.6,3.4,0.4,6.6,0.3,9.1c0,0.8-0.1,1.6-0.1,2.3
		C83.9,191.5,76.5,198.9,67.4,198.9z"/>
	<path vector-effect="non-scaling-stroke" class="st0" d="M206.3,472.9c-14.4-0.8-28.9-2.6-43.3-5.4c-11.8-1.7-18.9-9.9-18.9-20.7
		c-0.8-33.4,2.8-53.3,33.4-64.9c5.4-1.7,9.9-3.5,15.3-6.3l16.5-7.3c10.8-5.4,13.6-22.4,6.3-31.5c-0.8-1.7-3.7-1.7-6.3-2.8
		c-13.6-4.5-27-8.2-40.6-12.8c-7.1-2.8-13.6-9.1-16.2-18.1c20.7-2.8,26.1-18.1,29.7-34.3c2.8-13.6,4.5-28,8.2-41.4
		c7.1-28,22.4-49.6,53.3-55.9c38-8.2,75.8,18.1,80.3,56.7c1.7,12.8,2.8,25.2,4.5,38c3.5,18.3,11.6,32.8,32.3,39.9
		c-5.4,5.4-9.1,11.6-14.4,14.4c-12.8,5.4-25.2,10.8-38,13.6c-9.1,1.7-12.8,5.4-14.4,13.6c-1.7,8.2,1.7,17.1,9.1,20.7
		c5.4,2.8,10.8,5.4,16.2,7.1c5.4,2.8,9.9,4.5,15.3,6.3c30.7,11.6,34.3,31.5,33.4,64.9c0,10.8-7.1,18.9-18.9,20.7
		c-14.4,2.8-28.9,4.5-43.3,5.4c-18.1,0.8-36.8,0-56.7,0H206.3z"/>
</g>
</svg>
