<?xml version="1.0" encoding="utf-8"?>
<!-- Generator: Adobe Illustrator 19.2.1, SVG Export Plug-In . SVG Version: 6.00 Build 0)  -->
<svg version="1.1" id="Layer_1" xmlns="http://www.w3.org/2000/svg" xmlns:xlink="http://www.w3.org/1999/xlink" x="0px" y="0px"
	 viewBox="0 0 25 150" style="enable-background:new 0 0 25 150;" xml:space="preserve">
<style type="text/css">
	.st0{fill:#FFFFFF;}
	.st1{fill:none;stroke:#666666;stroke-miterlimit:10;}
	.st2{fill:#FFFFFF;stroke:#666666;stroke-miterlimit:10;}
	.st3{fill:none;stroke:#000000;stroke-miterlimit:10;}
</style>
<g>
	<path class="st0" d="M5.6,63.9l5.1,5.1c0.9,0.9,2.4,0.9,3.3,0l5.1-5.1c0.9-0.9,0.9-2.4,0-3.3l-5.1-5c-0.9-0.9-2.4-0.9-3.3,0
		l-5.1,5.1C4.7,61.5,4.7,63,5.6,63.9z"/>
	<path class="st1" d="M5.6,63.9l5.1,5.1c0.9,0.9,2.4,0.9,3.3,0l5.1-5.1c0.9-0.9,0.9-2.4,0-3.3l-5.1-5c-0.9-0.9-2.4-0.9-3.3,0
		l-5.1,5.1C4.7,61.5,4.7,63,5.6,63.9z"/>
</g>
<g>
	<path class="st0" d="M5.6,88.6l5.1,5.1c0.9,0.9,2.4,0.9,3.3,0l5.1-5.1c0.9-0.9,0.9-2.4,0-3.3L14,80.2c-0.9-0.9-2.4-0.9-3.3,0
		l-5.1,5.1C4.6,86.3,4.6,87.7,5.6,88.6z"/>
	<path class="st1" d="M5.6,88.6l5.1,5.1c0.9,0.9,2.4,0.9,3.3,0l5.1-5.1c0.9-0.9,0.9-2.4,0-3.3L14,80.2c-0.9-0.9-2.4-0.9-3.3,0
		l-5.1,5.1C4.6,86.3,4.6,87.7,5.6,88.6z"/>
</g>
<g>
	<path class="st2" d="M4.8,29.3h15c0.6,0,1,0.7,0.8,1.2l-7.5,15c-0.3,0.6-1.2,0.6-1.5,0l-7.5-15C3.8,29.9,4.2,29.3,4.8,29.3z"/>
	<path d="M9.2,32.1h6.3c0.3,0,0.4,0.3,0.3,0.5l-3.2,6.3c-0.1,0.3-0.5,0.3-0.6,0l-3.2-6.3C8.7,32.4,8.9,32.1,9.2,32.1z"/>
</g>
<g>
	<path d="M9.5,62.9l2.2,2.2c0.4,0.4,0.9,0.4,1.3,0l2.2-2.2c0.4-0.4,0.4-0.9,0-1.3L13,59.4c-0.4-0.4-0.9-0.4-1.3,0l-2.2,2.2
		C9.1,62,9.1,62.6,9.5,62.9z"/>
</g>
<g>
	<path class="st2" d="M19.9,21.3h-15c-0.6,0-1-0.7-0.8-1.2l7.5-15c0.3-0.6,1.2-0.6,1.5,0l7.5,15C20.9,20.7,20.5,21.3,19.9,21.3z"/>
	<path d="M15.5,18.5H9.2c-0.3,0-0.4-0.3-0.3-0.5l3.2-6.3c0.1-0.3,0.5-0.3,0.6,0l3.2,6.3C15.9,18.2,15.7,18.5,15.5,18.5z"/>
</g>
<g>
	<path class="st2" d="M19.9,121.8h-15c-0.6,0-1-0.7-0.8-1.2l7.5-15c0.3-0.6,1.2-0.6,1.5,0l7.5,15C20.9,121.2,20.5,121.8,19.9,121.8z
		"/>
	<path class="st3" d="M15.5,119H9.2c-0.3,0-0.4-0.3-0.3-0.5l3.2-6.3c0.1-0.3,0.5-0.3,0.6,0l3.2,6.3C15.9,118.8,15.7,119,15.5,119z"
		/>
</g>
<g>
	<path class="st2" d="M4.8,130.3h15c0.6,0,1,0.7,0.8,1.2l-7.5,15c-0.3,0.6-1.2,0.6-1.5,0l-7.5-15C3.8,130.9,4.2,130.3,4.8,130.3z"/>
	<path class="st3" d="M9.2,133.1h6.3c0.3,0,0.4,0.3,0.3,0.5l-3.2,6.3c-0.1,0.3-0.5,0.3-0.6,0l-3.2-6.3C8.8,133.4,9,133.1,9.2,133.1z
		"/>
</g>
</svg>
