<?xml version="1.0" encoding="utf-8"?>
<!-- Generator: Adobe Illustrator 19.2.1, SVG Export Plug-In . SVG Version: 6.00 Build 0)  -->
<svg version="1.1" id="Layer_1" xmlns="http://www.w3.org/2000/svg" xmlns:xlink="http://www.w3.org/1999/xlink" x="0px" y="0px"
	 viewBox="0 0 25 150" style="enable-background:new 0 0 25 150;" xml:space="preserve">
<style type="text/css">
	.st0{fill:#FFFFFF;}
	.st1{fill:none;stroke:#666666;stroke-miterlimit:10;}
	.st2{fill:#FFFFFF;stroke:#666666;stroke-miterlimit:10;}
	.st3{fill:none;stroke:#000000;stroke-miterlimit:10;}
</style>
<g>
	<path class="st0" d="M7.8,14.1l3.4,3.4c0.6,0.6,1.6,0.6,2.2,0l3.4-3.4c0.6-0.6,0.6-1.6,0-2.2l-3.4-3.4c-0.6-0.6-1.6-0.6-2.2,0
		l-3.4,3.4C7.1,12.5,7.1,13.5,7.8,14.1z"/>
	<path class="st1" d="M7.8,14.1l3.4,3.4c0.6,0.6,1.6,0.6,2.2,0l3.4-3.4c0.6-0.6,0.6-1.6,0-2.2l-3.4-3.4c-0.6-0.6-1.6-0.6-2.2,0
		l-3.4,3.4C7.1,12.5,7.1,13.5,7.8,14.1z"/>
</g>
<g>
	<path class="st2" d="M4.8,78.6h15c0.6,0,1,0.7,0.8,1.2l-7.5,15c-0.3,0.6-1.2,0.6-1.5,0l-7.5-15C3.8,79.2,4.2,78.6,4.8,78.6z"/>
	<path d="M9.2,81.4h6.3c0.3,0,0.4,0.3,0.3,0.5l-3.2,6.3c-0.1,0.3-0.5,0.3-0.6,0l-3.2-6.3C8.7,81.7,8.9,81.4,9.2,81.4z"/>
</g>
<g>
	<g>
		<path class="st0" d="M7.8,38.7l3.4,3.4c0.6,0.6,1.6,0.6,2.2,0l3.4-3.4c0.6-0.6,0.6-1.6,0-2.2l-3.4-3.4c-0.6-0.6-1.6-0.6-2.2,0
			l-3.4,3.4C7.2,37.1,7.2,38.1,7.8,38.7z"/>
		<path class="st1" d="M7.8,38.7l3.4,3.4c0.6,0.6,1.6,0.6,2.2,0l3.4-3.4c0.6-0.6,0.6-1.6,0-2.2l-3.4-3.4c-0.6-0.6-1.6-0.6-2.2,0
			l-3.4,3.4C7.2,37.1,7.2,38.1,7.8,38.7z"/>
	</g>
	<g>
		<path d="M10.4,38l1.5,1.5c0.3,0.3,0.6,0.3,0.9,0l1.5-1.5c0.3-0.3,0.3-0.6,0-0.9l-1.5-1.5c-0.3-0.3-0.6-0.3-0.9,0l-1.5,1.5
			C10.2,37.4,10.2,37.8,10.4,38z"/>
	</g>
</g>
<g>
	<path class="st2" d="M19.9,70.6h-15c-0.6,0-1-0.7-0.8-1.2l7.5-15c0.3-0.6,1.2-0.6,1.5,0l7.5,15C20.9,70,20.5,70.6,19.9,70.6z"/>
	<path d="M15.5,67.8H9.2c-0.3,0-0.4-0.3-0.3-0.5l3.2-6.3c0.1-0.3,0.5-0.3,0.6,0l3.2,6.3C15.9,67.5,15.7,67.8,15.5,67.8z"/>
</g>
<g>
	<path class="st2" d="M19.9,121.8h-15c-0.6,0-1-0.7-0.8-1.2l7.5-15c0.3-0.6,1.2-0.6,1.5,0l7.5,15C20.9,121.2,20.5,121.8,19.9,121.8z
		"/>
	<path class="st3" d="M15.5,119H9.2c-0.3,0-0.4-0.3-0.3-0.5l3.2-6.3c0.1-0.3,0.5-0.3,0.6,0l3.2,6.3C15.9,118.8,15.7,119,15.5,119z"
		/>
</g>
<g>
	<path class="st2" d="M4.8,130.3h15c0.6,0,1,0.7,0.8,1.2l-7.5,15c-0.3,0.6-1.2,0.6-1.5,0l-7.5-15C3.8,130.9,4.2,130.3,4.8,130.3z"/>
	<path class="st3" d="M9.2,133.1h6.3c0.3,0,0.4,0.3,0.3,0.5l-3.2,6.3c-0.1,0.3-0.5,0.3-0.6,0l-3.2-6.3C8.8,133.4,9,133.1,9.2,133.1z
		"/>
</g>
</svg>
