<?xml version="1.0" encoding="utf-8"?>
<!-- Generator: Adobe Illustrator 20.1.0, SVG Export Plug-In . SVG Version: 6.00 Build 0)  -->
<!DOCTYPE svg PUBLIC "-//W3C//DTD SVG 1.1//EN" "http://www.w3.org/Graphics/SVG/1.1/DTD/svg11.dtd">
<svg version="1.1" id="Layer_1" xmlns="http://www.w3.org/2000/svg" xmlns:xlink="http://www.w3.org/1999/xlink" x="0px" y="0px"
	 viewBox="0 0 2800.1 494.4" style="enable-background:new 0 0 2800.1 494.4;" xml:space="preserve">
<style type="text/css">
	.st0{fill:#8EC13F;}
	.st1{fill:#00A14B;}
	.st2{fill:#166DB7;}
</style>
<g>
	<g>
		<path class="st0" d="M313,39.2h-8.1c-12.4,0-22.5,10.1-22.5,22.5v222.7c0,12.4,10.1,22.5,22.5,22.5h8.1
			c12.4,0,22.5-10.1,22.5-22.5V61.6C335.5,49.3,325.4,39.2,313,39.2z"/>
		<path class="st0" d="M179.6,39.2h-8.1c-12.4,0-22.5,10.1-22.5,22.5v222.7c0,12.4,10.1,22.5,22.5,22.5h8.1
			c12.4,0,22.5-10.1,22.5-22.5V61.6C202.1,49.3,192,39.2,179.6,39.2z"/>
		<path class="st0" d="M446.5,39.2h-8.1c-12.4,0-22.5,10.1-22.5,22.5v222.7c0,12.4,10.1,22.5,22.5,22.5h8.1
			c12.4,0,22.5-10.1,22.5-22.5V61.6C468.9,49.3,458.8,39.2,446.5,39.2z"/>
		<path class="st1" d="M379.7,39.2h-8.1c-12.4,0-22.5,10.1-22.5,22.5v141.2c0,12.4,10.1,22.5,22.5,22.5h8.1
			c12.4,0,22.5-10.1,22.5-22.5V61.6C402.2,49.3,392.1,39.2,379.7,39.2z"/>
		<path class="st1" d="M246.3,39.2h-8.1c-12.4,0-22.5,10.1-22.5,22.5v141.2c0,12.4,10.1,22.5,22.5,22.5h8.1
			c12.4,0,22.5-10.1,22.5-22.5V61.6C268.8,49.3,258.7,39.2,246.3,39.2z"/>
	</g>
	<path class="st2" d="M568.1,392.4h-31.2V125.2h6.5c9.5,0,17.2-7.7,17.2-17.2s-7.7-17.2-17.2-17.2H496c-9.5,0-17.2,7.7-17.2,17.2
		s7.7,17.2,17.2,17.2h6.5v267.3h-387V125.2h6.5c9.5,0,17.2-7.7,17.2-17.2s-7.7-17.2-17.2-17.2H74.6c-9.5,0-17.2,7.7-17.2,17.2
		s7.7,17.2,17.2,17.2H81v267.3H49.8c-9.5,0-17.2,7.7-17.2,17.2s7.7,17.2,17.2,17.2H568c9.5,0,17.2-7.7,17.2-17.2
		C585.3,400.2,577.6,392.4,568.1,392.4z"/>
</g>
<g>
	<path class="st2" d="M796.4,315.4c3.7,5.6,7.1,10.4,10.1,14.3c3,4,5.9,7.2,8.7,9.7s5.7,4.4,8.7,5.6s6.5,1.9,10.3,2v22.3h-55.6
		c-4-2.9-8-7-12-12.5c-4.1-5.5-8.4-11.9-12.9-19.3L729,297.1c-2.9-4.6-5.4-8.5-7.7-11.5c-2.3-3.1-4.5-5.8-6.4-8.2
		c-1.9,0.1-3.5,0.2-4.9,0.2s-2.9,0-4.3,0c-1.3,0-2.7,0-4,0c-1.4,0-2.9-0.1-4.5-0.2v36.4c0,6.2-0.1,12.1-0.3,17.7
		c-0.2,5.7-0.6,9.9-1,12.8l28.7-1v26H624.1V347c3.7-0.2,7.1-0.6,10.1-1.1s5.5-1.7,7.6-3.6c2-1.9,3.6-4.8,4.7-8.7
		c1.1-3.8,1.6-9.2,1.6-16V188.3c0-3.1,0-6.1,0.1-9.1s0.1-5.8,0.2-8.5c0.1-2.7,0.2-5.1,0.4-7.3s0.4-4,0.6-5.4l-25.4,1v-26l96.1-0.7
		c14.6,0,27.8,1.2,39.6,3.6c11.8,2.4,22,6.4,30.4,12c8.5,5.6,14.9,12.8,19.5,21.7c4.5,8.9,6.8,19.8,6.8,32.8
		c0.1,7.5-1,14.7-3.5,21.7c-2.4,7-6.1,13.4-11,19.2s-11,11-18.5,15.7c-7.4,4.6-16.2,8.4-26.3,11.2v0.3c4.2,1.6,8.4,4.5,12.5,8.4
		c4.2,4,7.7,8.2,10.7,12.7L796.4,315.4z M713.4,253c9.3,0,17.3-1,23.9-3c6.6-2,12-5.2,16.2-9.4s7.3-9.5,9.2-15.9
		c2-6.4,3-13.8,3-22.4c0-7.3-0.8-13.4-2.5-18.5c-1.6-5.1-3.8-9.4-6.4-12.8c-2.6-3.4-5.6-6.1-9-8.1s-6.7-3.5-10.1-4.5
		c-3.4-1-6.7-1.7-9.8-2s-5.9-0.4-8.2-0.4c-3.6,0-6.8,0.3-9.6,0.8c-2.8,0.6-5.2,1.8-7.1,3.6c-1.9,1.9-3.4,4.6-4.5,8.1
		c-1,3.5-1.6,8.2-1.6,14.2v69.2c2.6,0.3,5.3,0.6,8.1,0.8C707.8,252.9,710.6,253,713.4,253z"/>
	<path class="st2" d="M1005.1,278.4l-110.9,2c0,9.2,0.9,17.8,2.6,25.6c1.7,7.9,4.4,14.6,8.2,20.3c3.7,5.7,8.6,10.1,14.7,13.4
		c6,3.2,13.5,4.9,22.3,4.9c3.4,0,7.2-0.4,11.4-1.3s8.4-2.3,12.8-4.3c4.3-2,8.7-4.6,13.1-7.8c4.4-3.2,8.5-7.2,12.4-12l15.2,14.3
		c-6,8.7-12.5,15.7-19.3,21.1s-13.7,9.6-20.5,12.5c-6.9,3-13.6,5-20.3,6s-12.8,1.6-18.5,1.6c-12.4,0-23.7-2.1-34-6.3
		c-10.2-4.2-19-10.2-26.4-18s-13.1-17.2-17.1-28.2s-6-23.4-6-37.1c0-11.9,2-23.2,6-34c4-10.8,9.7-20.4,17.1-28.8
		c7.4-8.4,16.2-15,26.6-19.9c10.4-4.9,22-7.4,34.7-7.4c6.3,0,12.5,0.6,18.7,1.6c6.2,1.1,12.1,2.9,17.8,5.5s10.9,6,15.8,10.1
		c4.9,4.2,9.1,9.3,12.6,15.5s6.3,13.4,8.3,21.8C1004.2,257.9,1005.2,267.5,1005.1,278.4z M930.6,218.8c-4.9,0-9.4,0.9-13.3,2.8
		c-3.9,1.9-7.3,4.5-10.1,7.7c-2.9,3.3-5.2,7.3-7,12s-3.1,9.8-3.9,15.4h62.2c-0.2-6.9-1-12.8-2.5-17.6c-1.4-4.8-3.4-8.8-5.9-11.8
		s-5.4-5.2-8.7-6.5C938.1,219.4,934.5,218.8,930.6,218.8z"/>
	<path class="st2" d="M1052.9,313.5c0.4,5.2,2.1,10,4.9,14.5c2.9,4.5,6.6,8.4,11.2,11.7c4.6,3.3,10,5.9,16.2,7.7
		c6.2,1.9,12.9,2.8,20,2.8c2.7,0,5.5-0.3,8.3-1s5.3-1.7,7.5-3.1s4-3.1,5.4-5.2s2.1-4.6,2.1-7.6c0-3.2-0.9-5.9-2.6-8.2
		c-1.7-2.3-4.2-4.3-7.5-6.3c-3.3-1.9-7.4-3.8-12.3-5.7c-4.9-1.9-10.5-4.1-16.9-6.6c-7-2.7-14.1-5.6-21.3-8.5
		c-7.1-2.9-13.6-6.5-19.5-10.6c-5.8-4.2-10.6-9.3-14.3-15.4s-5.5-13.7-5.5-22.8c0-6.5,1.2-13,3.7-19.5s6.3-12.3,11.5-17.5
		s11.8-9.4,19.8-12.6c8-3.2,17.6-4.9,28.7-4.9c3.1,0,6.4,0.2,10,0.7c3.6,0.4,7.2,1.1,10.8,2.1c3.6,0.9,7.1,2.1,10.6,3.5
		c3.4,1.4,6.5,3.1,9.2,5.1h0.3l-0.5-9.6h25.7v59.7h-21.8c-1-5.8-2.8-11.1-5.5-15.7c-2.7-4.7-6.1-8.6-10.1-11.9
		c-4.1-3.2-8.7-5.7-13.9-7.5c-5.2-1.8-10.9-2.6-16.9-2.6c-2.9,0-5.6,0.3-8.3,1c-2.7,0.7-5.1,1.7-7.2,3.1c-2.1,1.4-3.7,3.3-4.9,5.5
		c-1.2,2.3-1.8,5-1.8,8.3c0,4,1,7.2,3.1,9.8s5,4.8,8.7,6.7s8.1,3.6,13.1,5.2s10.4,3.4,16.2,5.4c8.6,3,16.5,6.2,23.7,9.7
		c7.3,3.5,13.5,7.6,18.8,12.3c5.3,4.7,9.4,10,12.4,16s4.5,12.9,4.5,20.9c0,8.8-1.7,16.5-5.2,23s-8.1,12-13.8,16.2
		c-5.7,4.3-12.3,7.5-19.6,9.6c-7.4,2.1-15,3.2-22.9,3.2c-4.8,0-9.7-0.3-14.5-1s-9.5-1.6-13.8-2.7c-4.4-1.2-8.4-2.6-12.1-4.2
		s-6.8-3.5-9.5-5.4h-0.3l1.2,10.2h-25.7l-1.3-58h21.9V313.5z"/>
	<path class="st2" d="M1274.9,195c12.1,0,23.3,2,33.7,5.9c10.4,4,19.4,9.7,27,17.1c7.6,7.5,13.5,16.6,17.9,27.3
		c4.3,10.7,6.5,22.8,6.5,36.4c0,14.2-2.1,27-6.2,38.5s-9.9,21.3-17.3,29.3s-16.3,14.3-26.6,18.6c-10.3,4.3-21.7,6.5-34,6.5
		c-12.2,0-23.5-2-34-6s-19.6-9.7-27.3-17.1c-7.7-7.4-13.7-16.4-18.1-27s-6.6-22.6-6.6-35.9c0-14,2.3-26.7,6.8-38.2
		c4.5-11.5,10.6-21.4,18.4-29.6c7.7-8.2,16.8-14.5,27.1-19S1263.4,195,1274.9,195z M1274.3,218.8c-6.6,0.2-12.1,2.1-16.5,5.7
		c-4.4,3.6-8,8.2-10.7,13.9s-4.7,12.2-5.9,19.4c-1.2,7.2-1.7,14.5-1.7,21.9c0,8.7,0.7,17.3,2.1,25.8s3.6,16.1,6.6,22.9
		c3,6.7,6.9,12.2,11.7,16.3c4.8,4.2,10.6,6.3,17.4,6.3c6.7-0.1,12.2-2,16.4-5.6c4.2-3.6,7.6-8.3,10.1-14.1
		c2.5-5.8,4.2-12.2,5.1-19.4c0.9-7.2,1.4-14.4,1.4-21.6c0-8.4-0.6-16.8-1.7-25.3c-1.2-8.5-3.1-16.2-5.9-23s-6.5-12.4-11-16.7
		C1286.9,220.9,1281.2,218.8,1274.3,218.8z"/>
	<path class="st2" d="M1558.3,315c0,1.6,0,3.6-0.1,5.9s-0.1,4.8-0.2,7.4s-0.2,5.4-0.4,8.2c-0.2,2.8-0.4,5.5-0.6,8l21.9-1v25.7h-88.5
		v-21.9c4.7,0,8.4-0.7,11.1-2.1s4.7-3.5,6-6.1s2.1-5.8,2.5-9.5c0.3-3.7,0.5-7.8,0.5-12.3l-0.2-48.1c-0.1-14.8-2.4-25.7-6.8-32.6
		c-4.4-6.9-11.3-10.4-20.6-10.4c-5.8,0-11.5,1.2-16.9,3.6c-5.4,2.4-10.1,5.3-13.9,8.7v76.4c0,1.6,0,3.6-0.1,5.9s-0.1,4.8-0.2,7.4
		s-0.2,5.4-0.4,8.2s-0.4,5.5-0.6,8l21.9-1v25.7h-88.5v-21.9c4.7,0,8.4-0.7,11.1-2.1s4.7-3.5,6-6.1s2.1-5.8,2.5-9.5
		c0.3-3.7,0.5-7.8,0.5-12.3v-56.9c0-4.1,0.1-8.6,0.2-13.6c0.2-5,0.5-10,1.1-15.1l-23.7,1v-25.4c7.8,0,14.7-0.3,20.7-1
		s11.1-1.5,15.3-2.5c4.2-1,7.6-2.1,10.2-3.3s4.5-2.3,5.7-3.4h16.7l1.5,16.7h0.5c3.3-2.5,7.1-4.9,11.3-7.3c4.2-2.3,8.6-4.3,13-6
		c4.5-1.7,8.8-3,13-4s8-1.5,11.5-1.5c10.3,0,19.1,1.5,26.3,4.4c7.2,2.9,13.1,7.4,17.6,13.4c4.6,6,7.9,13.8,10,23.2
		c2.1,9.5,3.1,20.7,3.1,33.6V315z"/>
	<path class="st2" d="M1602.8,239.5c0-6.6,1.8-12.6,5.5-18.1s8.7-10.2,15.2-14.1c6.4-3.9,14-6.9,22.7-9.1c8.7-2.1,18-3.2,27.9-3.2
		s18.7,1.3,26.5,3.8c7.7,2.5,14.3,6.4,19.6,11.7c5.3,5.3,9.4,12,12.2,20.1c2.8,8.1,4.2,17.8,4.2,29c0,5.7,0,10.7-0.1,15.1
		c-0.1,4.3-0.1,8.5-0.1,12.5s0,8.2-0.1,12.6s-0.1,9.5-0.1,15.2c0,1.6,0,3.6-0.1,5.9s-0.1,4.8-0.2,7.4s-0.2,5.4-0.3,8.2
		c-0.2,2.8-0.4,5.5-0.6,8l21.8-1v25.7H1693c-0.4-3.2-0.7-5.9-0.9-8c-0.2-2.1-0.3-4.6-0.4-7.5h-0.3c-7.7,7.7-15.7,13.1-24.1,16.2
		s-17,4.7-25.9,4.7c-7.3,0-13.7-1.1-19.5-3.4c-5.7-2.3-10.5-5.4-14.4-9.5s-6.9-8.8-9-14.3c-2.1-5.4-3.1-11.4-3.1-17.9
		c0-7.1,1.3-13.6,3.8-19.3c2.5-5.7,6-10.8,10.5-15.3s9.7-8.4,15.7-11.7c6-3.3,12.6-6,19.5-8.2c7-2.2,14.3-3.9,21.8-5.1
		c7.6-1.2,15.2-2,22.7-2.3V250c0-4.5-0.4-8.7-1.2-12.4c-0.8-3.8-2.1-7.1-4-9.8s-4.3-4.9-7.4-6.4s-6.9-2.3-11.5-2.1
		s-8.9,1.2-12.9,2.8s-7.4,4-10.2,6.9c1.8,1.9,2.9,4,3.4,6.4s0.7,4.5,0.7,6.1c0,2.4-0.4,4.9-1.3,7.3c-0.9,2.5-2.3,4.7-4.1,6.8
		c-1.9,2-4.2,3.7-7.1,5s-6.3,2-10.2,2c-3.3-0.1-6.3-0.8-8.9-2.1c-2.6-1.3-4.8-2.9-6.6-4.9c-1.8-2-3.1-4.4-4-7.2
		C1603.3,245.7,1602.8,242.7,1602.8,239.5z M1689.4,291.5c-6.4,0.7-12.4,1.8-18,3.5s-10.5,3.8-14.6,6.5s-7.4,5.9-9.7,9.7
		c-2.4,3.8-3.5,8-3.5,12.9c0.1,3.2,0.7,5.9,1.8,8.1c1.1,2.2,2.5,4,4.2,5.5c1.7,1.4,3.7,2.5,5.9,3.1c2.3,0.7,4.6,1,7,1
		c5.3,0,10.2-1.1,14.7-3.3c4.5-2.2,8.5-5.2,12-9.1L1689.4,291.5z"/>
	<path class="st2" d="M1950.2,315c0,1.6,0,3.6-0.1,5.9s-0.1,4.8-0.2,7.4s-0.2,5.4-0.4,8.2c-0.2,2.8-0.4,5.5-0.6,8l21.9-1v25.7h-88.5
		v-21.9c4.7,0,8.4-0.7,11.1-2.1s4.7-3.5,6-6.1s2.1-5.8,2.5-9.5c0.3-3.7,0.5-7.8,0.5-12.3l-0.2-48.1c-0.1-14.8-2.4-25.7-6.8-32.6
		c-4.4-6.9-11.3-10.4-20.6-10.4c-5.8,0-11.5,1.2-16.9,3.6c-5.4,2.4-10.1,5.3-13.9,8.7v76.4c0,1.6,0,3.6-0.1,5.9s-0.1,4.8-0.2,7.4
		s-0.2,5.4-0.4,8.2c-0.2,2.8-0.4,5.5-0.6,8l21.9-1v25.7h-88.5v-21.9c4.7,0,8.4-0.7,11.1-2.1s4.7-3.5,6-6.1s2.1-5.8,2.5-9.5
		c0.3-3.7,0.5-7.8,0.5-12.3v-56.9c0-4.1,0.1-8.6,0.2-13.6c0.2-5,0.5-10,1.1-15.1l-23.7,1v-25.4c7.8,0,14.7-0.3,20.7-1
		s11.1-1.5,15.3-2.5c4.2-1,7.6-2.1,10.2-3.3s4.5-2.3,5.7-3.4h16.7l1.5,16.7h0.5c3.3-2.5,7.1-4.9,11.3-7.3c4.2-2.3,8.6-4.3,13-6
		c4.5-1.7,8.8-3,13-4s8.1-1.5,11.5-1.5c10.3,0,19.1,1.5,26.3,4.4c7.2,2.9,13.1,7.4,17.6,13.4c4.6,6,7.9,13.8,10,23.2
		c2.1,9.5,3.1,20.7,3.1,33.6V315z"/>
	<path class="st2" d="M1980.7,200.5c5.8-0.1,11.3-1.6,16.3-4.4c5.1-2.8,9.6-6.3,13.6-10.5s7.4-8.7,10.2-13.7
		c2.8-4.9,4.9-9.6,6.2-13.8h24.9l-0.2,42.4h43v26l-43,0.8c-0.1,16-0.2,29.2-0.2,39.7c-0.1,10.5-0.1,18.9-0.2,25.3
		c-0.1,6.3-0.1,10.8-0.1,13.5s0,4.3,0,4.7c0,4,0.2,7.9,0.7,11.8s1.5,7.4,3,10.6c1.5,3.1,3.6,5.7,6.3,7.6s6.2,2.9,10.5,2.9
		c1.4,0,3.2-0.2,5.4-0.7c2.1-0.4,4.6-1.4,7.3-2.7c2.7-1.4,5.6-3.4,8.7-6.2c3.1-2.7,6.2-6.3,9.4-10.9l16.3,15.2
		c-6.2,9-12.3,16-18.5,20.9s-12,8.6-17.6,10.9s-10.7,3.7-15.3,4.1s-8.5,0.7-11.5,0.7c-3.7,0-7.6-0.3-11.6-0.9c-4-0.6-8-1.7-11.9-3.4
		c-3.9-1.6-7.6-4-11-7c-3.5-3-6.5-6.9-9.2-11.8c-2.7-4.8-4.8-10.7-6.3-17.6s-2.3-15-2.3-24.3l0.5-81.4l-23.1,0.3v-28.1H1980.7z"/>
	<path class="st2" d="M2220.2,369.3v-22.1c3.7-0.2,7.1-0.6,10.1-1.1s5.5-1.7,7.6-3.6c2-1.9,3.6-4.8,4.7-8.7c1.1-3.8,1.6-9.2,1.6-16
		V188.3c0-3.1,0-6.1,0.1-9.1s0.1-5.8,0.2-8.5c0.1-2.7,0.2-5.1,0.4-7.3s0.4-4,0.6-5.4l-25.4,1v-26h96.9v22.3
		c-3.8,0.2-7.3,0.6-10.2,1.2c-3,0.6-5.5,1.8-7.5,3.6c-2,1.9-3.6,4.7-4.7,8.6c-1.1,3.8-1.6,9.2-1.6,16V314c0,3.1,0,6.1-0.1,9
		s-0.1,5.7-0.2,8.3c-0.1,2.6-0.2,5-0.4,7.2c-0.2,2.1-0.4,3.9-0.6,5.4l45.3-0.2c13.3,0,23.7-4.6,31.3-13.8
		c7.6-9.2,11.4-23.1,11.4-41.6h22.4l-2,80.9h-179.9V369.3z"/>
	<path class="st2" d="M2425,239.5c0-6.6,1.8-12.6,5.5-18.1s8.7-10.2,15.2-14.1c6.4-3.9,14-6.9,22.7-9.1c8.7-2.1,18-3.2,27.9-3.2
		s18.7,1.3,26.5,3.8c7.7,2.5,14.3,6.4,19.6,11.7s9.4,12,12.2,20.1s4.2,17.8,4.2,29c0,5.7,0,10.7-0.1,15.1c-0.1,4.3-0.1,8.5-0.1,12.5
		s0,8.2-0.1,12.6s-0.1,9.5-0.1,15.2c0,1.6,0,3.6-0.1,5.9s-0.1,4.8-0.2,7.4c-0.1,2.6-0.2,5.4-0.3,8.2c-0.2,2.8-0.4,5.5-0.6,8l21.8-1
		v25.7h-63.8c-0.4-3.2-0.7-5.9-0.9-8s-0.3-4.6-0.4-7.5h-0.3c-7.7,7.7-15.7,13.1-24.1,16.2c-8.4,3.1-17,4.7-25.9,4.7
		c-7.3,0-13.7-1.1-19.5-3.4c-5.7-2.3-10.5-5.4-14.4-9.5s-6.9-8.8-9-14.3c-2.1-5.4-3.1-11.4-3.1-17.9c0-7.1,1.3-13.6,3.8-19.3
		c2.5-5.7,6-10.8,10.5-15.3s9.7-8.4,15.7-11.7c6-3.3,12.6-6,19.5-8.2c7-2.2,14.3-3.9,21.8-5.1c7.6-1.2,15.2-2,22.7-2.3V250
		c0-4.5-0.4-8.7-1.2-12.4c-0.8-3.8-2.1-7.1-4-9.8s-4.3-4.9-7.4-6.4c-3.1-1.5-6.9-2.3-11.5-2.1s-8.9,1.2-12.9,2.8s-7.4,4-10.2,6.9
		c1.8,1.9,2.9,4,3.4,6.4s0.7,4.5,0.7,6.1c0,2.4-0.4,4.9-1.3,7.3c-0.9,2.5-2.3,4.7-4.1,6.8c-1.9,2-4.2,3.7-7.1,5
		c-2.9,1.3-6.3,2-10.2,2c-3.3-0.1-6.3-0.8-8.9-2.1c-2.6-1.3-4.8-2.9-6.6-4.9s-3.1-4.4-4-7.2C2425.5,245.7,2425,242.7,2425,239.5z
		 M2511.5,291.5c-6.4,0.7-12.4,1.8-18,3.5s-10.5,3.8-14.6,6.5s-7.4,5.9-9.7,9.7c-2.4,3.8-3.5,8-3.5,12.9c0.1,3.2,0.7,5.9,1.8,8.1
		s2.5,4,4.2,5.5c1.7,1.4,3.7,2.5,5.9,3.1c2.3,0.7,4.6,1,7,1c5.3,0,10.2-1.1,14.7-3.3c4.5-2.2,8.5-5.2,12-9.1L2511.5,291.5z"/>
	<path class="st2" d="M2605.7,178.5c0-4.1,0.1-8.7,0.2-14c0.2-5.3,0.5-10.4,1.1-15.5l-23.7,1v-25.4c7.8,0,14.7-0.3,20.7-1
		s11.1-1.5,15.3-2.5s7.6-2.1,10.2-3.3c2.6-1.2,4.5-2.3,5.7-3.4h18.3v98.8c7.6-6.8,15.3-11.5,23.2-14.2c7.9-2.6,15.3-4,22.3-4
		c10.1,0,19.3,2,27.7,6s15.5,9.7,21.5,17.1c6,7.4,10.6,16.4,13.9,27c3.3,10.6,4.9,22.4,4.9,35.4c0,13.6-1.9,26.2-5.6,37.7
		c-3.7,11.5-9.1,21.4-16.2,29.8c-7.1,8.4-15.7,14.9-25.8,19.6s-21.5,7.1-34.3,7.1c-3.1,0-6.6-0.2-10.6-0.7s-8.1-1.5-12.5-3
		s-8.8-3.6-13.3-6.3c-4.5-2.7-8.7-6.2-12.6-10.5h-0.3l-9.7,15h-20.4L2605.7,178.5L2605.7,178.5z M2680.7,225.5
		c-5.6,0.2-10.8,1.6-15.6,4.2c-4.8,2.6-8.7,6-11.6,10.1v78.8c0,5.9,0.8,10.9,2.3,14.9s3.5,7.2,6,9.6s5.2,4.1,8.3,5.2
		c3.1,1,6.2,1.6,9.2,1.6c7.4,0,13.5-1.8,18.4-5.4s8.8-8.4,11.8-14.4s5.1-12.8,6.3-20.5s1.8-15.7,1.8-23.9c0-7.9-0.7-15.5-2.1-22.8
		c-1.4-7.3-3.6-13.7-6.6-19.2s-6.8-10-11.5-13.3C2692.7,227.2,2687.2,225.5,2680.7,225.5z"/>
</g>
</svg>
