<?xml version="1.0" encoding="utf-8"?>
<!-- Generator: Adobe Illustrator 19.2.1, SVG Export Plug-In . SVG Version: 6.00 Build 0)  -->
<svg version="1.1" id="Layer_1" xmlns="http://www.w3.org/2000/svg" xmlns:xlink="http://www.w3.org/1999/xlink" x="0px" y="0px"
	 viewBox="0 0 512 512" style="enable-background:new 0 0 512 512;" xml:space="preserve">
	 <defs>
    <filter id="f3" x="0" y="0" width="200%" height="200%">
      <feOffset result="offOut" in="SourceAlpha" dx="20" dy="20" />
      <feGaussianBlur result="blurOut" in="offOut" stdDeviation="15" />
      <feBlend in="SourceGraphic" in2="blurOut" mode="normal" />
    </filter>
  </defs>
<style type="text/css">
	.st0{stroke:#FFFFFF;stroke-miterlimit:10;filter:url(#f3);}
</style>
<path vector-effect="non-scaling-stroke" class="st0" d="M166.6,255.9c-8.7-5.8-16.9-11.4-25.2-16.9c-5.3-3.5-10.5-7.1-15.9-10.6c-1.1-0.7-2.7-1.1-3.9-0.8
	c-40.9,9.9-90.5-13.3-108.1-60c-17.3-46,3.2-98,47.2-119.7c55.3-27.3,124.7,3.2,135.9,69.4c2.4,14.3,1.9,28.5-1.8,42.6
	c-0.4,1.5-0.7,2.6,0.9,3.9c15.8,12.6,31.4,25.3,47.1,38c0.4,0.3,0.8,0.6,1.4,1c5.9-4.1,11.9-8.3,17.8-12.4
	c57.7-40.5,115.4-81,173.3-121.4c12.9-9,26.7-10.3,40.8-2.8c2.7,1.4,5.3,3.5,7.3,5.8c7.1,8.4,14,17,21.2,25.8
	c-65,52.7-130,105.3-195.1,158.1c65,52.7,129.9,105.2,194.7,157.7c0,0.3,0.1,0.6,0,0.7c-7,8.6-13.7,17.5-21,25.8
	c-10.3,11.6-29.8,13.7-44.3,4.8c-9.6-5.9-18.7-12.7-27.9-19.2c-54.7-38.3-109.4-76.6-164-115c-2.1-1.5-3.4-1.4-5.4,0.2
	c-14.9,12.2-29.9,24.3-44.9,36.4c-1.8,1.5-2.2,2.7-1.7,5c7.9,34.5,1.7,65.9-22.7,92.1c-49.3,53-138.8,31.6-160.4-37.9
	c-17.5-56.3,19.4-114.9,77.8-123.3c10.7-1.6,21.3-1.6,31.9,1.1c1.1,0.3,2.7,0.1,3.6-0.5C138.9,274.6,152.5,265.4,166.6,255.9z
	 M103.4,177.5c24.2-0.1,43.6-19.6,43.5-43.8c-0.1-24-19.7-43.5-43.6-43.3c-24,0.2-43.5,19.5-43.2,43
	C60.3,158.4,79.2,177.6,103.4,177.5z M103.2,334.4c-21.8-0.1-43.7,16.9-43,45.6c0.6,24.5,20.7,41.6,43.3,41.6
	c23.9,0,43.4-19.6,43.4-43.6C146.9,353.8,127.4,334.4,103.2,334.4z M243,229.8c-14.5-0.1-26.3,11.5-26.4,25.9
	c-0.1,14.4,11.6,26.3,26,26.3c14.7,0.1,26.3-11.5,26.5-26.5C269.3,241.9,257.1,229.9,243,229.8z"/>
</svg>
