<?xml version="1.0" encoding="utf-8"?>
<!-- Generator: Adobe Illustrator 19.2.1, SVG Export Plug-In . SVG Version: 6.00 Build 0)  -->
<svg version="1.1" id="Layer_1" xmlns="http://www.w3.org/2000/svg" xmlns:xlink="http://www.w3.org/1999/xlink" x="0px" y="0px"
	 viewBox="0 0 512 512" style="enable-background:new 0 0 512 512;" xml:space="preserve">
<style type="text/css">
	.st0{fill:#999999;}
</style>
<g>
	<rect x="22.2" y="177.2" class="st0" width="82.2" height="328.8"/>
	<rect x="407.6" y="177.2" class="st0" width="82.2" height="328.8"/>
	<rect x="22.2" y="423.7" class="st0" width="467.5" height="82.2"/>
	<rect x="22.2" y="177.1" class="st0" width="123.3" height="82.2"/>
	<g>
		<g>
			<path class="st0" d="M178.9,341.6c0,0-1-4.9-1.7-13.4c-0.4-4.2-0.5-9.4-0.5-15.3c0-5.8,0.3-12.5,0.9-19.5
				c0.6-7.2,1.5-14.8,2.8-22.9c0.8-4,1.4-8.2,2.3-12.3c0.5-2.1,0.9-4.2,1.4-6.4c0.5-2.2,1-4.2,1.5-6.4c0.5-2.2,1.2-4.4,1.7-6.6
				c0.6-2.2,1.2-4.4,1.9-6.6c1.4-4.4,2.7-8.9,4.4-13.2c1.5-4.4,3.2-8.9,5-13.4c1.7-4.5,3.6-8.9,5.7-13.2c4-8.7,8.3-17.3,13-25.7
				c1.2-2.1,2.3-4.1,3.6-6.2c1.2-2.1,2.4-4.1,3.6-6c2.4-4,5-7.8,7.6-11.7c1.3-1.9,2.7-3.7,4-5.5c1.3-1.8,2.6-3.6,4-5.4
				c2.7-3.5,5.4-6.9,8.1-10.3c5.4-6.6,10.7-12.6,15.9-17.9c1.3-1.3,2.6-2.7,3.9-4c1.3-1.3,2.6-2.4,3.9-3.6c2.4-2.3,4.9-4.5,7.1-6.7
				c4.6-4,8.7-7.4,12.1-10.1c7.1-5.3,11-8.3,11-8.3l49.2,61.3c0,0-0.6,0.6-2.1,1.9c-1.3,1.3-3.2,3.1-5.8,5.5
				c-2.4,2.4-5.4,5.4-8.7,8.7c-3.3,3.5-7.1,7.3-11,11.7c-2.1,2.2-4.1,4.4-6.3,6.8c-2.2,2.4-4.4,4.8-6.7,7.4c-2.2,2.6-4.6,5.3-6.9,8
				c-2.3,2.8-4.8,5.5-7.2,8.5c-2.3,3-4.9,5.9-7.3,9c-2.4,3.1-5,6.2-7.4,9.4c-2.4,3.2-5.1,6.3-7.6,9.6c-1.3,1.7-2.6,3.2-3.9,4.9
				s-2.6,3.3-3.9,5l-3.9,5c-1.3,1.7-2.6,3.3-3.9,5c-1.3,1.7-2.6,3.3-3.9,5c-1.3,1.7-2.6,3.3-3.9,5c-5.1,6.8-10.1,13.4-15,19.8
				c-5,6.6-9.8,12.8-14.4,18.9c-4.6,6.2-9.1,11.9-13.2,17.2c-4.1,5.4-8.1,10.4-11.6,14.8c-3.5,4.5-6.7,8.3-9.2,11.6
				c-2.6,3.2-4.8,5.8-6.2,7.6C179.8,340.6,178.9,341.6,178.9,341.6z"/>
			<g>
				<path class="st0" d="M489.8,43.1c-64.9,58.2-140.3,143.5-178.5,217.4l-4.1-145.4L210.9,6C289.4,34,402.7,44.9,489.8,43.1z"/>
			</g>
		</g>
	</g>
</g>
</svg>
