<?xml version="1.0" encoding="utf-8"?>
<!-- Generator: Adobe Illustrator 19.2.0, SVG Export Plug-In . SVG Version: 6.00 Build 0)  -->
<!DOCTYPE svg PUBLIC "-//W3C//DTD SVG 1.1//EN" "http://www.w3.org/Graphics/SVG/1.1/DTD/svg11.dtd">
<svg version="1.1" id="Layer_1" xmlns="http://www.w3.org/2000/svg" xmlns:xlink="http://www.w3.org/1999/xlink" x="0px" y="0px"
	 viewBox="0 0 512 512" style="enable-background:new 0 0 512 512;" xml:space="preserve">
<style type="text/css">
	.st0{fill-rule:evenodd;clip-rule:evenodd;fill:#FF7F00;}
</style>
<path class="st0" d="M256,34.2l256,443.5H0L256,34.2z M276.5,369.6c0,3.3-0.6,6.3-1.8,9c-1.2,2.7-2.9,4.9-4.9,6.8
	c-2.1,1.8-4.5,3.2-7.3,4.2s-5.7,1.4-8.8,1.4c-2.5,0-4.8-0.3-7-0.9s-4.1-1.6-5.8-3s-3-3.1-3.9-5.2c-1-2.1-1.4-4.7-1.4-7.7
	c0-3.2,0.6-6.2,1.9-8.9c1.2-2.7,2.9-4.9,5.1-6.8c2.1-1.8,4.6-3.2,7.3-4.2s5.7-1.5,8.8-1.5c2.2,0,4.5,0.3,6.6,1
	c2.2,0.7,4.1,1.7,5.8,3.1c1.7,1.4,3.1,3.1,4.1,5.2S276.5,366.7,276.5,369.6z M264.1,334.5c-1.6,1.2-3.6,2.1-6.1,2.8
	c-2.5,0.7-4.8,1.4-6.9,2.1l-3.6-2.6L237.9,215c1.8-1,4.1-2.2,6.8-3.6c2.7-1.4,5.5-2.7,8.4-4.1c2.9-1.3,5.6-2.6,8.2-3.8
	s4.8-2,6.4-2.6l6.2,4L264.1,334.5z"/>
</svg>
