<?xml version="1.0" encoding="utf-8"?>
<!-- Generator: Adobe Illustrator 19.2.1, SVG Export Plug-In . SVG Version: 6.00 Build 0)  -->
<svg version="1.1" id="Layer_1" xmlns="http://www.w3.org/2000/svg" xmlns:xlink="http://www.w3.org/1999/xlink" x="0px" y="0px"
	 viewBox="0 0 512 512" style="enable-background:new 0 0 512 512;" xml:space="preserve">
<style type="text/css">
	.st0{fill:#FF7F00;}
</style>
<g>
	<path class="st0" d="M506,256c0,138.1-111.9,250-250,250S6,394.1,6,256S117.9,6,256,6S506,117.9,506,256z M256,37.2
		C135.2,37.2,37.2,135.2,37.2,256S135.2,474.8,256,474.8S474.8,376.8,474.8,256S376.8,37.2,256,37.2z"/>
	<g>
		<path class="st0" d="M194.4,423.4v-17.8c11-2.2,19.2-4.8,24.4-7.4c5.2-2.7,7.8-5.2,7.8-7.4V265.2c0-8.3-0.1-15-0.2-20.1
			c-0.2-5.1-1.2-9.1-3-11.9c-1.9-2.8-5-4.9-9.4-6.2c-4.4-1.3-10.9-2.3-19.5-3.1v-17.1c14-2,27.2-4.4,39.8-7.2
			c12.5-2.8,24.3-6.3,35.4-10.4h15.6v201.7c0,2,2.4,4.4,7.3,7.2s13.3,5.4,25.2,7.7v17.8L194.4,423.4L194.4,423.4z M294.5,115.5
			c0,5.6-1.1,10.5-3.1,15.1c-2.1,4.6-5,8.5-8.7,11.7c-3.7,3.2-8,5.8-12.9,7.6c-5,1.8-10.4,2.7-16.2,2.7c-4.6,0-8.9-0.5-12.9-1.6
			c-4.1-1.1-7.6-2.7-10.6-5c-3-2.2-5.4-5.1-7.2-8.4c-1.8-3.3-2.7-7.3-2.7-12.1c0-5.6,1.1-10.5,3.1-15.1c2.1-4.6,5-8.4,8.7-11.6
			c3.7-3.2,8-5.7,12.9-7.4c5-1.8,10.3-2.7,16-2.7c4.4,0,8.6,0.5,12.7,1.6c4.1,1.1,7.6,2.7,10.7,4.9c3.1,2.1,5.6,5,7.4,8.3
			C293.5,106.8,294.5,110.8,294.5,115.5z"/>
	</g>
</g>
</svg>
