<?xml version="1.0" encoding="utf-8"?>
<!-- Generator: Adobe Illustrator 19.2.1, SVG Export Plug-In . SVG Version: 6.00 Build 0)  -->
<svg version="1.1" id="Layer_1" xmlns="http://www.w3.org/2000/svg" xmlns:xlink="http://www.w3.org/1999/xlink" x="0px" y="0px"
	 viewBox="0 0 512 512" style="enable-background:new 0 0 512 512;" xml:space="preserve">
<style type="text/css">
	.st0{fill:#FF7F00;}
</style>
<path class="st0" d="M256,39.4L6,472.6h500L256,39.4z M242.9,197.2h26.4v152.1h-26.4V197.2z M256.3,394.8c-4.1,0-7.8-1.5-11-4.6
	c-3.2-3.1-4.9-6.9-4.9-11.5s1.6-8.4,4.9-11.3c3.2-2.9,6.9-4.4,11-4.4c3.8,0,7.3,1.5,10.5,4.4c3.2,2.9,4.9,6.7,4.9,11.3
	s-1.6,8.4-4.9,11.5C263.5,393.3,260,394.8,256.3,394.8z"/>
</svg>
