<?xml version="1.0" encoding="utf-8"?>
<!-- Generator: Adobe Illustrator 19.2.1, SVG Export Plug-In . SVG Version: 6.00 Build 0)  -->
<svg version="1.1" id="Layer_1" xmlns="http://www.w3.org/2000/svg" xmlns:xlink="http://www.w3.org/1999/xlink" x="0px" y="0px"
	 viewBox="0 0 512 512" style="enable-background:new 0 0 512 512;" xml:space="preserve">
<style type="text/css">
	.st0{fill:none;stroke:#000000;stroke-miterlimit:10;}
</style>
<g>
	<path vector-effect="non-scaling-stroke" class="st0" d="M267.7,240.6c-63.7-1.1-143.9-4-193.3-50.3C45.6,163.2,48.5,129,50.3,92
		c1.5-33.7,31.3-51.9,59.9-62.8C180.2,2.3,263.5,1.6,336.7,13c34.2,5.5,73,14.2,100.7,36.1c29.4,23.2,27.2,67,22.9,101.4
		c-4.3,35.1-44.2,57.6-73.8,69.3C348.6,234.5,308,236.4,267.7,240.6C211.2,239.6,281.3,239.2,267.7,240.6z M254.8,137.4
		c44-2.1,163.9-8.1,170.7-45.3c4.4-23.9-58.3-37.8-73.6-41.3c-31.1-6.9-63-9.4-94.7-9.7c-33.7-0.3-67.5,2.8-100.4,10.3
		c-16.3,3.7-68.9,14.3-71.3,36.3c-2.4,21,52,34.7,66.8,38.4C185.5,134.8,220.3,137.3,254.8,137.4
		C254.8,138.1,254.8,137.4,254.8,137.4z M386,173c0.3-30.6-44.6-21.8-44.8,5.1C341.1,208.8,385.9,200.9,386,173
		C386,161.9,386,186.7,386,173z"/>
	<path vector-effect="non-scaling-stroke" class="st0" d="M460.5,338.4c0,25.3,4.8,54.4-4.8,78.4c-8.1,20.6-26.1,36.6-44,48.6
		c-42.4,28.9-97.6,39.1-148.2,40.3c-52.2,1.5-109.5-8.6-154.9-35.2c-21.1-12.3-41.3-30.2-51.1-52.9c-10.5-24-6.4-53.3-6.4-78.9
		c5.8,0.7,13.4,10.5,18.1,14.2c7.1,5.6,14.7,10.8,22.6,15.5c15.5,9.4,32.3,16.6,49.4,22.4c35.6,11.7,73.6,17.5,111.1,18.1
		c39.3,0.7,78.6-5.2,116-17.5c18.1-5.9,35.6-13.1,51.9-22.8C435.3,360.2,446.7,348.3,460.5,338.4
		C460.5,359.2,459.4,339.2,460.5,338.4z M386.9,437.1c0.3-30.6-44.5-21.9-44.8,5C341.9,472.7,386.7,464.8,386.9,437.1
		C387.1,426,386.9,450.6,386.9,437.1z"/>
	<path vector-effect="non-scaling-stroke" class="st0" d="M51,210c52.6,50.7,126.5,67.1,197.6,68.8c40.1,0.8,80.4-4,118.9-15.8
		c17.8-5.5,35.2-12.3,51.4-21.7c15.2-8.7,26.8-22.2,41.3-31.2c1.9,23.5,6.5,60.2-2.8,82c-8.7,20.7-31.1,35.6-50,45.8
		c-47.1,25.5-104.5,32.6-157.4,32.2c-51.5-0.4-109.5-9.2-154-36.5c-18.4-11.2-40.2-28-44.8-50.3C46.5,261.8,51,210,51,210
		S50.8,213,51,210z M386.2,305.2c-0.1-30.2-45.2-20.9-44.8,6.1C341.8,341.6,386.3,332.9,386.2,305.2
		C386.2,294.1,386.2,319.3,386.2,305.2z"/>
</g>
</svg>
