<?xml version="1.0" encoding="utf-8"?>
<!-- Generator: Adobe Illustrator 19.2.1, SVG Export Plug-In . SVG Version: 6.00 Build 0)  -->
<svg version="1.1" id="Layer_1" xmlns="http://www.w3.org/2000/svg" xmlns:xlink="http://www.w3.org/1999/xlink" x="0px" y="0px"
	 viewBox="0 0 512 512" style="enable-background:new 0 0 512 512;" xml:space="preserve">
<style type="text/css">
	.st0{fill:none;stroke:#000000;stroke-miterlimit:10;}
</style>
<path vector-effect="non-scaling-stroke" class="st0" d="M264.9,253.4c-47.6-0.8-107.6-3-144.6-37.6c-21.5-20.2-19.3-45.8-18-73.5
	c1.1-25.2,23.4-38.8,44.8-47c52.4-20.1,114.7-20.7,169.4-12.1c25.6,4.1,54.6,10.6,75.3,27c22,17.4,20.3,50.1,17.1,75.8
	c-3.2,26.2-33.1,43.1-55.2,51.8C325.4,248.9,295,250.3,264.9,253.4C222.6,252.7,275.1,252.4,264.9,253.4z M255.3,176.3
	c32.9-1.6,122.6-6.1,127.7-33.9c3.3-17.9-43.6-28.3-55.1-30.9c-23.2-5.2-47.1-7-70.9-7.2c-25.2-0.2-50.5,2.1-75.1,7.7
	c-12.2,2.8-51.5,10.7-53.3,27.2c-1.8,15.7,38.9,25.9,50,28.7C203.4,174.3,229.4,176.2,255.3,176.3
	C255.3,176.8,255.3,176.3,255.3,176.3z M353.4,202.9c0.2-22.9-33.4-16.3-33.5,3.8C319.8,229.7,353.3,223.8,353.4,202.9
	C353.4,194.6,353.4,213.2,353.4,202.9z"/>
<path vector-effect="non-scaling-stroke" class="st0" d="M408.4,326.6c0,18.9,3.6,40.7-3.6,58.7c-6.1,15.4-19.5,27.4-32.9,36.4
	c-31.7,21.6-73,29.2-110.8,30.2c-39,1.1-81.9-6.4-115.9-26.3c-15.8-9.2-30.9-22.6-38.2-39.6c-7.8-18-4.8-39.9-4.8-59
	c4.3,0.5,10,7.8,13.5,10.6c5.3,4.2,11,8.1,16.9,11.6c11.6,7,24.2,12.4,37,16.7c26.6,8.8,55.1,13.1,83.1,13.5
	c29.4,0.5,58.8-3.9,86.8-13.1c13.5-4.4,26.6-9.8,38.8-17C389.6,342.9,398.1,334,408.4,326.6C408.4,342.2,407.6,327.2,408.4,326.6z
	 M353.4,400.4c0.2-22.9-33.3-16.4-33.5,3.7C319.7,427.1,353.2,421.2,353.4,400.4C353.5,392.1,353.4,410.5,353.4,400.4z"/>
<path vector-effect="non-scaling-stroke" class="st0" d="M102.7,230.6c39.3,37.9,94.6,50.2,147.8,51.4c30,0.6,60.1-3,88.9-11.8
	c13.3-4.1,26.3-9.2,38.4-16.2c11.4-6.5,20-16.6,30.9-23.3c1.4,17.6,4.9,45-2.1,61.4c-6.5,15.5-23.2,26.6-37.4,34.3
	c-35.2,19.1-78.2,24.4-117.7,24.1c-38.5-0.3-81.9-6.9-115.2-27.3c-13.7-8.4-30.1-21-33.5-37.6C99.3,269.3,102.7,230.6,102.7,230.6
	S102.5,232.8,102.7,230.6z M353.4,301.8c-0.1-22.6-33.8-15.6-33.5,4.5C320.2,329,353.5,322.5,353.4,301.8
	C353.4,293.5,353.4,312.3,353.4,301.8z"/>
</svg>
