<?xml version="1.0" encoding="utf-8"?>
<!-- Generator: Adobe Illustrator 19.2.1, SVG Export Plug-In . SVG Version: 6.00 Build 0)  -->
<svg version="1.1" id="Layer_1" xmlns="http://www.w3.org/2000/svg" xmlns:xlink="http://www.w3.org/1999/xlink" x="0px" y="0px"
	 viewBox="0 0 512 512" style="enable-background:new 0 0 512 512;" xml:space="preserve">
<style type="text/css">
	.st0{fill:#FFFFFF;stroke:#000000;stroke-linecap:round;stroke-linejoin:round;stroke-miterlimit:10;}
	.st1{fill:none;stroke:#000000;stroke-miterlimit:10;}
</style>
<g>
	<g>
		<path vector-effect="non-scaling-stroke" class="st0" d="M424,116.6C401.8,94,379,72,356,50.4c-9.6-9-19-18.2-28.4-27.3
			C325.2,20.9,313.4,6,309,6C241.3,6,163.8,6,96,6.1c-15.3,0-27.3,16.1-27.3,27.8c0.3,147.9,0.3,295.7,0,443.5
			c0,13.7,10.7,24.3,21,27c4.3,1.2,8.9,1.6,13.6,1.6c102.6-0.1,205.2-0.1,307.8,0c16.4,0,32.3-12.7,32.1-32.3
			c-0.1-109.3,0-336.4,0-336.4S429,121.7,424,116.6z"/>
		<path vector-effect="non-scaling-stroke" class="st0" d="M436.1,136c0,0-69.1-1.8-100-1.6c-13.7,0.1-27-14-27.2-27.7
			c-0.3-25.3-0.1-50.4,0-75.7c0-5.2-0.1-14.8-0.1-20.7"/>
	</g>
	<g>
		<g id="UKkOBr.tif">
			<g>
				<path vector-effect="non-scaling-stroke" class="st0" d="M370.6,384.1c19.7,2.2,35.2-8.3,41.4-28.6c8.6-27.7-0.9-52.5-25.7-67
					c-7.4-4.3-13.2-8-13.2-18.6c0.3-43.5-24.6-74.4-66.7-85.6c-42.6-11.1-93.6,12.9-109.6,53.1c-2.2,5.5,1.5,13.2,2.5,19.7"/>
				<path vector-effect="non-scaling-stroke" class="st0" d="M139.2,282.8c-20.3,0-29.7,14.8-36.8,30c-13.2,27.7-0.6,53.1,16.9,68.5
					c8.3,7.1,17.2,2.5,25.7,2.8"/>
				<path vector-effect="non-scaling-stroke" class="st0" d="M195,237.2c-9.5-0.6-15.7-8.6-25.7-8.9c-28.8-0.6-44.8,19.1-38.6,47.5
					c0.3,1.8,0,3.7,0,5.8"/>
			</g>
		</g>
		<path vector-effect="non-scaling-stroke" class="st1" d="M227.4,458.8c-8.3-0.4-16.6-1.5-24.9-3.1c-6.8-1-10.8-5.8-10.8-11.8
			c-0.4-19.1,1.6-30.6,19.1-37.3c3.1-1,5.8-2,8.9-3.6l9.5-4.3c6.2-3.1,7.8-12.9,3.6-18.2c-0.4-1-2.1-1-3.6-1.6
			c-7.8-2.5-15.4-4.7-23.2-7.3c-4.1-1.6-7.8-5.2-9.3-10.5c11.8-1.6,15-10.5,17.2-19.7c1.6-7.8,2.5-16.1,4.7-23.8
			c4.1-16.1,12.9-28.6,30.6-32.1c21.9-4.7,43.6,10.5,46.2,32.6c1,7.3,1.6,14.6,2.5,21.9c2,10.5,6.7,18.9,18.6,23.1
			c-3.1,3.1-5.2,6.7-8.3,8.3c-7.3,3.1-14.6,6.2-21.9,7.8c-5.2,1-7.3,3.1-8.3,7.8c-1,4.7,1,9.9,5.2,11.8c3.1,1.6,6.2,3.1,9.3,4.1
			c3.1,1.6,5.8,2.5,8.9,3.6c17.6,6.7,19.7,18.2,19.1,37.3c0,6.2-4.1,10.8-10.8,11.8c-8.3,1.6-16.6,2.5-24.9,3.1
			c-10.5,0.4-21.2,0-32.6,0L227.4,458.8L227.4,458.8z"/>
	</g>
</g>
</svg>
