<?xml version="1.0" encoding="utf-8"?>
<!-- Generator: Adobe Illustrator 19.2.1, SVG Export Plug-In . SVG Version: 6.00 Build 0)  -->
<svg version="1.1" id="Layer_1" xmlns="http://www.w3.org/2000/svg" xmlns:xlink="http://www.w3.org/1999/xlink" x="0px" y="0px"
	 viewBox="0 0 512 512" style="enable-background:new 0 0 512 512;" xml:space="preserve">
<style type="text/css">
	.st0{fill:#FFFFFF;stroke:#000000;stroke-linecap:round;stroke-linejoin:round;stroke-miterlimit:10;}
</style>
<g>
	<path vector-effect="non-scaling-stroke" class="st0" d="M424,116.6C401.8,94,379,72,356,50.4c-9.6-9-19-18.2-28.4-27.3
		C325.2,20.9,313.4,6,309,6C241.3,6,163.8,6,96,6.1c-15.3,0-27.3,16.1-27.3,27.8c0.3,147.9,0.3,295.7,0,443.5
		c0,13.7,10.7,24.3,21,27c4.3,1.2,8.9,1.6,13.6,1.6c102.6-0.1,205.2-0.1,307.8,0c16.4,0,32.3-12.7,32.1-32.3
		c-0.1-109.3,0-336.4,0-336.4S429,121.7,424,116.6z"/>
	<path vector-effect="non-scaling-stroke" class="st0" d="M436.1,136c0,0-69.1-1.8-100-1.6c-13.7,0.1-27-14-27.2-27.7
		c-0.3-25.3-0.1-50.4,0-75.7c0-5.2-0.1-14.8-0.1-20.7"/>
</g>
</svg>
