<?xml version="1.0" encoding="utf-8"?>
<!-- Generator: Adobe Illustrator 19.2.1, SVG Export Plug-In . SVG Version: 6.00 Build 0)  -->
<svg version="1.1" id="Layer_1" xmlns="http://www.w3.org/2000/svg" xmlns:xlink="http://www.w3.org/1999/xlink" x="0px" y="0px"
	 viewBox="0 0 512 512" style="enable-background:new 0 0 512 512;" xml:space="preserve">
<style type="text/css">
	.st0{fill:#FFFFFF;stroke:#000000;stroke-linecap:round;stroke-linejoin:round;stroke-miterlimit:10;}
</style>
<g>
	<path vector-effect="non-scaling-stroke" class="st0" d="M373.5,158.5c-15.5-15.8-31.5-31.2-47.6-46.3
		c-6.7-6.3-13.3-12.7-19.9-19.1c-1.7-1.6-9.9-12-13-12c-47.3,0-101.6,0-149,0.1c-10.7,0-19.1,11.3-19.1,19.5
		c0.2,103.5,0.2,206.9,0,310.4c0,9.6,7.5,17,14.7,18.9c3,0.8,6.2,1.1,9.5,1.1c71.8-0.1,143.6-0.1,215.4,0c11.5,0,22.6-8.9,22.5-22.6
		c-0.1-76.5,0-235.4,0-235.4S377,162.1,373.5,158.5z"/>
	<path vector-effect="non-scaling-stroke" class="st0" d="M382,172.1c0,0-48.3-1.2-70-1.1c-9.6,0.1-18.9-9.8-19-19.4
		c-0.2-17.7-0.1-35.3,0-53c0-3.6-0.1-10.4-0.1-14.5"/>
</g>
</svg>
