<?xml version="1.0" encoding="utf-8"?>
<!-- Generator: Adobe Illustrator 19.2.1, SVG Export Plug-In . SVG Version: 6.00 Build 0)  -->
<svg version="1.1" id="Layer_1" xmlns="http://www.w3.org/2000/svg" xmlns:xlink="http://www.w3.org/1999/xlink" x="0px" y="0px"
	 viewBox="0 0 512 512" style="enable-background:new 0 0 512 512;" xml:space="preserve">
<style type="text/css">
	.st0{fill:#FFFFFF;stroke:#000000;stroke-linecap:round;stroke-linejoin:round;stroke-miterlimit:10;}
	.st1{fill:none;stroke:#000000;stroke-miterlimit:10;}
</style>
<path vector-effect="non-scaling-stroke" class="st0" d="M373.5,158.5c-15.5-15.8-31.5-31.2-47.6-46.3c-6.7-6.3-13.3-12.7-19.9-19.1
	c-1.7-1.6-9.9-12-13-12c-47.3,0-101.6,0-149,0.1c-10.7,0-19.1,11.3-19.1,19.5c0.2,103.5,0.2,206.9,0,310.4c0,9.6,7.5,17,14.7,18.9
	c3,0.8,6.2,1.1,9.5,1.1c71.8-0.1,143.6-0.1,215.4,0c11.5,0,22.6-8.9,22.5-22.6c-0.1-76.5,0-235.4,0-235.4S377,162.1,373.5,158.5z"/>
<path vector-effect="non-scaling-stroke" class="st0" d="M382,172.1c0,0-48.3-1.2-70-1.1c-9.6,0.1-18.9-9.8-19-19.4
	c-0.2-17.7-0.1-35.3,0-53c0-3.6-0.1-10.4-0.1-14.5"/>
<path vector-effect="non-scaling-stroke" class="st1" d="M237.2,401c-5.4-0.3-10.9-1-16.3-2c-4.5-0.7-7.1-3.7-7.1-7.8
	c-0.3-12.6,1-20.1,12.6-24.4c2-0.7,3.7-1.3,5.8-2.4l6.2-2.8c4.1-2,5.1-8.4,2.4-11.9c-0.3-0.7-1.4-0.7-2.4-1
	c-5.1-1.7-10.2-3.1-15.3-4.8c-2.7-1-5.1-3.4-6.1-6.8c7.8-1,9.8-6.8,11.2-12.9c1-5.1,1.7-10.5,3.1-15.6c2.7-10.5,8.4-18.7,20.1-21
	c14.3-3.1,28.5,6.8,30.2,21.3c0.7,4.8,1,9.5,1.7,14.3c1.3,6.9,4.4,12.4,12.2,15c-2,2-3.4,4.4-5.4,5.4c-4.8,2-9.5,4.1-14.3,5.1
	c-3.4,0.7-4.8,2-5.4,5.1c-0.7,3.1,0.7,6.4,3.4,7.8c2,1,4.1,2,6.1,2.7c2,1,3.7,1.7,5.8,2.4c11.5,4.4,12.9,11.9,12.6,24.4
	c0,4.1-2.7,7.1-7.1,7.8c-5.4,1-10.9,1.7-16.3,2c-6.8,0.3-13.9,0-21.3,0L237.2,401L237.2,401z"/>
<path vector-effect="non-scaling-stroke" class="st1" d="M199.4,357.9h-8.2c-3.9,0-7.1-3.2-7.1-7.1v-77.4c0-3.9,3.2-7.1,7.1-7.1h129.5c3.9,0,7.1,3.2,7.1,7.1v77.4
	c0,3.9-3.2,7.1-7.1,7.1h-8.2"/>
<path vector-effect="non-scaling-stroke" class="st1" d="M212.7,266.3v-29.6c0-23.9,19.4-43.3,43.3-43.3s43.3,19.4,43.3,43.3v29.6H212.7z"/>
</svg>
