<?xml version="1.0" encoding="utf-8"?>
<!-- Generator: Adobe Illustrator 19.2.1, SVG Export Plug-In . SVG Version: 6.00 Build 0)  -->
<svg version="1.1" id="Layer_1" xmlns="http://www.w3.org/2000/svg" xmlns:xlink="http://www.w3.org/1999/xlink" x="0px" y="0px"
	 viewBox="0 0 512 512" style="enable-background:new 0 0 512 512;" xml:space="preserve">
<style type="text/css">
	.st0{fill:#FFFFFF;stroke:#000000;stroke-linecap:round;stroke-linejoin:round;stroke-miterlimit:10;}
	.st1{fill:none;stroke:#000000;stroke-miterlimit:10;}
</style>
<g>
	<path vector-effect="non-scaling-stroke" class="st0" d="M373.5,158.5c-15.5-15.8-31.5-31.2-47.6-46.3
		c-6.7-6.3-13.3-12.7-19.9-19.1c-1.7-1.6-9.9-12-13-12c-47.3,0-101.6,0-149,0.1c-10.7,0-19.1,11.3-19.1,19.5
		c0.2,103.5,0.2,206.9,0,310.4c0,9.6,7.5,17,14.7,18.9c3,0.8,6.2,1.1,9.5,1.1c71.8-0.1,143.6-0.1,215.4,0c11.5,0,22.6-8.9,22.5-22.6
		c-0.1-76.5,0-235.4,0-235.4S377,162.1,373.5,158.5z"/>
	<path vector-effect="non-scaling-stroke" class="st0" d="M382,172.1c0,0-48.3-1.2-70-1.1c-9.6,0.1-18.9-9.8-19-19.4
		c-0.2-17.7-0.1-35.3,0-53c0-3.6-0.1-10.4-0.1-14.5"/>
</g>
<path vector-effect="non-scaling-stroke" class="st1" d="M339.3,263.3c-2.3-3.7-4.4-7.8-5.6-12c-3-11.2-9.9-16.8-21.4-17.4c-4-0.2-8.4-0.6-12-2.2
	c-9.6-4.3-19.4-3.7-29.4-2.7c-8.6,0.9-15.4,4.1-20.6,11.5c-2.4,3.5-6.3,6.1-10.1,8.2c-7.8,4.4-19.2,27.2-17.2,35.8
	c0.3,1.3,0.8,2.6,1.4,3.8c8.3,17.7,19.8,23.8,40.8,20.6c8.8,14.3,11.5,28.7,5,44.7c-9,0-17.9,0-27.2,0c-2.4-7.3-4.6-14.1-6.7-20.6
	c4-4,11.9-5.2,6.1-13.1c-19.4,0-39.1,0-59.8,0c0.4,3.4-0.1,6.3,1.1,8.3c1.2,1.9,4,2.9,6,4.2c-2.4,7.8-4.4,14.6-6.3,20.8
	c-5.8,0.9-10.1,1.7-14.4,2.4c-0.3,2-0.8,3.4-0.6,4.7c0.3,1.7,1.2,3.2,2,5.3c47.3-0.6,94.3,1.5,142.2-0.6c-0.2-4.1-0.4-6.9-0.6-10.1
	c-8.1-0.5-15.2-0.9-22.8-1.4c-2.7-14.2-4.5-27.3,4.5-38.6c6,0.6,10.9,1.4,15.8,1.4c12.1,0.1,15.7-2.8,20-14.2c1.2-3.1,3.5-6,5.9-8.4
	C344.5,285.4,345.9,273.8,339.3,263.3z M194,354c2.6-8.3,5-15.7,7.4-23.3c8.3,0,15.4,0,23.5,0c2.4,7.5,4.9,14.9,7.6,23.3
	C219.5,354,207.5,354,194,354z M281.6,318.4c-6.3-1.5-7.7-6-9.3-13.7c6,2,9.5,3.2,13.8,4.6C284.4,312.9,283.1,315.5,281.6,318.4z"/>
</svg>
