<?xml version="1.0" encoding="utf-8"?>
<!-- Generator: Adobe Illustrator 19.2.1, SVG Export Plug-In . SVG Version: 6.00 Build 0)  -->
<svg version="1.1" id="Layer_1" xmlns="http://www.w3.org/2000/svg" xmlns:xlink="http://www.w3.org/1999/xlink" x="0px" y="0px"
	 viewBox="0 0 512 512" style="enable-background:new 0 0 512 512;" xml:space="preserve">
<style type="text/css">
	.st0{fill:#FFFFFF;stroke:#000000;stroke-width:2;stroke-linecap:round;stroke-linejoin:round;stroke-miterlimit:10;}
</style>
<path vector-effect="non-scaling-stroke" class="st0" d="M455.6,401.1c-2,4.7-3,10.4-6.2,14c-9.6,10.7-19.8,20.9-30.5,30.6
	c-9.9,9.2-22.6,9.2-32.6-0.4c-7.6-7.1-15-15-23.8-20.1c-22.8-13.6-53.4-0.6-60,26.3c-1.8,6.7-1,14-1.6,21c-0.4,5.5-0.1,11-1.6,16.3
	c-2.7,10.3-11.3,16.6-22.8,16.9c-13.2,0.4-26.3,0.9-39.3-0.1c-12.4-1-22.7-7.3-23.1-26.2c-0.1-7.3-0.1-14.5-0.7-21.7
	c-1.3-17.9-11.7-29.3-27.8-35.1c-15.7-5.8-30.3-2.1-42.6,9.3c-4.1,3.9-8.3,8-12.1,12.1c-8.4,8.7-22.6,13.5-35.2,1.3
	c-10.2-9.7-20-19.8-29.9-29.9c-8.7-8.7-7-24,0.6-31.2c6.4-6.2,12.9-12.6,18.3-19.7c9.7-13,10.7-27.4,3.4-41.9
	c-7.3-14.3-18.5-22.8-35.1-23.1c-6.7-0.1-13.6-0.3-20.3-0.7c-17-0.9-25.4-8.1-25.7-25.7c-0.3-14,0.1-28,0.7-42
	c0.4-9.3,9.7-17.9,18.8-18.3c9.5-0.4,19-1.2,28.4-1.3c15.1-0.3,32.3-13,36.6-32.6c2.9-14-0.5-26.3-10.3-36.7
	c-5.2-5.6-10.4-10.8-15.5-16.3c-9.9-10.4-8.1-21.6-0.4-30.3c10-11.4,21-22,32.4-31.8c8.1-7,21.7-7.3,30.5,1.2
	c6.2,5.9,11.8,12.1,18.5,17.6c21,17.2,59.3,8.4,66.1-23.7c1.8-8.1,1.3-16.7,1.5-25c0.3-10.3,2-20,12.3-24.9c4.3-2,9.5-2.7,14.2-2.7
	c13.3-0.1,26.8,0.6,40,0.4c8-0.1,17.9,10.2,18.3,17.7c0.6,9.7,1.2,19.4,1.3,29.1c0.3,16.6,17.2,35.4,36.7,37.3
	c14.2,1.3,26.6-2,36.7-12.9c4.3-4.6,9.5-8.3,13.5-13c6.2-7.3,22.5-8.1,29.9-1.2c11.4,10.7,22.6,21.9,33.3,33.3c7.6,8,7,21-0.6,29
	c-4.6,4.9-9.6,9.5-14.2,14.3c-24.7,25.3-11.4,61.4,17.7,70.3c5.3,1.6,11.3,1.2,16.9,1.5c5.9,0.3,11.7,0.1,17.6,0.7
	c10.2,1,17.4,8.7,17.6,18.8c0.3,15.8,0,31.5,0,47.5c0,8.7-7,18.2-20.3,18.3c-7.4,0.1-14.8,0.4-22.5,0.7
	c-19.3,0.4-36.4,15.5-39.4,36.6c-2.4,17.2,5.2,29.7,17,40.7c6.2,5.9,13.6,10.8,14.8,20.4c0.1,1.6,0.4,3.1,0.7,4.7 M254.9,136.1
	c-12,0.7-23.8,2-35.2,6.2c-43.3,15.8-70.4,46-79.3,91.6c-7.3,37.6,2.5,70.6,27,99.7c19.4,23.1,44.5,36.8,74,40.3
	c36.7,4.3,70-5.5,97.7-31.4c20.1-19,32.4-42.2,36.4-69.3c3.9-26.3-0.1-51.8-13.5-75.2c-17.6-31-43.8-50.9-78.6-58.9
	c-9-2.1-18.5-2-27.7-2.8"/>
</svg>
