<?xml version="1.0" encoding="utf-8"?>
<!-- Generator: Adobe Illustrator 19.2.1, SVG Export Plug-In . SVG Version: 6.00 Build 0)  -->
<svg version="1.1" id="Layer_1" xmlns="http://www.w3.org/2000/svg" xmlns:xlink="http://www.w3.org/1999/xlink" x="0px" y="0px"
	 viewBox="0 0 512 512" style="enable-background:new 0 0 512 512;" xml:space="preserve">
<style type="text/css">
	.st0{fill:#FFFFFF;stroke:#000000;stroke-linecap:round;stroke-linejoin:round;stroke-miterlimit:10;}
</style>
<path vector-effect="non-scaling-stroke" class="st0" d="M87.1,90.5C81.5,91.9,81,92.6,81,99c0,77.7,0,155.4,0,233
	c0,29.5,0,58.9,0.1,88.4c0,2.9,1.9,8.6,6.4,8.6c21.7,0,57.9,0.4,75.9,0.4c7.1,0,6.6-6.7,6.6-9.6c0.1-106.8,0.1-213.6,0.1-320.3
	c0-0.2,0-0.5,0-0.7c-0.3-6.9-1.3-8.1-8.2-8.2c-24.8-0.1-49.6,0-74.5,0"/>
<path vector-effect="non-scaling-stroke" class="st0" d="M203.9,90.5c-5.5,1.4-6.1,2.1-6.1,8.6c0,77.7,0,155.4,0,233
	c0,29.5,0,58.9,0.1,88.4c0,2.9,1.9,8.6,6.4,8.6c21.7,0,57.9,0.4,75.9,0.4c7.1,0,6.6-6.7,6.6-9.6c0.2-107,0.2-213.7,0.2-320.5
	c0-0.2,0-0.5,0-0.7c-0.3-6.9-1.3-8.1-8.2-8.2c-24.8-0.1-49.6,0-74.5,0"/>
<path vector-effect="non-scaling-stroke" class="st0" d="M292.4,95.8c-5.2,2.3-5.6,3.1-4.5,9.5c13.3,76.5,26.6,153.1,39.9,229.6
	c5,29,10,58.1,15.2,87.1c0.5,2.8,3.3,8.1,7.8,7.3c21.4-3.7,57.1-9.5,74.8-12.6c7-1.2,5.4-7.7,4.9-10.6
	C412.3,300.8,394,195.6,375.7,90.4c0-0.2-0.1-0.5-0.1-0.7c-1.5-6.8-2.6-7.8-9.5-6.6c-24.5,4.2-48.9,8.5-73.4,12.7"/>
<path vector-effect="non-scaling-stroke" class="st0" d="M144.1,143.6c-12.6,0-25.2,0-37.8,0"/>
<path vector-effect="non-scaling-stroke" class="st0" d="M144.1,343.8c-12.6,0-25.2,0-37.8,0"/>
<path vector-effect="non-scaling-stroke" class="st0" d="M143.7,374.8c-12.4,0-24.7,0-37.1,0"/>
<path vector-effect="non-scaling-stroke" class="st0" d="M261,143.6c-12.6,0-25.2,0-37.8,0"/>
<path vector-effect="non-scaling-stroke" class="st0" d="M261,343.8c-12.6,0-25.2,0-37.8,0"/>
<path vector-effect="non-scaling-stroke" class="st0" d="M260.6,374.8c-12.4,0-24.7,0-37.1,0"/>
<path vector-effect="non-scaling-stroke" class="st0" d="M357.7,138.4c-12.4,2.2-24.8,4.3-37.2,6.5"/>
<path vector-effect="non-scaling-stroke" class="st0" d="M391.9,335.7c-12.4,2.2-24.8,4.3-37.2,6.5"/>
<path vector-effect="non-scaling-stroke" class="st0" d="M396.9,366.3c-12.2,2.1-24.3,4.2-36.5,6.3"/>
</svg>
