<?xml version="1.0" encoding="utf-8"?>
<!-- Generator: Adobe Illustrator 19.2.1, SVG Export Plug-In . SVG Version: 6.00 Build 0)  -->
<svg version="1.1" id="Layer_1" xmlns="http://www.w3.org/2000/svg" xmlns:xlink="http://www.w3.org/1999/xlink" x="0px" y="0px"
	 viewBox="0 0 512 512" style="enable-background:new 0 0 512 512;" xml:space="preserve">
<style type="text/css">
	.st0{fill:none;stroke:#000000;stroke-linecap:round;stroke-linejoin:round;stroke-miterlimit:10;}
</style>
<g>
	<g id="OVdbYm.tif">
		<g>
			<path vector-effect="non-scaling-stroke" class="st0" d="M273.5,251.5c8-3.6,16-0.7,23.8,0.7c20.9,4,39.4-1.8,54.6-15.7
				c17.8-16.3,34.6-33.7,51.4-51.2c9.5-9.9,14.5-22,15.6-35.7c1.8-22.6-1.6-35.7-16.4-53.2c-10.5-12.4-25-19.3-41.9-21.5
				c-24.7-3.1-43.7,6.5-60.3,23.3c-13.6,13.8-27.4,27.3-40.6,41.5c-16.7,17.9-23.1,38.9-16.1,63.1c1.8,6,0.9,11.7-0.7,17.6"/>
			<path vector-effect="non-scaling-stroke" class="st0" d="M221.7,241.6c-8,3.6-16,0.7-23.8-0.7c-20.9-4-39.4,1.8-54.6,15.7
				c-17.8,16.3-34.6,33.7-51.4,51.2c-9.5,9.9-13.9,22-15.7,35.5c-2.8,20.6,3.4,38.2,16.6,53.2c10.7,12.3,24.9,20.1,41.9,21.3
				c1.5,0.1,3,0.7,4.1,1.5c2.8,1.8,5.5,1.2,8.4,0.1c5.5-1.8,11.4-1.9,16.7-3.9c11.7-4.1,21.6-11.4,30.2-20.1
				c14-14.3,28.4-28.1,42-42.9c16.1-17.3,21.9-37.9,16-60.9c-1.8-6.5-1.6-12.7,0.1-19"/>
			<path vector-effect="non-scaling-stroke" class="st0" d="M311.7,178.6c1.8,4.1-1.9,5.6-3.9,7.7c-18,18-36,36-54,54
				c-22,22-44,43.8-65.9,66c-2.1,2.1-5.8,3.6-5,7.7"/>
		</g>
	</g>
	<g id="NbIKh5.tif">
		<g>
			<path vector-effect="non-scaling-stroke" class="st0" d="M365.7,447.2c-0.4,1.8-1,3.6-1.5,5.3c0,0.1,0,0.3,0,0.3
				c0,5.5-1.3,11.3,0.3,16.3c2,6.4,9.5,8,14.7,11.4c11.8,8,24,15.8,35.8,24c3.1,2.1,5.5,1.9,8.3-0.1c12.1-8,24.1-16,36.3-23.8
				c3.7-2.4,7.3-4.9,11-7.1c2.2-1.5,3.4-3.3,3.3-6.2c-0.3-4.6,0.1-9-0.1-13.6c-0.1-2.1-0.9-4.3-1.5-6.4"/>
			<path vector-effect="non-scaling-stroke" class="st0" d="M417.4,365.3c-3.1-3.3-6.2-6.8-9.8-9.9c-6-5.5-12.4-10.4-18.5-15.7
				c-3.9-3.4-4.4-3.6-9-0.7c-14.5,9.3-29,18.6-43.5,27.8c-1.5,0.9-2.4,2.2-3.6,3.6"/>
			<path vector-effect="non-scaling-stroke" class="st0" d="M470.1,397c-4.6,3.1-8.9,6.5-13.6,9.6c-10.5,6.7-21.5,13.3-32,20
				c-1.5,0.9-2.4,2.2-3.6,3.6"/>
			<path vector-effect="non-scaling-stroke" class="st0" d="M420.9,365.3c2.2-2.4,4.3-5,6.8-7.1c7.7-6.5,15.7-12.9,23.4-19.3
				c2.8-2.4,4.6-2.7,7.9-0.7c14.2,9,28.3,18,42.3,27.1c2.7,1.9,2.7,1.9,3.3,3.9"/>
			<path vector-effect="non-scaling-stroke" class="st0" d="M334,425.1c1-1.3,1.8-3,2.8-3.9c8.7-6.5,17.6-13.2,26.3-19.6
				c2.8-2.1,5.9-4,8.9-6.2c3.3-2.2,6.5-4.6,10-6.7c3.4-2.1,6.8-4.3,10.3-6.4c7-4.4,14-9,21-13.6c5.9-3.9,5.8-3.7,11.8,0
				c11.6,7,23.3,13.6,34.9,20.4c3.4,2,6.5,4.6,10,6.5c1,0.6,3.3,0.7,4.1,0c5.5-4.4,10.8-9.2,16.1-13.9c4.9-4.3,9.6-8.6,14.3-12.9"/>
			<path vector-effect="non-scaling-stroke" class="st0" d="M370.3,398.5c5,3.4,9.9,7,15,10.3c9.5,6,19,11.8,28.4,17.9
				c1.5,0.9,2.4,2.2,3.6,3.6"/>
			<path vector-effect="non-scaling-stroke" class="st0" d="M333.3,370.2c2.5-0.1,0.4,1,2.1,2.4c7.7,6.2,15.7,12.1,23.4,18.3
				c2.7,2.1,5.3,4.7,7.9,7.1"/>
			<path vector-effect="non-scaling-stroke" class="st0" d="M334,425.1c2.8,2.8,0.9,1.9,3.6,3.6c7.6,4.7,15.1,9,22.8,13.6
				c1.8,1,3.1,2.2,4.6,3.6c0.4,0.3,0.7,1,1.2,1c6,1,10.3,5.5,15.7,7.9c2.4,1.2,4.1,1.3,6.4-0.7c8.9-7.3,18-14.3,27-21.5
				c4-3.3,3.9-3.1,7.9,0c9.5,7.4,19,14.7,28.4,22.2c1.5,1.2,2.8,1.5,4.7,0.4c2.2-1.5,4.7-2.7,7.1-3.9c2.5-1.3,5.2-2.4,7.9-3.6
				c0.4-0.1,1.2-0.1,1.5-0.4c7.6-7.7,17.6-11.4,26.5-17.2c1.2-0.7,2.2-1.5,3.1-2.5c2.1-2.5,0,0,2.8-2.4"/>
			<path vector-effect="non-scaling-stroke" class="st0" d="M474.4,397c5.8,5.2,11.4,10.2,17.2,15.3c4.6,4.3,10.3,7.3,13.6,12.9"/>
		</g>
	</g>
	<g id="bW1FDz.tif">
		<g>
			<path vector-effect="non-scaling-stroke" class="st0" d="M51.3,34c1-0.1,1.2-1.2,1.3-1.9C56.8,18.3,66.3,9.7,80.3,6.9
				c9.9-2,19.4-0.9,28,5.2c3.9,2.7,7,6,10,9.8c3.3,3.9,2,3.6,7,2.4c12.7-3.1,25,0.7,32.3,11.3c2.8,4.1,4.6,8.9,4.6,14
				c0.1,3.4-0.3,6.7-0.6,10.2c-0.3,2.7-0.3,3.1,2.4,4.4c2.8,1.5,5.5,3.4,7.7,5.8c4.4,4.4,6.2,10,6.7,16.1c0.4,6.5-0.7,12.9-4.6,18.5
				c-5.2,7.4-12,11.7-21.2,11.7c-14.2,0-28.4,0-42.6,0"/>
			<path vector-effect="non-scaling-stroke" class="st0" d="M82.4,129.8c0-3.4,0.1-6.8,0-10.3c-0.1-3.3-0.4-3.7-3.7-3.7
				c-18.2,0-36.3,0-54.5,0c-3.3,0-3.6,0.4-3.7,3.7c-0.1,3.4,0,6.8,0,10.3"/>
			<path vector-effect="non-scaling-stroke" class="st0" d="M82.4,102.3c0-3.3,0.1-6.5,0-9.9s-0.4-3.7-3.7-3.7
				c-18.2,0-36.3,0-54.5,0c-3.3,0-3.6,0.4-3.7,3.7c-0.1,3.3,0,6.5,0,9.9"/>
			<path vector-effect="non-scaling-stroke" class="st0" d="M82.4,157.2c0-3.3,0.1-6.5,0-9.9c-0.1-3.3-0.4-3.7-3.7-3.7
				c-18.2,0-36.3,0-54.5,0c-3.3,0-3.6,0.4-3.7,3.7c-0.1,3.3,0,6.5,0,9.9"/>
			<path vector-effect="non-scaling-stroke" class="st0" d="M12.5,47.4c-4,0.9-5.8,4.1-5.8,7.6c0.1,39.5,0,79,0,118.4
				c0,3.9,0.4,4.3,4.3,4.3c26.9,0,53.7,0,80.5,0c3.9,0,4.3-0.4,4.3-4.3c0-39.5,0-79.2,0-118.7c0-4.6-2.5-7.1-7.1-7.1
				c-25.3,0-50.8,0-76.1,0"/>
		</g>
	</g>
</g>
</svg>
