<?xml version="1.0" encoding="utf-8"?>
<!-- Generator: Adobe Illustrator 19.2.1, SVG Export Plug-In . SVG Version: 6.00 Build 0)  -->
<svg version="1.1" id="Layer_1" xmlns="http://www.w3.org/2000/svg" xmlns:xlink="http://www.w3.org/1999/xlink" x="0px" y="0px"
	 viewBox="0 0 512 512" style="enable-background:new 0 0 512 512;" xml:space="preserve">
<style type="text/css">
	.st0{fill:none;stroke:#000000;stroke-linecap:round;stroke-linejoin:round;stroke-miterlimit:10;}
</style>
<g id="WDdT7w.tif">
	<g>
		<path vector-effect="non-scaling-stroke" class="st0" d="M175.8,138.2c-14-6.2-27.1-14.2-43.5-13.3c-31.1,1.9-57.6,24.6-59.5,55.8
			c-0.6,8.7-6.2,10.4-12.3,13.2c-26.5,11.8-43.7,31.8-51.5,59.6c-13.8,49.5,20.1,101.8,68.6,110.1c6,1,12.1,1.9,18.2,2
			c26,0.3,51.9,0,77.9,0.1c3.4,0,6.7,0.6,10.2,1"/>
		<path vector-effect="non-scaling-stroke" class="st0" d="M325.4,366.6c3.4-0.3,6.7-1,10.2-1c29.6-0.1,59.3,0,88.9,0
			c36-0.1,69-27.4,76.8-64.7c0.1-0.7-0.1-1.5,0-2c1.8-5.8,6-12.3,4.6-17c-6.7-22.5-12.4-45.6-32.9-60.9c-9.9-7.4-20.4-13-32.4-16
			c-4.7-1.2-9.8-1.3-14-3.3c-2.4-1.2-5-5.2-5-7.8c0.6-19.3-2.7-37.7-10.3-55.6c-18-42.5-50.6-68.5-95.2-75.2
			c-52.9-7.8-96.2,11.6-126.4,57c-2.7,4-4.9,8.6-8.1,12c-4.6,4.6-4.7,9.8-3.9,15.3"/>
		<path vector-effect="non-scaling-stroke" class="st0" d="M254.6,229.2c0,73.7,0,147.6,0,221.4"/>
		<path vector-effect="non-scaling-stroke" class="st0" d="M306.2,270.9c-11.8-12.1-22.8-25.2-35.5-36.1
			c-10.3-8.9-26.2-6.7-36.1,2.8c-10.7,10.2-21,20.9-31.4,31.3"/>
	</g>
</g>
</svg>
