<?xml version="1.0" encoding="utf-8"?>
<!-- Generator: Adobe Illustrator 19.2.1, SVG Export Plug-In . SVG Version: 6.00 Build 0)  -->
<svg version="1.1" id="Layer_1" xmlns="http://www.w3.org/2000/svg" xmlns:xlink="http://www.w3.org/1999/xlink" x="0px" y="0px"
	 viewBox="0 0 512 512" style="enable-background:new 0 0 512 512;" xml:space="preserve">
<style type="text/css">
	.st0{fill:#FFFFFF;stroke:#000000;stroke-linecap:round;stroke-linejoin:round;stroke-miterlimit:10;}
	.st1{fill:none;stroke:#000000;stroke-miterlimit:10;}
</style>
<g>
	<path vector-effect="non-scaling-stroke" class="st0" d="M373.5,158.5c-15.5-15.8-31.5-31.2-47.6-46.3
		c-6.7-6.3-13.3-12.7-19.9-19.1c-1.7-1.6-9.9-12-13-12c-47.3,0-101.6,0-149,0.1c-10.7,0-19.1,11.3-19.1,19.5
		c0.2,103.5,0.2,206.9,0,310.4c0,9.6,7.5,17,14.7,18.9c3,0.8,6.2,1.1,9.5,1.1c71.8-0.1,143.6-0.1,215.4,0c11.5,0,22.6-8.9,22.5-22.6
		c-0.1-76.5,0-235.4,0-235.4S377,162.1,373.5,158.5z"/>
	<path vector-effect="non-scaling-stroke" class="st0" d="M382,172.1c0,0-48.3-1.2-70-1.1c-9.6,0.1-18.9-9.8-19-19.4
		c-0.2-17.7-0.1-35.3,0-53c0-3.6-0.1-10.4-0.1-14.5"/>
</g>
<g>
	<g id="UKkOBr.tif">
		<g>
			<path vector-effect="non-scaling-stroke" class="st0" d="M336.3,345.7c13.8,1.6,24.6-5.8,29-20c6-19.4-0.6-36.8-18-46.9
				c-5.2-3-9.2-5.6-9.2-13c0.2-30.4-17.2-52.1-46.7-59.9c-29.8-7.8-65.5,9-76.7,37.2c-1.6,3.8,1,9.2,1.8,13.8"/>
			<path vector-effect="non-scaling-stroke" class="st0" d="M174.4,274.8c-14.2,0-20.8,10.4-25.8,21c-9.2,19.4-0.4,37.2,11.8,47.9
				c5.8,5,12,1.8,18,2"/>
			<path vector-effect="non-scaling-stroke" class="st0" d="M213.4,242.9c-6.6-0.4-11-6-18-6.2c-20.2-0.4-31.4,13.4-27,33.2
				c0.2,1.2,0,2.6,0,4"/>
		</g>
	</g>
	<path vector-effect="non-scaling-stroke" class="st1" d="M236.1,398c-5.8-0.3-11.6-1-17.4-2.2c-4.8-0.7-7.6-4-7.6-8.3
		c-0.3-13.4,1.1-21.4,13.4-26.1c2.2-0.7,4-1.4,6.2-2.5l6.6-3c4.3-2.2,5.5-9,2.5-12.7c-0.3-0.7-1.5-0.7-2.5-1.1
		c-5.5-1.8-10.8-3.3-16.3-5.1c-2.9-1.1-5.5-3.6-6.5-7.3c8.3-1.1,10.5-7.3,12-13.8c1.1-5.5,1.8-11.3,3.3-16.7
		c2.9-11.3,9-20,21.4-22.5c15.3-3.3,30.5,7.3,32.3,22.8c0.7,5.1,1.1,10.2,1.8,15.3c1.4,7.4,4.7,13.2,13,16.1
		c-2.2,2.2-3.6,4.7-5.8,5.8c-5.1,2.2-10.2,4.3-15.3,5.5c-3.6,0.7-5.1,2.2-5.8,5.5c-0.7,3.3,0.7,6.9,3.6,8.3c2.2,1.1,4.3,2.2,6.5,2.9
		c2.2,1.1,4,1.8,6.2,2.5c12.3,4.7,13.8,12.7,13.4,26.1c0,4.3-2.9,7.6-7.6,8.3c-5.8,1.1-11.6,1.8-17.4,2.2c-7.3,0.3-14.8,0-22.8,0
		H236.1z"/>
</g>
</svg>
