<?xml version="1.0" encoding="utf-8"?>
<!-- Generator: Adobe Illustrator 19.2.0, SVG Export Plug-In . SVG Version: 6.00 Build 0)  -->
<!DOCTYPE svg PUBLIC "-//W3C//DTD SVG 1.1//EN" "http://www.w3.org/Graphics/SVG/1.1/DTD/svg11.dtd">
<svg version="1.1" id="Layer_1" xmlns="http://www.w3.org/2000/svg" xmlns:xlink="http://www.w3.org/1999/xlink" x="0px" y="0px"
	 viewBox="0 0 512 512" style="enable-background:new 0 0 512 512;" xml:space="preserve">
<style type="text/css">
	.st0{fill:none;stroke:#000000;stroke-width:1;stroke-linecap:round;stroke-linejoin:round;stroke-miterlimit:10;}
	.st1{fill:none;stroke:#000000;stroke-width:1;stroke-miterlimit:10;}
</style>
<g id="hQENMz.tif">
	<g>
		<path vector-effect="non-scaling-stroke" class="st0" d="M379.5,167.8c-1.4-2.7-2.3-5.9-4.4-7.9c-23.6-23-47.3-45.8-71.1-68.5
			c-2.1-2-5.1-2.9-8.4-4.7c-1.6-4.3-5.7-5.6-10.8-5.6c-46.9,0.1-93.8,0.2-140.7-0.1c-9.6-0.1-19.4,9.3-19.4,19.4
			c0.2,103.8,0.1,207.5,0.1,311.3c0,9.2,7,18.4,20.9,19.2c0.9,0.1,1.8,0,2.7,0c71.7,0,143.3-0.1,215,0c15.4,0,23.8-10.4,23.7-23.6
			c-0.3-75.9-0.2-151.9-0.1-227.9c0-5.4-1.2-9.7-6.9-10.2c-5.2,0.5-10.4,1.5-15.6,1.5c-16.4,0.2-32.8-0.2-49.2,0.1
			c-13.1,0.2-22.8-9.5-22.5-22.5c0.3-16.6-0.1-33.2,0.2-49.7c0.1-3.6,1.7-7.1,2.6-10.7"/>
	</g>
</g>
<g id="omTX2g.tif">
	<g>
		<path vector-effect="non-scaling-stroke" class="st1" d="M168.9,393.4c0-33.5,0-67.2,0-100.6c2.4-6.1,6.7-8.3,13-7.8
			c2.2,0.2,4.6,0,7,0c0-4.3,0-8.5,0-12.6c0-10,1.5-19.8,5-29.3c8.3-23,24.1-37.6,48-43.5c3-0.7,6.1-1.1,9.1-1.5c3.3,0,6.7,0,10,0
			c0.7,0.2,1.3,0.2,2,0.4c20.2,2.6,36.3,12,47.6,29.1c8.7,13.3,12.4,28,12.6,43.7c0,4.6,0,8.9,0,13.7c0.9,0,1.7,0,2.4,0
			c2.4,0,5,0,7.4,0c5.2,0,8.3,3.3,10,7.6c0,33.5,0,66.7,0,100.2c-1.3,4.1-4.1,6.7-8.3,8.3c-52.6,0-105.2,0-157.8,0
			C173,399.9,170.4,397.3,168.9,393.4z M299.3,284.9c-0.4-8.3-0.4-16.1-1.5-24.1c-1.3-10.2-5.2-19.6-12.4-27.2
			c-18.9-19.8-52.2-15.4-65.4,8.5c-7.4,13.5-7.8,27.8-7.2,42.8C241.7,284.9,270.1,284.9,299.3,284.9z"/>
	</g>
</g>
</svg>
