<?xml version="1.0" encoding="utf-8"?>
<!-- Generator: Adobe Illustrator 19.2.1, SVG Export Plug-In . SVG Version: 6.00 Build 0)  -->
<svg version="1.1" id="Layer_1" xmlns="http://www.w3.org/2000/svg" xmlns:xlink="http://www.w3.org/1999/xlink" x="0px" y="0px"
	 viewBox="0 0 512 512" style="enable-background:new 0 0 512 512;" xml:space="preserve">
<style type="text/css">
	.st0{fill:#FFFFFF;stroke:#000000;stroke-linecap:round;stroke-linejoin:round;stroke-miterlimit:10;}
	.st1{fill:#FFFFFF;stroke:#000000;stroke-miterlimit:10;}
</style>
<g>
	<path vector-effect="non-scaling-stroke" class="st0" d="M373.5,158.5c-15.5-15.8-31.5-31.2-47.6-46.3
		c-6.7-6.3-13.3-12.7-19.9-19.1c-1.7-1.6-9.9-12-13-12c-47.3,0-101.6,0-149,0.1c-10.7,0-19.1,11.3-19.1,19.5
		c0.2,103.5,0.2,206.9,0,310.4c0,9.6,7.5,17,14.7,18.9c3,0.8,6.2,1.1,9.5,1.1c71.8-0.1,143.6-0.1,215.4,0c11.5,0,22.6-8.9,22.5-22.6
		c-0.1-76.5,0-235.4,0-235.4S377,162.1,373.5,158.5z"/>
	<path vector-effect="non-scaling-stroke" class="st0" d="M382,172.1c0,0-48.3-1.2-70-1.1c-9.6,0.1-18.9-9.8-19-19.4
		c-0.2-17.7-0.1-35.3,0-53c0-3.6-0.1-10.4-0.1-14.5"/>
</g>
<g id="omTX2g.tif">
	<g>
		<path vector-effect="non-scaling-stroke" class="st1" d="M168.9,393.4c0-33.5,0-67.2,0-100.6c2.4-6.1,6.7-8.3,13-7.8
			c2.2,0.2,4.6,0,7,0c0-4.3,0-8.5,0-12.6c0-10,1.5-19.8,5-29.3c8.3-23,24.1-37.6,48-43.5c3-0.7,6.1-1.1,9.1-1.5c3.3,0,6.7,0,10,0
			c0.7,0.2,1.3,0.2,2,0.4c20.2,2.6,36.3,12,47.6,29.1c8.7,13.3,12.4,28,12.6,43.7c0,4.6,0,8.9,0,13.7c0.9,0,1.7,0,2.4,0
			c2.4,0,5,0,7.4,0c5.2,0,8.3,3.3,10,7.6c0,33.5,0,66.7,0,100.2c-1.3,4.1-4.1,6.7-8.3,8.3c-52.6,0-105.2,0-157.8,0
			C173,399.9,170.4,397.3,168.9,393.4z M299.3,284.9c-0.4-8.3-0.4-16.1-1.5-24.1c-1.3-10.2-5.2-19.6-12.4-27.2
			c-18.9-19.8-52.2-15.4-65.4,8.5c-7.4,13.5-7.8,27.8-7.2,42.8C241.7,284.9,270.1,284.9,299.3,284.9z"/>
	</g>
</g>
</svg>
