<?xml version="1.0" encoding="utf-8"?>
<!-- Generator: Adobe Illustrator 19.2.0, SVG Export Plug-In . SVG Version: 6.00 Build 0)  -->
<!DOCTYPE svg PUBLIC "-//W3C//DTD SVG 1.1//EN" "http://www.w3.org/Graphics/SVG/1.1/DTD/svg11.dtd">
<svg version="1.1" id="Layer_1" xmlns="http://www.w3.org/2000/svg" xmlns:xlink="http://www.w3.org/1999/xlink" x="0px" y="0px"
	 viewBox="0 0 512 512" style="enable-background:new 0 0 512 512;" xml:space="preserve">
<style type="text/css">
	.st0{fill:none;stroke:#000000;stroke-width:1;stroke-linecap:round;stroke-linejoin:round;stroke-miterlimit:10;}
	.st1{fill:none;stroke:#000000;stroke-width:1;stroke-miterlimit:10;}
</style>
<g id="hQENMz.tif">
	<g>
		<path vector-effect="non-scaling-stroke" class="st0" d="M379.5,167.8c-1.4-2.7-2.3-5.9-4.4-7.9c-23.6-23-47.3-45.8-71.1-68.5
			c-2.1-2-5.1-2.9-8.4-4.7c-1.6-4.3-5.7-5.6-10.8-5.6c-46.9,0.1-93.8,0.2-140.7-0.1c-9.6-0.1-19.4,9.3-19.4,19.4
			c0.2,103.8,0.1,207.5,0.1,311.3c0,9.2,7,18.4,20.9,19.2c0.9,0.1,1.8,0,2.7,0c71.7,0,143.3-0.1,215,0c15.4,0,23.8-10.4,23.7-23.6
			c-0.3-75.9-0.2-151.9-0.1-227.9c0-5.4-1.2-9.7-6.9-10.2c-5.2,0.5-10.4,1.5-15.6,1.5c-16.4,0.2-32.8-0.2-49.2,0.1
			c-13.1,0.2-22.8-9.5-22.5-22.5c0.3-16.6-0.1-33.2,0.2-49.7c0.1-3.6,1.7-7.1,2.6-10.7"/>
	</g>
</g>
<g>
	<g id="UKkOBr.tif">
		<g>
			<path vector-effect="non-scaling-stroke" class="st0" d="M336.3,375.7c13.8,1.6,24.6-5.8,29-20c6-19.4-0.6-36.8-18-46.9
				c-5.2-3-9.2-5.6-9.2-13c0.2-30.4-17.2-52.1-46.7-59.9c-29.8-7.8-65.5,9-76.7,37.2c-1.6,3.8,1,9.2,1.8,13.8"/>
			<path vector-effect="non-scaling-stroke" class="st0" d="M174.4,304.8c-14.2,0-20.8,10.4-25.8,21c-9.2,19.4-0.4,37.2,11.8,47.9
				c5.8,5,12,1.8,18,2"/>
			<path vector-effect="non-scaling-stroke" class="st0" d="M213.4,272.9c-6.6-0.4-11-6-18-6.2c-20.2-0.4-31.4,13.4-27,33.2
				c0.2,1.2,0,2.6,0,4"/>
		</g>
	</g>
	<g id="XGD1b2.tif">
		<g>
			<g>
				<g>
					<path vector-effect="non-scaling-stroke" class="st1" d="M242.2,361.4c-1.8,0.2-2.8-1-3.2-2.8c-0.6-2.2-1.4-4.2-1.8-6.4
						c-0.6-2.6,0-3.6,2.8-4.4c-0.2-1.6-0.2-3.4-0.4-5c-1.8-11.8,7-22.2,19-22.2c10.4,0.2,19,9.2,18.4,19.8c-0.2,2.4-0.4,4.8-0.6,7.2
						c3,1,3.4,2,2.6,5c-0.6,2-1.2,3.8-1.8,5.8c-0.4,1.8-1.4,3.2-3.4,3c-1.2,3.4-2.4,6.6-3.4,10c-1,3.4,0.4,6.6,3.6,8.2
						c2.6,1.2,5.4,2.4,8.2,3.6c1.2,0.6,2.4,1.2,3.6,1.6c4.8,2,7.8,5.6,8.2,11c0.2,3,0.6,6,0.4,9c-0.2,3.4-1.8,5.8-5.2,6.6
						c-3,0.8-6.2,1.4-9.4,1.6c-13.2,1-26.4,1-39.6,0.4c-4.2-0.2-8.4-0.8-12.6-1.6c-4.4-0.8-6.2-3.2-6.4-7.6c-0.2-3.4,0.2-6.6,0.6-10
						c0.4-3.6,2.6-6.2,5.6-7.8c3.2-1.8,6.6-3.2,10-4.8c1.4-0.6,3-1.2,4.4-2c3.4-1.6,4.8-5,3.6-8.6
						C244.4,367.6,243.2,364.6,242.2,361.4z"/>
				</g>
				<g>
					<path vector-effect="non-scaling-stroke" class="st1" d="M203.8,352.2c-0.2-1.6-0.4-3-0.6-4.6c-1-8.2,3.4-14.8,11.2-16.6
						c7.8-1.6,15.8,4.2,16.4,12.2c0.2,2.2-0.2,4.4-0.2,6.6c0,0.6,0,1.4-0.2,2c3.2-0.2,3.8,0.6,3,3.6c-0.4,1.6-0.8,3.2-1.4,4.6
						c-0.4,0.8-1.2,1.2-2,1.8c-0.4,0.4-0.8,0.6-1,1.2c-0.8,2-1.4,4.2-2,6.2c-1.2,3,0,5.8,2.8,7.2c1.6,0.8,3.2,1.4,5,2.2
						c-1.2,0.6-2.2,1-3.2,1.6c-2.4,1.2-4.8,2.4-7,3.8c-4.6,3-5.8,7.6-6.4,12.6c-0.2,2-0.4,4.2-0.4,6.4c0,0-0.2,0.2-0.4,0.2
						c-7.8,0.2-15.6,0.2-23.2-1.4c-4.4-0.8-6-3-6-7.4c0-1.8,0.2-3.8,0.4-5.6c0.4-3.4,2.2-6.2,5.4-7.6c3.2-1.6,6.6-3,9.8-4.4
						c4-1.8,5-4.4,3.2-8.4c-0.6-1.2-0.8-2.4-1.2-3.8c-0.4-1.2-0.2-3-2.4-3c-0.2,0-0.6-0.6-0.8-1c-0.6-2-1.4-4-1.8-6
						C200,352.6,201,351.6,203.8,352.2z"/>
				</g>
				<g>
					<path vector-effect="non-scaling-stroke" class="st1" d="M322.3,365c-1.2,1.2-2,2.6-3.2,3.2c-2.8,1.2-5.6,2.4-8.4,3
						c-2,0.4-2.8,1.2-3.2,3c-0.4,1.8,0.4,3.8,2,4.6c1.2,0.6,2.4,1.2,3.6,1.6c1.2,0.6,2.2,1,3.4,1.4c6.8,2.6,7.6,7,7.4,14.4
						c0,2.4-1.6,4.2-4.2,4.6c-3.2,0.6-6.4,1-9.6,1.2c-4,0.2-8.2,0-12.6,0c0.2-9.4-1.8-18-12.8-21.4c1.6-0.8,2.8-1.4,4-1.8
						c2.4-1.2,3-5,1.4-7c-0.2-0.4-0.8-0.4-1.4-0.6c-3-1-6-1.8-9-2.8c-1.6-0.6-3-2-3.6-4c4.6-0.6,5.8-4,6.6-7.6c0.6-3,1-6.2,1.8-9.2
						c1.6-6.2,5-11,11.8-12.4c8.4-1.8,16.8,4,17.8,12.6c0.4,2.8,0.6,5.6,1,8.4C315.9,360.2,317.7,363.4,322.3,365z"/>
				</g>
			</g>
		</g>
	</g>
</g>
</svg>
