<?xml version="1.0" encoding="utf-8"?>
<!-- Generator: Adobe Illustrator 19.2.0, SVG Export Plug-In . SVG Version: 6.00 Build 0)  -->
<!DOCTYPE svg PUBLIC "-//W3C//DTD SVG 1.1//EN" "http://www.w3.org/Graphics/SVG/1.1/DTD/svg11.dtd">
<svg version="1.1" id="Layer_1" xmlns="http://www.w3.org/2000/svg" xmlns:xlink="http://www.w3.org/1999/xlink" x="0px" y="0px"
	 viewBox="0 0 512 512" style="enable-background:new 0 0 512 512;" xml:space="preserve">
<style type="text/css">
	.st0{fill:none;stroke:#000000;stroke-width:1;stroke-linecap:round;stroke-linejoin:round;stroke-miterlimit:10;}
</style>
<g>
	<g id="OVdbYm.tif">
		<g>
			<path vector-effect="non-scaling-stroke" class="st0" d="M268.3,252.8c5.6-2.5,11.2-0.5,16.7,0.5c14.6,2.8,27.5-1.2,38.2-11c12.4-11.4,24.2-23.6,35.9-35.8
				c6.6-6.9,10.1-15.4,10.9-25c1.2-15.8-1.1-25-11.5-37.2c-7.4-8.7-17.5-13.5-29.3-15c-17.3-2.2-30.6,4.6-42.2,16.3
				c-9.5,9.6-19.2,19.1-28.4,29c-11.7,12.5-16.2,27.2-11.3,44.1c1.2,4.2,0.6,8.2-0.5,12.3"/>
			<path vector-effect="non-scaling-stroke" class="st0" d="M232,245.9c-5.6,2.5-11.2,0.5-16.7-0.5c-14.6-2.8-27.5,1.2-38.2,11c-12.4,11.4-24.2,23.6-35.9,35.8
				c-6.6,6.9-9.7,15.4-11,24.9c-2,14.4,2.4,26.7,11.6,37.2c7.5,8.6,17.4,14.1,29.3,14.9c1,0.1,2.1,0.5,2.9,1c2,1.2,3.8,0.8,5.9,0.1
				c3.8-1.2,8-1.3,11.7-2.7c8.2-2.9,15.1-8,21.1-14.1c9.8-10,19.9-19.7,29.4-30c11.3-12.1,15.3-26.5,11.2-42.6
				c-1.2-4.6-1.1-8.9,0.1-13.3"/>
			<path vector-effect="non-scaling-stroke" class="st0" d="M295,201.8c1.2,2.9-1.3,3.9-2.7,5.4c-12.6,12.6-25.2,25.2-37.8,37.8c-15.4,15.4-30.8,30.7-46.1,46.2
				c-1.5,1.5-4,2.5-3.5,5.4"/>
		</g>
	</g>
	<g id="NbIKh5.tif">
		<g>
			<path vector-effect="non-scaling-stroke" class="st0" d="M332.8,389.7c-0.3,1.2-0.7,2.5-1,3.7c0,0.1,0,0.2,0,0.2c0,3.8-0.9,7.9,0.2,11.4c1.4,4.5,6.6,5.6,10.3,8
				c8.3,5.6,16.8,11.1,25.1,16.8c2.2,1.5,3.8,1.3,5.8-0.1c8.5-5.6,16.9-11.2,25.4-16.7c2.6-1.7,5.1-3.4,7.7-5c1.6-1,2.4-2.3,2.3-4.3
				c-0.2-3.2,0.1-6.3-0.1-9.5c-0.1-1.5-0.6-3-1-4.5"/>
			<path vector-effect="non-scaling-stroke" class="st0" d="M368.9,332.4c-2.2-2.3-4.4-4.8-6.8-6.9c-4.2-3.8-8.7-7.3-12.9-11c-2.7-2.4-3.1-2.5-6.3-0.5
				c-10.1,6.5-20.3,13-30.4,19.5c-1,0.6-1.7,1.6-2.5,2.5"/>
			<path vector-effect="non-scaling-stroke" class="st0" d="M405.8,354.6c-3.2,2.2-6.2,4.6-9.5,6.7c-7.4,4.7-15,9.3-22.4,14c-1,0.6-1.7,1.6-2.5,2.5"/>
			<path vector-effect="non-scaling-stroke" class="st0" d="M371.4,332.4c1.6-1.7,3-3.5,4.8-5c5.4-4.6,11-9,16.4-13.5c2-1.7,3.2-1.9,5.5-0.5c9.9,6.3,19.8,12.6,29.6,19
				c1.9,1.3,1.9,1.3,2.3,2.7"/>
			<path vector-effect="non-scaling-stroke" class="st0" d="M310.6,374.3c0.7-0.9,1.2-2.1,2-2.7c6.1-4.6,12.3-9.2,18.4-13.7c2-1.5,4.1-2.8,6.2-4.3
				c2.3-1.6,4.6-3.2,7-4.7c2.4-1.5,4.8-3,7.2-4.5c4.9-3.1,9.8-6.3,14.7-9.5c4.1-2.7,4-2.6,8.3,0c8.1,4.9,16.3,9.5,24.4,14.3
				c2.4,1.4,4.6,3.2,7,4.6c0.7,0.4,2.3,0.5,2.9,0c3.8-3.1,7.6-6.4,11.3-9.7c3.4-3,6.7-6,10-9"/>
			<path vector-effect="non-scaling-stroke" class="st0" d="M336,355.6c3.5,2.4,6.9,4.9,10.5,7.2c6.6,4.2,13.3,8.3,19.9,12.5c1,0.6,1.7,1.6,2.5,2.5"/>
			<path vector-effect="non-scaling-stroke" class="st0" d="M310.1,335.9c1.8-0.1,0.3,0.7,1.5,1.7c5.4,4.3,11,8.5,16.4,12.8c1.9,1.5,3.7,3.3,5.5,5"/>
			<path vector-effect="non-scaling-stroke" class="st0" d="M310.6,374.3c2,2,0.6,1.3,2.5,2.5c5.3,3.3,10.6,6.3,15.9,9.5c1.2,0.7,2.2,1.6,3.2,2.5
				c0.3,0.2,0.5,0.7,0.8,0.7c4.2,0.7,7.2,3.8,11,5.5c1.7,0.8,2.9,0.9,4.5-0.5c6.2-5.1,12.6-10,18.9-15c2.8-2.3,2.7-2.2,5.5,0
				c6.6,5.2,13.3,10.3,19.9,15.5c1,0.8,2,1,3.3,0.3c1.6-1,3.3-1.9,5-2.7c1.8-0.9,3.6-1.7,5.5-2.5c0.3-0.1,0.8-0.1,1-0.3
				c5.3-5.4,12.3-8,18.5-12c0.8-0.5,1.6-1,2.2-1.8c1.5-1.8,0,0,2-1.7"/>
			<path vector-effect="non-scaling-stroke" class="st0" d="M408.8,354.6c4,3.6,8,7.1,12,10.7c3.2,3,7.2,5.1,9.5,9"/>
		</g>
	</g>
	<g id="bW1FDz.tif">
		<g>
			<path vector-effect="non-scaling-stroke" class="st0" d="M112.8,100.7c0.7-0.1,0.8-0.8,0.9-1.3c3-9.7,9.6-15.7,19.4-17.7c6.9-1.4,13.6-0.6,19.6,3.6
				c2.7,1.9,4.9,4.2,7,6.8c2.3,2.7,1.4,2.5,4.9,1.7c8.9-2.2,17.5,0.5,22.6,7.9c2,2.9,3.2,6.2,3.2,9.8c0.1,2.4-0.2,4.7-0.4,7.1
				c-0.2,1.9-0.2,2.2,1.7,3.1c2,1,3.8,2.4,5.4,4c3.1,3.1,4.4,7,4.7,11.3c0.3,4.6-0.5,9-3.2,12.9c-3.6,5.2-8.4,8.2-14.8,8.2
				c-9.9,0-19.9,0-29.8,0"/>
			<path vector-effect="non-scaling-stroke" class="st0" d="M134.6,167.7c0-2.4,0.1-4.8,0-7.2c-0.1-2.3-0.3-2.6-2.6-2.6c-12.7,0-25.4,0-38.1,0c-2.3,0-2.5,0.3-2.6,2.6
				c-0.1,2.4,0,4.8,0,7.2"/>
			<path vector-effect="non-scaling-stroke" class="st0" d="M134.6,148.4c0-2.3,0.1-4.6,0-6.9c-0.1-2.3-0.3-2.6-2.6-2.6c-12.7,0-25.4,0-38.1,0c-2.3,0-2.5,0.3-2.6,2.6
				c-0.1,2.3,0,4.6,0,6.9"/>
			<path vector-effect="non-scaling-stroke" class="st0" d="M134.6,186.8c0-2.3,0.1-4.6,0-6.9c-0.1-2.3-0.3-2.6-2.6-2.6c-12.7,0-25.4,0-38.1,0c-2.3,0-2.5,0.3-2.6,2.6
				c-0.1,2.3,0,4.6,0,6.9"/>
			<path vector-effect="non-scaling-stroke" class="st0" d="M85.7,110c-2.8,0.6-4,2.9-4,5.3c0.1,27.6,0,55.3,0,82.9c0,2.7,0.3,3,3,3c18.8,0,37.6,0,56.3,0
				c2.7,0,3-0.3,3-3c0-27.7,0-55.4,0-83.1c0-3.2-1.8-5-5-5c-17.7,0-35.5,0-53.2,0"/>
		</g>
	</g>
</g>
</svg>
