<?xml version="1.0" encoding="utf-8"?>
<!-- Generator: Adobe Illustrator 20.1.0, SVG Export Plug-In . SVG Version: 6.00 Build 0)  -->
<svg version="1.1" id="Layer_1" xmlns="http://www.w3.org/2000/svg" xmlns:xlink="http://www.w3.org/1999/xlink" x="0px" y="0px"
	 viewBox="0 0 512 512" style="enable-background:new 0 0 512 512;" xml:space="preserve">
<style type="text/css">
	.st0{fill:#FFFFFF;stroke:#000000;stroke-linejoin:round;stroke-miterlimit:10;}
</style>
<g>
	<path vector-effect="non-scaling-stroke" class="st0" d="M29.1,466.7l-22.9-324c-0.6-9,1.1-18.1,5-26.2l15.2-31.9c7.5-15.7,22.2-26.7,39.4-29.3l60.5-9.3
		c14.8-2.3,29.9,1.9,41.4,11.4l24.1,19.9c11.2,9.2,25.6,13.4,40,11.6l157.5-20c4.5-0.6,8.5,2.7,8.8,7.3l5.7,80.6L29.1,466.7z"/>
	<path vector-effect="non-scaling-stroke" class="st0" d="M404.2,377.8L505.3,154c2.6-5.7-2.2-11.9-8.3-11l-197.1,28.8c-9,1.3-17.6,5-24.8,10.6l-24.5,19.2
		c-6.2,4.8-13.4,8.2-21,9.9l-91.4,20.3c-17.7,3.9-32.1,16.7-38.1,33.8l-71,201.2L404.2,377.8z"/>
</g>
</svg>
