<?xml version="1.0" encoding="utf-8"?>
<!-- Generator: Adobe Illustrator 19.2.1, SVG Export Plug-In . SVG Version: 6.00 Build 0)  -->
<svg version="1.1" id="Layer_1" xmlns="http://www.w3.org/2000/svg" xmlns:xlink="http://www.w3.org/1999/xlink" x="0px" y="0px"
	 viewBox="0 0 512 512" style="enable-background:new 0 0 512 512;" xml:space="preserve">
<style type="text/css">
	.st0{fill:none;stroke:#000000;stroke-linecap:round;stroke-linejoin:round;stroke-miterlimit:10;}
</style>
<g>
	<path vector-effect="non-scaling-stroke" class="st0" d="M71.8,63.8c-12.3,2.5-17.3,9.7-17.3,22.9C54.7,198.9,54.8,311,54.4,423
		c0,16.4,8.4,26,26,25.6c27.4-0.7,54.7-0.3,82.1-0.6c2.4,0,4.9-0.4,7.1,0.7"/>
	<path vector-effect="non-scaling-stroke" class="st0" d="M401.1,275.1c-45.3,0-90.4,0-135.7,0"/>
	<path vector-effect="non-scaling-stroke" class="st0" d="M401.1,333c-45.3,0-90.4,0-135.7,0"/>
	<path vector-effect="non-scaling-stroke" class="st0" d="M401.1,390.9c-2.5-1.2-5.3-0.7-7.8-0.7c-42.6,0-85.2,0-127.8,0"/>
	<path vector-effect="non-scaling-stroke" class="st0" d="M401.1,448c-45.3,0-90.4,0-135.7,0"/>
	<path vector-effect="non-scaling-stroke" class="st0" d="M364,63.8c10,2.4,16.6,8.3,16.6,20.7c-0.3,29.3-0.1,58.6,0,87.9
		c0,2.4-0.4,4.9,0.7,7.1"/>
	<path vector-effect="non-scaling-stroke" class="st0" d="M185.4,6c-10,4-16.1,10.5-15.8,22.2c0.1,4.4-2.7,6.5-7.7,6.5
		c-12.6-0.3-25.3-0.1-37.9-0.1c-10.2,0-12.1,2-12.1,12.1c0,21.2,0,42.4,0,63.6c0,8.7,1.9,10.7,10.7,11.4c1.5,0.1,2.8,0,4.3,0
		c60.4,0,120.9,0,181.4,0c2.1,0,4.3,0.3,6.4,0c7.6-1.5,8.6-2.7,8.6-10.7c0-21.9,0-43.8,0-65.7c0-8.1-2.2-10.5-10.7-10.7
		c-12.6-0.1-25.3,0-37.9,0c-5,0-8.4-0.9-8.9-7.1c-0.1-2.4-0.6-5.3-1.3-7.8C262.2,11.2,254.8,6,245.5,6c-19.7,0-39.6,0-59.3,0"/>
	<path vector-effect="non-scaling-stroke" class="st0" d="M215.5,217.4c-6.8,1.3-8,5.9-8,12.1c0.1,88,0.1,176.2,0,264.2
		c0,9,3.3,12.3,12.3,12.3c75.9-0.3,151.9-0.1,227.8-0.1c8.6,0,10-1.5,10-10c0-89,0-178,0-267c0-9.7-1.8-11.4-11.4-11.4
		c-76.8,0-153.3,0-230,0"/>
</g>
</svg>
