<?xml version="1.0" encoding="utf-8"?>
<!-- Generator: Adobe Illustrator 20.1.0, SVG Export Plug-In . SVG Version: 6.00 Build 0)  -->
<svg version="1.1" id="Layer_1" xmlns="http://www.w3.org/2000/svg" xmlns:xlink="http://www.w3.org/1999/xlink" x="0px" y="0px"
	 viewBox="0 0 1000 350" style="enable-background:new 0 0 1000 350;" xml:space="preserve">
<style type="text/css">
	.st0{fill:#999999;}
</style>
<path class="st0" d="M386.1,284.3c-1.3-0.8-2.7-1.5-3.7-2.5c-5.7-5.5-11.4-11.1-16.8-16.8c-3.4-3.6-3.2-8,0.3-11.6
	c5.3-5.4,10.7-10.8,16.1-16.1c2.8-2.7,6.1-3.5,9.6-1.9c3.4,1.5,4.9,4.4,4.9,8.1c0,2.4,0,4.9,0,7.4c5.3-0.4,227,0.3,231.9,0.3
	c4.8,0,8.4,3.7,8.4,8.1c0,4.5-3.5,8.2-8.3,8.2c-6.1,0-228-0.4-231.9,0.8c-0.1,6,1.6,13-6.5,16C388.8,284.3,387.4,284.3,386.1,284.3z
	"/>
<g>
	<path class="st0" d="M69.2,85.5h34.3c20.4,0,36.7,7.5,36.7,30.2c0,22-16.8,31.8-36.7,31.8h-13v31.8H69.2V85.5z M102.2,130.7
		c11.7,0,17.3-5.2,17.3-15c0-9.8-6-13.4-17.3-13.4H90.6v28.4H102.2z"/>
	<path class="st0" d="M153.1,86.4c0-6.5,5.2-10.9,12.2-10.9c7.2,0,12.2,4.5,12.2,10.9c0,6.5-5,11.1-12.2,11.1
		C158.2,97.5,153.1,92.9,153.1,86.4z M154.8,108h21.2v71.4h-21.2V108z"/>
	<path class="st0" d="M227.5,106.2c8.8,0,16.1,3.3,20.9,8.2l-9.6,13.1c-3.5-2.9-6.6-4.2-9.9-4.2c-10.2,0-16.7,7.9-16.7,20.3
		s6.8,20.3,16,20.3c5.2,0,9.4-2.4,12.8-5.2l8.5,13.4c-6.9,6-16,8.9-23.8,8.9c-19.9,0-35.3-13.7-35.3-37.4
		C190.3,119.9,207.8,106.2,227.5,106.2z"/>
	<path class="st0" d="M261.8,78.5h20.6v57.9h0.6l22.6-28.4h23l-25.1,29.4l26.9,42h-22.9l-16.1-27.8l-9.1,10.2v17.6h-20.6V78.5z"/>
	<path class="st0" d="M408.2,133.5c-0.4-6.3-3.6-10.4-11.2-10.4c-6,0-12.1,2.4-19,6.5l-7.5-14c9.1-5.5,19.3-9.4,30.5-9.4
		c18.3,0,28.4,10.4,28.4,32.3v40.9h-17.3l-1.6-7.3h-0.4c-6,5.3-12.8,9.1-20.9,9.1c-13,0-21.2-9.5-21.2-21.6
		C368,144.6,380,136.3,408.2,133.5z M396.4,164.7c4.9,0,8.1-2.3,11.8-6v-12.5c-15.1,2-20,6.3-20,11.8
		C388.2,162.6,391.4,164.7,396.4,164.7z"/>
	<path class="st0" d="M503.4,106.2c7.9,0,12.7,2.9,17.6,7.5l-0.9-10.9V78.5h21.2v100.9H524l-1.4-7.1H522c-5,5-12.1,8.8-19,8.8
		c-17.7,0-29.2-14.1-29.2-37.4S488.3,106.2,503.4,106.2z M508.4,163.8c4.6,0,8.2-1.7,11.7-6.5v-29.2c-3.7-3.5-7.9-4.6-11.8-4.6
		c-6.8,0-12.8,6.3-12.8,19.9C495.5,157.5,500.2,163.8,508.4,163.8z"/>
	<path class="st0" d="M597.6,133.5c-0.4-6.3-3.6-10.4-11.2-10.4c-6,0-12.1,2.4-19,6.5l-7.5-14c9.1-5.5,19.3-9.4,30.5-9.4
		c18.3,0,28.4,10.4,28.4,32.3v40.9h-17.3l-1.6-7.3h-0.4c-6,5.3-12.8,9.1-20.9,9.1c-13,0-21.2-9.5-21.2-21.6
		C557.4,144.6,569.3,136.3,597.6,133.5z M585.8,164.7c4.9,0,8.1-2.3,11.8-6v-12.5c-15.1,2-20,6.3-20,11.8
		C577.6,162.6,580.7,164.7,585.8,164.7z"/>
	<path class="st0" d="M639.8,124.5H630v-15.7l10.9-0.9l2.4-19h17.6v19h17.1v16.6h-17.1v28.7c0,8.1,3.6,11.4,9.2,11.4
		c2.3,0,4.9-0.7,6.8-1.4l3.3,15.4c-3.7,1.2-8.9,2.6-15.8,2.6c-17.7,0-24.6-11.1-24.6-27.6V124.5z"/>
	<path class="st0" d="M727.9,133.5c-0.4-6.3-3.6-10.4-11.2-10.4c-6,0-12.1,2.4-19,6.5l-7.5-14c9.1-5.5,19.3-9.4,30.5-9.4
		c18.3,0,28.4,10.4,28.4,32.3v40.9h-17.3l-1.6-7.3h-0.4c-6,5.3-12.8,9.1-20.9,9.1c-13,0-21.2-9.5-21.2-21.6
		C687.7,144.6,699.7,136.3,727.9,133.5z M716.1,164.7c4.9,0,8.1-2.3,11.8-6v-12.5c-15.1,2-20,6.3-20,11.8
		C707.9,162.6,711,164.7,716.1,164.7z"/>
	<path class="st0" d="M770.4,157.9c6.5,4.9,12.4,7.5,18.4,7.5c6.3,0,9.1-2.3,9.1-6c0-4.8-7.2-6.9-14.5-9.8
		c-8.6-3.3-18.9-9.2-18.9-21c0-13.2,10.8-22.3,27.4-22.3c10.9,0,19,4.5,25.2,9.1l-9.5,12.7c-5.2-3.7-10.1-6-15.1-6
		c-5.5,0-8.1,2-8.1,5.6c0,4.6,6.6,6.3,14,9.1c9.1,3.3,19.3,8.4,19.3,21.5c0,13-10.2,23-29.4,23c-9.4,0-20.2-4-27.4-9.9L770.4,157.9z
		"/>
	<path class="st0" d="M860.5,106.2c20.3,0,30.4,14.8,30.4,34.3c0,3.7-0.4,7.2-0.9,8.9h-42.8c1.9,10.8,9.1,15.6,18.6,15.6
		c5.3,0,10.2-1.6,15.4-4.8l7.1,12.8c-7.3,5-16.8,8.1-25.3,8.1c-20.4,0-36.1-13.8-36.1-37.4C826.8,120.5,843.4,106.2,860.5,106.2z
		 M872.9,136.3c0-8.2-3.5-14-12-14c-6.6,0-12.4,4.5-13.8,14H872.9z"/>
	<path class="st0" d="M905.9,124.5h-9.8v-15.7L907,108l2.4-19H927v19h17.1v16.6H927v28.7c0,8.1,3.6,11.4,9.2,11.4
		c2.3,0,4.9-0.7,6.8-1.4l3.3,15.4c-3.7,1.2-8.9,2.6-15.8,2.6c-17.7,0-24.6-11.1-24.6-27.6V124.5z"/>
</g>
</svg>
