<?xml version="1.0" encoding="utf-8"?>
<!-- Generator: Adobe Illustrator 19.2.1, SVG Export Plug-In . SVG Version: 6.00 Build 0)  -->
<svg version="1.1" id="Layer_1" xmlns="http://www.w3.org/2000/svg" xmlns:xlink="http://www.w3.org/1999/xlink" x="0px" y="0px"
	 viewBox="0 0 512 512" style="enable-background:new 0 0 512 512;" xml:space="preserve">
<style type="text/css">
	.st0{fill:#FFFFFF;stroke:#000000;stroke-linecap:round;stroke-linejoin:round;stroke-miterlimit:10;}
</style>
<g>
	<path vector-effect="non-scaling-stroke" class="st0" d="M437.2,334.5c1.2-14.6,2.2-29,3.7-43.6c0.1-1.2,0.6-2.4,0.6-3.6
		c0.4-58.3,2.5-116.6,1.3-174.9c-0.4-16.7-3.4-33.3-5.6-50c-0.9-6.8-4.3-9.3-11.3-9.3c-114,0-228,0-341.9,0c-7,0-9,1.8-10.5,12.1
		c-2.2,14.7-4.4,29.3-4.4,44.2c-0.3,51.9-2.2,103.7-1.2,155.6c0.3,13.9,1.3,27.7,3.8,41.4c1.6,8.4,1.6,17.2,2.2,25.7"/>
	<path vector-effect="non-scaling-stroke" class="st0" d="M73.3,333c-4,2-8.3,2.8-12.9,2.8c-13.2,0-26.2,0-39.3,0
		c-10.8,0-15,4.1-15,15c0,31.2,0.3,62.3-0.1,93.6c-0.1,9.6,4.9,14.5,14.5,14.5c156.8-0.1,313.6-0.1,470.4,0c9.2,0,15.3-6,15.1-15.1
		c-0.4-30.8-0.3-61.4-0.1-92.2c0.1-10.8-5-16.3-15.8-15.7c-17.2,1-34.3-0.7-51.5-0.4c-38.6,0.7-77.1,0.3-115.7,0.4
		c-78.3,0.1-156.5,0-234.9,0.1c-4.7,0-9.3-0.7-13.6-2.8"/>
	<path vector-effect="non-scaling-stroke" class="st0" d="M141,376.7c-30.5,0-60.8,0-91.4,0"/>
	<path vector-effect="non-scaling-stroke" class="st0" d="M127.4,95.3c-10.7,2.5-12.9,2.7-13.7,15c-0.9,11.4-0.4,22.9-0.6,34.3
		c-0.1,35-0.1,70,0,105c0,5.8,0.3,11.4,0.7,17.2c0.4,6.2,3.6,9.7,10,10.7c2.8,0.4,5.8,0.7,8.6,0.7c80,0,159.9,0,239.8,0
		c4,0,8.1-0.1,12.1-0.7c6.2-0.9,10-6.5,10-15c0-27.8,0-55.8,0-83.6c0-22.5,0-44.7,0-67.2c0-9.2-3.6-14.8-10-15.7
		c-4.3-0.6-8.6-0.7-12.9-0.7c-81.2,0-162.3,0-243.5,0"/>
</g>
</svg>
