<?xml version="1.0" encoding="utf-8"?>
<!-- Generator: Adobe Illustrator 19.2.1, SVG Export Plug-In . SVG Version: 6.00 Build 0)  -->
<svg version="1.1" id="Layer_1" xmlns="http://www.w3.org/2000/svg" xmlns:xlink="http://www.w3.org/1999/xlink" x="0px" y="0px"
	 viewBox="0 0 512 512" style="enable-background:new 0 0 512 512;" xml:space="preserve">
<style type="text/css">
	.st0{fill:#FFFFFF;stroke:#000000;stroke-miterlimit:10;}
</style>
<g>
	<path vector-effect="non-scaling-stroke" class="st0" d="M6,358.5c7.7-21.2,14.4-25.8,37.4-25.8c41.4,0,82.8-0.1,124.2,0.2c4.1,0,9,2.2,12,5c11.3,10.6,22,21.9,33,32.9
		c26.3,26.1,60.3,26.2,86.7,0.1c11.2-11.1,22.1-22.5,33.7-33.3c2.8-2.7,7.5-4.7,11.4-4.7c41.4-0.3,82.8-0.2,124.2-0.2
		c23.1,0,29.7,4.6,37.4,25.8c0,34.2,0,68.3,0,102.5c-7.7,20.8-14.2,25.1-37,25.1c-142,0-284,0-426,0c-22.8,0-29.3-4.4-37-25.1
		C6,426.8,6,392.7,6,358.5z M382.7,426.8c-0.1-11-9.5-20.5-20.4-20.7c-11.2-0.2-21.1,9.7-21,21c0.1,11.4,9.9,20.9,21.3,20.5
		C373.7,447.3,382.8,437.9,382.7,426.8z M446.1,447.7c10.9,0,20.7-9.5,21-20.3c0.3-10.9-9.9-21.2-21-21.2
		c-11.1,0-21.2,10.3-20.9,21.2C425.5,438.2,435.2,447.7,446.1,447.7z"/>
	<path vector-effect="non-scaling-stroke" class="st0" d="M313.5,179.3c19.9,0,38.8,0,57.6,0c5.4,0,10.9,0.1,16.3,0c9.4-0.3,16.7,2.8,20.6,11.9
		c3.9,9.3,0.4,16.3-6.3,22.9c-41.1,40.9-82,81.9-123,122.9c-20.3,20.3-25.2,20.3-45.4,0.1c-40.8-40.8-81.6-81.6-122.5-122.3
		c-6.7-6.7-11-13.6-7-23.4c3.7-8.8,10.5-12.1,19.7-12.1c22,0.1,44,0,66,0c2.8,0,5.5,0,8.9,0c0-3.9,0-6.7,0-9.5
		c0-40.1,0-80.2,0-120.3c0-16.4,7.2-23.5,23.7-23.6c22.8-0.1,45.5-0.1,68.3,0c15.9,0.1,23,7.4,23.1,23.4c0,40.1,0,80.2,0,120.3
		C313.5,172.5,313.5,175.3,313.5,179.3z"/>
</g>
</svg>
