<?xml version="1.0" encoding="utf-8"?>
<!-- Generator: Adobe Illustrator 19.2.1, SVG Export Plug-In . SVG Version: 6.00 Build 0)  -->
<svg version="1.1" id="Layer_1" xmlns="http://www.w3.org/2000/svg" xmlns:xlink="http://www.w3.org/1999/xlink" x="0px" y="0px"
	 viewBox="0 0 512 512" style="enable-background:new 0 0 512 512;" xml:space="preserve">
<style type="text/css">
	.st0{fill:#FFFFFF;stroke:#000000;stroke-linecap:round;stroke-linejoin:round;stroke-miterlimit:10;}
	.st1{fill:none;stroke:#000000;stroke-miterlimit:10;}
</style>
<g>
	<g>
		<path vector-effect="non-scaling-stroke" class="st0" d="M423.9,116.6c-22.2-22.6-45-44.5-68-66.1c-9.6-9-19-18.2-28.4-27.3
			C325.1,20.9,313.3,6,308.9,6C241.3,6,163.8,6,96,6.1c-15.3,0-27.3,16.1-27.3,27.8c0.3,147.9,0.3,295.7,0,443.5
			c0,13.7,10.7,24.3,21,27c4.3,1.2,8.9,1.6,13.6,1.6c102.6-0.1,205.2-0.1,307.8,0c16.4,0,32.3-12.7,32.1-32.3
			c-0.1-109.3,0-336.4,0-336.4S428.9,121.7,423.9,116.6z"/>
		<path vector-effect="non-scaling-stroke" class="st0" d="M436,136c0,0-69.1-1.8-100-1.6c-13.7,0.1-27-14-27.2-27.7
			c-0.3-25.3-0.1-50.4,0-75.7c0-5.2-0.1-14.8-0.1-20.7"/>
	</g>
	<path vector-effect="non-scaling-stroke" class="st1" d="M375.3,266.3c-3.3-5.3-6.3-11.1-8-17.2c-4.3-16-14.2-24-30.6-24.9
		c-5.8-0.3-12-0.9-17.2-3.1c-13.7-6.2-27.7-5.3-42-3.8c-12.3,1.3-22,5.9-29.4,16.4c-3.4,5-9,8.7-14.5,11.7
		c-11.1,6.3-27.4,38.9-24.6,51.2c0.4,1.9,1.2,3.7,2,5.5c11.8,25.3,28.3,34,58.3,29.4c12.6,20.4,16.4,41,7.1,63.9
		c-12.9,0-25.6,0-38.9,0c-3.4-10.5-6.5-20.1-9.6-29.4c5.8-5.8,17-7.4,8.7-18.8c-27.7,0-55.9,0-85.5,0c0.6,4.9-0.1,9,1.6,11.8
		c1.8,2.7,5.8,4.1,8.6,6c-3.4,11.1-6.3,20.9-9,29.7c-8.3,1.3-14.5,2.4-20.6,3.4c-0.4,2.8-1.2,4.9-0.9,6.7c0.4,2.4,1.8,4.6,2.8,7.6
		c67.6-0.9,134.7,2.1,203.2-0.9c-0.3-5.9-0.6-9.9-0.9-14.5c-11.5-0.7-21.7-1.3-32.6-2c-3.8-20.3-6.4-39,6.4-55.2
		c8.6,0.9,15.5,2,22.6,2c17.3,0.1,22.5-4,28.6-20.3c1.8-4.4,5-8.6,8.4-12C382.7,298,384.8,281.3,375.3,266.3z M167.7,395.9
		c3.7-11.8,7.1-22.5,10.5-33.3c11.8,0,22,0,33.6,0c3.4,10.7,7,21.3,10.8,33.3C204.2,395.9,187,395.9,167.7,395.9z M292.9,345
		c-9-2.1-11-8.6-13.3-19.5c8.6,2.8,13.6,4.6,19.7,6.5C296.9,337.2,295,340.9,292.9,345z"/>
</g>
</svg>
