<?xml version="1.0" encoding="utf-8"?>
<!-- Generator: Adobe Illustrator 19.2.1, SVG Export Plug-In . SVG Version: 6.00 Build 0)  -->
<svg version="1.1" id="Layer_1" xmlns="http://www.w3.org/2000/svg" xmlns:xlink="http://www.w3.org/1999/xlink" x="0px" y="0px"
	 viewBox="0 0 512 512" style="enable-background:new 0 0 512 512;" xml:space="preserve">
<style type="text/css">
	.st0{fill:#FFFFFF;stroke:#000000;stroke-linecap:round;stroke-linejoin:round;stroke-miterlimit:10;}
	.st1{fill:none;stroke:#000000;stroke-miterlimit:10;}
</style>
<g>
	<path vector-effect="non-scaling-stroke" class="st0" d="M424,116.6C401.8,94,379,72,356,50.4c-9.6-9-19-18.2-28.4-27.3
		C325.2,20.9,313.4,6,309,6C241.3,6,163.8,6,96,6.1c-15.3,0-27.3,16.1-27.3,27.8c0.3,147.9,0.3,295.7,0,443.5
		c0,13.7,10.7,24.3,21,27c4.3,1.2,8.9,1.6,13.6,1.6c102.6-0.1,205.2-0.1,307.8,0c16.4,0,32.3-12.7,32.1-32.3
		c-0.1-109.3,0-336.4,0-336.4S429,121.7,424,116.6z"/>
	<path vector-effect="non-scaling-stroke" class="st0" d="M436.1,136c0,0-69.1-1.8-100-1.6c-13.7,0.1-27-14-27.2-27.7
		c-0.3-25.3-0.1-50.4,0-75.7c0-5.2-0.1-14.8-0.1-20.7"/>
	<path vector-effect="non-scaling-stroke" class="st1" d="M229.2,463.1c-7.7-0.4-15.5-1.5-23.2-2.8c-6.4-1-10.2-5.3-10.2-11.1
		c-0.4-18,1.5-28.7,18-34.9c2.8-1,5.3-1.9,8.3-3.4l8.9-4c5.9-2.8,7.3-12,3.4-17c-0.4-1-2-1-3.4-1.5c-7.3-2.4-14.6-4.4-21.9-6.8
		c-3.8-1.5-7.3-4.9-8.7-9.7c11.1-1.5,14-9.7,16-18.5c1.5-7.3,2.4-15,4.4-22.3c3.8-15,12-26.8,28.7-30c20.4-4.4,40.7,9.7,43.2,30.5
		c1,6.8,1.5,13.6,2.4,20.4c1.9,9.9,6.3,17.7,17.4,21.4c-2.8,2.8-4.9,6.3-7.7,7.7c-6.8,2.8-13.6,5.9-20.4,7.3c-4.9,1-6.8,2.8-7.7,7.3
		c-1,4.4,1,9.2,4.9,11.1c2.8,1.5,5.9,2.8,8.7,3.8c2.8,1.5,5.3,2.4,8.3,3.4c16.4,6.3,18.5,17,18,34.9c0,5.9-3.8,10.2-10.2,11.1
		c-7.7,1.5-15.5,2.4-23.2,2.8c-9.7,0.4-19.8,0-30.5,0L229.2,463.1L229.2,463.1z"/>
	<path vector-effect="non-scaling-stroke" class="st1" d="M175.2,401.5h-11.7c-5.6,0-10.2-4.6-10.2-10.2V280.8
		c0-5.6,4.6-10.2,10.2-10.2h185c5.6,0,10.2,4.6,10.2,10.2v110.6c0,5.6-4.6,10.2-10.2,10.2h-11.7"/>
	<path vector-effect="non-scaling-stroke" class="st1" d="M194.2,270.6v-42.3c0-34.2,27.7-61.8,61.8-61.8s61.8,27.7,61.8,61.8v42.3
		H194.2z"/>
</g>
</svg>
