<?xml version="1.0" encoding="utf-8"?>
<!-- Generator: Adobe Illustrator 19.2.1, SVG Export Plug-In . SVG Version: 6.00 Build 0)  -->
<svg version="1.1" id="Layer_1" xmlns="http://www.w3.org/2000/svg" xmlns:xlink="http://www.w3.org/1999/xlink" x="0px" y="0px"
	 viewBox="0 0 512 512" style="enable-background:new 0 0 512 512;" xml:space="preserve">
<style type="text/css">
	.st0{fill:#FFFFFF;stroke:#000000;stroke-linecap:round;stroke-linejoin:round;stroke-miterlimit:10;}
</style>
<g>
	<path vector-effect="non-scaling-stroke" class="st0" d="M14.7,19.4c-8,2-8.7,3-8.7,12.1c0,111.1,0,222,0,332.9
		c0,42.2,0,84.2,0.1,126.3c0,4.1,2.7,12.3,9.2,12.3c31,0,82.7,0.6,108.4,0.6c10.2,0,9.5-9.6,9.5-13.7c0.1-152.6,0.1-305.2,0.1-457.6
		c0-0.3,0-0.7,0-1c-0.4-9.9-1.9-11.5-11.7-11.7c-35.5-0.1-70.9,0-106.5,0"/>
	<path vector-effect="non-scaling-stroke" class="st0" d="M181.6,19.4c-7.8,2-8.7,3-8.7,12.3c0,111.1,0,222,0,332.9
		c0,42.2,0,84.2,0.1,126.3c0,4.1,2.7,12.3,9.2,12.3c31,0,82.7,0.6,108.4,0.6c10.2,0,9.5-9.6,9.5-13.7c0.3-152.9,0.3-305.3,0.3-457.9
		c0-0.3,0-0.7,0-1c-0.4-9.9-1.9-11.5-11.7-11.7c-35.5-0.1-70.9,0-106.5,0"/>
	<path vector-effect="non-scaling-stroke" class="st0" d="M308,26.9c-7.4,3.3-8,4.4-6.4,13.6c19,109.3,38,218.8,57,328.1
		c7.1,41.4,14.3,83,21.7,124.4c0.7,4,4.7,11.5,11.1,10.5c30.6-5.3,81.6-13.6,106.9-18c10-1.8,7.7-11,7-15.1
		c-26-150.4-52.2-300.7-78.3-451c0-0.3-0.1-0.7-0.1-1c-2.1-9.8-3.7-11.2-13.6-9.5c-35,6-69.8,12.1-104.9,18.2"/>
	<path vector-effect="non-scaling-stroke" class="st0" d="M96.2,95.3c-18,0-36,0-54,0"/>
	<path vector-effect="non-scaling-stroke" class="st0" d="M96.2,381.3c-18,0-36,0-54,0"/>
	<path vector-effect="non-scaling-stroke" class="st0" d="M95.6,425.6c-17.7,0-35.3,0-53,0"/>
	<path vector-effect="non-scaling-stroke" class="st0" d="M263.2,95.3c-18,0-36,0-54,0"/>
	<path vector-effect="non-scaling-stroke" class="st0" d="M263.2,381.3c-18,0-36,0-54,0"/>
	<path vector-effect="non-scaling-stroke" class="st0" d="M262.6,425.6c-17.7,0-35.3,0-53,0"/>
	<path vector-effect="non-scaling-stroke" class="st0" d="M401.4,87.9c-17.7,3.1-35.5,6.2-53.1,9.3"/>
	<path vector-effect="non-scaling-stroke" class="st0" d="M450.2,369.8c-17.7,3.1-35.5,6.2-53.1,9.3"/>
	<path vector-effect="non-scaling-stroke" class="st0" d="M457.3,413.4c-17.4,3-34.7,6-52.2,9"/>
</g>
</svg>
