<?xml version="1.0" encoding="utf-8"?>
<!-- Generator: Adobe Illustrator 20.1.0, SVG Export Plug-In . SVG Version: 6.00 Build 0)  -->
<svg version="1.1" id="Layer_1" xmlns="http://www.w3.org/2000/svg" xmlns:xlink="http://www.w3.org/1999/xlink" x="0px" y="0px"
	 viewBox="0 0 1000 350" style="enable-background:new 0 0 1000 350;" xml:space="preserve">
<style type="text/css">
	.st0{fill:#999999;}
</style>
<g>
	<path class="st0" d="M91.3,178.2v-105H121c5.8,0,11,0.8,15.8,2.3c4.8,1.5,8.8,3.7,12.1,6.6c3.3,2.9,5.9,6.4,7.7,10.7
		c1.8,4.2,2.7,9,2.7,14.3c0,4.2-0.6,8.4-1.9,12.6c-1.2,4.2-3.3,7.9-6.1,11.2c-2.8,3.3-6.5,6-11,8.1c-4.5,2.1-10.1,3.1-16.7,3.1
		h-14.7v36.1H91.3z M108.9,125.5H123c3.6,0,6.7-0.6,9.1-1.9c2.4-1.2,4.3-2.8,5.8-4.7c1.4-1.9,2.4-3.8,3-5.9c0.6-2.1,0.9-3.9,0.9-5.5
		c0-1.5-0.3-3.3-0.8-5.4c-0.5-2.1-1.5-4-2.9-5.8c-1.4-1.8-3.3-3.4-5.7-4.6c-2.4-1.2-5.5-1.9-9.2-1.9h-14.3V125.5z"/>
	<path class="st0" d="M170.1,93.2c0-2.5,0.9-4.6,2.7-6.2c1.8-1.6,3.8-2.4,5.9-2.4c2.1,0,4.1,0.8,5.8,2.4c1.8,1.6,2.7,3.7,2.7,6.2
		c0,2.6-0.9,4.7-2.7,6.3c-1.8,1.6-3.7,2.4-5.8,2.4c-2.1,0-4.1-0.8-5.9-2.4C171,97.9,170.1,95.8,170.1,93.2z M185.5,178.2h-13.8V117
		h13.8V178.2z"/>
	<path class="st0" d="M243.4,162.2c1.4,1.8,2.8,3.6,4.2,5.3c1.3,1.7,2.7,3.4,4.2,5.1c-2.8,2.2-5.9,4-9.4,5.3s-7.2,1.9-11.1,1.9
		c-4.5,0-8.8-0.8-12.7-2.5c-4-1.7-7.4-4-10.4-6.9c-2.9-2.9-5.3-6.4-7-10.3c-1.7-3.9-2.6-8.1-2.6-12.5c0-4.4,0.9-8.6,2.6-12.5
		c1.7-3.9,4.1-7.3,7-10.2c2.9-2.9,6.4-5.2,10.4-6.9c4-1.7,8.2-2.5,12.7-2.5c4,0,7.8,0.6,11.3,1.9c3.5,1.3,6.7,3,9.6,5.3l-8.8,10.2
		c-3.4-2.6-7.4-3.9-12.1-3.9c-2.8,0-5.3,0.5-7.6,1.4c-2.3,1-4.3,2.3-6,3.9c-1.7,1.6-3,3.6-3.9,5.8c-0.9,2.3-1.4,4.7-1.4,7.4
		c0,2.6,0.5,5,1.4,7.3c0.9,2.3,2.2,4.2,3.9,6c1.7,1.7,3.7,3.1,6,4c2.3,1,4.8,1.4,7.6,1.4C236.1,166.2,240.1,164.9,243.4,162.2z"/>
	<path class="st0" d="M307.8,115.6l8.2,8.1c-3.6,3.4-7.1,6.6-10.4,9.9c-3.3,3.2-6.8,6.5-10.4,9.9c4.3,5.8,8.5,11.6,12.7,17.4
		c4.1,5.9,8.4,11.7,12.7,17.4h-15.8c-3.2-4.3-6.4-8.6-9.6-12.9c-3.3-4.3-6.4-8.6-9.5-12.9l-7.9,7.2v18.6h-13.8V65.7h13.8v77.9
		c5.2-4.9,10.2-9.6,15.1-14C297.5,125.1,302.6,120.4,307.8,115.6z"/>
	<path class="st0" d="M358.6,148.2c0-4.4,0.9-8.6,2.6-12.6c1.7-4,4.1-7.5,7-10.4c2.9-3,6.3-5.4,10.2-7.1c3.9-1.8,8-2.7,12.3-2.7
		c2.9,0,5.5,0.4,7.8,1.1c2.3,0.7,4.3,1.6,6,2.5c1.7,1,3,1.9,4,3c1,1,1.6,1.8,1.9,2.4l0.6-7.3h13.4v61.2h-14v-4c0-0.5,0-0.9,0.1-1.4
		c0-0.4,0.1-0.7,0.1-0.9c-0.4,0.5-1.1,1.2-2,2.1c-1,0.9-2.3,1.8-3.9,2.7c-1.6,0.9-3.6,1.6-5.8,2.2c-2.3,0.6-4.9,0.9-7.8,0.9
		c-4.7,0-9-0.9-13-2.6c-3.9-1.7-7.3-4-10.2-6.9s-5.1-6.2-6.7-10C359.4,156.5,358.6,152.5,358.6,148.2z M372.6,147.4
		c0,2.7,0.5,5.2,1.4,7.5c0.9,2.3,2.2,4.3,3.9,6c1.7,1.7,3.7,3,6,4c2.3,1,4.8,1.4,7.6,1.4c2.8,0,5.3-0.5,7.6-1.4c2.3-1,4.3-2.3,6-4
		c1.7-1.7,3-3.7,3.9-6c0.9-2.3,1.4-4.8,1.4-7.3c0-2.6-0.5-5-1.4-7.3c-0.9-2.3-2.2-4.2-3.9-5.8c-1.7-1.6-3.7-2.9-6-3.9
		c-2.3-1-4.8-1.4-7.6-1.4c-2.8,0-5.3,0.5-7.6,1.4c-2.3,0.9-4.3,2.2-6,3.9c-1.7,1.7-3,3.6-3.9,5.9C373,142.4,372.6,144.8,372.6,147.4
		z"/>
	<path class="st0" d="M470.3,147.7c0-4.8,0.8-9.2,2.4-13.1c1.6-3.9,3.8-7.3,6.6-10.2c2.8-2.8,6.1-5,9.9-6.6
		c3.8-1.6,7.9-2.4,12.5-2.4c3.1,0,5.8,0.3,8.1,1c2.3,0.7,4.3,1.5,5.9,2.4c1.6,1,3,2,4,3.1c1,1.1,1.8,2,2.4,2.8v-59h13.8v112.5H522
		v-4c0-0.5,0-1,0.1-1.6c0.1-0.6,0.1-1,0.1-1.3c-0.9,0.9-1.9,1.8-3.2,2.8c-1.2,1-2.7,1.9-4.5,2.8c-1.7,0.9-3.7,1.6-5.8,2.1
		c-2.2,0.5-4.6,0.8-7.4,0.8c-4.9,0-9.3-0.8-13.2-2.5c-3.9-1.7-7.2-4-9.8-6.9c-2.6-2.9-4.7-6.3-6-10.2
		C471,156.2,470.3,152.1,470.3,147.7z M484.2,147.4c0,2.7,0.5,5.2,1.4,7.5c0.9,2.3,2.2,4.3,3.9,6c1.7,1.7,3.7,3,6,4
		c2.3,1,4.8,1.4,7.6,1.4c2.8,0,5.3-0.5,7.7-1.4c2.4-1,4.4-2.3,6-4c1.7-1.7,3-3.7,3.9-6c0.9-2.3,1.4-4.8,1.4-7.3c0-2.6-0.5-5-1.4-7.3
		c-0.9-2.3-2.2-4.2-3.9-5.8c-1.7-1.6-3.7-2.9-6-3.9c-2.4-1-4.9-1.4-7.7-1.4c-2.8,0-5.3,0.5-7.6,1.4c-2.3,0.9-4.3,2.2-6,3.9
		c-1.7,1.7-3,3.6-3.9,5.9C484.6,142.4,484.2,144.8,484.2,147.4z"/>
	<path class="st0" d="M549,148.2c0-4.4,0.9-8.6,2.6-12.6c1.7-4,4.1-7.5,7-10.4c2.9-3,6.3-5.4,10.2-7.1c3.9-1.8,8-2.7,12.3-2.7
		c2.9,0,5.5,0.4,7.8,1.1c2.3,0.7,4.3,1.6,6,2.5c1.7,1,3,1.9,4,3c1,1,1.6,1.8,1.9,2.4l0.6-7.3h13.4v61.2h-14v-4c0-0.5,0-0.9,0.1-1.4
		c0-0.4,0.1-0.7,0.1-0.9c-0.4,0.5-1.1,1.2-2,2.1c-1,0.9-2.3,1.8-3.9,2.7c-1.6,0.9-3.6,1.6-5.8,2.2c-2.3,0.6-4.9,0.9-7.8,0.9
		c-4.7,0-9-0.9-13-2.6c-3.9-1.7-7.3-4-10.2-6.9s-5.1-6.2-6.7-10C549.8,156.5,549,152.5,549,148.2z M562.9,147.4
		c0,2.7,0.5,5.2,1.4,7.5c0.9,2.3,2.2,4.3,3.9,6c1.7,1.7,3.7,3,6,4c2.3,1,4.8,1.4,7.6,1.4c2.8,0,5.3-0.5,7.6-1.4c2.3-1,4.3-2.3,6-4
		c1.7-1.7,3-3.7,3.9-6c0.9-2.3,1.4-4.8,1.4-7.3c0-2.6-0.5-5-1.4-7.3c-0.9-2.3-2.2-4.2-3.9-5.8c-1.7-1.6-3.7-2.9-6-3.9
		c-2.3-1-4.8-1.4-7.6-1.4c-2.8,0-5.3,0.5-7.6,1.4c-2.3,0.9-4.3,2.2-6,3.9c-1.7,1.7-3,3.6-3.9,5.9
		C563.4,142.4,562.9,144.8,562.9,147.4z"/>
	<path class="st0" d="M637.2,90.2h13.7V117h16v12.4h-16v48.8h-13.7v-48.8h-10.4V117h10.4V90.2z"/>
	<path class="st0" d="M672.1,148.2c0-4.4,0.9-8.6,2.6-12.6c1.7-4,4.1-7.5,7-10.4c2.9-3,6.3-5.4,10.2-7.1c3.9-1.8,8-2.7,12.3-2.7
		c2.9,0,5.5,0.4,7.8,1.1c2.3,0.7,4.3,1.6,6,2.5c1.7,1,3,1.9,4,3c1,1,1.6,1.8,1.9,2.4l0.6-7.3h13.4v61.2h-14v-4c0-0.5,0-0.9,0.1-1.4
		c0-0.4,0.1-0.7,0.1-0.9c-0.4,0.5-1.1,1.2-2,2.1c-1,0.9-2.3,1.8-3.9,2.7c-1.6,0.9-3.6,1.6-5.8,2.2c-2.3,0.6-4.9,0.9-7.8,0.9
		c-4.7,0-9-0.9-13-2.6c-3.9-1.7-7.3-4-10.2-6.9s-5.1-6.2-6.7-10C672.9,156.5,672.1,152.5,672.1,148.2z M686,147.4
		c0,2.7,0.5,5.2,1.4,7.5c0.9,2.3,2.2,4.3,3.9,6c1.7,1.7,3.7,3,6,4c2.3,1,4.8,1.4,7.6,1.4c2.8,0,5.3-0.5,7.6-1.4c2.3-1,4.3-2.3,6-4
		c1.7-1.7,3-3.7,3.9-6c0.9-2.3,1.4-4.8,1.4-7.3c0-2.6-0.5-5-1.4-7.3c-0.9-2.3-2.2-4.2-3.9-5.8c-1.7-1.6-3.7-2.9-6-3.9
		c-2.3-1-4.8-1.4-7.6-1.4c-2.8,0-5.3,0.5-7.6,1.4c-2.3,0.9-4.3,2.2-6,3.9c-1.7,1.7-3,3.6-3.9,5.9C686.5,142.4,686,144.8,686,147.4z"
		/>
	<path class="st0" d="M789.6,122.5c-0.6,0.9-1.3,1.8-2.1,3c-0.8,1.1-1.6,2.1-2.4,3.1c-0.8,1-1.7,2.2-2.7,3.6c-1-0.7-1.9-1.2-2.8-1.6
		c-0.9-0.4-2-0.7-3.2-1.1c-1.2-0.3-2.4-0.5-3.7-0.5c-1.3,0-2.8,0.3-4.2,0.9c-1.5,0.6-2.2,1.9-2.2,3.8c0,1.6,0.6,3,1.9,4.1
		c1.3,1.1,2.9,2.1,4.8,3c1.9,0.9,3.9,1.8,6.2,2.8c2.3,1,4.3,2.2,6.2,3.6s3.5,3.2,4.8,5.4s1.9,4.8,1.9,8c0,2.8-0.5,5.3-1.5,7.6
		s-2.4,4.3-4.3,5.9c-1.9,1.6-4.1,2.9-6.7,3.9c-2.6,1-5.5,1.4-8.8,1.4c-3.9,0-7.8-0.7-11.4-2c-3.7-1.3-6.6-3.3-8.7-5.8
		c0.7-0.8,1.5-1.7,2.4-2.9c1-1.2,1.9-2.3,2.7-3.3c0.9-1.1,1.9-2.3,3.2-3.7c0-0.1,0.3,0.1,0.9,0.5c0.6,0.4,1.5,0.9,2.5,1.5
		c1.1,0.6,2.3,1.1,3.7,1.6c1.4,0.5,2.9,0.7,4.5,0.7c2.4,0,4.2-0.5,5.5-1.6c1.3-1.1,1.9-2.4,1.9-3.9c0-1.5-0.6-2.8-1.9-3.7
		c-1.3-1-2.9-1.8-4.8-2.7c-1.9-0.8-3.9-1.7-6.2-2.7c-2.3-1-4.3-2.2-6.2-3.6c-1.9-1.4-3.5-3.3-4.8-5.5c-1.3-2.3-1.9-5.1-1.9-8.6
		s0.6-6.3,1.9-8.6c1.2-2.3,2.9-4.2,4.8-5.6c2-1.4,4.1-2.5,6.4-3.1c2.3-0.6,4.6-0.9,6.8-0.9c3,0,6.1,0.6,9.3,1.8
		C784.7,118.6,787.4,120.3,789.6,122.5z"/>
	<path class="st0" d="M857.7,171.1c-3,2.7-6.6,4.8-10.8,6.3c-4.2,1.5-8.5,2.3-13,2.3c-4.5,0-8.8-0.8-12.7-2.5c-4-1.7-7.4-4-10.4-6.9
		c-2.9-2.9-5.3-6.3-7-10.2c-1.7-3.9-2.6-8-2.6-12.5c0-4.4,0.9-8.6,2.6-12.5c1.7-3.9,4.1-7.3,7-10.2c2.9-2.9,6.3-5.2,10.2-6.9
		c3.9-1.7,8-2.5,12.3-2.5c6.9,0,13,2.1,18.2,6.3c5.2,4.2,9,9.7,11.2,16.5c-2.9,1.1-6.2,2.3-10,3.8c-3.8,1.5-7.8,3-11.9,4.7
		c-4.1,1.6-8.3,3.3-12.4,5c-4.1,1.7-7.9,3.2-11.4,4.5c1.6,3,3.9,5.4,6.8,7.2c2.9,1.8,6.1,2.7,9.8,2.7c2.5,0,5-0.5,7.6-1.4
		c2.5-0.9,4.6-2.1,6.3-3.7L857.7,171.1z M845.6,135.1c-1.2-2.1-2.9-3.7-5.2-4.7c-2.3-1-4.6-1.5-6.8-1.5c-2.6,0-5,0.5-7.3,1.5
		c-2.3,1-4.3,2.4-5.9,4c-1.6,1.7-2.9,3.6-3.9,5.8c-1,2.2-1.4,4.4-1.4,6.7v0.6c2.4-1,5-2,7.7-3.1c2.7-1.1,5.5-2.2,8.2-3.4
		c2.7-1.2,5.4-2.2,7.8-3.2C841.3,136.8,843.6,135.9,845.6,135.1z"/>
	<path class="st0" d="M879,90.2h13.7V117h16v12.4h-16v48.8H879v-48.8h-10.4V117H879V90.2z"/>
</g>
<path class="st0" d="M386.1,284.3c-1.3-0.8-2.7-1.5-3.7-2.5c-5.7-5.5-11.4-11.1-16.8-16.8c-3.4-3.6-3.2-8,0.3-11.6
	c5.3-5.4,10.7-10.8,16.1-16.1c2.8-2.7,6.1-3.5,9.6-1.9c3.4,1.5,4.9,4.4,4.9,8.1c0,2.4,0,4.9,0,7.4c5.3-0.4,227,0.3,231.9,0.3
	c4.8,0,8.4,3.7,8.4,8.1c0,4.5-3.5,8.2-8.3,8.2c-6.1,0-228-0.4-231.9,0.8c-0.1,6,1.6,13-6.5,16C388.8,284.3,387.4,284.3,386.1,284.3z
	"/>
</svg>
