<?xml version="1.0" encoding="utf-8"?>
<!-- Generator: Adobe Illustrator 20.1.0, SVG Export Plug-In . SVG Version: 6.00 Build 0)  -->
<svg version="1.1" id="Layer_1" xmlns="http://www.w3.org/2000/svg" xmlns:xlink="http://www.w3.org/1999/xlink" x="0px" y="0px"
	 viewBox="0 0 1000 350" style="enable-background:new 0 0 1000 350;" xml:space="preserve">
<style type="text/css">
	.st0{fill:#999999;}
</style>
<path class="st0" d="M838.3,72.5c1.3,0.8,2.7,1.5,3.7,2.5c5.7,5.5,11.4,11.1,16.8,16.8c3.4,3.6,3.2,8-0.3,11.6
	c-5.3,5.4-10.7,10.8-16.1,16.1c-2.8,2.7-6.1,3.5-9.6,1.9c-3.4-1.5-4.9-4.4-4.9-8.1c0-2.4,0-4.9,0-7.4c-5.3,0.4-227-0.3-231.9-0.3
	c-4.8,0-8.4-3.7-8.4-8.1c0-4.5,3.5-8.2,8.3-8.2c6.1,0,228,0.4,231.9-0.8c0.1-6-1.6-13,6.5-16C835.6,72.5,837,72.5,838.3,72.5z"/>
<g>
	<path class="st0" d="M116.2,45.5h34.3c20.4,0,36.7,7.5,36.7,30.2c0,22-16.8,31.8-36.7,31.8h-13v31.8h-21.3V45.5z M149.2,90.7
		c11.7,0,17.3-5.2,17.3-15c0-9.8-6-13.4-17.3-13.4h-11.7v28.4H149.2z"/>
	<path class="st0" d="M200.1,46.4c0-6.5,5.2-10.9,12.2-10.9c7.2,0,12.2,4.5,12.2,10.9c0,6.5-5,11.1-12.2,11.1
		C205.2,57.5,200.1,52.9,200.1,46.4z M201.8,68h21.2v71.4h-21.2V68z"/>
	<path class="st0" d="M274.5,66.2c8.8,0,16.1,3.3,20.9,8.2l-9.6,13.1c-3.5-2.9-6.6-4.2-9.9-4.2c-10.2,0-16.7,7.9-16.7,20.3
		s6.8,20.3,16,20.3c5.2,0,9.4-2.4,12.8-5.2l8.5,13.4c-6.9,6-16,8.9-23.8,8.9c-19.9,0-35.3-13.7-35.3-37.4
		C237.3,79.9,254.8,66.2,274.5,66.2z"/>
	<path class="st0" d="M308.8,38.5h20.6v57.9h0.6L352.5,68h23l-25.1,29.4l26.9,42h-22.9l-16.1-27.8l-9.1,10.2v17.6h-20.6V38.5z"/>
	<path class="st0" d="M455.2,93.5c-0.4-6.3-3.6-10.4-11.2-10.4c-6,0-12.1,2.4-19,6.5l-7.5-14c9.1-5.5,19.3-9.4,30.5-9.4
		c18.3,0,28.4,10.4,28.4,32.3v40.9h-17.3l-1.6-7.3h-0.4c-6,5.3-12.8,9.1-20.9,9.1c-13,0-21.2-9.5-21.2-21.6
		C415,104.6,427,96.3,455.2,93.5z M443.4,124.7c4.9,0,8.1-2.3,11.8-6v-12.5c-15.1,2-20,6.3-20,11.8
		C435.2,122.6,438.4,124.7,443.4,124.7z"/>
	<path class="st0" d="M107,212h21.3l9.2,33.7c1.9,7.1,3.7,14.5,5.6,22h0.6c1.7-7.5,3.6-15,5.5-22l9.4-33.7h20.3l-23.3,71.4h-24.5
		L107,212z"/>
	<path class="st0" d="M188.2,190.4c0-6.5,5.2-10.9,12.2-10.9c7.2,0,12.2,4.5,12.2,10.9s-5,11.1-12.2,11.1
		C193.4,201.5,188.2,196.9,188.2,190.4z M190,212h21.2v71.4H190V212z"/>
	<path class="st0" d="M232.9,261.9c6.5,4.9,12.4,7.5,18.4,7.5c6.3,0,9.1-2.3,9.1-6c0-4.8-7.2-6.9-14.5-9.8
		c-8.6-3.3-18.9-9.2-18.9-21c0-13.2,10.8-22.3,27.4-22.3c10.9,0,19,4.5,25.2,9.1L270,232c-5.2-3.7-10.1-6-15.1-6
		c-5.5,0-8.1,2-8.1,5.6c0,4.6,6.6,6.3,14,9.1c9.1,3.3,19.3,8.4,19.3,21.5c0,13-10.2,23-29.4,23c-9.4,0-20.2-4-27.4-9.9L232.9,261.9z
		"/>
	<path class="st0" d="M292.8,212H314v41.6c0,10.2,2.7,13.5,8.9,13.5c5.3,0,8.5-2.3,12.7-7.9V212h21.2v71.4h-17.3l-1.6-9.9h-0.4
		c-6,7.2-12.7,11.7-22.5,11.7c-15.6,0-22.2-10.9-22.2-28.8V212z"/>
	<path class="st0" d="M412.9,237.5c-0.4-6.3-3.6-10.4-11.2-10.4c-6,0-12.1,2.4-19,6.5l-7.5-14c9.1-5.5,19.3-9.4,30.5-9.4
		c18.3,0,28.4,10.4,28.4,32.3v40.9h-17.3l-1.6-7.3h-0.4c-6,5.3-12.8,9.1-20.9,9.1c-13,0-21.2-9.5-21.2-21.6
		C372.7,248.6,384.7,240.3,412.9,237.5z M401.1,268.7c4.9,0,8.1-2.3,11.8-6v-12.5c-15.1,2-20,6.3-20,11.8
		C392.9,266.6,396,268.7,401.1,268.7z"/>
	<path class="st0" d="M452.2,182.5h21.2v79.6c0,4.5,2,5.9,3.7,5.9c0.9,0,1.4,0,2.6-0.3l2.6,15.7c-2.3,1-5.9,1.7-10.7,1.7
		c-14.5,0-19.4-9.5-19.4-23.9V182.5z"/>
	<path class="st0" d="M491.6,190.4c0-6.5,5.2-10.9,12.2-10.9c7.2,0,12.2,4.5,12.2,10.9s-5,11.1-12.2,11.1
		C496.8,201.5,491.6,196.9,491.6,190.4z M493.4,212h21.2v71.4h-21.2V212z"/>
	<path class="st0" d="M529.2,272l30-43.5h-26.6V212h53v11.2l-30,43.6h31v16.6h-57.3V272z"/>
	<path class="st0" d="M634.9,237.5c-0.4-6.3-3.6-10.4-11.2-10.4c-6,0-12.1,2.4-19,6.5l-7.5-14c9.1-5.5,19.3-9.4,30.5-9.4
		c18.3,0,28.4,10.4,28.4,32.3v40.9h-17.3l-1.6-7.3h-0.4c-6,5.3-12.8,9.1-20.9,9.1c-13,0-21.2-9.5-21.2-21.6
		C594.7,248.6,606.7,240.3,634.9,237.5z M623.1,268.7c4.9,0,8.1-2.3,11.8-6v-12.5c-15.1,2-20,6.3-20,11.8
		C614.9,266.6,618.1,268.7,623.1,268.7z"/>
	<path class="st0" d="M677.1,228.5h-9.8v-15.7l10.9-0.9l2.4-19h17.6v19h17.1v16.6h-17.1v28.7c0,8.1,3.6,11.4,9.2,11.4
		c2.3,0,4.9-0.7,6.8-1.4l3.3,15.4c-3.7,1.2-8.9,2.6-15.8,2.6c-17.7,0-24.6-11.1-24.6-27.6V228.5z"/>
	<path class="st0" d="M727.7,190.4c0-6.5,5.2-10.9,12.2-10.9c7.2,0,12.2,4.5,12.2,10.9s-5,11.1-12.2,11.1
		C732.8,201.5,727.7,196.9,727.7,190.4z M729.4,212h21.2v71.4h-21.2V212z"/>
	<path class="st0" d="M799.8,210.2c18,0,34.7,13.7,34.7,37.4c0,23.8-16.7,37.4-34.7,37.4c-18.1,0-34.8-13.7-34.8-37.4
		C765,223.9,781.7,210.2,799.8,210.2z M799.8,268c8.6,0,13.1-7.9,13.1-20.3s-4.5-20.3-13.1-20.3c-8.8,0-13.1,7.9-13.1,20.3
		S791,268,799.8,268z"/>
	<path class="st0" d="M849,212h17.3l1.4,9.1h0.6c6-5.8,13.2-10.8,22.9-10.8c15.6,0,22.2,10.9,22.2,28.8v44.4h-21.2v-41.6
		c0-10.4-2.7-13.5-8.8-13.5c-5.3,0-8.6,2.4-13.2,6.9v48.2H849V212z"/>
</g>
</svg>
