<?xml version="1.0" encoding="utf-8"?>
<!-- Generator: Adobe Illustrator 20.1.0, SVG Export Plug-In . SVG Version: 6.00 Build 0)  -->
<svg version="1.1" id="Layer_1" xmlns="http://www.w3.org/2000/svg" xmlns:xlink="http://www.w3.org/1999/xlink" x="0px" y="0px"
	 viewBox="0 0 1000 350" style="enable-background:new 0 0 1000 350;" xml:space="preserve">
<style type="text/css">
	.st0{fill:#999999;}
</style>
<g>
	<path class="st0" d="M150.2,157.4v-105h29.7c5.8,0,11,0.8,15.8,2.3c4.8,1.5,8.8,3.7,12.1,6.6c3.3,2.9,5.9,6.4,7.7,10.7
		c1.8,4.2,2.7,9,2.7,14.3c0,4.2-0.6,8.4-1.9,12.6c-1.2,4.2-3.3,7.9-6.1,11.2c-2.8,3.3-6.5,6-11,8.1c-4.5,2.1-10.1,3.1-16.7,3.1
		h-14.7v36.1H150.2z M167.8,104.7h14.1c3.6,0,6.7-0.6,9.1-1.9c2.4-1.2,4.3-2.8,5.8-4.7c1.4-1.9,2.4-3.8,3-5.9
		c0.6-2.1,0.9-3.9,0.9-5.5c0-1.5-0.3-3.3-0.8-5.4c-0.5-2.1-1.5-4-2.9-5.8c-1.4-1.8-3.3-3.4-5.7-4.6c-2.4-1.2-5.5-1.9-9.2-1.9h-14.3
		V104.7z"/>
	<path class="st0" d="M229,72.5c0-2.5,0.9-4.6,2.7-6.2c1.8-1.6,3.8-2.4,5.9-2.4c2.1,0,4.1,0.8,5.8,2.4c1.8,1.6,2.7,3.7,2.7,6.2
		c0,2.6-0.9,4.7-2.7,6.3c-1.8,1.6-3.7,2.4-5.8,2.4c-2.1,0-4.1-0.8-5.9-2.4C229.9,77.2,229,75.1,229,72.5z M244.4,157.4h-13.8V96.2
		h13.8V157.4z"/>
	<path class="st0" d="M302.3,141.4c1.4,1.8,2.8,3.6,4.2,5.3c1.3,1.7,2.7,3.4,4.2,5.1c-2.8,2.2-5.9,4-9.4,5.3s-7.2,1.9-11.1,1.9
		c-4.5,0-8.8-0.8-12.7-2.5c-4-1.7-7.4-4-10.4-6.9c-2.9-2.9-5.3-6.4-7-10.3c-1.7-3.9-2.6-8.1-2.6-12.5c0-4.4,0.9-8.6,2.6-12.5
		c1.7-3.9,4.1-7.3,7-10.2c2.9-2.9,6.4-5.2,10.4-6.9c4-1.7,8.2-2.5,12.7-2.5c4,0,7.8,0.6,11.3,1.9c3.5,1.3,6.7,3,9.6,5.3l-8.8,10.2
		c-3.4-2.6-7.4-3.9-12.1-3.9c-2.8,0-5.3,0.5-7.6,1.4c-2.3,1-4.3,2.3-6,3.9c-1.7,1.6-3,3.6-3.9,5.8c-0.9,2.3-1.4,4.7-1.4,7.4
		c0,2.6,0.5,5,1.4,7.3c0.9,2.3,2.2,4.2,3.9,6c1.7,1.7,3.7,3.1,6,4c2.3,1,4.8,1.4,7.6,1.4C295,145.5,299,144.1,302.3,141.4z"/>
	<path class="st0" d="M366.7,94.8l8.2,8.1c-3.6,3.4-7.1,6.6-10.4,9.9c-3.3,3.2-6.8,6.5-10.4,9.9c4.3,5.8,8.5,11.6,12.7,17.4
		c4.1,5.9,8.4,11.7,12.7,17.4h-15.8c-3.2-4.3-6.4-8.6-9.6-12.9c-3.3-4.3-6.4-8.6-9.5-12.9l-7.9,7.2v18.6h-13.8V45h13.8v77.9
		c5.2-4.9,10.2-9.6,15.1-14C356.4,104.4,361.5,99.7,366.7,94.8z"/>
	<path class="st0" d="M417.5,127.5c0-4.4,0.9-8.6,2.6-12.6c1.7-4,4.1-7.5,7-10.4c2.9-3,6.3-5.4,10.2-7.1c3.9-1.8,8-2.7,12.3-2.7
		c2.9,0,5.5,0.4,7.8,1.1c2.3,0.7,4.3,1.6,6,2.5c1.7,1,3,1.9,4,3c1,1,1.6,1.8,1.9,2.4l0.6-7.3h13.4v61.2h-14v-4c0-0.5,0-0.9,0.1-1.4
		c0-0.4,0.1-0.7,0.1-0.9c-0.4,0.5-1.1,1.2-2,2.1c-1,0.9-2.3,1.8-3.9,2.7c-1.6,0.9-3.6,1.6-5.8,2.2c-2.3,0.6-4.9,0.9-7.8,0.9
		c-4.7,0-9-0.9-13-2.6c-3.9-1.7-7.3-4-10.2-6.9s-5.1-6.2-6.7-10C418.3,135.7,417.5,131.7,417.5,127.5z M431.5,126.6
		c0,2.7,0.5,5.2,1.4,7.5c0.9,2.3,2.2,4.3,3.9,6c1.7,1.7,3.7,3,6,4c2.3,1,4.8,1.4,7.6,1.4c2.8,0,5.3-0.5,7.6-1.4c2.3-1,4.3-2.3,6-4
		c1.7-1.7,3-3.7,3.9-6c0.9-2.3,1.4-4.8,1.4-7.3c0-2.6-0.5-5-1.4-7.3c-0.9-2.3-2.2-4.2-3.9-5.8c-1.7-1.6-3.7-2.9-6-3.9
		c-2.3-1-4.8-1.4-7.6-1.4c-2.8,0-5.3,0.5-7.6,1.4c-2.3,0.9-4.3,2.2-6,3.9c-1.7,1.7-3,3.6-3.9,5.9C431.9,121.6,431.5,124,431.5,126.6
		z"/>
	<path class="st0" d="M171.1,305c-5.8-10.8-11.2-21.6-16.4-32.3c-5.2-10.7-10.5-21.5-16-32.5h15c3.6,7.1,6.5,12.8,8.6,17.1
		c2.1,4.3,3.7,7.8,4.8,10.5c1.2,2.7,2,4.8,2.5,6.4c0.5,1.6,1,3.2,1.5,5c0.6-1.7,1.1-3.4,1.7-5c0.5-1.6,1.4-3.7,2.5-6.4
		c1.2-2.7,2.8-6.2,4.8-10.5c2.1-4.3,4.9-10,8.6-17.1h14.8c-5.5,10.9-10.8,21.8-16.1,32.5C182.1,283.4,176.7,294.2,171.1,305z"/>
	<path class="st0" d="M210.9,216.5c0-2.5,0.9-4.6,2.7-6.2c1.8-1.6,3.8-2.4,5.9-2.4c2.1,0,4.1,0.8,5.8,2.4c1.8,1.6,2.7,3.7,2.7,6.2
		c0,2.6-0.9,4.7-2.7,6.3c-1.8,1.6-3.7,2.4-5.8,2.4c-2.1,0-4.1-0.8-5.9-2.4C211.8,221.2,210.9,219.1,210.9,216.5z M226.3,301.4h-13.8
		v-61.2h13.8V301.4z"/>
	<path class="st0" d="M278.1,245.7c-0.6,0.9-1.3,1.8-2.1,3c-0.8,1.1-1.6,2.1-2.4,3.1c-0.8,1-1.7,2.2-2.7,3.6c-1-0.7-1.9-1.2-2.8-1.6
		c-0.9-0.4-2-0.7-3.2-1.1c-1.2-0.3-2.4-0.5-3.7-0.5c-1.3,0-2.8,0.3-4.2,0.9c-1.5,0.6-2.2,1.9-2.2,3.8c0,1.6,0.6,3,1.9,4.1
		c1.3,1.1,2.9,2.1,4.8,3c1.9,0.9,3.9,1.8,6.2,2.8c2.3,1,4.3,2.2,6.2,3.6s3.5,3.2,4.8,5.4s1.9,4.8,1.9,8c0,2.8-0.5,5.3-1.5,7.6
		s-2.4,4.3-4.3,5.9c-1.9,1.6-4.1,2.9-6.7,3.9c-2.6,1-5.5,1.4-8.8,1.4c-3.9,0-7.8-0.7-11.4-2c-3.7-1.3-6.6-3.3-8.7-5.8
		c0.7-0.8,1.5-1.7,2.4-2.9c1-1.2,1.9-2.3,2.7-3.3c0.9-1.1,1.9-2.3,3.2-3.7c0-0.1,0.3,0.1,0.9,0.5c0.6,0.4,1.5,0.9,2.5,1.5
		c1.1,0.6,2.3,1.1,3.7,1.6c1.4,0.5,2.9,0.7,4.5,0.7c2.4,0,4.2-0.5,5.5-1.6c1.3-1.1,1.9-2.4,1.9-3.9c0-1.5-0.6-2.8-1.9-3.7
		c-1.3-1-2.9-1.8-4.8-2.7c-1.9-0.8-3.9-1.7-6.2-2.7c-2.3-1-4.3-2.2-6.2-3.6c-1.9-1.4-3.5-3.3-4.8-5.5c-1.3-2.3-1.9-5.1-1.9-8.6
		s0.6-6.3,1.9-8.6c1.2-2.3,2.9-4.2,4.8-5.6c2-1.4,4.1-2.5,6.4-3.1c2.3-0.6,4.6-0.9,6.8-0.9c3,0,6.1,0.6,9.3,1.8
		C273.2,241.8,275.9,243.5,278.1,245.7z"/>
	<path class="st0" d="M351.8,302.9h-11.5l-1.7-17c-2.2,4.9-5.3,9-9.1,12.2c-3.9,3.2-9,4.8-15.3,4.8s-11.4-1.7-15-5
		c-3.7-3.3-5.6-7.7-5.8-13.2v-44.5H307v38c0.2,3,1.2,5.5,3.1,7.6c1.9,2.1,4.9,3.2,9,3.4c2.8,0,5.3-0.5,7.6-1.4c2.3-1,4.3-2.3,6-4
		c1.7-1.7,3-3.8,4-6.2c1-2.4,1.4-5,1.4-7.8v-29.5h13.7V302.9z"/>
	<path class="st0" d="M364.9,271.5c0-4.4,0.9-8.6,2.6-12.6c1.7-4,4.1-7.5,7-10.4c2.9-3,6.3-5.4,10.2-7.1c3.9-1.8,8-2.7,12.3-2.7
		c2.9,0,5.5,0.4,7.8,1.1c2.3,0.7,4.3,1.6,6,2.5c1.7,1,3,1.9,4,3c1,1,1.6,1.8,1.9,2.4l0.6-7.3h13.4v61.2h-14v-4c0-0.5,0-0.9,0.1-1.4
		c0-0.4,0.1-0.7,0.1-0.9c-0.4,0.5-1.1,1.2-2,2.1c-1,0.9-2.3,1.8-3.9,2.7c-1.6,0.9-3.6,1.6-5.8,2.2c-2.3,0.6-4.9,0.9-7.8,0.9
		c-4.7,0-9-0.9-13-2.6c-3.9-1.7-7.3-4-10.2-6.9s-5.1-6.2-6.7-10C365.7,279.7,364.9,275.7,364.9,271.5z M378.9,270.6
		c0,2.7,0.5,5.2,1.4,7.5c0.9,2.3,2.2,4.3,3.9,6c1.7,1.7,3.7,3,6,4c2.3,1,4.8,1.4,7.6,1.4c2.8,0,5.3-0.5,7.6-1.4c2.3-1,4.3-2.3,6-4
		c1.7-1.7,3-3.7,3.9-6c0.9-2.3,1.4-4.8,1.4-7.3c0-2.6-0.5-5-1.4-7.3c-0.9-2.3-2.2-4.2-3.9-5.8c-1.7-1.6-3.7-2.9-6-3.9
		c-2.3-1-4.8-1.4-7.6-1.4c-2.8,0-5.3,0.5-7.6,1.4c-2.3,0.9-4.3,2.2-6,3.9c-1.7,1.7-3,3.6-3.9,5.9C379.4,265.6,378.9,268,378.9,270.6
		z"/>
	<path class="st0" d="M461.3,301.4h-13.7V189h13.7V301.4z"/>
	<path class="st0" d="M476.7,216.5c0-2.5,0.9-4.6,2.7-6.2c1.8-1.6,3.8-2.4,5.9-2.4c2.1,0,4.1,0.8,5.8,2.4c1.8,1.6,2.7,3.7,2.7,6.2
		c0,2.6-0.9,4.7-2.7,6.3c-1.8,1.6-3.7,2.4-5.8,2.4c-2.1,0-4.1-0.8-5.9-2.4C477.6,221.2,476.7,219.1,476.7,216.5z M492.1,301.4h-13.8
		v-61.2h13.8V301.4z"/>
	<path class="st0" d="M561.6,301.4h-59l34.3-49.4H518c-3.4,0-6.2-1-8.6-3c-2.4-2-3.5-4.5-3.5-7.6v-7.1h12.4v1.9
		c0,1.8,0.4,2.9,1.2,3.3c0.8,0.4,2,0.6,3.7,0.6h39l-33.1,47.7h32.5V301.4z"/>
	<path class="st0" d="M569.7,271.5c0-4.4,0.9-8.6,2.6-12.6c1.7-4,4.1-7.5,7-10.4c2.9-3,6.3-5.4,10.2-7.1c3.9-1.8,8-2.7,12.3-2.7
		c2.9,0,5.5,0.4,7.8,1.1c2.3,0.7,4.3,1.6,6,2.5c1.7,1,3,1.9,4,3c1,1,1.6,1.8,1.9,2.4l0.6-7.3h13.4v61.2h-14v-4c0-0.5,0-0.9,0.1-1.4
		c0-0.4,0.1-0.7,0.1-0.9c-0.4,0.5-1.1,1.2-2,2.1c-1,0.9-2.3,1.8-3.9,2.7c-1.6,0.9-3.6,1.6-5.8,2.2c-2.3,0.6-4.9,0.9-7.8,0.9
		c-4.7,0-9-0.9-13-2.6c-3.9-1.7-7.3-4-10.2-6.9s-5.1-6.2-6.7-10C570.5,279.7,569.7,275.7,569.7,271.5z M583.7,270.6
		c0,2.7,0.5,5.2,1.4,7.5c0.9,2.3,2.2,4.3,3.9,6c1.7,1.7,3.7,3,6,4c2.3,1,4.8,1.4,7.6,1.4c2.8,0,5.3-0.5,7.6-1.4c2.3-1,4.3-2.3,6-4
		c1.7-1.7,3-3.7,3.9-6c0.9-2.3,1.4-4.8,1.4-7.3c0-2.6-0.5-5-1.4-7.3c-0.9-2.3-2.2-4.2-3.9-5.8c-1.7-1.6-3.7-2.9-6-3.9
		c-2.3-1-4.8-1.4-7.6-1.4c-2.8,0-5.3,0.5-7.6,1.4c-2.3,0.9-4.3,2.2-6,3.9c-1.7,1.7-3,3.6-3.9,5.9C584.1,265.6,583.7,268,583.7,270.6
		z"/>
	<path class="st0" d="M658,213.4h13.7v26.8h16v12.4h-16v48.8H658v-48.8h-10.4v-12.4H658V213.4z"/>
	<path class="st0" d="M696.3,216.5c0-2.5,0.9-4.6,2.7-6.2c1.8-1.6,3.8-2.4,5.9-2.4c2.1,0,4.1,0.8,5.8,2.4c1.8,1.6,2.7,3.7,2.7,6.2
		c0,2.6-0.9,4.7-2.7,6.3c-1.8,1.6-3.7,2.4-5.8,2.4c-2.1,0-4.1-0.8-5.9-2.4C697.2,221.2,696.3,219.1,696.3,216.5z M711.7,301.4h-13.8
		v-61.2h13.8V301.4z"/>
	<path class="st0" d="M724.8,270.8c0-4.4,0.8-8.6,2.5-12.5c1.7-3.9,4-7.3,7-10.2c3-2.9,6.5-5.2,10.4-6.8c4-1.7,8.2-2.5,12.7-2.5
		c4.6,0,8.9,0.8,12.8,2.5c3.9,1.7,7.3,4,10.2,6.8c2.8,2.9,5.1,6.3,6.7,10.2c1.6,3.9,2.4,8,2.4,12.5c0,4.4-0.8,8.6-2.4,12.5
		c-1.6,3.9-3.8,7.4-6.7,10.3c-2.9,2.9-6.3,5.2-10.2,6.9c-3.9,1.7-8.3,2.5-13,2.5c-4.5,0-8.7-0.8-12.7-2.3c-3.9-1.5-7.4-3.7-10.3-6.6
		c-2.9-2.8-5.3-6.2-7-10.2C725.6,280,724.8,275.6,724.8,270.8z M738.5,270.9c0,2.6,0.5,5,1.4,7.3c1,2.3,2.3,4.2,4,5.9
		c1.7,1.7,3.6,3,5.9,4c2.3,1,4.7,1.4,7.3,1.4s5-0.5,7.3-1.4c2.3-1,4.2-2.3,5.9-4c1.7-1.7,3-3.6,4-5.9c1-2.3,1.5-4.7,1.5-7.3
		c0-2.6-0.5-5-1.5-7.3c-1-2.3-2.4-4.2-4-5.9c-1.7-1.7-3.6-3-5.9-4c-2.3-1-4.7-1.5-7.3-1.5s-5,0.5-7.3,1.5c-2.3,1-4.2,2.4-5.9,4
		c-1.7,1.7-3,3.6-4,5.9C738.9,265.9,738.5,268.3,738.5,270.9z"/>
	<path class="st0" d="M802.7,240.2h12.1c0.2,3.5,0.4,6.3,0.6,8.4c0.2,2.2,0.5,4.6,0.6,7.3c2.2-5.2,5.3-9.4,9.4-12.5
		c4-3.2,9.1-4.8,15.1-4.8c6.2,0,11.2,1.7,14.9,5.1c3.7,3.4,5.6,7.8,5.8,13.3v44.4h-13.7v-37.9c-0.2-3-1.2-5.5-3.2-7.7
		c-1.9-2.2-4.9-3.3-8.9-3.5c-2.8,0-5.4,0.5-7.7,1.5c-2.4,1-4.4,2.4-6,4.1c-1.7,1.7-3,3.8-3.9,6.2c-0.9,2.4-1.4,5-1.4,7.8v29.5h-13.8
		V240.2z"/>
</g>
<path class="st0" d="M838.3,72.5c1.3,0.8,2.7,1.5,3.7,2.5c5.7,5.5,11.4,11.1,16.8,16.8c3.4,3.6,3.2,8-0.3,11.6
	c-5.3,5.4-10.7,10.8-16.1,16.1c-2.8,2.7-6.1,3.5-9.6,1.9c-3.4-1.5-4.9-4.4-4.9-8.1c0-2.4,0-4.9,0-7.4c-5.3,0.4-227-0.3-231.9-0.3
	c-4.8,0-8.4-3.7-8.4-8.1c0-4.5,3.5-8.2,8.3-8.2c6.1,0,228,0.4,231.9-0.8c0.1-6-1.6-13,6.5-16C835.6,72.5,837,72.5,838.3,72.5z"/>
</svg>
