<?xml version="1.0" encoding="utf-8"?>
<!-- Generator: Adobe Illustrator 20.1.0, SVG Export Plug-In . SVG Version: 6.00 Build 0)  -->
<svg version="1.1" id="Layer_1" xmlns="http://www.w3.org/2000/svg" xmlns:xlink="http://www.w3.org/1999/xlink" x="0px" y="0px"
	 viewBox="0 0 1000 350" style="enable-background:new 0 0 1000 350;" xml:space="preserve">
<style type="text/css">
	.st0{fill:#999999;}
</style>
<g>
	<g>
		<path class="st0" d="M517.9,67.1c-2.1,4.5-5.6,6.3-10.6,6.1c-10-0.3-19.9-0.1-29.9-0.1c-6.2,0-9.1-2.9-9.2-9.2
			c0-10,0.2-19.9-0.1-29.9c-0.2-5.1,1.6-8.5,6.1-10.6c12.4,0,24.7,0,37.1,0c3.1,1.2,5.3,3.4,6.5,6.5
			C517.9,42.3,517.9,54.7,517.9,67.1z M484.8,56.4c5.6,0,11,0,16.6,0c0-5,0.1-9.9-0.1-14.8c0-0.6-1-1.7-1.6-1.7
			c-4.9-0.1-9.9-0.1-14.9-0.1C484.8,45.6,484.8,50.9,484.8,56.4z"/>
		<path class="st0" d="M385,112.7c2.1-4.5,5.6-6.3,10.6-6.1c10,0.3,19.9,0.1,29.9,0.1c6.2,0,9.1,2.9,9.2,9.2c0,10-0.2,19.9,0.1,29.9
			c0.2,5.1-1.6,8.5-6.1,10.6c-12.4,0-24.7,0-37.1,0c-3.1-1.2-5.3-3.4-6.5-6.5C385,137.4,385,125,385,112.7z M418,139.7
			c0-5.7,0-11.1,0-16.3c-5.6,0-11,0-16.2,0c0,5.6,0,11,0,16.3C407.3,139.7,412.6,139.7,418,139.7z"/>
		<path class="st0" d="M385,63.1c3-8.1,10-6.4,16-6.5c1.2-3.9,1.9-7.7,3.6-11.1c4.3-8.8,11.7-13.2,21.3-13.6
			c5.7-0.3,11.5-0.1,17.2,0c4.8,0.1,8.3,3.7,8.3,8.2s-3.6,8.1-8.4,8.1c-5.3,0.1-10.6-0.1-15.9,0.1c-5.2,0.1-8.3,3.1-8.7,8.4
			c2.5,0,5,0,7.4,0c3.7,0,6.6,1.5,8.1,4.9c1.6,3.5,0.8,6.8-1.9,9.6c-5.3,5.4-10.7,10.8-16.1,16.1c-3.6,3.5-8,3.7-11.6,0.3
			c-5.7-5.4-11.3-11.1-16.8-16.8c-1-1-1.7-2.4-2.5-3.7C385,65.8,385,64.4,385,63.1z"/>
		<path class="st0" d="M517.9,116.6c-3,5.7-3,5.7-16,6.6c-1.2,3.7-1.9,7.6-3.5,11c-4.3,8.8-11.7,13.2-21.3,13.6
			c-5.7,0.3-11.5,0.1-17.2,0c-4.8-0.1-8.3-3.7-8.3-8.2s3.6-8.1,8.4-8.1c5.3-0.1,10.6,0.1,15.9-0.1c5.2-0.1,8.3-3.1,8.7-8.4
			c-2.5,0-5,0-7.4,0c-3.7,0-6.6-1.5-8.1-4.9c-1.6-3.5-0.8-6.8,1.9-9.6c5.3-5.4,10.7-10.8,16.1-16.1c3.6-3.5,8-3.7,11.6-0.3
			c5.7,5.4,11.3,11.1,16.8,16.8c1,1,1.7,2.4,2.5,3.7C517.9,114,517.9,115.3,517.9,116.6z"/>
	</g>
</g>
<g>
	<path class="st0" d="M87.3,49.8c11.7,0,21.5,5.8,27.8,12.2l-11.7,13.1c-4.8-4.3-9.2-7.1-15.8-7.1c-13.1,0-23.3,11.4-23.3,30.2
		c0,19.3,9.1,30.5,22.8,30.5c7.8,0,13.2-3.3,17.9-8.4l11.7,12.8c-7.8,9.1-18.1,13.8-29.8,13.8c-24.3,0-44.2-16.6-44.2-48.1
		C42.5,67.9,63.1,49.8,87.3,49.8z"/>
	<path class="st0" d="M128.9,44.5h21.2v79.6c0,4.5,2,5.9,3.7,5.9c0.9,0,1.4,0,2.6-0.3l2.6,15.7c-2.3,1-5.9,1.7-10.7,1.7
		c-14.5,0-19.4-9.5-19.4-23.9V44.5z"/>
	<path class="st0" d="M168.4,52.4c0-6.5,5.2-10.9,12.2-10.9c7.2,0,12.2,4.5,12.2,10.9c0,6.5-5,11.1-12.2,11.1
		C173.6,63.5,168.4,58.9,168.4,52.4z M170.1,74h21.2v71.4h-21.2V74z"/>
	<path class="st0" d="M242.8,72.2c8.8,0,16.1,3.3,20.9,8.2l-9.6,13.1c-3.5-2.9-6.6-4.2-9.9-4.2c-10.2,0-16.7,7.9-16.7,20.3
		s6.8,20.3,16,20.3c5.2,0,9.4-2.4,12.8-5.2l8.5,13.4c-6.9,6-16,8.9-23.8,8.9c-19.9,0-35.3-13.7-35.3-37.4
		C205.7,85.9,223.1,72.2,242.8,72.2z"/>
	<path class="st0" d="M277.1,44.5h20.6v57.9h0.6L320.9,74h23l-25.1,29.4l26.9,42h-22.9l-16.1-27.8l-9.1,10.2v17.6h-20.6V44.5z"/>
	<path class="st0" d="M568.5,90.5h-9.8V74.8l10.9-0.9l2.4-19h17.6v19h17.1v16.6h-17.1v28.7c0,8.1,3.6,11.4,9.2,11.4
		c2.3,0,4.9-0.7,6.8-1.4l3.3,15.4c-3.7,1.2-8.9,2.6-15.8,2.6c-17.7,0-24.6-11.1-24.6-27.6V90.5z"/>
	<path class="st0" d="M650,72.2c18,0,34.7,13.7,34.7,37.4c0,23.8-16.7,37.4-34.7,37.4c-18.1,0-34.8-13.7-34.8-37.4
		C615.2,85.9,631.9,72.2,650,72.2z M650,130c8.6,0,13.1-7.9,13.1-20.3s-4.5-20.3-13.1-20.3c-8.8,0-13.1,7.9-13.1,20.3
		S641.3,130,650,130z"/>
	<path class="st0" d="M750.4,151v20.9h-21.2V74h17.3L748,81h0.6c5.6-5,12.8-8.8,20.3-8.8c17.3,0,27.9,14.3,27.9,36.3
		c0,24.5-14.7,38.6-30.1,38.6c-6.2,0-12-2.7-17-7.5L750.4,151z M761.8,129.8c7.3,0,13.2-6.3,13.2-21c0-12.8-3.9-19.3-12.4-19.3
		c-4.3,0-8.1,2-12.2,6.5v29.2C754.2,128.7,758.2,129.8,761.8,129.8z"/>
	<path class="st0" d="M810,52.4c0-6.5,5.2-10.9,12.2-10.9c7.2,0,12.2,4.5,12.2,10.9c0,6.5-5,11.1-12.2,11.1
		C815.2,63.5,810,58.9,810,52.4z M811.8,74h21.2v71.4h-21.2V74z"/>
	<path class="st0" d="M884.5,72.2c8.8,0,16.1,3.3,20.9,8.2l-9.6,13.1c-3.5-2.9-6.6-4.2-9.9-4.2c-10.2,0-16.7,7.9-16.7,20.3
		s6.8,20.3,16,20.3c5.2,0,9.4-2.4,12.8-5.2l8.5,13.4c-6.9,6-16,8.9-23.8,8.9c-19.9,0-35.3-13.7-35.3-37.4
		C847.3,85.9,864.8,72.2,884.5,72.2z"/>
	<path class="st0" d="M918.8,44.5h20.6v57.9h0.6L962.5,74h23l-25.1,29.4l26.9,42h-22.9l-16.1-27.8l-9.1,10.2v17.6h-20.6V44.5z"/>
	<path class="st0" d="M111.6,243.5c-0.4-6.3-3.6-10.4-11.2-10.4c-6,0-12.1,2.4-19,6.5l-7.5-14c9.1-5.5,19.3-9.4,30.5-9.4
		c18.3,0,28.4,10.4,28.4,32.3v40.9h-17.3l-1.6-7.3h-0.4c-6,5.3-12.8,9.1-20.9,9.1c-13,0-21.2-9.5-21.2-21.6
		C71.5,254.6,83.4,246.3,111.6,243.5z M99.8,274.7c4.9,0,8.1-2.3,11.8-6v-12.5c-15.1,2-20,6.3-20,11.8
		C91.6,272.6,94.8,274.7,99.8,274.7z"/>
	<path class="st0" d="M173.3,218h21.3l9.2,33.7c1.9,7.1,3.7,14.5,5.6,22h0.6c1.7-7.5,3.6-15,5.5-22l9.4-33.7h20.3l-23.3,71.4h-24.5
		L173.3,218z"/>
	<path class="st0" d="M254.5,196.4c0-6.5,5.2-10.9,12.2-10.9c7.2,0,12.2,4.5,12.2,10.9s-5,11.1-12.2,11.1
		C259.7,207.5,254.5,202.9,254.5,196.4z M256.2,218h21.2v71.4h-21.2V218z"/>
	<path class="st0" d="M299.1,267.9c6.5,4.9,12.4,7.5,18.4,7.5c6.3,0,9.1-2.3,9.1-6c0-4.8-7.2-6.9-14.5-9.8
		c-8.6-3.3-18.9-9.2-18.9-21c0-13.2,10.8-22.3,27.4-22.3c10.9,0,19,4.5,25.2,9.1l-9.5,12.7c-5.2-3.7-10.1-6-15.1-6
		c-5.5,0-8.1,2-8.1,5.6c0,4.6,6.6,6.3,14,9.1c9.1,3.3,19.3,8.4,19.3,21.5c0,13-10.2,23-29.4,23c-9.4,0-20.2-4-27.4-9.9L299.1,267.9z
		"/>
	<path class="st0" d="M359,218h21.2v41.6c0,10.2,2.7,13.5,8.9,13.5c5.3,0,8.5-2.3,12.7-7.9V218H423v71.4h-17.3l-1.6-9.9h-0.4
		c-6,7.2-12.7,11.7-22.5,11.7c-15.6,0-22.2-10.9-22.2-28.8V218z"/>
	<path class="st0" d="M479.1,243.5c-0.4-6.3-3.6-10.4-11.2-10.4c-6,0-12.1,2.4-19,6.5l-7.5-14c9.1-5.5,19.3-9.4,30.5-9.4
		c18.3,0,28.4,10.4,28.4,32.3v40.9H483l-1.6-7.3H481c-6,5.3-12.8,9.1-20.9,9.1c-13,0-21.2-9.5-21.2-21.6
		C438.9,254.6,450.9,246.3,479.1,243.5z M467.3,274.7c4.9,0,8.1-2.3,11.8-6v-12.5c-15.1,2-20,6.3-20,11.8
		C459.1,272.6,462.3,274.7,467.3,274.7z"/>
	<path class="st0" d="M518.4,188.5h21.2v79.6c0,4.5,2,5.9,3.7,5.9c0.9,0,1.4,0,2.6-0.3l2.6,15.7c-2.3,1-5.9,1.7-10.7,1.7
		c-14.5,0-19.4-9.5-19.4-23.9V188.5z"/>
	<path class="st0" d="M557.9,196.4c0-6.5,5.2-10.9,12.2-10.9c7.2,0,12.2,4.5,12.2,10.9s-5,11.1-12.2,11.1
		C563.1,207.5,557.9,202.9,557.9,196.4z M559.6,218h21.2v71.4h-21.2V218z"/>
	<path class="st0" d="M595.5,278l30-43.5h-26.6V218h53v11.2l-30,43.6h31v16.6h-57.3V278z"/>
	<path class="st0" d="M701.2,243.5c-0.4-6.3-3.6-10.4-11.2-10.4c-6,0-12.1,2.4-19,6.5l-7.5-14c9.1-5.5,19.3-9.4,30.5-9.4
		c18.3,0,28.4,10.4,28.4,32.3v40.9h-17.3l-1.6-7.3H703c-6,5.3-12.8,9.1-20.9,9.1c-13,0-21.2-9.5-21.2-21.6
		C661,254.6,672.9,246.3,701.2,243.5z M689.4,274.7c4.9,0,8.1-2.3,11.8-6v-12.5c-15.1,2-20,6.3-20,11.8
		C681.2,272.6,684.3,274.7,689.4,274.7z"/>
	<path class="st0" d="M743.4,234.5h-9.8v-15.7l10.9-0.9l2.4-19h17.6v19h17.1v16.6h-17.1v28.7c0,8.1,3.6,11.4,9.2,11.4
		c2.3,0,4.9-0.7,6.8-1.4l3.3,15.4c-3.7,1.2-8.9,2.6-15.8,2.6c-17.7,0-24.6-11.1-24.6-27.6V234.5z"/>
	<path class="st0" d="M793.9,196.4c0-6.5,5.2-10.9,12.2-10.9c7.2,0,12.2,4.5,12.2,10.9s-5,11.1-12.2,11.1
		C799.1,207.5,793.9,202.9,793.9,196.4z M795.6,218h21.2v71.4h-21.2V218z"/>
	<path class="st0" d="M866,216.2c18,0,34.7,13.7,34.7,37.4c0,23.8-16.7,37.4-34.7,37.4c-18.1,0-34.8-13.7-34.8-37.4
		C831.2,229.9,847.9,216.2,866,216.2z M866,274c8.6,0,13.1-7.9,13.1-20.3s-4.5-20.3-13.1-20.3c-8.8,0-13.1,7.9-13.1,20.3
		S857.3,274,866,274z"/>
	<path class="st0" d="M915.3,218h17.3l1.4,9.1h0.6c6-5.8,13.2-10.8,22.9-10.8c15.6,0,22.2,10.9,22.2,28.8v44.4h-21.2v-41.6
		c0-10.4-2.7-13.5-8.8-13.5c-5.3,0-8.6,2.4-13.2,6.9v48.2h-21.2V218z"/>
</g>
</svg>
