<?xml version="1.0" encoding="utf-8"?>
<!-- Generator: Adobe Illustrator 19.2.1, SVG Export Plug-In . SVG Version: 6.00 Build 0)  -->
<svg version="1.1" id="Layer_1" xmlns="http://www.w3.org/2000/svg" xmlns:xlink="http://www.w3.org/1999/xlink" x="0px" y="0px"
	 viewBox="0 0 512 512" style="enable-background:new 0 0 512 512;" xml:space="preserve">
<style type="text/css">
	.st0{fill:#999999;}
</style>
<g>
	<g>
		<path class="st0" d="M172.9,160.7c-41.9-0.7-94.8-2.7-127.4-33.2c-19-17.8-17-40.3-15.9-64.7c1-22.2,20.6-34.2,39.5-41.5
			C115.3,3.6,170.1,3,218.4,10.6c22.6,3.5,48.1,9.3,66.3,23.8c19.4,15.4,17.9,44.3,15.1,66.9c-2.8,23.1-29.2,38-48.6,45.6
			C226.2,156.8,199.5,158.1,172.9,160.7C135.7,160.1,182,159.8,172.9,160.7z M164.5,92.8c29-1.4,108-5.3,112.5-29.9
			c2.8-15.7-38.4-25-48.5-27.2c-20.4-4.5-41.6-6.2-62.5-6.3c-22.2-0.1-44.5,1.9-66.2,6.8c-10.7,2.5-45.4,9.4-47,24
			c-1.6,13.9,34.3,22.9,44,25.3C118.8,91.1,141.7,92.7,164.5,92.8C164.5,93.2,164.5,92.8,164.5,92.8z M250.9,116.3
			c0.1-20.1-29.5-14.4-29.5,3.3C221.3,139.8,250.8,134.6,250.9,116.3C250.9,108.9,250.8,125.2,250.9,116.3z"/>
		<path class="st0" d="M299.4,225.2c0,16.6,3.1,35.9-3.1,51.7c-5.3,13.6-17.1,24.1-29,32c-28,19.1-64.3,25.7-97.6,26.6
			c-34.4,1-72.1-5.6-102.2-23.2c-13.9-8.2-27.2-19.8-33.6-34.9c-6.9-15.9-4.2-35.2-4.2-52c3.8,0.4,8.7,6.9,11.9,9.3
			c4.7,3.7,9.7,7.2,14.9,10.2c10.2,6.2,21.3,11,32.6,14.7c23.5,7.8,48.5,11.5,73.2,11.9c25.9,0.4,51.9-3.4,76.5-11.5
			c11.9-3.8,23.5-8.6,34.2-14.9C282.8,239.6,290.2,231.7,299.4,225.2C299.4,238.9,298.6,225.7,299.4,225.2z M250.9,290.2
			c0.2-20.1-29.4-14.4-29.5,3.2C221.2,313.8,250.7,308.5,250.9,290.2C251,282.9,250.8,299.1,250.9,290.2z"/>
		<path class="st0" d="M30,140.7c34.7,33.4,83.4,44.2,130.2,45.3c26.4,0.6,52.9-2.7,78.3-10.4c11.7-3.5,23.2-8.2,33.8-14.2
			c10-5.8,17.6-14.6,27.2-20.5c1.2,15.5,4.3,39.6-1.9,54.1c-5.8,13.7-20.4,23.5-32.9,30.2c-30.9,16.8-68.9,21.5-103.6,21.2
			c-33.9-0.3-72.1-6.1-101.5-24.1c-12.1-7.4-26.5-18.5-29.5-33.2C27.1,174.8,30,140.7,30,140.7S29.9,142.5,30,140.7z M250.9,203.3
			c-0.1-19.9-29.8-13.8-29.5,3.9C221.7,227.3,251,221.6,250.9,203.3C250.8,196,250.9,212.6,250.9,203.3z"/>
	</g>
	<g>
		<path class="st0" d="M377.8,495.2c-4.7,2.4-9.9,4.4-15.5,6.3c-5.6,1.9-11.1,3.4-16.2,4.5l-8.8-7.7v-98h-96.7l-8.7-8.4
			c1.2-4.6,2.8-9.7,4.7-15c2-5.4,4-10.4,6.1-15h94.6v-95.7c4.4-1.4,9.6-3.1,15.5-5.2c5.9-2.1,11.4-3.7,16.6-4.9l8.4,8.1v97.7h97.1
			l8.4,8.4c-1.2,4.7-2.8,9.9-4.7,15.6c-2,5.7-3.9,10.6-5.8,14.5h-95V495.2z"/>
	</g>
</g>
</svg>
