<?xml version="1.0" encoding="utf-8"?>
<!-- Generator: Adobe Illustrator 19.2.1, SVG Export Plug-In . SVG Version: 6.00 Build 0)  -->
<svg version="1.1" id="Layer_1" xmlns="http://www.w3.org/2000/svg" xmlns:xlink="http://www.w3.org/1999/xlink" x="0px" y="0px"
	 viewBox="0 0 512 512" style="enable-background:new 0 0 512 512;" xml:space="preserve">
<style type="text/css">
	.st0{fill:#999999;}
</style>
<g>
	<path class="st0" d="M242,393.9c-2.1,3.7-4.3,8.2-6.9,13.2c-2.6,5-5.1,10.2-7.9,15.5c-2.8,5.2-5.6,10.3-8.6,15.2
		c-3,4.8-5.9,9-8.7,12.3L15.9,313L6,287.7c0-1.1,0.1-1.9,0.3-2.3c0-0.8,0-1.2,0.1-1.4c0.1-0.2,0.1-0.7,0.1-1.4l0.6-3.3l0.6-5
		l1.1-7.9l1.1-6.2l1.1-8.5l1.1-6.7c0.2-1.9,0.7-4.6,1.4-8.5c0-0.8,0.1-1.3,0.3-1.7l0.6-3.9c0.2-0.4,0.3-0.9,0.3-1.7L16,222l1.4-6.7
		L232.2,61.9l9.9,19.7c-0.6,4.1-1.3,9.8-2.3,16.8c-1,7.1-2,14.6-3.1,22.5s-2.2,15.4-3.3,22.5c-1,7.1-1.9,12.3-2.4,15.8L85.5,263.6
		l148.9,104.5L242,393.9z"/>
	<path class="st0" d="M506,224.3c-1.3,10.8-3.1,23.3-5.3,37c-2.3,13.9-4.3,25.6-6.2,35.4L279.9,450.1l-9.9-19.7
		c0.6-3.7,1.3-9.3,2.3-16.6c0.9-7.3,2-14.9,3.1-22.8c1.1-7.9,2.2-15.4,3.3-22.5c1-7.1,1.9-12.3,2.4-15.8l145.5-103.9l-148.8-105
		l-7.6-25.8c2.1-3.7,4.3-8.2,6.9-13.2s5.1-10.2,7.9-15.5c2.8-5.2,5.6-10.3,8.6-15.2c3-4.8,5.9-9,8.7-12.3l194.1,137L506,224.3z"/>
</g>
</svg>
