<?xml version="1.0" encoding="utf-8"?>
<!-- Generator: Adobe Illustrator 19.2.1, SVG Export Plug-In . SVG Version: 6.00 Build 0)  -->
<svg version="1.1" id="Layer_1" xmlns="http://www.w3.org/2000/svg" xmlns:xlink="http://www.w3.org/1999/xlink" x="0px" y="0px"
	 viewBox="0 0 344.1 336" style="enable-background:new 0 0 344.1 336;" xml:space="preserve">
<style type="text/css">
	.st0{fill:#166DB7;}
	.st1{fill:#8EC13F;}
	.st2{fill:#00A14B;}
</style>
<path class="st0" d="M317.9,198.9c0.9-0.9,1.7-1.7,2.4-2.4c0.1-0.1,0.2-0.1,0.2-0.2c15.5-15.5,15.5-40.6,0-56.1
	c-1.5-1.5-3.1-2.8-4.7-4l0-0.1c0,0-21-13.9-19.1-50.5c0.1-1.3,0.1-2.4,0-3.4c0-0.1,0-0.2,0-0.3c0-21.9-17.8-39.7-39.7-39.7
	c-2.1,0-4.1,0.2-6.1,0.5l0,0c0,0-24.6,5-49.3-22.2c-0.9-0.9-1.7-1.7-2.4-2.4c-0.1-0.1-0.1-0.2-0.2-0.2c-15.5-15.5-40.6-15.5-56.1,0
	c-1.5,1.5-2.8,3.1-4,4.7l-0.1,0c0,0-13.9,21-50.6,19.1c-1.3-0.1-2.4-0.1-3.4,0c-0.1,0-0.2,0-0.3,0c-21.9,0-39.7,17.8-39.7,39.7
	c0,2.1,0.2,4.1,0.5,6.1l0,0c0,0,5,24.6-22.2,49.3c-0.9,0.9-1.7,1.7-2.4,2.4c-0.1,0.1-0.2,0.1-0.2,0.2c-15.5,15.5-15.5,40.6,0,56.1
	c1.5,1.5,3.1,2.8,4.7,4l0,0.1c0,0,21,13.9,19.1,50.6c-0.1,1.3-0.1,2.4,0,3.4c0,0.1,0,0.2,0,0.3c0,21.9,17.8,39.7,39.7,39.7
	c2.1,0,4.1-0.2,6.1-0.5l0,0c0,0,24.6-5,49.3,22.2c0.9,0.9,1.7,1.7,2.4,2.4c0.1,0.1,0.1,0.2,0.2,0.2c15.5,15.5,40.6,15.5,56.1,0
	c1.5-1.5,2.8-3.1,4-4.7l0.1,0c0,0,13.9-21,50.5-19.1c1.3,0.1,2.4,0.1,3.4,0c0.1,0,0.2,0,0.3,0c21.9,0,39.7-17.8,39.7-39.7
	c0-2.1-0.2-4.1-0.5-6.1l0,0C295.7,248.2,290.7,223.6,317.9,198.9z M293,191.1c-0.1,0.1-0.1,0.1-0.2,0.2c-0.5,0.6-1.2,1.3-2,2
	c-22.2,20.1-18.1,40.2-18.1,40.2l0,0c0.3,1.6,0.4,3.3,0.4,5c0,17.9-14.5,32.4-32.4,32.4c-0.1,0-0.2,0-0.2,0c-0.8,0.1-1.7,0.1-2.8,0
	c-30-1.5-41.3,15.6-41.3,15.6l0,0c-1,1.3-2,2.6-3.2,3.8c-12.7,12.7-33.2,12.7-45.8,0c-0.1-0.1-0.1-0.1-0.2-0.2c-0.6-0.5-1.3-1.2-2-2
	C125.1,266,105,270.1,105,270.1l0,0c-1.6,0.3-3.3,0.4-5,0.4c-17.9,0-32.4-14.5-32.4-32.4c0-0.1,0-0.2,0-0.2c-0.1-0.8-0.1-1.7,0-2.8
	c1.5-30-15.6-41.3-15.6-41.3l0,0c-1.3-1-2.6-2-3.8-3.2c-12.7-12.7-12.7-33.2,0-45.8c0.1-0.1,0.1-0.1,0.2-0.2c0.5-0.6,1.2-1.3,2-2
	c22.2-20.1,18.1-40.2,18.1-40.2l0,0c-0.3-1.6-0.4-3.3-0.4-5c0-17.9,14.5-32.4,32.4-32.4c0.1,0,0.2,0,0.2,0c0.8-0.1,1.7-0.1,2.8,0
	c30,1.5,41.3-15.6,41.3-15.6l0,0c1-1.3,2-2.6,3.2-3.8c12.7-12.7,33.2-12.7,45.8,0c0.1,0.1,0.1,0.1,0.2,0.2c0.6,0.5,1.3,1.2,2,2
	c20.1,22.2,40.2,18.1,40.2,18.1l0,0c1.6-0.3,3.3-0.4,5-0.4c17.9,0,32.4,14.5,32.4,32.4c0,0.1,0,0.2,0,0.2c0.1,0.8,0.1,1.7,0,2.8
	c-1.5,30,15.6,41.3,15.6,41.3l0,0c1.3,1,2.6,2,3.8,3.2C305.7,157.9,305.7,178.4,293,191.1z"/>
<path class="st1" d="M172.4,84.6h-5.2c-7.8,0-14.2,6.4-14.2,14.2v141.1c0,7.8,6.4,14.2,14.2,14.2h5.2c7.8,0,14.2-6.4,14.2-14.2V98.8
	C186.6,91,180.2,84.6,172.4,84.6z"/>
<path class="st2" d="M214.6,110.4h-5.2c-7.8,0-14.2,6.4-14.2,14.2v89.4c0,7.8,6.4,14.2,14.2,14.2h5.2c7.8,0,14.2-6.4,14.2-14.2
	v-89.4C228.9,116.8,222.5,110.4,214.6,110.4z"/>
<path class="st2" d="M130.1,110.4h-5.2c-7.8,0-14.2,6.4-14.2,14.2v89.4c0,7.8,6.4,14.2,14.2,14.2h5.2c7.8,0,14.2-6.4,14.2-14.2
	v-89.4C144.3,116.8,137.9,110.4,130.1,110.4z"/>
<path class="st1" d="M87.8,141.4h-5.2c-7.8,0-14.2,6.4-14.2,14.2v22.6c0,7.8,6.4,14.2,14.2,14.2h5.2c7.8,0,14.2-6.4,14.2-14.2v-22.6
	C102.1,147.8,95.7,141.4,87.8,141.4z"/>
<path class="st1" d="M256.9,141.4h-5.2c-7.8,0-14.2,6.4-14.2,14.2v22.6c0,7.8,6.4,14.2,14.2,14.2h5.2c7.8,0,14.2-6.4,14.2-14.2
	v-22.6C271.1,147.8,264.7,141.4,256.9,141.4z"/>
</svg>
