<?xml version="1.0" encoding="utf-8"?>
<!-- Generator: Adobe Illustrator 20.1.0, SVG Export Plug-In . SVG Version: 6.00 Build 0)  -->
<svg version="1.1" id="Layer_1" xmlns="http://www.w3.org/2000/svg" xmlns:xlink="http://www.w3.org/1999/xlink" x="0px" y="0px"
	 viewBox="0 0 512 512" style="enable-background:new 0 0 512 512;" xml:space="preserve">
<style type="text/css">
	.st0{fill:#8EC13F;}
	.st1{fill:#00A14B;}
	.st2{fill:#166DB7;}
</style>
<g>
	<g>
		<path class="st0" d="M259.7,104.4h-7.4c-11.2,0-20.3,9.2-20.3,20.3v201.5c0,11.2,9.2,20.3,20.3,20.3h7.4
			c11.2,0,20.3-9.2,20.3-20.3V124.7C280.1,113.5,270.9,104.4,259.7,104.4z"/>
		<path class="st0" d="M139,104.4h-7.4c-11.2,0-20.3,9.2-20.3,20.3v201.5c0,11.2,9.2,20.3,20.3,20.3h7.4c11.2,0,20.3-9.2,20.3-20.3
			V124.7C159.4,113.5,150.2,104.4,139,104.4z"/>
		<path class="st0" d="M380.4,104.4H373c-11.2,0-20.3,9.2-20.3,20.3v201.5c0,11.2,9.2,20.3,20.3,20.3h7.4c11.2,0,20.3-9.2,20.3-20.3
			V124.7C400.8,113.5,391.6,104.4,380.4,104.4z"/>
		<path class="st1" d="M320.1,104.4h-7.4c-11.2,0-20.3,9.2-20.3,20.3v127.7c0,11.2,9.2,20.3,20.3,20.3h7.4
			c11.2,0,20.3-9.2,20.3-20.3V124.7C340.4,113.5,331.2,104.4,320.1,104.4z"/>
		<path class="st1" d="M199.4,104.4H192c-11.2,0-20.3,9.2-20.3,20.3v127.7c0,11.2,9.2,20.3,20.3,20.3h7.4c11.2,0,20.3-9.2,20.3-20.3
			V124.7C219.7,113.5,210.6,104.4,199.4,104.4z"/>
	</g>
	<path class="st2" d="M490.5,376.5h-28.2V182.1h5.8c8.6,0,15.6-7,15.6-15.6s-7-15.6-15.6-15.6h-42.8c-8.6,0-15.6,7-15.6,15.6
		c0,8.6,7,15.6,15.6,15.6h5.8v194.3H81V182.1h5.8c8.6,0,15.6-7,15.6-15.6s-7-15.6-15.6-15.6H44c-8.6,0-15.6,7-15.6,15.6
		c0,8.6,7,15.6,15.6,15.6h5.8v194.3H21.6c-8.6,0-15.6,7-15.6,15.6s7,15.6,15.6,15.6h468.8c8.6,0,15.6-7,15.6-15.6
		C506,383.5,499,376.5,490.5,376.5z"/>
</g>
</svg>
