<?xml version="1.0" encoding="utf-8"?>
<!-- Generator: Adobe Illustrator 20.1.0, SVG Export Plug-In . SVG Version: 6.00 Build 0)  -->
<svg version="1.1" id="Layer_1" xmlns="http://www.w3.org/2000/svg" xmlns:xlink="http://www.w3.org/1999/xlink" x="0px" y="0px"
	 viewBox="0 0 512 512" style="enable-background:new 0 0 512 512;" xml:space="preserve">
<style type="text/css">
	.st0{fill:#FF7F00;}
</style>
<path class="st0" d="M256.4,506H256c-33.1,0-65.2-6.4-95.5-18.9l30.8-74.4c20.5,8.5,42.2,12.8,64.6,12.8c0.1,0,0.2,0,0.3,0V506
	c0.2,0,0.5,0,0.7,0L256.4,506z M256.1,465.7l0,40.3c0,0,0,0,0,0V465.7z M351.8,487l-30.9-74.4c20.6-8.6,39.1-20.9,54.9-36.8l57,56.9
	C409.5,456.1,382.2,474.4,351.8,487z M79.4,432.9c-23.4-23.3-41.7-50.6-54.3-81L99.4,321c8.6,20.6,21,39.1,36.8,54.9L79.4,432.9z
	 M487,351.7l-74.4-30.8c8.5-20.5,12.8-42.4,12.8-64.8v-0.5H506v0.5C506,289.1,499.6,321.3,487,351.7z M86.5,256.2H6l0-0.2
	c0-33,6.3-65.1,18.9-95.4l74.4,30.8c-8.5,20.5-12.8,42.2-12.8,64.7L86.5,256.2z M412.5,190.8c-8.6-20.6-21-39.1-36.9-54.9l56.8-57.1
	c23.4,23.3,41.7,50.6,54.4,80.9L412.5,190.8z M136,136.3L79,79.5c23.3-23.4,50.6-41.7,81-54.3l31,74.3
	C170.3,108.1,151.8,120.5,136,136.3z M320.6,99.3c-20.5-8.4-42.2-12.7-64.6-12.7l-0.4,0V6l0.4,0c33,0,65,6.3,95.3,18.8L320.6,99.3z"
	/>
</svg>
