<?xml version="1.0" encoding="utf-8"?>
<!-- Generator: Adobe Illustrator 20.1.0, SVG Export Plug-In . SVG Version: 6.00 Build 0)  -->
<svg version="1.1" id="Layer_1" xmlns="http://www.w3.org/2000/svg" xmlns:xlink="http://www.w3.org/1999/xlink" x="0px" y="0px"
	 viewBox="0 0 1000 350" style="enable-background:new 0 0 1000 350;" xml:space="preserve">
<style type="text/css">
	.st0{fill:#999999;}
</style>
<g>
	<g>
		<path class="st0" d="M512.9,84.4c-2.1,4.5-5.6,6.3-10.6,6.1c-10-0.3-19.9-0.1-29.9-0.1c-6.2,0-9.1-2.9-9.2-9.2
			c0-10,0.2-19.9-0.1-29.9c-0.2-5.1,1.6-8.5,6.1-10.6c12.4,0,24.7,0,37.1,0c3.1,1.2,5.3,3.4,6.5,6.5C512.9,59.6,512.9,72,512.9,84.4
			z M479.8,73.7c5.6,0,11,0,16.6,0c0-5,0.1-9.9-0.1-14.8c0-0.6-1-1.7-1.6-1.7c-4.9-0.1-9.9-0.1-14.9-0.1
			C479.8,62.9,479.8,68.2,479.8,73.7z"/>
		<path class="st0" d="M380,130c2.1-4.5,5.6-6.3,10.6-6.1c10,0.3,19.9,0.1,29.9,0.1c6.2,0,9.1,2.9,9.2,9.2c0,10-0.2,19.9,0.1,29.9
			c0.2,5.1-1.6,8.5-6.1,10.6c-12.4,0-24.7,0-37.1,0c-3.1-1.2-5.3-3.4-6.5-6.5C380,154.7,380,142.3,380,130z M413,157
			c0-5.7,0-11.1,0-16.3c-5.6,0-11,0-16.2,0c0,5.6,0,11,0,16.3C402.3,157,407.6,157,413,157z"/>
		<path class="st0" d="M380,80.4c3-8.1,10-6.4,16-6.5c1.2-3.9,1.9-7.7,3.6-11.1c4.3-8.8,11.7-13.2,21.3-13.6
			c5.7-0.3,11.5-0.1,17.2,0c4.8,0.1,8.3,3.7,8.3,8.2s-3.6,8.1-8.4,8.1c-5.3,0.1-10.6-0.1-15.9,0.1c-5.2,0.1-8.3,3.1-8.7,8.4
			c2.5,0,5,0,7.4,0c3.7,0,6.6,1.5,8.1,4.9c1.6,3.5,0.8,6.8-1.9,9.6c-5.3,5.4-10.7,10.8-16.1,16.1c-3.6,3.5-8,3.7-11.6,0.3
			c-5.7-5.4-11.3-11.1-16.8-16.8c-1-1-1.7-2.4-2.5-3.7C380,83.1,380,81.7,380,80.4z"/>
		<path class="st0" d="M512.9,133.9c-3,5.7-3,5.7-16,6.6c-1.2,3.7-1.9,7.6-3.5,11c-4.3,8.8-11.7,13.2-21.3,13.6
			c-5.7,0.3-11.5,0.1-17.2,0c-4.8-0.1-8.3-3.7-8.3-8.2s3.6-8.1,8.4-8.1c5.3-0.1,10.6,0.1,15.9-0.1c5.2-0.1,8.3-3.1,8.7-8.4
			c-2.5,0-5,0-7.4,0c-3.7,0-6.6-1.5-8.1-4.9c-1.6-3.5-0.8-6.8,1.9-9.6c5.3-5.4,10.7-10.8,16.1-16.1c3.6-3.5,8-3.7,11.6-0.3
			c5.7,5.4,11.3,11.1,16.8,16.8c1,1,1.7,2.4,2.5,3.7C512.9,131.3,512.9,132.6,512.9,133.9z"/>
	</g>
</g>
<g>
	<path class="st0" d="M80.1,69.7c11.7,0,21.5,5.8,27.8,12.2L96.2,95C91.5,90.7,87,88,80.4,88c-13.1,0-23.3,11.4-23.3,30.2
		c0,19.3,9.1,30.5,22.8,30.5c7.8,0,13.2-3.3,17.9-8.4l11.7,12.8c-7.8,9.1-18.1,13.8-29.8,13.8c-24.3,0-44.2-16.6-44.2-48.1
		C35.3,87.8,55.9,69.7,80.1,69.7z"/>
	<path class="st0" d="M121.7,64.4h21.2V144c0,4.5,2,5.9,3.7,5.9c0.9,0,1.4,0,2.6-0.3l2.6,15.7c-2.3,1-5.9,1.7-10.7,1.7
		c-14.5,0-19.4-9.5-19.4-23.9V64.4z"/>
	<path class="st0" d="M161.2,72.3c0-6.5,5.2-10.9,12.2-10.9c7.2,0,12.2,4.5,12.2,10.9c0,6.5-5,11.1-12.2,11.1
		C166.4,83.4,161.2,78.8,161.2,72.3z M162.9,93.9h21.2v71.4h-21.2V93.9z"/>
	<path class="st0" d="M235.6,92.1c8.8,0,16.1,3.3,20.9,8.2l-9.6,13.1c-3.5-2.9-6.6-4.2-9.9-4.2c-10.2,0-16.7,7.9-16.7,20.3
		s6.8,20.3,16,20.3c5.2,0,9.4-2.4,12.8-5.2l8.5,13.4c-6.9,6-16,8.9-23.8,8.9c-19.9,0-35.3-13.7-35.3-37.4
		C198.5,105.8,215.9,92.1,235.6,92.1z"/>
	<path class="st0" d="M269.9,64.4h20.6v57.9h0.6l22.6-28.4h23l-25.1,29.4l26.9,42h-22.9l-16.1-27.8l-9.1,10.2v17.6h-20.6V64.4z"/>
	<path class="st0" d="M561.3,110.4h-9.8V94.7l10.9-0.9l2.4-19h17.6v19h17.1v16.6h-17.1v28.7c0,8.1,3.6,11.4,9.2,11.4
		c2.3,0,4.9-0.7,6.8-1.4l3.3,15.4c-3.7,1.2-8.9,2.6-15.8,2.6c-17.7,0-24.6-11.1-24.6-27.6V110.4z"/>
	<path class="st0" d="M642.9,92.1c18,0,34.7,13.7,34.7,37.4c0,23.8-16.7,37.4-34.7,37.4c-18.1,0-34.8-13.7-34.8-37.4
		C608,105.8,624.7,92.1,642.9,92.1z M642.9,149.9c8.6,0,13.1-7.9,13.1-20.3s-4.5-20.3-13.1-20.3c-8.8,0-13.1,7.9-13.1,20.3
		S634.1,149.9,642.9,149.9z"/>
	<path class="st0" d="M743.2,170.9v20.9H722V93.9h17.3l1.4,7.1h0.6c5.6-5,12.8-8.8,20.3-8.8c17.3,0,27.9,14.3,27.9,36.3
		c0,24.5-14.7,38.6-30.1,38.6c-6.2,0-12-2.7-17-7.5L743.2,170.9z M754.6,149.7c7.3,0,13.2-6.3,13.2-21c0-12.8-3.9-19.3-12.4-19.3
		c-4.3,0-8.1,2-12.2,6.5v29.2C747,148.6,751,149.7,754.6,149.7z"/>
	<path class="st0" d="M802.8,72.3c0-6.5,5.2-10.9,12.2-10.9c7.2,0,12.2,4.5,12.2,10.9c0,6.5-5,11.1-12.2,11.1
		C808,83.4,802.8,78.8,802.8,72.3z M804.6,93.9h21.2v71.4h-21.2V93.9z"/>
	<path class="st0" d="M877.3,92.1c8.8,0,16.1,3.3,20.9,8.2l-9.6,13.1c-3.5-2.9-6.6-4.2-9.9-4.2c-10.2,0-16.7,7.9-16.7,20.3
		s6.8,20.3,16,20.3c5.2,0,9.4-2.4,12.8-5.2l8.5,13.4c-6.9,6-16,8.9-23.8,8.9c-19.9,0-35.3-13.7-35.3-37.4
		C840.1,105.8,857.5,92.1,877.3,92.1z"/>
	<path class="st0" d="M911.5,64.4h20.6v57.9h0.6l22.6-28.4h23l-25.1,29.4l26.9,42h-22.9l-16.1-27.8l-9.1,10.2v17.6h-20.6V64.4z"/>
	<path class="st0" d="M440.5,263.4c-0.4-6.3-3.6-10.4-11.2-10.4c-6,0-12.1,2.4-19,6.5l-7.5-14c9.1-5.5,19.3-9.4,30.5-9.4
		c18.3,0,28.4,10.4,28.4,32.3v40.9h-17.3l-1.6-7.3h-0.4c-6,5.3-12.8,9.1-20.9,9.1c-13,0-21.2-9.5-21.2-21.6
		C400.4,274.5,412.3,266.2,440.5,263.4z M428.7,294.6c4.9,0,8.1-2.3,11.8-6V276c-15.1,2-20,6.3-20,11.8
		C420.5,292.5,423.7,294.6,428.7,294.6z"/>
	<path class="st0" d="M535.7,236.1c7.9,0,12.7,2.9,17.6,7.5l-0.9-10.9v-24.3h21.2v100.9h-17.3l-1.4-7.1h-0.6c-5,5-12.1,8.8-19,8.8
		c-17.7,0-29.2-14.1-29.2-37.4C506,250.3,520.6,236.1,535.7,236.1z M540.8,293.7c4.6,0,8.2-1.7,11.7-6.5V258
		c-3.7-3.5-7.9-4.6-11.8-4.6c-6.8,0-12.8,6.3-12.8,19.9C527.8,287.4,532.5,293.7,540.8,293.7z"/>
	<path class="st0" d="M629.9,263.4c-0.4-6.3-3.6-10.4-11.2-10.4c-6,0-12.1,2.4-19,6.5l-7.5-14c9.1-5.5,19.3-9.4,30.5-9.4
		c18.3,0,28.4,10.4,28.4,32.3v40.9h-17.3l-1.6-7.3h-0.4c-6,5.3-12.8,9.1-20.9,9.1c-13,0-21.2-9.5-21.2-21.6
		C589.7,274.5,601.7,266.2,629.9,263.4z M618.1,294.6c4.9,0,8.1-2.3,11.8-6V276c-15.1,2-20,6.3-20,11.8
		C609.9,292.5,613,294.6,618.1,294.6z"/>
	<path class="st0" d="M672.1,254.4h-9.8v-15.7l10.9-0.9l2.4-19h17.6v19h17.1v16.6h-17.1v28.7c0,8.1,3.6,11.4,9.2,11.4
		c2.3,0,4.9-0.7,6.8-1.4l3.3,15.4c-3.7,1.2-8.9,2.6-15.8,2.6c-17.7,0-24.6-11.1-24.6-27.6V254.4z"/>
	<path class="st0" d="M760.2,263.4c-0.4-6.3-3.6-10.4-11.2-10.4c-6,0-12.1,2.4-19,6.5l-7.5-14c9.1-5.5,19.3-9.4,30.5-9.4
		c18.3,0,28.4,10.4,28.4,32.3v40.9h-17.3l-1.6-7.3h-0.4c-6,5.3-12.8,9.1-20.9,9.1c-13,0-21.2-9.5-21.2-21.6
		C720,274.5,732,266.2,760.2,263.4z M748.4,294.6c4.9,0,8.1-2.3,11.8-6V276c-15.1,2-20,6.3-20,11.8
		C740.2,292.5,743.4,294.6,748.4,294.6z"/>
	<path class="st0" d="M802.7,287.8c6.5,4.9,12.4,7.5,18.4,7.5c6.3,0,9.1-2.3,9.1-6c0-4.8-7.2-6.9-14.5-9.8
		c-8.6-3.3-18.9-9.2-18.9-21c0-13.2,10.8-22.3,27.4-22.3c10.9,0,19,4.5,25.2,9.1l-9.5,12.7c-5.2-3.7-10.1-6-15.1-6
		c-5.5,0-8.1,2-8.1,5.6c0,4.6,6.6,6.3,14,9.1c9.1,3.3,19.3,8.4,19.3,21.5c0,13-10.2,23-29.4,23c-9.4,0-20.2-4-27.4-9.9L802.7,287.8z
		"/>
	<path class="st0" d="M892.8,236.1c20.3,0,30.4,14.8,30.4,34.3c0,3.7-0.4,7.2-0.9,8.9h-42.8c1.9,10.8,9.1,15.6,18.6,15.6
		c5.3,0,10.2-1.6,15.4-4.8l7.1,12.8c-7.3,5-16.8,8.1-25.3,8.1c-20.4,0-36.1-13.8-36.1-37.4C859.1,250.4,875.7,236.1,892.8,236.1z
		 M905.2,266.2c0-8.2-3.5-14-12-14c-6.6,0-12.4,4.5-13.8,14H905.2z"/>
	<path class="st0" d="M938.2,254.4h-9.8v-15.7l10.9-0.9l2.4-19h17.6v19h17.1v16.6h-17.1v28.7c0,8.1,3.6,11.4,9.2,11.4
		c2.3,0,4.9-0.7,6.8-1.4l3.3,15.4c-3.7,1.2-8.9,2.6-15.8,2.6c-17.7,0-24.6-11.1-24.6-27.6V254.4z"/>
</g>
</svg>
