<?xml version="1.0" encoding="utf-8"?>
<!-- Generator: Adobe Illustrator 19.2.1, SVG Export Plug-In . SVG Version: 6.00 Build 0)  -->
<svg version="1.1" id="Layer_1" xmlns="http://www.w3.org/2000/svg" xmlns:xlink="http://www.w3.org/1999/xlink" x="0px" y="0px"
	 viewBox="0 0 512 512" style="enable-background:new 0 0 512 512;" xml:space="preserve">
<style type="text/css">
	.st0{fill:#666666;}
</style>
<g>
	<path class="st0" d="M498.9,272.9c5.3,37.7-38.5,78.9-77.3,72.2c0.5-16.5,6.9-30.7,17.1-43.4C453.5,283.2,477.8,271.6,498.9,272.9z
		"/>
	<path class="st0" d="M90.1,345.3c-37.6,7.3-80.6-32.8-77.2-71.7C49.2,269.7,89.9,305.8,90.1,345.3z"/>
	<path class="st0" d="M427.1,419.9c-5.5,10.8-14.4,17.4-25.3,20.8c-17.4,5.4-35.4,5.6-53.3,2.6c-10.1-1.7-18.2-7.7-26.5-13.3
		C338.3,405.4,391.1,390,427.1,419.9z"/>
	<path class="st0" d="M86.2,422.5c1.6-0.4,2.6-0.6,4.5-1c-2.4-0.4-3.8-0.6-6.2-1c1.5-1.4,2.5-2.5,3.6-3.3
		c28.8-21.1,73.5-17.5,98.7,8c3.8,3.8,3.6,4.3-0.7,7.5c-12.4,9.3-26.4,13.2-41.7,12.3c-10.1-0.6-20.3-1.1-30.2-3.1
		C102.7,439.5,93.2,433.1,86.2,422.5z"/>
	<path class="st0" d="M16.2,190.2c41,11.5,61.3,61.6,49.7,93.2C40.5,280.2,1.4,233.5,16.2,190.2z"/>
	<path class="st0" d="M378.8,395.5c11.6-35.3,63.3-58.2,96.3-43C467.4,388.6,406.6,410.9,378.8,395.5z"/>
	<path class="st0" d="M133,395.6c-25.3,15.2-86.8-4.9-96.3-42.9C69.2,337,124,361.5,133,395.6z"/>
	<path class="st0" d="M495.8,190.2c14.3,40.4-20.7,87.6-49.1,93.3C429,257.5,461.1,196.1,495.8,190.2z"/>
	<path class="st0" d="M215.6,432.1c13.8,0.1,24.2,2.5,34.2,7.1c5.8,2.7,6,3.1,2.1,8.5c-7.2,10.2-16.7,17.7-28.4,22.1
		c-19.8,7.5-40,10.9-61,4.2c-11.7-3.8-12.6-5.4-4.6-14.4C174,441.4,194.4,432.7,215.6,432.1z"/>
	<path class="st0" d="M294.2,432.6c25.6,0.6,46.7,10.6,62.7,30.7c4.2,5.2,3.7,7.1-2.7,9.3c-30.3,10.4-58.4,5.4-83.8-13.7
		c-4.7-3.5-8-8.8-11.9-13.4c-1.8-2.2-1.2-3.6,1.4-4.9C270.8,435.4,282.1,432.4,294.2,432.6z"/>
	<path class="st0" d="M62.7,218c-14.1-11.3-24.8-24.5-26.3-43.4c-1.6-21.2,3.4-41.3,10.1-61.1C74.6,131,88.8,185.3,62.7,218z"/>
	<path class="st0" d="M449.1,218c-25.5-34-12-85.5,16.3-105c1.2,3.9,2.4,7.6,3.5,11.3c5,16.4,8,33,6.7,50.2
		C474.1,193.4,463.4,206.6,449.1,218z"/>
	<polygon class="st0" points="256.1,113.4 292.7,187.6 374.6,199.5 315.3,257.3 329.3,338.8 256.1,300.3 182.8,338.8 196.8,257.3 
		137.6,199.5 219.4,187.6 	"/>
</g>
</svg>
