<?xml version="1.0" encoding="utf-8"?>
<!-- Generator: Adobe Illustrator 19.2.1, SVG Export Plug-In . SVG Version: 6.00 Build 0)  -->
<svg version="1.1" id="Layer_1" xmlns="http://www.w3.org/2000/svg" xmlns:xlink="http://www.w3.org/1999/xlink" x="0px" y="0px"
	 viewBox="0 0 512 512" style="enable-background:new 0 0 512 512;" xml:space="preserve">
<style type="text/css">
	.st0{fill:#666666;}
</style>
<g>
	<path class="st0" d="M171.5,158.9c-42.7-0.7-96.5-2.7-129.7-33.8c-19.3-18.1-17.3-41-16.2-65.9c1-22.6,21-34.8,40.2-42.2
		c47-18,102.8-18.6,152-10.9c23,3.6,49,9.5,67.5,24.2C305,46,303.5,75.4,300.7,98.4c-2.9,23.5-29.7,38.7-49.5,46.4
		C225.7,154.9,198.5,156.2,171.5,158.9C133.6,158.3,180.7,158,171.5,158.9z M162.9,89.8c29.5-1.4,109.9-5.4,114.5-30.4
		c2.9-16-39.1-25.4-49.4-27.7c-20.8-4.6-42.3-6.3-63.6-6.4c-22.6-0.1-45.3,1.9-67.4,6.9c-10.9,2.5-46.2,9.6-47.8,24.4
		C47.6,70.7,84.1,79.9,94,82.4C116.4,88,139.7,89.7,162.9,89.8C162.9,90.2,162.9,89.8,162.9,89.8z M250.9,113.7
		c0.1-20.5-30-14.7-30,3.4C220.7,137.6,250.8,132.3,250.9,113.7C250.9,106.2,250.8,122.8,250.9,113.7z"/>
	<path class="st0" d="M300.2,224.6c0,16.9,3.2,36.5-3.2,52.6c-5.4,13.8-17.4,24.5-29.5,32.6C239,329.2,202,336,168.1,336.9
		c-35,1-73.4-5.7-104-23.6C50,305,36.4,293.1,29.9,277.8c-7-16.2-4.3-35.8-4.3-52.9c3.9,0.4,8.9,7,12.1,9.5
		c4.8,3.8,9.9,7.3,15.2,10.4c10.4,6.3,21.7,11.2,33.2,15c23.9,7.9,49.4,11.7,74.5,12.1c26.4,0.4,52.8-3.5,77.9-11.7
		c12.1-3.9,23.9-8.8,34.8-15.2C283.3,239.2,290.9,231.2,300.2,224.6C300.2,238.5,299.4,225.1,300.2,224.6z M250.9,290.7
		c0.2-20.5-29.9-14.7-30,3.3C220.6,314.7,250.7,309.4,250.9,290.7C251,283.3,250.8,299.8,250.9,290.7z"/>
	<path class="st0" d="M26,138.5c35.3,34,84.9,45,132.5,46.1c26.9,0.6,53.9-2.7,79.7-10.6c11.9-3.6,23.6-8.3,34.4-14.5
		c10.2-5.9,17.9-14.9,27.7-20.9c1.2,15.8,4.4,40.3-1.9,55.1c-5.9,13.9-20.8,23.9-33.5,30.7c-31.5,17.1-70.1,21.9-105.5,21.6
		c-34.5-0.3-73.4-6.2-103.3-24.5c-12.3-7.5-27-18.8-30-33.8C23,173.2,26,138.5,26,138.5S25.9,140.4,26,138.5z M250.9,202.3
		c-0.1-20.3-30.3-14-30,4C221.1,226.7,251,220.9,250.9,202.3C250.8,194.8,250.9,211.7,250.9,202.3z"/>
</g>
<g>
	<path class="st0" d="M380,499.4c-4.8,2.4-10.1,4.5-15.8,6.4c-5.7,1.9-11.3,3.5-16.5,4.6l-9-7.8v-99.8h-98.4l-8.9-8.6
		c1.2-4.7,2.8-9.9,4.8-15.3c2-5.5,4.1-10.6,6.2-15.3h96.3v-97.4c4.5-1.4,9.8-3.2,15.8-5.3c6-2.1,11.6-3.8,16.9-5l8.6,8.2v99.5h98.8
		l8.6,8.6c-1.2,4.8-2.8,10.1-4.8,15.9c-2,5.8-4,10.8-5.9,14.8H380V499.4z"/>
</g>
</svg>
