<?xml version="1.0" encoding="utf-8"?>
<!-- Generator: Adobe Illustrator 19.2.1, SVG Export Plug-In . SVG Version: 6.00 Build 0)  -->
<svg version="1.1" id="Layer_1" xmlns="http://www.w3.org/2000/svg" xmlns:xlink="http://www.w3.org/1999/xlink" x="0px" y="0px"
	 viewBox="0 0 512 512" style="enable-background:new 0 0 512 512;" xml:space="preserve">
<style type="text/css">
	.st0{fill:#666666;}
</style>
<g id="EDJ6lQ.tif">
	<g>
		<path class="st0" d="M224.5,443.4c-2.4-1.8-3.7-4.1-4.1-7.2c-3.3-24.1-6.8-48.2-10.3-72.3c-0.6-4.1-1-8.3-1.8-12.4
			c-1.2-5.9-0.1-11.1,2.9-16.4c40.6-70.2,81.2-140.5,121.7-210.7c0.4-0.7,0.8-1.3,1.2-2c4.5-7.6,11-9.3,18.7-4.9
			c21.9,12.6,43.7,25.2,65.5,37.8c7.4,4.2,14.7,8.5,22.1,12.7c7.6,4.4,9.3,11.1,4.9,18.7c-23.9,41.4-47.8,82.8-71.7,124.2
			c-17.2,29.7-34.4,59.5-51.5,89.3c-2.6,4.5-6.1,7.6-10.9,9.5c-26.4,10.5-52.7,21-79,31.6c-1.4,0.5-2.6,1.4-3.9,2.1
			C227,443.4,225.8,443.4,224.5,443.4z M357.8,156.8c-5.9,0.1-9.5,2.2-11.9,6.2c-1.9,3.2-3.7,6.4-5.5,9.5
			c-28.5,49.3-56.9,98.5-85.3,147.8c-4.5,7.8-2.8,14.2,4.8,18.7c11.8,6.9,23.7,13.7,35.6,20.5c6.9,3.9,13.6,2.2,17.6-4.7
			c30.3-52.4,60.6-104.9,90.9-157.4c4.2-7.2,2.3-13.8-4.9-18.1c-11.8-6.9-23.7-13.7-35.6-20.5C361.3,157.8,358.9,157.2,357.8,156.8z
			"/>
		<path class="st0" d="M469,126.5c-3.2,5.6-6.2,11.3-9.5,16.9c-4.1,6.9-10.9,8.7-17.9,4.7c-24-13.8-48.1-27.7-72.1-41.6
			c-7.3-4.2-9-10.8-4.9-18.1c1.8-3.3,3.9-6.5,5.6-9.9c2.3-4.6,5.4-8.2,10.4-9.8c1.5,0,3,0,4.6,0c2.8,1.5,5.6,2.8,8.3,4.4
			c21.9,12.6,43.8,25.3,65.7,37.8c4.2,2.4,7.8,5.1,9.7,9.5C469,122.4,469,124.5,469,126.5z"/>
		<path class="st0" d="M79,422.8c1.8-3,4.5-3.9,8-3.9c30.9,0.1,61.8,0.1,92.7,0.1c5.7,0,7.5,1.8,7.5,7.4c0,2.9-0.2,5.8,0.1,8.7
			c0.4,3.9-1.2,6.6-4.6,8.2c-34.5,0-69.1,0-103.6,0C79,436.5,79,429.7,79,422.8z"/>
	</g>
</g>
</svg>
