<?xml version="1.0" encoding="utf-8"?>
<!-- Generator: Adobe Illustrator 19.2.0, SVG Export Plug-In . SVG Version: 6.00 Build 0)  -->
<!DOCTYPE svg PUBLIC "-//W3C//DTD SVG 1.1//EN" "http://www.w3.org/Graphics/SVG/1.1/DTD/svg11.dtd">
<svg version="1.1" id="Layer_1" xmlns="http://www.w3.org/2000/svg" xmlns:xlink="http://www.w3.org/1999/xlink" x="0px" y="0px"
	 viewBox="0 0 512 512" style="enable-background:new 0 0 512 512;" xml:space="preserve">
<style type="text/css">
	.st0{fill:#666666;}
</style>
<path class="st0" d="M512,256c0,141.4-114.6,256-256,256S0,397.4,0,256S114.6,0,256,0S512,114.6,512,256z M256,32
	C132.3,32,32,132.3,32,256s100.3,224,224,224s224-100.3,224-224S379.7,32,256,32z"/>
<g>
	<path class="st0" d="M263.1,372.2V354c4.2-0.3,8-0.8,11.4-1.4c3.4-0.6,6-1.6,7.9-3c1.8-1.4,2.6-3.4,2.4-6c-0.2-2.6-2-6.1-5.1-10.6
		l-36.8-50.8L203.6,333c-3.3,4.3-5,7.8-5,10.4c0,2.6,1.1,4.6,3.4,6c2.2,1.4,5.2,2.5,8.9,3.1c3.7,0.7,7.5,1.2,11.5,1.5v18.2h-96.5
		V354c6.2-1,11.4-2.2,15.8-3.8c4.3-1.5,8.1-3.2,11.2-5.2c3.2-2,5.8-4.1,8-6.4c2.2-2.2,4.2-4.6,6.2-7.1l57.8-74.5l-55.8-77.5
		c-2.2-3-4.3-5.7-6.5-8.1c-2.2-2.4-4.7-4.5-7.6-6.4c-2.9-1.8-6.5-3.3-10.8-4.5c-4.2-1.2-9.5-2-15.6-2.5v-18.2h123.8V158
		c-5.2,0.5-9.3,1.1-12.5,1.9c-3.2,0.8-5.3,1.9-6.5,3.4c-1.2,1.5-1.3,3.5-0.5,6c0.8,2.5,2.7,5.8,5.5,9.8l28,39.2l30.2-39.2
		c3-4,5-7.2,6-9.8s0.9-4.5-0.2-6c-1.2-1.5-3.3-2.6-6.4-3.4c-3.1-0.8-7.2-1.4-12.4-1.9v-18.2h95.2V158c-6.8,0.5-12.6,1.3-17.2,2.5
		c-4.7,1.2-8.7,2.7-12,4.5c-3.3,1.8-6.2,4-8.8,6.4c-2.5,2.4-4.9,5.1-7.2,8.1l-49.2,63.8l63.5,88.2c1.8,2.5,3.8,4.9,6,7.2
		c2.2,2.3,4.7,4.5,7.6,6.5c2.9,2,6.4,3.8,10.4,5.4c4,1.6,8.8,2.7,14.2,3.4v18.2H263.1z"/>
</g>
</svg>
