<?xml version="1.0" encoding="utf-8"?>
<!-- Generator: Adobe Illustrator 19.2.1, SVG Export Plug-In . SVG Version: 6.00 Build 0)  -->
<svg version="1.1" id="Layer_1" xmlns="http://www.w3.org/2000/svg" xmlns:xlink="http://www.w3.org/1999/xlink" x="0px" y="0px"
	 viewBox="0 0 512 512" style="enable-background:new 0 0 512 512;" xml:space="preserve">
<style type="text/css">
	.st0{fill:#666666;}
</style>
<g>
	<g>
		<path class="st0" d="M355.6,373.6c-5.1,0-10.1-2.8-12.5-7.7c-3.5-6.9-0.7-15.3,6.3-18.8c4.5-2.2,8.5-2.1,10.7-2c0.2,0,0.5,0,0.7,0
			c7.3,0.1,14.8,0.1,22.1,0.1c11.7,0,23.8,0,35.9,0.3c2.1,0,3.1-0.3,3.4-0.4c0.2-0.3,0.5-1.4,0.5-3.6c-0.3-78.8-0.2-158.9-0.1-236.3
			c0-1-0.1-1.7-0.1-2.1c-0.2-0.1-0.5-0.1-0.9-0.2c-7.6-1.6-12.4-9-10.8-16.6c1.6-7.6,9-12.4,16.6-10.8c8.7,1.8,23.3,8.1,23.3,29.8
			c-0.1,77.4-0.2,157.4,0.1,236.2c0,12.4-4.9,19.7-8.9,23.7c-4.1,4-11.5,8.6-23.7,8.3c-11.7-0.3-23.6-0.3-35.2-0.3
			c-7.3,0-14.8,0-22.3-0.1c-0.4,0-0.7,0-1.1,0C358.2,373.4,356.9,373.6,355.6,373.6z M361.9,372.1
			C361.9,372.1,361.9,372.1,361.9,372.1C361.9,372.1,361.9,372.1,361.9,372.1z"/>
		<path class="st0" d="M206.9,184.5c-2.1,0-4.2-0.5-6.3-1.5c-6.1-3.1-9-10-7.2-16.3c0-0.4,0-0.8,0-1.2c0.1-20.3,0.2-41.1,0-61.6
			c0,0,0-0.1,0-0.1c0-14.4,8.1-24.7,22.3-28.2c7.5-1.8,15.1,2.8,16.9,10.3c1.8,7.5-2.8,15.1-10.3,16.9c-0.4,0.1-0.7,0.2-0.9,0.3
			c0,0.2,0,0.4,0,0.6c0.2,20.7,0.1,41.6,0,61.9c0,0.1,0,0.3,0,0.5c0.1,2.2,0.2,6.2-2,10.7C217,181.6,212.1,184.5,206.9,184.5z
			 M194.4,164.2C194.4,164.2,194.4,164.2,194.4,164.2C194.4,164.2,194.4,164.2,194.4,164.2z"/>
		<path class="st0" d="M255.2,143.9c-1,0-2.1,0-3.3-0.2c-0.2,0-0.5-0.1-0.7-0.1c-11.9-2.2-17.4-9-17.4-21.3V76.1
			c0-13.5,7.8-21.3,21.3-21.5c6.1-0.1,12.2,0,18,0c0.8,0,1.6,0,2.4,0c0-0.1,0-0.2,0.1-0.2c3.3-12,13.9-19.8,26.9-19.8h41.7
			c0.1,0,0.1,0,0.2,0c1.8,0,3.7,0.3,5.5,1c11.6,4.6,16.6,12.2,18.7,19.1c4.3,0,8.5,0,12.7,0c2.2,0,4.4,0,6.6,0
			c15,0,22.5,7.6,22.5,22.5v44.7c0,13.5-6.8,20.9-20.3,22c-1.5,0.1-2.8,0.1-3.7,0.1c-0.2,0-0.4,0-0.5,0H258.2c-0.3,0-0.6,0-0.9,0
			C256.8,143.9,256,143.9,255.2,143.9z M382.2,122.9C382.2,122.9,382.2,122.9,382.2,122.9L382.2,122.9z M261.7,115.8h120.6V82.6
			c-0.4,0-0.8,0-1.2,0c-6.5,0-13.2,0-19.6,0.1c-0.1,0-0.2,0-0.3,0c-7.4,0-11.9-3.1-14.4-5.7c-3.4-3.5-5.1-8.2-5-13.3
			c0-0.5,0-0.8-0.1-1c-0.1-0.1-0.2-0.1-0.3-0.2h-38.9c0,0-0.1,0-0.1,0c-0.1,0.6-0.2,1.3-0.2,1.9c0,0,0,0.1,0,0.1
			c-0.6,8.7-5.4,13.1-8.2,14.9c-4.3,2.8-8.9,3.1-12,3.1c-3,0-5.9,0-8.9,0c-3.7,0-7.5,0-11.2,0V115.8z M261.7,75.4L261.7,75.4
			L261.7,75.4z M369.7,64.5C369.7,64.5,369.7,64.5,369.7,64.5C369.7,64.5,369.7,64.5,369.7,64.5z"/>
	</g>
	<g id="OVdbYm.tif">
		<g>
			<path class="st0" d="M251.1,350.8c-3.8,0-7.6-0.4-11.6-1.1c-1.1-0.2-2.2-0.4-3.3-0.7c-1.8-0.4-4.4-1-5.2-0.8
				c-7.1,3.2-15.3,0-18.5-7.1c-3.2-7.1,0.1-15.4,7.1-18.5c8.8-3.9,17-2.2,22.4-1c0.9,0.2,1.7,0.4,2.5,0.5c0,0,0.1,0,0.1,0
				c10,1.9,18.6-0.6,26.3-7.6c12-11,23.6-23,35.4-35.3c4.2-4.4,6.5-9.8,7.1-16.5c1-12.9-0.6-18.2-8.2-27.1
				c-4.9-5.8-11.6-9.1-20.5-10.3c-11.5-1.5-20.6,2.2-30.7,12.3c-2.4,2.4-4.8,4.8-7.2,7.3c-7,7-14.2,14.3-21,21.5
				c-8.9,9.5-11.5,19.3-8.2,30.8c2.2,7.9,1,14.7-0.4,19.9c-2,7.5-9.7,11.9-17.1,9.9c-7.5-2-11.9-9.7-9.9-17.1
				c0.8-3.1,0.8-4.2,0.6-4.9c-6.1-21-1.1-41,14.6-57.7c7.1-7.6,14.5-15,21.6-22.2c2.4-2.4,4.8-4.8,7.1-7.2
				c16.2-16.3,33.8-23,54.1-20.4c15.7,2,28.9,8.9,38.3,19.9c12.3,14.5,16.4,27.3,14.8,47.5c0,0,0,0.1,0,0.1
				c-1.1,13.2-6.1,24.5-14.8,33.6c-12.2,12.7-24.1,25-36.7,36.6C278.6,345.5,265.4,350.8,251.1,350.8z"/>
			<path class="st0" d="M133.3,468c-2.5,0-5.4-0.5-8.4-1.9c-14.4-1.4-27.2-8.2-37.1-19.6c-12.4-14.2-17.5-30.5-15-48.5
				c1.9-13.6,6.7-24.3,14.8-32.7c12.2-12.7,24.1-25,36.7-36.6c14.3-13.1,31.7-18.1,50.4-14.5c1.1,0.2,2.2,0.4,3.3,0.7
				c1.8,0.4,4.4,0.9,5.2,0.8c7.1-3.2,15.3,0,18.5,7.1s-0.1,15.3-7.1,18.5c-8.8,3.9-17,2.2-22.4,1c-0.9-0.2-1.7-0.4-2.5-0.5
				c0,0-0.1,0-0.1,0c-10-1.9-18.6,0.6-26.3,7.6c-12,11-23.6,23-35.4,35.3c-3.9,4.1-6.2,9.6-7.3,17.2c-1.4,9.9,1.3,18.2,8.3,26.2
				c5.5,6.3,12.1,9.7,19.8,10.2c0.1,0,0.3,0,0.4,0c1.7,0.2,3.4,0.6,5,1.2c1.9-0.5,3.8-0.8,5.4-1.1c1.5-0.3,3-0.5,3.8-0.8
				c0.1,0,0.2-0.1,0.3-0.1c5.4-1.9,10.6-5.4,15.9-10.8c3.3-3.4,6.7-6.8,10-10c6.4-6.4,13.1-13.1,19.2-19.7c8.2-8.8,10.8-18.6,8-29.8
				c-1.8-6.8-1.7-13.5,0.2-20.5c2-7.5,9.7-11.9,17.2-9.8c7.5,2,11.9,9.7,9.8,17.2c-0.6,2.2-0.6,4-0.1,6.1c5.3,20.7,0.2,40-14.6,55.8
				c-6.5,7-13.3,13.9-19.9,20.5c-3.2,3.2-6.6,6.6-9.8,9.9c-8.3,8.4-16.9,14.1-26.4,17.5c-3.2,1.2-6.3,1.7-8.7,2.2
				c-1.4,0.2-2.7,0.5-3.5,0.7C139.5,467.1,136.8,468,133.3,468z M123.2,465.1C123.2,465.1,123.2,465.1,123.2,465.1
				C123.2,465.1,123.2,465.1,123.2,465.1z"/>
			<path class="st0" d="M161.7,393.4c-6.7,0-12.6-4.8-13.8-11.6c-0.8-4.7-0.2-11.7,7.4-17.7c0.1,0,0.1-0.1,0.2-0.1
				c11.5-11.6,23.2-23.3,34.5-34.6c3.9-3.9,7.7-7.7,11.6-11.6l37-37c1.1-4.1,4-7.6,8.2-9.4c7.1-3,15.3,0.4,18.3,7.6
				c1.5,3.5,3.8,12.6-5.6,20.5l-0.1,0.1c0,0,0,0,0,0l-37.9,37.9c-3.9,3.9-7.8,7.7-11.6,11.6c-11.4,11.3-23.1,23.1-34.6,34.7
				c0,0,0,0-0.1,0.1c-0.1,0.1-0.1,0.1-0.2,0.2c-1.6,4.6-5.7,8.2-10.8,9.1C163.2,393.3,162.4,393.4,161.7,393.4z M175.5,377
				C175.5,377,175.5,377,175.5,377C175.5,377,175.5,377,175.5,377z M259.6,299.2C259.6,299.2,259.6,299.2,259.6,299.2
				C259.6,299.2,259.6,299.2,259.6,299.2z M259.6,299.2C259.6,299.2,259.6,299.2,259.6,299.2C259.6,299.2,259.6,299.2,259.6,299.2z
				 M259.6,299.2C259.6,299.2,259.6,299.2,259.6,299.2C259.6,299.2,259.6,299.2,259.6,299.2z M259.6,299.2
				C259.6,299.2,259.6,299.2,259.6,299.2C259.6,299.2,259.6,299.2,259.6,299.2z M239.2,289.5C239.2,289.5,239.2,289.6,239.2,289.5
				C239.2,289.6,239.2,289.5,239.2,289.5z"/>
		</g>
	</g>
</g>
</svg>
