<?xml version="1.0" encoding="utf-8"?>
<!-- Generator: Adobe Illustrator 19.2.1, SVG Export Plug-In . SVG Version: 6.00 Build 0)  -->
<svg version="1.1" id="Layer_1" xmlns="http://www.w3.org/2000/svg" xmlns:xlink="http://www.w3.org/1999/xlink" x="0px" y="0px"
	 viewBox="0 0 512 512" style="enable-background:new 0 0 512 512;" xml:space="preserve">
<style type="text/css">
	.st0{fill:#666666;}
</style>
<g>
	<path class="st0" d="M267.2,250.5c-59.7-1-135-3.8-181.4-47.2c-27-25.3-24.2-57.4-22.6-92.2c1.4-31.6,29.3-48.6,56.2-59
		c65.7-25.2,143.8-26,212.5-15.2c32.1,5.1,68.5,13.3,94.4,33.9c27.6,21.8,25.4,62.8,21.5,95c-4,32.9-41.5,54.1-69.2,64.9
		C343,244.8,304.9,246.6,267.2,250.5C214.1,249.6,280,249.2,267.2,250.5z M255.1,153.8c41.3-2,153.7-7.6,160.1-42.5
		c4.1-22.4-54.7-35.5-69.1-38.7c-29.1-6.5-59.1-8.8-88.9-9c-31.6-0.2-63.3,2.6-94.2,9.7c-15.3,3.5-64.6,13.4-66.9,34.1
		c-2.2,19.7,48.8,32.5,62.7,36C190.1,151.3,222.7,153.7,255.1,153.8C255.1,154.4,255.1,153.8,255.1,153.8z M378.2,187.2
		c0.2-28.7-41.9-20.5-42,4.8C336,220.7,378,213.3,378.2,187.2C378.2,176.7,378.1,200,378.2,187.2z"/>
	<path class="st0" d="M447.1,342.3c0,23.7,4.5,51-4.5,73.6c-7.6,19.3-24.4,34.3-41.2,45.6c-39.8,27.1-91.6,36.6-139,37.9
		c-48.9,1.4-102.7-8-145.4-33c-19.8-11.6-38.7-28.3-47.9-49.7c-9.8-22.6-6-50-6-74c5.4,0.6,12.5,9.8,16.9,13.3
		c6.7,5.3,13.8,10.2,21.2,14.6c14.6,8.8,30.3,15.6,46.4,21c33.4,11,69.1,16.4,104.2,16.9c36.9,0.6,73.8-4.9,108.9-16.4
		c16.9-5.5,33.4-12.3,48.7-21.3C423.5,362.7,434.2,351.5,447.1,342.3C447.1,361.8,446.1,343,447.1,342.3z M378.2,434.8
		c0.3-28.7-41.8-20.6-42,4.6C335.9,468.3,377.9,460.9,378.2,434.8C378.3,424.4,378.1,447.5,378.2,434.8z"/>
	<path class="st0" d="M63.7,221.9c49.3,47.5,118.7,63,185.3,64.5c37.6,0.8,75.4-3.8,111.5-14.8c16.7-5.1,33-11.6,48.1-20.3
		c14.3-8.2,25.1-20.8,38.8-29.2c1.7,22.1,6.1,56.4-2.6,77c-8.2,19.5-29.1,33.4-46.9,43c-44.1,23.9-98.1,30.6-147.6,30.2
		c-48.3-0.4-102.7-8.7-144.5-34.2c-17.2-10.5-37.7-26.3-42-47.2C59.5,270.4,63.7,221.9,63.7,221.9S63.5,224.6,63.7,221.9z
		 M378.2,311.2c-0.1-28.4-42.4-19.6-42,5.6C336.5,345.3,378.3,337.1,378.2,311.2C378.1,300.7,378.2,324.3,378.2,311.2z"/>
</g>
</svg>
