<?xml version="1.0" encoding="utf-8"?>
<!-- Generator: Adobe Illustrator 19.2.0, SVG Export Plug-In . SVG Version: 6.00 Build 0)  -->
<!DOCTYPE svg PUBLIC "-//W3C//DTD SVG 1.1//EN" "http://www.w3.org/Graphics/SVG/1.1/DTD/svg11.dtd">
<svg version="1.1" id="Layer_1" xmlns="http://www.w3.org/2000/svg" xmlns:xlink="http://www.w3.org/1999/xlink" x="0px" y="0px"
	 viewBox="0 0 512 512" style="enable-background:new 0 0 512 512;" xml:space="preserve">
<style type="text/css">
	.st0{fill:none;stroke:#000000;stroke-width:1;stroke-linecap:round;stroke-linejoin:round;stroke-miterlimit:10;}
</style>
<g>
	<path vector-effect="non-scaling-stroke" class="st0" d="M379.5,169c-0.8-4.2-2.9-7.5-6-10.5c-15.9-15.4-31.5-31.2-47.6-46.3c-6.7-6.3-13.3-12.7-19.9-19.1
		c-1.7-1.6-3.5-3-5.5-4c-2.5-1.2-5-2-6.7-4.9c-1.4-2.4-4.7-3.1-7.8-3.1c-47.3,0-94.6,0-142,0.1c-10.7,0-19.1,11.3-19.1,19.5
		c0.2,103.5,0.2,206.9,0,310.4c0,9.6,7.5,17,14.7,18.9c3,0.8,6.2,1.1,9.5,1.1c71.8-0.1,143.6-0.1,215.4,0c11.5,0,22.6-8.9,22.5-22.6
		c-0.1-76.5,0-153,0-229.4c0-7.3-2.5-9.7-10-9c-21.6,2-43.3,0.8-65,0.9c-9.6,0.1-18.9-9.8-19-19.4c-0.2-17.7-0.1-35.3,0-53
		c0-3.6,1-7.3,2.9-10.5"/>
</g>
</svg>
