<?xml version="1.0" encoding="utf-8"?>
<!-- Generator: Adobe Illustrator 19.2.0, SVG Export Plug-In . SVG Version: 6.00 Build 0)  -->
<!DOCTYPE svg PUBLIC "-//W3C//DTD SVG 1.1//EN" "http://www.w3.org/Graphics/SVG/1.1/DTD/svg11.dtd">
<svg version="1.1" id="Layer_1" xmlns="http://www.w3.org/2000/svg" xmlns:xlink="http://www.w3.org/1999/xlink" x="0px" y="0px"
	 viewBox="0 0 512 512" style="enable-background:new 0 0 512 512;" xml:space="preserve">
<style type="text/css">
	.st0{fill:#FFFFFF;stroke:#000000;stroke-width:2;stroke-linecap:round;stroke-linejoin:round;stroke-miterlimit:10;}
</style>
<path  vector-effect="non-scaling-stroke" class="st0" d="M395.8,357.6c-1.4,3.3-2.1,7.3-4.4,9.8c-6.7,7.5-13.9,14.6-21.3,21.4c-6.9,6.4-15.8,6.4-22.8-0.3
	c-5.3-5-10.5-10.5-16.7-14.1c-16-9.5-37.4-0.4-42,18.4c-1.2,4.7-0.7,9.8-1.1,14.7c-0.3,3.8-0.1,7.7-1.1,11.4
	c-1.9,7.2-7.9,11.6-16,11.8c-9.2,0.3-18.4,0.6-27.5-0.1c-8.7-0.7-15.9-5.1-16.2-18.3c-0.1-5.1-0.1-10.1-0.5-15.2
	c-0.9-12.5-8.2-20.5-19.5-24.6c-11-4-21.2-1.5-29.8,6.5c-2.9,2.7-5.8,5.6-8.5,8.5c-5.9,6.1-15.8,9.4-24.7,0.9
	c-7.1-6.8-14-13.9-20.9-20.9c-6.1-6.1-4.9-16.8,0.4-21.9c4.5-4.3,9-8.8,12.8-13.8c6.8-9.1,7.5-19.2,2.4-29.3
	c-5.1-10-12.9-16-24.6-16.2c-4.7-0.1-9.5-0.2-14.2-0.5c-11.9-0.6-17.8-5.7-18-18c-0.2-9.8,0.1-19.6,0.5-29.4
	c0.3-6.5,6.8-12.5,13.2-12.8c6.6-0.3,13.3-0.8,19.9-0.9c10.6-0.2,22.6-9.1,25.6-22.8c2.1-9.7-0.3-18.3-7.1-25.6
	c-3.6-3.9-7.3-7.6-10.9-11.4c-6.9-7.3-5.7-15.1-0.3-21.2c7-8,14.7-15.4,22.7-22.3c5.7-4.9,15.2-5.1,21.3,0.8
	c4.3,4.1,8.3,8.5,12.9,12.3c14.7,12,41.5,5.9,46.3-16.6c1.2-5.7,0.9-11.7,1-17.5c0.2-7.2,1.4-14,8.6-17.4c3-1.4,6.6-1.9,9.9-1.9
	c9.3-0.1,18.7,0.4,28,0.3c5.6-0.1,12.5,7.1,12.8,12.4c0.4,6.8,0.8,13.6,0.9,20.4c0.2,11.6,12,24.8,25.7,26.1
	c9.9,0.9,18.6-1.4,25.7-9c3-3.2,6.6-5.8,9.4-9.1c4.3-5.1,15.7-5.7,20.9-0.8c8,7.5,15.8,15.3,23.3,23.3c5.3,5.6,4.9,14.7-0.4,20.3
	c-3.2,3.4-6.7,6.6-9.9,10c-17.3,17.7-8,43,12.4,49.2c3.7,1.1,7.9,0.8,11.8,1c4.1,0.2,8.2,0.1,12.3,0.5c7.1,0.7,12.2,6.1,12.3,13.2
	c0.2,11.1,0,22.1,0,33.2c0,6.1-4.9,12.7-14.2,12.8c-5.2,0.1-10.4,0.3-15.7,0.5c-13.5,0.3-25.5,10.9-27.6,25.6
	c-1.7,12,3.6,20.8,11.9,28.5c4.4,4.1,9.5,7.6,10.4,14.3c0.1,1.1,0.3,2.2,0.5,3.3 M255.3,172.1c-8.4,0.5-16.7,1.4-24.7,4.3
	c-30.3,11.1-49.3,32.2-55.5,64.1c-5.1,26.3,1.8,49.4,18.9,69.8c13.6,16.2,31.2,25.8,51.8,28.2c25.7,3,49-3.8,68.4-22
	c14.1-13.3,22.7-29.5,25.5-48.5c2.7-18.4-0.1-36.3-9.4-52.6c-12.3-21.7-30.7-35.6-55-41.2c-6.3-1.5-12.9-1.4-19.4-2"/>
</svg>
