<?xml version="1.0" encoding="utf-8"?>
<!-- Generator: Adobe Illustrator 19.2.1, SVG Export Plug-In . SVG Version: 6.00 Build 0)  -->
<svg version="1.1" id="Layer_1" xmlns="http://www.w3.org/2000/svg" xmlns:xlink="http://www.w3.org/1999/xlink" x="0px" y="0px"
	 viewBox="0 0 512 512" style="enable-background:new 0 0 512 512;" xml:space="preserve">
<style type="text/css">
	.st0{fill:#666666;}
</style>
<g>
	<path class="st0" d="M193.3,15.1c9.3-0.8,21.6,5.4,34.1,11c75.6,33.9,151.3,67.8,226.9,102c7,3.2,14.1,6.9,20,11.8
		c22.8,18.9,28.8,48.7,16.1,77C465.3,273,440.1,329,414.9,385.1c-10.6,23.6-21.1,47.2-31.8,70.7c-17.4,37.9-51.3,50.9-89.6,33.8
		c-69-30.8-137.9-61.9-206.9-92.9c-10.7-4.8-21.4-9.5-32-14.5c-35.4-16.6-48.8-50.7-33.1-86.5C50.7,229.8,80.5,164,110,98.1
		c7-15.6,13.6-31.3,21.1-46.7C142.6,27.8,162,15.9,193.3,15.1z M460,200c-1.3-24.2-12-40.2-36.3-51.2
		C357.5,118.9,290.9,89.9,225,59.3C193.2,44.5,161.4,59,148.7,88c-29.6,67.4-60.3,134.3-90.2,201.6c-13.1,29.4-2.2,58.7,27.2,72.1
		c67.9,30.9,135.9,61.5,204.2,91.6c30.1,13.3,58.3,2.5,71.9-27.2c30.8-67.4,61-135.1,91.2-202.8C456.2,216,457.7,207.8,460,200z"/>
	<path class="st0" d="M312,454.1c-6.9-2-14.2-3.1-20.8-6c-66.4-29.6-132.6-59.4-198.9-89.2c-0.9-0.4-1.8-0.8-2.7-1.2
		c-28.3-13.4-38-37.9-25.8-66.5c9.8-22.9,20.2-45.4,30.4-68.1c19.6-43.6,40.1-86.8,58.5-130.8c13.8-32.9,44.4-39.6,72.2-26.9
		c66.1,30,132.5,59.5,198.8,89.4c26,11.7,36.5,38.6,24.9,64.8c-30.3,68.2-61,136.1-91.7,204.2C348.5,442.9,334,453.4,312,454.1z
		 M337.9,419.3c1.2,0,2.3-0.1,3.5-0.1c22.4-49.3,44.7-98.5,67.1-147.8c-1-0.6-2.1-1.2-3.1-1.8c-28.5,34.9-57,69.9-86.1,105.5
		C325.6,390.3,331.8,404.8,337.9,419.3z M418.9,174.1c-0.1-1.2-0.2-2.5-0.3-3.7c-48.9-22.2-97.8-44.6-147.1-66.1
		c-0.5,0.9-1,1.9-1.5,2.8c35.4,28.6,70.8,57.2,105.9,85.5C391.4,185.9,405.1,180,418.9,174.1z M96,336.6c-0.1,1.4-0.2,2.7-0.3,4.1
		c48.3,22.4,96.7,44.9,145,67.3c0.5-0.8,1.1-1.7,1.6-2.5c-34.7-28.7-69.3-57.5-104.6-86.7C123.4,324.8,109.7,330.7,96,336.6z
		 M173.3,90.8c-23.4,50.4-45.1,97.4-66.8,144.3c1,0.6,2,1.3,3.1,1.9c27.7-33.4,55.4-66.9,83.4-100.5
		C186.4,121.5,180.6,107.8,173.3,90.8z M173.5,195.1c-0.8-0.4-1.7-0.9-2.5-1.3c-28.7,34.7-57.3,69.4-86,104.1c0.7,1,1.5,1.9,2.2,2.9
		c18.8-5.7,37.6-11.4,56.3-17C153.8,253.4,163.7,224.3,173.5,195.1z M242.5,193.7c-21.8,26.2-42.9,51.7-66.2,79.6
		c8.6-1.7,13.3-2.6,17.6-3.5c26.1,21.2,51.7,42,78,63.4c-0.4-6-0.8-11.2-1.1-15.8c20.6-25.6,40.7-50.5,61.9-76.9
		c-6.8,0.4-11.4,0.6-15.3,0.8c-25.9-21-51-41.5-78.1-63.5C240.7,184.7,241.5,188.8,242.5,193.7z M284.2,369
		c-29.7-10.2-58.1-19.9-86.5-29.6c32.5,29.9,65.3,58.8,100,85.4c0.8-0.7,1.7-1.4,2.5-2.1C294.9,405.1,289.7,387.4,284.2,369z
		 M311.9,170.9c0.6-1,1.1-2,1.7-3c-33-26.8-65.9-53.5-98.9-80.3c-0.9,0.6-1.8,1.3-2.8,1.9c5.4,17.9,10.9,35.8,16.3,53.7
		C256.8,152.6,284.4,161.7,311.9,170.9z M424.2,215c-0.8-1.1-1.5-2.1-2.3-3.2c-17.8,5.5-35.6,11-52.4,16.2
		c-9.7,29.3-18.7,56.4-27.7,83.6c0.9,0.4,1.8,0.8,2.7,1.2C371,280.2,397.6,247.6,424.2,215z M332.5,277.1c-1-0.5-2-1-2.9-1.5
		c-11.6,14-23.3,28-35,42.1c4.2,9.7,8,18.4,11.8,27.1c1,0,2.1,0,3.1,0C317.2,322.2,324.8,299.7,332.5,277.1z M344.5,205.7
		c0-1,0-2,0-3.1c-21.6-7.2-43.3-14.5-64.9-21.7c-0.5,1.1-1,2.2-1.6,3.2c13.4,10.8,26.7,21.7,40.3,32.7
		C328,212.8,336.3,209.2,344.5,205.7z M170.1,305.8c0.1,1.1,0.2,2.1,0.3,3.2c21.6,7.4,43.2,14.9,64.8,22.3c0.4-0.7,0.7-1.3,1.1-2
		c-13.5-11.5-27.1-22.9-41-34.7c-5.9,2.3-11.3,4.3-16.6,6.6C175.6,302.4,172.9,304.2,170.1,305.8z M206.3,168.7
		c-9.4,15.4-21.5,51.7-20.8,62.8c10.9-12.9,21.1-25.1,31.7-37.8C213.5,185.3,210.1,177.6,206.3,168.7z"/>
	<path class="st0" d="M251.8,196.4c20,15.6,39,30.4,57.5,44.8c4,8.7,2.6,15.5-3,22.3c-10.5,12.7-19.9,26.4-30.7,38.8
		c-10.7,12.4-15.3,12.6-28.2,2.9c-13.2-10-26.4-19.9-38.8-30.7c-10.8-9.5-11.2-14.7-2.7-26.4c10.9-14.9,22.5-29.3,34.1-43.6
		C242.3,201.8,246.1,200.3,251.8,196.4z M254.4,226.8c-30,22.2-31.1,32.9-7.3,51.2c8.6,6.6,15.1,6.2,21.7-1.2
		c15.1-16.9,17.4-24,8.8-32.2C270.6,237.9,262.3,232.8,254.4,226.8z"/>
</g>
</svg>
