<?xml version="1.0" encoding="utf-8"?>
<!-- Generator: Adobe Illustrator 19.2.1, SVG Export Plug-In . SVG Version: 6.00 Build 0)  -->
<svg version="1.1" id="Layer_1" xmlns="http://www.w3.org/2000/svg" xmlns:xlink="http://www.w3.org/1999/xlink" x="0px" y="0px"
	 viewBox="0 0 512 512" style="enable-background:new 0 0 512 512;" xml:space="preserve">
<style type="text/css">
	.st0{fill:#666666;}
</style>
<g>
	<path class="st0" d="M81.5,75.6c-6,1.5-6.5,2.2-6.5,9.1c0,82.8,0,165.7,0,248.4c0,31.4,0,62.8,0.1,94.2c0,3.1,2,9.2,6.8,9.2
		c23.1,0,61.7,0.4,80.9,0.4c7.6,0,7-7.1,7-10.2c0.1-113.9,0.1-227.7,0.1-341.5c0-0.2,0-0.5,0-0.7c-0.3-7.4-1.4-8.6-8.7-8.7
		c-26.4-0.1-52.9,0-79.4,0 M150.1,149.3H94v-34.1h56.1V149.3z M150.1,341.4H94v-34.1h56.1V341.4z M149.5,395.8h-55v-34.1h55V395.8z"
		/>
	<path class="st0" d="M205.7,75.6c-6,1.5-6.5,2.2-6.5,9.1c0,82.8,0,165.7,0,248.4c0,31.4,0,62.8,0.1,94.2c0,3.1,2,9.2,6.8,9.2
		c23.1,0,61.7,0.4,80.9,0.4c7.6,0,7-7.1,7-10.2c0.1-113.9,0.1-227.7,0.1-341.5c0-0.2,0-0.5,0-0.7c-0.3-7.4-1.4-8.6-8.7-8.7
		c-26.4-0.1-52.9,0-79.4,0 M274.3,149.3h-56.1v-34.1h56.1V149.3z M274.3,341.4h-56.1v-34.1h56.1V341.4z M273.7,395.8h-55v-34.1h55
		V395.8z"/>
	<path class="st0" d="M299.6,81.7c-5.6,2.5-6,3.4-4.8,10.1c14.6,81.5,29.3,163.1,43.9,244.5c5.6,31,11.1,61.8,16.8,92.7
		c0.5,3,3.6,8.7,8.3,7.8c22.8-4.1,60.8-10.5,79.7-13.9c7.4-1.3,5.7-8.3,5.1-11.3c-20-112.1-40.2-224.1-60.3-336.1
		c0-0.2-0.1-0.5-0.1-0.7c-1.6-7.2-2.9-8.3-10.1-7.1c-26,4.6-52,9.3-78.2,14 M380.2,142.1L325,152l-6-33.6l55.2-9.9L380.2,142.1z
		 M414.2,331.2l-55.2,9.9l-6-33.6l55.2-9.9L414.2,331.2z M423.2,384.8l-54.2,9.7l-6-33.6l54.2-9.7L423.2,384.8z"/>
</g>
</svg>
