<?xml version="1.0" encoding="utf-8"?>
<!-- Generator: Adobe Illustrator 19.2.0, SVG Export Plug-In . SVG Version: 6.00 Build 0)  -->
<!DOCTYPE svg PUBLIC "-//W3C//DTD SVG 1.1//EN" "http://www.w3.org/Graphics/SVG/1.1/DTD/svg11.dtd">
<svg version="1.1" id="Layer_1" xmlns="http://www.w3.org/2000/svg" xmlns:xlink="http://www.w3.org/1999/xlink" x="0px" y="0px"
	 viewBox="0 0 512 512" style="enable-background:new 0 0 512 512;" xml:space="preserve">
<style type="text/css">
	.st0{fill:#377EB8;}
</style>
<path class="st0" d="M512,256c0,141.4-114.6,256-256,256S0,397.4,0,256S114.6,0,256,0S512,114.6,512,256z M256,32
	C132.3,32,32,132.3,32,256s100.3,224,224,224s224-100.3,224-224S379.7,32,256,32z"/>
<g>
	<path class="st0" d="M192.9,427.4v-18.2c11.3-2.3,19.7-4.9,25-7.6c5.3-2.8,8-5.3,8-7.6V265.4c0-8.5-0.1-15.4-0.2-20.6
		c-0.2-5.2-1.2-9.3-3.1-12.2c-1.9-2.9-5.1-5-9.6-6.4c-4.5-1.3-11.2-2.4-20-3.2v-17.5c14.3-2,27.9-4.5,40.8-7.4
		c12.8-2.9,24.9-6.5,36.2-10.6h16v206.5c0,2,2.5,4.5,7.5,7.4c5,2.9,13.6,5.5,25.8,7.9v18.2H192.9z M295.4,112.1
		c0,5.7-1.1,10.8-3.2,15.5c-2.2,4.7-5.1,8.7-8.9,12c-3.8,3.3-8.2,5.9-13.2,7.8c-5.1,1.8-10.6,2.8-16.6,2.8c-4.7,0-9.1-0.5-13.2-1.6
		c-4.2-1.1-7.8-2.8-10.9-5.1c-3.1-2.3-5.5-5.2-7.4-8.6c-1.8-3.4-2.8-7.5-2.8-12.4c0-5.7,1.1-10.8,3.2-15.5c2.2-4.7,5.1-8.6,8.9-11.9
		s8.2-5.8,13.2-7.6c5.1-1.8,10.5-2.8,16.4-2.8c4.5,0,8.8,0.5,13,1.6c4.2,1.1,7.8,2.8,11,5c3.2,2.2,5.7,5.1,7.6,8.5
		C294.4,103.2,295.4,107.3,295.4,112.1z"/>
</g>
</svg>
