<?xml version="1.0" encoding="utf-8"?>
<!-- Generator: Adobe Illustrator 19.2.1, SVG Export Plug-In . SVG Version: 6.00 Build 0)  -->
<svg version="1.1" id="Layer_1" xmlns="http://www.w3.org/2000/svg" xmlns:xlink="http://www.w3.org/1999/xlink" x="0px" y="0px"
	 viewBox="0 0 512 512" style="enable-background:new 0 0 512 512;" xml:space="preserve">
<style type="text/css">
	.st0{fill:#377EB8;}
</style>
<path class="st0" d="M512,256c0,141.4-114.6,256-256,256S0,397.4,0,256S114.6,0,256,0S512,114.6,512,256z M256,32
	C132.3,32,32,132.3,32,256s100.3,224,224,224s224-100.3,224-224S379.7,32,256,32z"/>
<g>
	<path class="st0" d="M201.3,169.1c-7-2.6-14.2-5.2-21.4-7.9c-7.2-2.7-14.3-5.4-21.4-7.9c1.9-6.4,4.8-14.1,8.6-23
		c3.8-9,9.4-17.4,16.8-25.4c7.4-8,17-14.8,28.8-20.4c11.8-5.6,26.9-8.4,45.1-8.4c13.4,0,26,2.6,37.7,7.7c11.7,5.1,21.8,12,30.2,20.6
		c8.5,8.6,15.2,18.7,20.2,30.2c5,11.5,7.4,23.7,7.4,36.5c0,18.2-4.2,34.3-12.7,48c-8.5,13.8-20.1,26.3-34.8,37.5
		c-4.2,2.9-8.8,6.1-13.9,9.6c-5.1,3.5-10,7.6-14.6,12.2c-4.6,4.6-8.6,9.9-11.8,15.8c-3.2,5.9-4.8,12.9-4.8,20.9v38.4h-49.9v-47.5
		c0-10.6,1.6-19.2,4.8-25.9c3.2-6.7,7.4-12.6,12.7-17.5c5.3-5,11.3-9.6,18-13.9c6.7-4.3,13.8-9.2,21.1-14.6
		c23.7-17.9,35.5-38.9,35.5-62.9c0-13.4-4.1-24.6-12.2-33.6c-8.2-9-19.1-13.4-32.9-13.4c-9,0-16.5,1-22.6,2.9
		c-6.1,1.9-11.3,4.7-15.6,8.4c-4.3,3.7-7.9,8.3-10.8,13.9C206.1,154.8,203.5,161.4,201.3,169.1z M235.4,436.1
		c-7.4,0-14.2-2.6-20.4-7.9c-6.2-5.3-9.4-12.4-9.4-21.4c0-8.3,3.1-15.4,9.4-21.1c6.2-5.8,13-8.6,20.4-8.6c7,0,13.6,2.9,19.7,8.6
		c6.1,5.8,9.1,12.8,9.1,21.1c0,9-3,16.1-9.1,21.4C249,433.4,242.4,436.1,235.4,436.1z"/>
</g>
</svg>
