<?xml version="1.0" encoding="utf-8"?>
<!-- Generator: Adobe Illustrator 19.2.0, SVG Export Plug-In . SVG Version: 6.00 Build 0)  -->
<!DOCTYPE svg PUBLIC "-//W3C//DTD SVG 1.1//EN" "http://www.w3.org/Graphics/SVG/1.1/DTD/svg11.dtd">
<svg version="1.1" id="Layer_1" xmlns="http://www.w3.org/2000/svg" xmlns:xlink="http://www.w3.org/1999/xlink" x="0px" y="0px"
	 viewBox="0 0 512 512" style="enable-background:new 0 0 512 512;" xml:space="preserve">
<style type="text/css">
	.st0{fill-rule:evenodd;clip-rule:evenodd;fill:#4DAF4A;}
</style>
<path class="st0" d="M512,256c0,141.4-114.6,256-256,256S0,397.4,0,256S114.6,0,256,0S512,114.6,512,256z M199.5,427.4
	c2.4-1.2,5.1-2.6,8.1-4.3c3.1-1.7,6.1-3.6,9.2-5.6c3.1-2,6.1-4.1,9-6.2c3-2.1,5.5-4.2,7.5-6.2L352.5,91.4l-5.9-6.9
	c-1.7,0.8-3.8,1.9-6.2,3.2c-2.5,1.3-5,2.7-7.5,4.3c-2.5,1.6-5,3.3-7.4,5.1c-2.4,1.8-4.5,3.5-6.4,5.2L218.4,367.6l-22.4-58.3
	l-9.4-6.9c-5.8,2.7-10.7,5.4-14.6,8c-4,2.6-8.1,5.9-12.3,9.8L199.5,427.4z"/>
</svg>
