<?xml version="1.0" encoding="utf-8"?>
<!-- Generator: Adobe Illustrator 19.2.0, SVG Export Plug-In . SVG Version: 6.00 Build 0)  -->
<!DOCTYPE svg PUBLIC "-//W3C//DTD SVG 1.1//EN" "http://www.w3.org/Graphics/SVG/1.1/DTD/svg11.dtd">
<svg version="1.1" id="Layer_1" xmlns="http://www.w3.org/2000/svg" xmlns:xlink="http://www.w3.org/1999/xlink" x="0px" y="0px"
	 viewBox="0 0 512 512" style="enable-background:new 0 0 512 512;" xml:space="preserve">
<style type="text/css">
	.st0{fill:none;stroke:#000000;stroke-width:1;stroke-linecap:round;stroke-linejoin:round;stroke-miterlimit:10;}
</style>
<g>
	<path vector-effect="non-scaling-stroke" class="st0" d="M127.1,121.5c-8.6,1.8-12.1,6.8-12.1,16c0.1,78.5,0.2,157-0.1,235.4c0,11.5,5.9,18.2,18.2,17.9
		c19.2-0.5,38.3-0.2,57.5-0.4c1.7,0,3.4-0.3,5,0.5"/>
	<path vector-effect="non-scaling-stroke" class="st0" d="M357.6,269.4c-31.7,0-63.3,0-95,0"/>
	<path vector-effect="non-scaling-stroke" class="st0" d="M357.6,309.9c-31.7,0-63.3,0-95,0"/>
	<path vector-effect="non-scaling-stroke" class="st0" d="M357.6,350.4c-1.8-0.8-3.7-0.5-5.5-0.5c-29.8,0-59.6,0-89.5,0"/>
	<path vector-effect="non-scaling-stroke" class="st0" d="M357.6,390.4c-31.7,0-63.3,0-95,0"/>
	<path vector-effect="non-scaling-stroke" class="st0" d="M331.6,121.5c7,1.7,11.6,5.8,11.6,14.5c-0.2,20.5-0.1,41,0,61.5c0,1.7-0.3,3.4,0.5,5"/>
	<path vector-effect="non-scaling-stroke" class="st0" d="M206.6,81c-7,2.8-11.3,7.4-11.1,15.5c0.1,3.1-1.9,4.6-5.4,4.6c-8.8-0.2-17.7-0.1-26.5-0.1
		c-7.1,0-8.5,1.4-8.5,8.5c0,14.8,0,29.7,0,44.5c0,6.1,1.3,7.5,7.5,8c1,0.1,2,0,3,0c42.3,0,84.6,0,127,0c1.5,0,3,0.2,4.5,0
		c5.3-1,6-1.9,6-7.5c0-15.3,0-30.7,0-46c0-5.7-1.6-7.4-7.5-7.5c-8.8-0.1-17.7,0-26.5,0c-3.5,0-5.9-0.6-6.2-5
		c-0.1-1.7-0.4-3.7-0.9-5.5c-1.6-5.9-6.8-9.5-13.4-9.5c-13.8,0-27.7,0-41.5,0"/>
	<path vector-effect="non-scaling-stroke" class="st0" d="M227.6,229c-4.8,0.9-5.6,4.1-5.6,8.5c0.1,61.6,0.1,123.3,0,184.9c0,6.3,2.3,8.6,8.6,8.6
		c53.1-0.2,106.3-0.1,159.5-0.1c6,0,7-1,7-7c0-62.3,0-124.6,0-186.9c0-6.8-1.2-8-8-8c-53.7,0-107.3,0-161,0"/>
</g>
</svg>
