<?xml version="1.0" encoding="utf-8"?>
<!-- Generator: Adobe Illustrator 19.2.1, SVG Export Plug-In . SVG Version: 6.00 Build 0)  -->
<svg version="1.1" id="Layer_1" xmlns="http://www.w3.org/2000/svg" xmlns:xlink="http://www.w3.org/1999/xlink" x="0px" y="0px"
	 viewBox="0 0 512 512" style="enable-background:new 0 0 512 512;" xml:space="preserve">
<style type="text/css">
	.st0{fill:#666666;}
</style>
<g id="omTX2g.tif">
	<g>
		<path vector-effect="non-scaling-stroke" class="st0" d="M88.8,426.9c0-64.3,0-129,0-193.2c4.6-11.7,12.8-16,24.9-15
			c4.2,0.4,8.8,0,13.4,0c0-8.2,0-16.3,0-24.2c0-19.2,2.8-38,9.6-56.3C152.8,94,183.1,66,229,54.7c5.8-1.3,11.7-2.1,17.5-2.8
			c6.4,0,12.8,0,19.2,0c1.3,0.4,2.5,0.4,3.8,0.8c38.7,5,69.7,23,91.5,55.8c16.7,25.6,23.8,53.8,24.2,83.9c0,8.8,0,17.1,0,26.3
			c1.8,0,3.3,0,4.6,0c4.6,0,9.6,0,14.2,0c10,0,16,6.4,19.2,14.6c0,64.3,0,128.1,0,192.4c-2.5,7.9-7.9,12.8-16,16
			c-101,0-202.1,0-303.1,0C96.7,439.4,91.6,434.3,88.8,426.9z M339.2,218.5c-0.8-16-0.8-30.9-2.8-46.4c-2.5-19.6-10-37.7-23.8-52.3
			c-36.2-38-100.1-29.5-125.6,16.4c-14.2,25.9-15,53.3-13.8,82.2C228.6,218.5,283.2,218.5,339.2,218.5z"/>
	</g>
</g>
</svg>
