<?xml version="1.0" encoding="utf-8"?>
<!-- Generator: Adobe Illustrator 19.2.1, SVG Export Plug-In . SVG Version: 6.00 Build 0)  -->
<svg version="1.1" id="Layer_1" xmlns="http://www.w3.org/2000/svg" xmlns:xlink="http://www.w3.org/1999/xlink" x="0px" y="0px"
	 viewBox="0 0 512 512" style="enable-background:new 0 0 512 512;" xml:space="preserve">
<style type="text/css">
	.st0{fill:#4DAF4A;}
</style>
<g id="omTX2g.tif">
	<g>
		<path vector-effect="non-scaling-stroke" class="st0" d="M44.5,482.4c0-81,0-162.4,0-243.2c5.8-14.7,16.2-20.1,31.4-18.9
			c5.3,0.5,11.1,0,16.9,0c0-10.4,0-20.5,0-30.5c0-24.2,3.6-47.9,12.1-70.8C125,63.4,163.2,28.1,221,13.9c7.3-1.7,14.7-2.7,22-3.6
			c8,0,16.2,0,24.2,0c1.7,0.5,3.1,0.5,4.8,1c48.8,6.3,87.8,29,115.1,70.3c21,32.2,30,67.7,30.5,105.6c0,11.1,0,21.5,0,33.1
			c2.2,0,4.1,0,5.8,0c5.8,0,12.1,0,17.9,0c12.6,0,20.1,8,24.2,18.4c0,81,0,161.2,0,242.2c-3.1,9.9-9.9,16.2-20.1,20.1
			c-127.2,0-254.3,0-381.5,0C54.4,498.1,48.1,491.8,44.5,482.4z M359.7,220.1c-1-20.1-1-38.9-3.6-58.3c-3.1-24.7-12.6-47.4-30-65.8
			C280.5,48.2,200,58.8,168,116.6c-17.9,32.6-18.9,67.2-17.4,103.5C220.5,220.1,289.2,220.1,359.7,220.1z"/>
	</g>
</g>
</svg>
