<?xml version="1.0" encoding="utf-8"?>
<!-- Generator: Adobe Illustrator 19.2.1, SVG Export Plug-In . SVG Version: 6.00 Build 0)  -->
<svg version="1.1" id="Layer_1" xmlns="http://www.w3.org/2000/svg" xmlns:xlink="http://www.w3.org/1999/xlink" x="0px" y="0px"
	 viewBox="0 0 512 512" style="enable-background:new 0 0 512 512;" xml:space="preserve">
<style type="text/css">
	.st0{fill:#4DAF4A;}
</style>
<path class="st0" d="M431.3,350.7c-3.1,0-6.2-0.2-9.4-0.6c-8.8-1-15.1-9-14.1-17.7c1-8.8,9-15.1,17.7-14.1
	c21.2,2.5,36.6-8.4,43.5-30.6c5.2-16.7,5.1-32.1-0.1-45.8c-5.2-13.7-15.4-25-30.2-33.6c-10.8-6.2-27.2-15.7-27.2-41v-0.1
	c0.2-27.8-7.3-51.4-22.1-70.3c-14.8-18.8-36.2-32.1-63.6-39.3c-55.1-14.4-121,17.4-141.3,68c-0.1,1.9,1.3,6.9,2.1,10
	c0.9,3.3,1.9,6.7,2.5,10.4c1.5,8.7-4.3,17-13,18.5s-17-4.3-18.5-13c-0.4-2.1-1.1-4.6-1.8-7.3c-2.4-8.8-5.4-19.6-1-30.3
	C181,48,263,8.1,333.9,26.6c33.8,8.9,61.7,26.4,80.6,50.5c19.2,24.4,29.2,55.6,28.9,90.2c0,5.8,0.8,7.2,11.2,13.3
	c21.1,12.2,36.3,29.5,44.1,49.9c7.8,20.3,8,43.4,0.8,66.7C489.1,330.9,463.4,350.7,431.3,350.7z M184.5,125.4L184.5,125.4z"/>
<path class="st0" d="M72.7,352c-8.3,0-17.9-1.9-27.1-9.8l-0.1-0.1c-29-25.5-51.8-70.1-28.6-119c7.5-15.8,25-53,68.4-53
	c8.8,0,16,7.2,16,16s-7.2,16-16,16c-17,0-27.4,9.1-39.4,34.7C26.3,278,56.7,309.3,66.6,318c2.8,2.4,5.3,2.4,14,1.2
	c4.1-0.5,8.7-1.1,13.7-1c8.8,0.3,15.8,7.7,15.5,16.5s-7.7,15.7-16.5,15.5c-2.4-0.1-5.3,0.3-8.5,0.7C81.2,351.4,77.1,352,72.7,352z"
	/>
<path class="st0" d="M72.8,200.2c-8.8,0-16-7.2-16-16c0-1.4,0.1-2.6,0.1-3.7c0-0.7,0.1-1.6,0.1-2c-5.3-24.6-0.8-47.1,12.5-63.4
	c13.4-16.4,34.7-25.1,60.1-24.6h0.1c11.3,0.3,19.8,4.8,26.7,8.5c4.6,2.4,8.2,4.3,11.5,4.5c8.8,0.5,15.5,8.1,15,16.9
	c-0.5,8.8-8.1,15.5-16.9,15c-10.1-0.6-18.1-4.8-24.4-8.2c-5.5-2.9-9-4.6-12.6-4.8c-15.5-0.3-27.5,4.2-34.6,12.9s-9.2,21.8-5.8,37
	c0.1,0.3,0.1,0.6,0.2,0.8c0.6,3.3,0.4,6.4,0.3,8.8c0,0.8-0.1,1.6-0.1,2.2C88.8,193,81.6,200.2,72.8,200.2z"/>
<path vector-effect="non-scaling-stroke" class="st0" d="M207.7,466.4c-14-0.8-28.1-2.5-42.1-5.2c-11.5-1.7-18.4-9.6-18.4-20.1
	c-0.8-32.5,2.7-51.8,32.5-63.1c5.2-1.7,9.6-3.4,14.9-6.1l16-7.1c10.5-5.2,13.2-21.8,6.1-30.6c-0.8-1.7-3.6-1.7-6.1-2.7
	c-13.2-4.4-26.2-8-39.4-12.4c-6.9-2.7-13.2-8.8-15.7-17.6c20.1-2.7,25.4-17.6,28.9-33.3c2.7-13.2,4.4-27.2,8-40.2
	c6.9-27.2,21.8-48.2,51.8-54.3c36.9-8,73.6,17.6,78,55.1c1.7,12.4,2.7,24.5,4.4,36.9c3.4,17.8,11.3,31.9,31.4,38.8
	c-5.2,5.2-8.8,11.3-14,14c-12.4,5.2-24.5,10.5-36.9,13.2c-8.8,1.7-12.4,5.2-14,13.2c-1.7,8,1.7,16.6,8.8,20.1
	c5.2,2.7,10.5,5.2,15.7,6.9c5.2,2.7,9.6,4.4,14.9,6.1c29.8,11.3,33.3,30.6,32.5,63.1c0,10.5-6.9,18.4-18.4,20.1
	c-14,2.7-28.1,4.4-42.1,5.2c-17.6,0.8-35.8,0-55.1,0H207.7z"/>
</svg>
