<?xml version="1.0" encoding="utf-8"?>
<!-- Generator: Adobe Illustrator 19.2.1, SVG Export Plug-In . SVG Version: 6.00 Build 0)  -->
<svg version="1.1" id="Layer_1" xmlns="http://www.w3.org/2000/svg" xmlns:xlink="http://www.w3.org/1999/xlink" x="0px" y="0px"
	 viewBox="0 0 512 512" style="enable-background:new 0 0 512 512;" xml:space="preserve">
<style type="text/css">
	.st0{fill:#999999;}
</style>
<g>
	<path class="st0" d="M289.7,96.4L289.7,96.4c-6.3-1.3-10.3-7.5-9-13.8l4.8-22.8c1.3-6.3,7.5-10.3,13.8-9l0,0
		c6.3,1.3,10.3,7.5,9,13.8l-4.8,22.8C302.2,93.7,296,97.7,289.7,96.4z"/>
	<path class="st0" d="M312.4,128L312.4,128c-5.9-2.6-8.6-9.5-6-15.4l28.1-64c2.6-5.9,9.5-8.6,15.4-6l0,0c5.9,2.6,8.6,9.5,6,15.4
		l-28.1,64C325.2,127.9,318.3,130.6,312.4,128z"/>
	<path class="st0" d="M322.6,160.3L322.6,160.3c-5.3-3.7-6.6-10.9-2.9-16.2l66.6-95.6c3.7-5.3,10.9-6.6,16.2-2.9v0
		c5.3,3.7,6.6,10.9,2.9,16.2l-66.6,95.6C335.1,162.7,327.8,164,322.6,160.3z"/>
	<path class="st0" d="M356.8,159L356.8,159c-4.5-4.6-4.3-12,0.3-16.5l50.4-48.4c4.6-4.5,12-4.3,16.5,0.3v0c4.5,4.6,4.3,12-0.3,16.5
		l-50.4,48.4C368.6,163.8,361.2,163.7,356.8,159z"/>
	<path class="st0" d="M392.7,167L392.7,167c-3.5-5.4-2-12.6,3.4-16.1l19.5-12.7c5.4-3.5,12.6-2,16.1,3.4l0,0
		c3.5,5.4,2,12.6-3.4,16.1l-19.5,12.7C403.4,173.9,396.2,172.4,392.7,167z"/>
	<path class="st0" d="M385.4,203.1L385.4,203.1c-2.4-6,0.4-12.8,6.4-15.2l64.7-26.5c6-2.4,12.8,0.4,15.2,6.4v0
		c2.4,6-0.4,12.8-6.4,15.2l-64.7,26.5C394.7,211.9,387.9,209,385.4,203.1z"/>
	<path class="st0" d="M370.4,233.8L370.4,233.8c-1.2-6.3,2.9-12.4,9.2-13.7L494,198c6.3-1.2,12.4,2.9,13.7,9.2l0,0
		c1.2,6.3-2.9,12.4-9.2,13.7l-114.4,22.2C377.8,244.3,371.7,240.2,370.4,233.8z"/>
	<path class="st0" d="M395.9,256.2L395.9,256.2c0-6.4,5.2-11.6,11.7-11.6l69.9,0.2c6.4,0,11.6,5.2,11.6,11.7l0,0
		c0,6.4-5.2,11.6-11.7,11.6l-69.9-0.2C401,267.9,395.8,262.6,395.9,256.2z"/>
	<path class="st0" d="M415.6,289.7L415.6,289.7c1.3-6.3,7.5-10.3,13.8-9l22.8,4.8c6.3,1.3,10.3,7.5,9,13.8v0
		c-1.3,6.3-7.5,10.3-13.8,9l-22.8-4.8C418.3,302.2,414.3,296,415.6,289.7z"/>
	<path class="st0" d="M384,312.4L384,312.4c2.6-5.9,9.5-8.6,15.4-6l64,28.1c5.9,2.6,8.6,9.5,6,15.4l0,0c-2.6,5.9-9.5,8.6-15.4,6
		l-64-28.1C384.1,325.2,381.4,318.3,384,312.4z"/>
	<path class="st0" d="M351.7,322.6L351.7,322.6c3.7-5.3,10.9-6.6,16.2-2.9l95.6,66.6c5.3,3.7,6.6,10.9,2.9,16.2l0,0
		c-3.7,5.3-10.9,6.6-16.2,2.9l-95.6-66.6C349.3,335.1,348,327.8,351.7,322.6z"/>
	<path class="st0" d="M353,356.8L353,356.8c4.6-4.5,12-4.3,16.5,0.3l48.4,50.4c4.5,4.6,4.3,12-0.3,16.5h0c-4.6,4.5-12,4.3-16.5-0.3
		l-48.4-50.4C348.2,368.6,348.3,361.2,353,356.8z"/>
	<path class="st0" d="M345,392.7L345,392.7c5.4-3.5,12.6-2,16.1,3.4l12.7,19.5c3.5,5.4,2,12.6-3.4,16.1l0,0
		c-5.4,3.5-12.6,2-16.1-3.4l-12.7-19.5C338.1,403.4,339.6,396.2,345,392.7z"/>
	<path class="st0" d="M308.9,385.4L308.9,385.4c6-2.4,12.8,0.4,15.2,6.4l26.5,64.7c2.4,6-0.4,12.8-6.4,15.2h0
		c-6,2.4-12.8-0.4-15.2-6.4l-26.5-64.7C300.1,394.7,303,387.9,308.9,385.4z"/>
	<path class="st0" d="M278.2,370.4L278.2,370.4c6.3-1.2,12.4,2.9,13.7,9.2L314,494c1.2,6.3-2.9,12.4-9.2,13.7l0,0
		c-6.3,1.2-12.4-2.9-13.7-9.2l-22.2-114.4C267.7,377.8,271.8,371.7,278.2,370.4z"/>
	<path class="st0" d="M255.8,395.9L255.8,395.9c6.4,0,11.6,5.2,11.6,11.7l-0.2,69.9c0,6.4-5.2,11.6-11.7,11.6h0
		c-6.4,0-11.6-5.2-11.6-11.7l0.2-69.9C244.1,401,249.4,395.8,255.8,395.9z"/>
	<path class="st0" d="M222.3,415.6L222.3,415.6c6.3,1.3,10.3,7.5,9,13.8l-4.8,22.8c-1.3,6.3-7.5,10.3-13.8,9h0
		c-6.3-1.3-10.3-7.5-9-13.8l4.8-22.8C209.8,418.3,216,414.3,222.3,415.6z"/>
	<path class="st0" d="M199.6,384L199.6,384c5.9,2.6,8.6,9.5,6,15.4l-28.1,64c-2.6,5.9-9.5,8.6-15.4,6l0,0c-5.9-2.6-8.6-9.5-6-15.4
		l28.1-64C186.8,384.1,193.7,381.4,199.6,384z"/>
	<path class="st0" d="M189.4,351.7L189.4,351.7c5.3,3.7,6.6,10.9,2.9,16.2l-66.6,95.6c-3.7,5.3-10.9,6.6-16.2,2.9h0
		c-5.3-3.7-6.6-10.9-2.9-16.2l66.6-95.6C176.9,349.3,184.2,348,189.4,351.7z"/>
	<path class="st0" d="M155.2,353L155.2,353c4.5,4.6,4.3,12-0.3,16.5l-50.4,48.4c-4.6,4.5-12,4.3-16.5-0.3l0,0
		c-4.5-4.6-4.3-12,0.3-16.5l50.4-48.4C143.4,348.2,150.8,348.3,155.2,353z"/>
	<path class="st0" d="M119.3,345L119.3,345c3.5,5.4,2,12.6-3.4,16.1l-19.5,12.7c-5.4,3.5-12.6,2-16.1-3.4l0,0
		c-3.5-5.4-2-12.6,3.4-16.1l19.5-12.7C108.6,338.1,115.8,339.6,119.3,345z"/>
	<path class="st0" d="M126.6,308.9L126.6,308.9c2.4,6-0.4,12.8-6.4,15.2l-64.7,26.5c-6,2.4-12.8-0.4-15.2-6.4l0,0
		c-2.4-6,0.4-12.8,6.4-15.2l64.7-26.5C117.3,300.1,124.1,303,126.6,308.9z"/>
	<path class="st0" d="M141.6,278.2L141.6,278.2c1.2,6.3-2.9,12.4-9.2,13.7L18,314c-6.3,1.2-12.4-2.9-13.7-9.2l0,0
		c-1.2-6.3,2.9-12.4,9.2-13.7l114.4-22.2C134.2,267.7,140.3,271.8,141.6,278.2z"/>
	<path class="st0" d="M116.1,255.8L116.1,255.8c0,6.4-5.2,11.6-11.7,11.6l-69.9-0.2c-6.4,0-11.6-5.2-11.6-11.7v0
		c0-6.4,5.2-11.6,11.7-11.6l69.9,0.2C111,244.1,116.2,249.4,116.1,255.8z"/>
	<path class="st0" d="M96.4,222.3L96.4,222.3c-1.3,6.3-7.5,10.3-13.8,9l-22.8-4.8c-6.3-1.3-10.3-7.5-9-13.8l0,0
		c1.3-6.3,7.5-10.3,13.8-9l22.8,4.8C93.7,209.8,97.7,216,96.4,222.3z"/>
	<path class="st0" d="M128,199.6L128,199.6c-2.6,5.9-9.5,8.6-15.4,6l-64-28.1c-5.9-2.6-8.6-9.5-6-15.4l0,0c2.6-5.9,9.5-8.6,15.4-6
		l64,28.1C127.9,186.8,130.6,193.7,128,199.6z"/>
	<path class="st0" d="M160.3,189.4L160.3,189.4c-3.7,5.3-10.9,6.6-16.2,2.9l-95.6-66.6c-5.3-3.7-6.6-10.9-2.9-16.2l0,0
		c3.7-5.3,10.9-6.6,16.2-2.9l95.6,66.6C162.7,176.9,164,184.2,160.3,189.4z"/>
	<path class="st0" d="M159,155.2L159,155.2c-4.6,4.5-12,4.3-16.5-0.3l-48.4-50.4c-4.5-4.6-4.3-12,0.3-16.5l0,0
		c4.6-4.5,12-4.3,16.5,0.3l48.4,50.4C163.8,143.4,163.7,150.8,159,155.2z"/>
	<path class="st0" d="M167,119.3L167,119.3c-5.4,3.5-12.6,2-16.1-3.4l-12.7-19.5c-3.5-5.4-2-12.6,3.4-16.1l0,0
		c5.4-3.5,12.6-2,16.1,3.4l12.7,19.5C173.9,108.6,172.4,115.8,167,119.3z"/>
	<path class="st0" d="M203.1,126.6L203.1,126.6c-6,2.4-12.8-0.4-15.2-6.4l-26.5-64.7c-2.4-6,0.4-12.8,6.4-15.2l0,0
		c6-2.4,12.8,0.4,15.2,6.4l26.5,64.7C211.9,117.3,209,124.1,203.1,126.6z"/>
	<path class="st0" d="M233.8,141.6L233.8,141.6c-6.3,1.2-12.4-2.9-13.7-9.2L198,18c-1.2-6.3,2.9-12.4,9.2-13.7l0,0
		c6.3-1.2,12.4,2.9,13.7,9.2l22.2,114.4C244.3,134.2,240.2,140.3,233.8,141.6z"/>
	<path class="st0" d="M256.2,116.1L256.2,116.1c-6.4,0-11.6-5.2-11.6-11.7l0.2-69.9c0-6.4,5.2-11.6,11.7-11.6h0
		c6.4,0,11.6,5.2,11.6,11.7l-0.2,69.9C267.9,111,262.6,116.2,256.2,116.1z"/>
</g>
</svg>
