<?xml version="1.0" encoding="utf-8"?>
<!-- Generator: Adobe Illustrator 19.2.1, SVG Export Plug-In . SVG Version: 6.00 Build 0)  -->
<svg version="1.1" id="Layer_1" xmlns="http://www.w3.org/2000/svg" xmlns:xlink="http://www.w3.org/1999/xlink" x="0px" y="0px"
	 viewBox="0 0 512 512" style="enable-background:new 0 0 512 512;" xml:space="preserve">
<style type="text/css">
	.st0{fill:#666666;}
</style>
<path class="st0" d="M487.6,159.8c-5.9-9.4-11.2-19.8-14.1-30.4c-7.6-28.3-25.2-42.6-54.3-44.1c-10.2-0.5-21.2-1.5-30.4-5.6
	c-24.3-10.9-49.2-9.3-74.5-6.8c-21.8,2.2-39.2,10.5-52.2,29.3c-6,8.8-16,15.6-25.6,20.9c-19.9,11.1-48.7,68.9-43.7,90.9
	c0.7,3.3,2,6.6,3.5,9.7c21.1,45,50.3,60.4,103.5,52.3c22.3,36.4,29.3,72.8,12.8,113.5c-22.9,0-45.4,0-69.1,0
	c-6.1-18.6-11.7-35.8-17-52.3c10.2-10.2,30.1-13.2,15.6-33.3c-49.2,0-99.3,0-151.8,0c0.9,8.7-0.3,16.1,2.7,21
	c3,4.9,10.1,7.4,15.2,10.7c-6,19.8-11.2,37.1-15.9,52.9c-14.7,2.4-25.7,4.3-36.6,6.1c-0.8,5.2-2.1,8.7-1.6,11.9
	c0.7,4.2,3,8.1,5.2,13.5c120.1-1.4,239.4,3.7,360.9-1.4c-0.6-10.3-1-17.5-1.5-25.6c-20.5-1.3-38.5-2.4-57.9-3.6
	c-6.9-36.1-11.3-69.3,11.3-97.9c15.2,1.4,27.7,3.5,40.2,3.6c30.8,0.2,39.9-7.2,50.7-36.1c3-7.9,8.9-15.3,15-21.3
	C500.8,215.8,504.3,186.5,487.6,159.8z M118.8,390c6.6-21,12.6-39.8,18.7-59c21.1,0,39,0,59.7,0c6.2,19,12.4,37.9,19.4,59
	C183.4,390,153.1,390,118.8,390z M341.1,299.5c-16.1-3.9-19.5-15.1-23.5-34.8c15.1,5,24,8,35,11.6
	C348.1,285.6,344.8,292.2,341.1,299.5z"/>
</svg>
