<?xml version="1.0" encoding="utf-8"?>
<!-- Generator: Adobe Illustrator 19.2.1, SVG Export Plug-In . SVG Version: 6.00 Build 0)  -->
<svg version="1.1" id="Layer_1" xmlns="http://www.w3.org/2000/svg" xmlns:xlink="http://www.w3.org/1999/xlink" x="0px" y="0px"
	 viewBox="0 0 512 512" style="enable-background:new 0 0 512 512;" xml:space="preserve">
<style type="text/css">
	.st0{fill:#666666;}
</style>
<rect x="74.3" y="180.7" class="st0" width="64" height="256"/>
<rect x="374.3" y="180.7" class="st0" width="64" height="256"/>
<rect x="224.3" y="222.7" transform="matrix(6.380656e-11 1 -1 6.380656e-11 661 148.3333)" class="st0" width="64" height="364"/>
<rect x="90.3" y="164.7" transform="matrix(1.682547e-11 1 -1 1.682547e-11 335 90.3333)" class="st0" width="64" height="96"/>
<g>
	<g>
		<path class="st0" d="M196.3,308.7c0,0-0.8-3.8-1.3-10.4c-0.3-3.3-0.4-7.3-0.4-11.9c0-4.5,0.2-9.7,0.7-15.2
			c0.5-5.6,1.2-11.5,2.2-17.8c0.6-3.1,1.1-6.4,1.8-9.6c0.4-1.6,0.7-3.3,1.1-5c0.4-1.7,0.8-3.3,1.2-5c0.4-1.7,0.9-3.4,1.3-5.1
			c0.5-1.7,0.9-3.4,1.5-5.1c1.1-3.4,2.1-6.9,3.4-10.3c1.2-3.4,2.5-6.9,3.9-10.4c1.3-3.5,2.8-6.9,4.4-10.3c3.1-6.8,6.5-13.5,10.1-20
			c0.9-1.6,1.8-3.2,2.8-4.8c0.9-1.6,1.9-3.2,2.8-4.7c1.9-3.1,3.9-6.1,5.9-9.1c1-1.5,2.1-2.9,3.1-4.3c1-1.4,2-2.8,3.1-4.2
			c2.1-2.7,4.2-5.4,6.3-8c4.2-5.1,8.3-9.8,12.4-13.9c1-1,2-2.1,3-3.1c1-1,2-1.9,3-2.8c1.9-1.8,3.8-3.5,5.5-5.2
			c3.6-3.1,6.8-5.8,9.4-7.9c5.5-4.1,8.6-6.5,8.6-6.5l38.3,47.7c0,0-0.5,0.5-1.6,1.5c-1,1-2.5,2.4-4.5,4.3c-1.9,1.9-4.2,4.2-6.8,6.8
			c-2.6,2.7-5.5,5.7-8.6,9.1c-1.6,1.7-3.2,3.4-4.9,5.3c-1.7,1.9-3.4,3.7-5.2,5.8c-1.7,2-3.6,4.1-5.4,6.2c-1.8,2.2-3.7,4.3-5.6,6.6
			c-1.8,2.3-3.8,4.6-5.7,7c-1.9,2.4-3.9,4.8-5.8,7.3c-1.9,2.5-4,4.9-5.9,7.5c-1,1.3-2,2.5-3,3.8c-1,1.3-2,2.6-3,3.9l-3,3.9
			c-1,1.3-2,2.6-3,3.9c-1,1.3-2,2.6-3,3.9c-1,1.3-2,2.6-3,3.9c-4,5.3-7.9,10.4-11.7,15.4c-3.9,5.1-7.6,10-11.2,14.7
			c-3.6,4.8-7.1,9.3-10.3,13.4c-3.2,4.2-6.3,8.1-9,11.5c-2.7,3.5-5.2,6.5-7.2,9c-2,2.5-3.7,4.5-4.8,5.9
			C197,307.9,196.3,308.7,196.3,308.7z"/>
		<g>
			<path class="st0" d="M438.3,76.3C387.8,121.6,329.1,188,299.3,245.6l-3.2-113.2l-74.9-85C282.3,69.2,370.5,77.7,438.3,76.3z"/>
		</g>
	</g>
</g>
</svg>
