<?xml version="1.0" encoding="utf-8"?>
<!-- Generator: Adobe Illustrator 19.2.1, SVG Export Plug-In . SVG Version: 6.00 Build 0)  -->
<svg version="1.1" id="Layer_1" xmlns="http://www.w3.org/2000/svg" xmlns:xlink="http://www.w3.org/1999/xlink" x="0px" y="0px"
	 viewBox="0 0 512 512" style="enable-background:new 0 0 512 512;" xml:space="preserve">
<style type="text/css">
	.st0{fill:#666666;}
</style>
<g>
	<path class="st0" d="M438.4,114c0.1,12.4-4.3,22-11,31.2c-7.5,10.4-14.5,21.2-20.8,32.4c-6.6,11.8-6.6,25-5.4,38.1
		c0.7,8.4,2.3,16.7,3.5,25c3.5,24.2-13.5,46.7-38.6,51.2c-23,4.1-46.8-12.3-51.5-35.6c-2.9-14.8,0.9-27.6,9.9-39.7
		c7.6-10.3,14.4-21.3,20.6-32.5c7.4-13.6,5.9-28.7,4.8-43.5c-0.7-8.5-2.6-17-2.7-25.5c-0.4-24.4,18.1-43.6,43.5-45.6
		C413,67.6,434.5,85.1,438,108C438.3,110.3,438.3,112.7,438.4,114z M338.4,246.5c0,11.6,9.3,21.1,20.6,21.1
		c11.9,0,21.2-9.3,21.2-20.9c-0.1-11.5-9.5-20.9-20.8-20.8C347.7,225.8,338.4,235.1,338.4,246.5z M413.6,115.4
		c0.1-11.9-9.1-21.2-20.9-21.1c-11.5,0-20.9,9.4-20.9,20.8c0,11.5,9.7,21.2,21.3,21C404.3,136,413.5,126.7,413.6,115.4z"/>
	<path class="st0" d="M194.7,354c-5.5,21.6-1.1,40.3,11.4,56.5c-8.4,1.7-17.5,2.2-25.4,5.5c-12.1,5.2-23.9,11.6-34.9,18.8
		c-27.5,17.8-63.2,4.2-70.9-27.7c-6.6-27.1,14.4-55.2,42.3-55.3c9.6,0,19.3,2.9,28.9,4.4c13.7,2.1,27.4,4.4,41.1,0.4
		C189.5,355.8,191.8,355,194.7,354z M119.8,376.2c-11.9,0-21.3,9.1-21.4,20.8c-0.1,11.3,9.5,20.9,20.9,21c11.5,0.1,20.9-9.2,21-20.7
		C140.4,385.6,131.3,376.2,119.8,376.2z"/>
	<path class="st0" d="M303,272.3c-4-0.6-7.5-1.4-11-1.7c-13.7-1.1-26.6,2.4-39.5,6.4c-7.6,2.4-15.1,5.6-22.9,7.1
		c-24.9,4.6-49.9-16.2-51.4-41.6c-1.5-24.1,15-44.4,37.2-48.4c10.8-1.9,21.1-0.1,30.9,5c14.1,7.4,28.7,13.7,44.8,15.5
		c4.8,0.6,9.8,0.1,15.2,0.1C295.9,233.3,294.8,252.4,303,272.3z M224.2,218.2c-11.5-0.2-21,8.8-21.2,20
		c-0.2,11.9,8.7,21.4,20.4,21.8c11.2,0.3,21.1-9.2,21.3-20.6C245,228,235.7,218.4,224.2,218.2z"/>
	<path class="st0" d="M208.2,298.6c20.4,6.8,38-2.4,56.5-8.8c0.4,2.7,0.6,4.8,1,6.9c3,14.1,10.6,26,18.4,37.8
		c3,4.6,6.6,8.9,9.3,13.7c16.3,28.8-0.5,63.5-33.2,68.6c-31.1,4.9-57.8-24.6-50.8-55.6c3.6-15.7,5.3-31.7,2.8-47.8
		C211.6,308.6,209.8,304.1,208.2,298.6z M275,371.6c0.1-11.6-9-21-20.5-21.2c-11.8-0.2-21.2,9-21.4,20.8c-0.2,11.3,9.3,20.9,20.7,21
		C265.3,392.4,274.9,383,275,371.6z"/>
</g>
</svg>
