<?xml version="1.0" encoding="utf-8"?>
<!-- Generator: Adobe Illustrator 19.2.0, SVG Export Plug-In . SVG Version: 6.00 Build 0)  -->
<!DOCTYPE svg PUBLIC "-//W3C//DTD SVG 1.1//EN" "http://www.w3.org/Graphics/SVG/1.1/DTD/svg11.dtd">
<svg version="1.1" id="Layer_1" xmlns="http://www.w3.org/2000/svg" xmlns:xlink="http://www.w3.org/1999/xlink" x="0px" y="0px"
	 viewBox="0 0 512 512" style="enable-background:new 0 0 512 512;" xml:space="preserve">
<style type="text/css">
	.st0{fill:none;stroke:#000000;stroke-width:1;stroke-linecap:round;stroke-linejoin:round;stroke-miterlimit:10;}
</style>
<g id="WDdT7w.tif">
	<g>
		<path vector-effect="non-scaling-stroke" class="st0" d="M199.8,173.6c-9.8-4.3-19-9.9-30.4-9.3c-21.8,1.3-40.3,17.2-41.6,39c-0.4,6.1-4.4,7.3-8.6,9.2
			c-18.5,8.3-30.6,22.3-36,41.7c-9.6,34.7,14.1,71.3,48,77.1c4.2,0.7,8.5,1.3,12.7,1.4c18.2,0.2,36.3,0,54.5,0.1
			c2.4,0,4.7,0.4,7.1,0.7"/>
		<path vector-effect="non-scaling-stroke" class="st0" d="M304.5,333.5c2.4-0.2,4.7-0.7,7.1-0.7c20.7-0.1,41.5,0,62.2,0c25.2-0.1,48.3-19.2,53.7-45.3
			c0.1-0.5-0.1-1,0-1.4c1.2-4,4.2-8.6,3.2-11.9c-4.7-15.7-8.7-31.9-23-42.6c-6.9-5.2-14.3-9.1-22.7-11.2c-3.3-0.8-6.8-0.9-9.8-2.3
			c-1.7-0.8-3.5-3.6-3.5-5.5c0.4-13.5-1.9-26.4-7.2-38.9c-12.6-29.7-35.4-47.9-66.6-52.6c-37-5.5-67.3,8.1-88.4,39.9
			c-1.9,2.8-3.4,6-5.7,8.4c-3.2,3.2-3.3,6.8-2.7,10.7"/>
		<path vector-effect="non-scaling-stroke" class="st0" d="M255,237.3c0,51.6,0,103.3,0,154.9"/>
		<path vector-effect="non-scaling-stroke" class="st0" d="M291.1,266.5c-8.3-8.5-16-17.6-24.9-25.3c-7.2-6.2-18.3-4.7-25.3,2c-7.5,7.1-14.7,14.6-22,21.9"/>
	</g>
</g>
</svg>
